<?xml version="1.0" encoding="UTF-8"?><svg id="b" xmlns="http://www.w3.org/2000/svg" width="151.92" height="123.93" viewBox="0 0 151.92 123.93"><g id="c"><path d="M66.98,6.28c.54.35,1.03.7,1.52,1.04.03.02.09.01.11.04.15.18.29.36.43.55-.18-.08-.37-.13-.53-.24-.39-.25-.76-.53-1.15-.78-.62-.4-1.23-.79-1.86-1.17-.48-.29-.98-.57-1.48-.83-.48-.25-.96-.47-1.45-.7-.04-.02-.07-.03-.11-.04-.51-.16-1.05-.27-1.53-.49-.45-.21-.88-.39-1.38-.34-.34-.55-1.06-.23-1.47-.66-.11-.12-.39-.09-.6-.11-.11-.01-.28.05-.34-.01-.4-.42-.96-.27-1.44-.42-.66-.21-1.32-.44-2.03-.35-1.09-.63-2.35-.12-3.48-.52-.04-.01-.09,0-.13,0-.54-.06-1.08-.14-1.62-.17-.32-.02-.64.07-.97.07-.4,0-.8-.06-1.2-.05-1.03.02-2.06.05-3.09.09-.42.02-.83.12-1.24.14-1.26.04-2.52.06-3.79.09-.1,0-.22,0-.28.05-.19.17-.35.37-.53.55.22.18.43.49.66.51.79.05,1.43.38,2.07.79.51.33,1.06.59,1.58.89.11.06.2.17.28.28.07.09.1.2.15.31-.13-.02-.27-.02-.39-.07-.94-.42-1.87-.86-2.82-1.26-.28-.12-.61-.13-.91-.21-.69-.19-1.36-.42-2.05-.6-.28-.07-.58-.05-.87-.1-.24-.04-.55-.04-.69-.19-.26-.27-.45-.08-.67-.01-.13.04-.24.17-.36.17-.57.03-1.11.19-1.67.26-.73.1-1.34.41-1.98.7-.11.05-.22.14-.33.15-.6.04-1,.46-1.49.71-.09.05-.19.1-.3.12-.53.15-1.09.23-1.59.45-.55.24-1.06.59-1.58.9-.11.06-.19.16-.3.21-.31.13-.66.18-.93.36-.91.61-1.81,1.25-2.69,1.89-.51.37-1,.74-1.48,1.15-.31.26-.51.67-.84.88-.67.43-.82,1.22-1.34,1.77-.5.53-.78,1.28-1.13,1.95-.22.43-.54.89-.52,1.33.03.72-.55,1.28-.4,1.99,0,.05-.01.12-.05.15-.62.62-.17,1.4-.29,2.09-.03.18.35.24.55.07.38-.32.74-.65,1.13-.95.25-.19.54-.3.8-.47.39-.25.79-.5,1.14-.8.43-.37.9-.64,1.44-.84.51-.2.95-.57,1.43-.84.44-.25.91-.46,1.36-.7.52-.28,1.03-.59,1.56-.86.49-.25,1-.46,1.49-.7.94-.46,1.99-.66,2.85-1.3.12-.09.23-.21.37-.26.27-.11.56-.2.85-.26.42-.09.76-.33,1.14-.51.5-.23,1.16-.18,1.57-.49.55-.42,1.27-.14,1.77-.59.12-.11.41,0,.57-.08.71-.39,1.49-.44,2.26-.52.28-.03.57-.19.79-.37.35-.27.74-.26,1.13-.31.15-.02.3-.05.44-.09.71-.2,1.42-.44,2.14-.59.47-.1.96-.09,1.44-.1.81-.02,1.62.05,2.39-.33.26-.13.6-.1.91-.11.5-.02,1,.05,1.49-.02.57-.08,1.21.19,1.72-.27.07-.06.21-.06.32-.06,2.36,0,4.72,0,7.08,0,.17,0,.36.05.51.13.44.24.88.3,1.36.13.11-.04.25.02.37.03.56.05,1.13.09,1.69.14.07,0,.14,0,.21.03.53.19,1.05.4,1.59.58.26.09.54.2.79.16.64-.11,1.13.32,1.71.41.55.08,1.15.15,1.6.42.44.27.95.2,1.33.45.3.2.58.28.92.32.15.02.29.28.41.44.02.03-.06.19-.1.2-.09.01-.2-.04-.29-.07-.09-.04-.23-.15-.26-.12-.09.07-.22.23-.19.29.22.57-.12,1.09-.1,1.63.01.28.03.56.09.83.12.54.84.73,1.24.35.09-.08.21-.14.3-.22.16-.14.28-.34.54-.2-.14.23.02.56-.35.72-.53.24-.79.74-.95,1.28-.14.45-.46.86-.35,1.38-.57.57-.42,1.38-.73,2.04-.03.07-.05.16-.05.24-.07,1.12.07,2.24-.14,3.37-.12.62.09,1.31.14,1.96.01.18,0,.36,0,.54,0,.26-.1.2-.22.07-.03-.03-.07-.06-.09-.09-.41-.53-.8-.58-1.31-.15-.16.13-.23.19-.41.02-.1-.1-.3-.1-.46-.13-.87-.14-1.23-.86-1.69-1.48-.5-.67-.97-1.35-1.81-1.72-.82-.36-1.56-.92-2.35-1.35-.43-.23-.91-.38-1.37-.58-.47-.2-.92-.44-1.39-.62-.24-.09-.51-.11-.76-.16-.11-.02-.21-.05-.31-.09-.51-.2-1.02-.41-1.52-.62-.59-.24-1.18-.5-1.78-.73-.1-.04-.23,0-.33-.04-.61-.17-1.23-.32-1.82-.53-.44-.16-.84-.43-1.27-.59-.6-.21-1.22-.33-1.82-.54-.41-.15-.79-.4-1.19-.58-.21-.09-.45-.21-.66-.18-.54.08-.93-.26-1.33-.48-.41-.22-.79-.32-1.22-.32-.25,0-.51.04-.7-.22-.07-.09-.27-.13-.42-.12-.76.03-1.48-.15-2.21-.33-.45-.11-.96-.03-1.44-.03-1.17,0-2.35,0-3.52,0-.18,0-.36.11-.53.18-.11.04-.23.16-.33.14-.54-.09-.75.32-1.04.62-.25.25-.18.39.13.53.29.14.62.29.81.53.46.56,1.13.76,1.72,1.1.46.26.91.54,1.35.83.57.38,1.13.78,1.69,1.16.18.12.39.22.54.37.71.79,1.6,1.35,2.43,1.99.65.51,1.26,1.07,1.89,1.62.31.27.63.53.91.83,1.24,1.29,2.55,2.52,3.63,3.96.61.82,1.34,1.55,1.97,2.35.43.55.76,1.16,1.15,1.74.41.6.84,1.18,1.25,1.78.29.42.62.82.72,1.35.04.21.24.39.35.59.23.44.44.89.68,1.32.16.28.42.52.57.81.14.27.2.58.29.88.06.18.15.35.17.54.02.21,0,.44-.04.65-.04.21-.2.4-.2.61,0,.33-.2.42-.44.43-.69.02-1.39.04-2.08-.02-.19-.02-.46-.27-.51-.47-.14-.54-.59-.79-.93-1.13-.09-.09-.45-.02-.62.08-.37.22-.71.48-1.03.76-.17.16-.24.42-.38.62-.18.26-.1.44.13.6-.06.08-.13.24-.18.23-.58-.04-1.05.2-1.57.41-.63.26-1.35.31-2.02.48-.27.07-.51.22-.77.34-.64.3-1.3.57-1.93.91-.46.24-.61,1.04-.36,1.5.12.23.18.51.25.76.02.05-.02.12,0,.17.23.47.49.93.69,1.41.2.49.34,1.02.53,1.52.16.41.39.79.55,1.2.21.54.37,1.09.58,1.63.12.31.33.59.47.89.26.6.48,1.22.75,1.82.31.7.66,1.38.97,2.07.19.41.33.85.5,1.27.34.84.7,1.68,1.03,2.52.08.21.1.45.19.66.15.36.33.7.49,1.06.22.49.42.98.63,1.48,0,.01,0,.03,0,.04.2.48.41.96.6,1.45.21.55.4,1.11.62,1.65.13.34.3.66.45.99.09.2.16.4.25.59.12.25.28.49.39.75.14.32.23.66.38.97.17.35.4.67.56,1.03.13.29.23.61.28.92.02.14-.11.3-.17.45-.2-.11-.56-.2-.57-.32-.05-.87-.78-1.42-1-2.2-.09-.34-.38-.62-.54-.95-.07-.14-.02-.34-.08-.49-.12-.32-.28-.63-.42-.95-.46-1.07-.93-2.13-1.38-3.21-.23-.54-.39-1.11-.62-1.66-.18-.45-.42-.87-.61-1.31-.16-.35-.28-.72-.43-1.08-.23-.57-.48-1.13-.71-1.7-.3-.76-.58-1.53-.9-2.28-.22-.53-.52-1.03-.73-1.57-.22-.58-.38-1.17-.76-1.69-.27-.38-.37-.88-.56-1.33-.32-.78-.64-1.56-.97-2.33-.25-.59-.55-1.16-.79-1.76-.17-.44-.23-.92-.42-1.34-.23-.5-.52-.98-.83-1.43-.06-.08-.36-.1-.48-.03-.83.49-1.65,1.01-2.34,1.7-.16.16-.42.2-.59.35-.28.26-.5.57-.77.84-.34.34-.73.64-1.05.99-.22.24-.38.53-.56.81-.31.49-.62.99-.93,1.48-.05.07-.13.12-.19.18-.05-.08-.15-.16-.14-.23.05-.28.14-.55.22-.82.02-.06.12-.12.11-.17-.1-.79.47-1.28.85-1.82.84-1.21,1.82-2.3,3.12-3.07.58-.34,1.12-.73,1.66-1.14.32-.25.35-.53.1-.93-.28-.46-.4-1.02-.6-1.53-.18-.45-.37-.89-.56-1.33-.04-.09-.12-.16-.13-.25-.08-.58-.48-.99-.73-1.48-.19-.4-.33-.82-.5-1.23-.23-.57-.45-1.15-.71-1.7-.26-.53-.71-1.01-.81-1.57-.12-.64-.49-1.11-.73-1.66-.08-.18-.05-.41-.12-.6-.14-.36-.34-.7-.49-1.06-.11-.25-.16-.51-.27-.75-.34-.73-.69-1.45-1.04-2.18-.03-.07-.07-.15-.08-.23-.08-.57-.35-1.05-.69-1.5-.04-.05-.07-.12-.09-.18-.18-.48-.32-.97-.53-1.43-.42-.94-.69-1.95-1.34-2.79-.2-.26-.31-.6-.38-.92-.05-.25-.11-.51-.37-.43-.21.06-.43.32-.49.53-.1.34-.07.72-.11,1.09-.08.8.11,1.63-.33,2.4-.11.19-.02.48-.02.73,0,1.09,0,2.18,0,3.27,0,.74-.04,1.48.28,2.19.05.12.07.27.07.41,0,.87,0,1.74,0,2.61,0,.18,0,.39.09.52.3.46.24.96.25,1.46,0,.12.05.24.07.36.15.72.21,1.47.47,2.15.2.55.31,1.07.34,1.65.02.27.21.56.4.78.31.36.29.78.37,1.2.08.44.25.87.29,1.31.07.76.43,1.38.73,2.05.16.37.08.83.12,1.26.01.16,0,.38.1.47.32.31.3.7.33,1.09.02.27-.03.54.24.74.08.06.1.25.11.38.02.23-.03.47.01.69.1.66-.34,1.11-.62,1.61-.2.36-1.1.31-1.58,0-.46-.31-.93-.6-1.41-.89-.12-.07-.29-.09-.44-.09-.29,0-.52-.09-.78-.23-.34-.19-.76-.26-1.14.05-.14.11-.35.13-.53.18-.07.02-.17-.03-.21,0-.59.5-.94-.07-1.29-.34-.36-.29-.69-.47-1.17-.45-1.03.04-2.06,0-3.08.02-.24,0-.48.16-.72.23-.27.08-.56.13-.83.19-.22.05-.45.11-.67.17-.67.19-1.3.5-2,.63-.45.08-.85.38-1.28.57-.21.1-.43.16-.62.28-.65.44-1.22.95-1.54,1.69-.03.06-.2.14-.24.11-.16-.11-.37-.23-.43-.39-.38-1.16-.84-2.27-1.86-3.05-.98-.75-1.93-1.54-2.95-2.23-.89-.6-1.86-1.09-2.8-1.62-1.23-.68-2.58-.64-3.92-.6-.61.02-.66.03-.66-.58,0-1.04-.02-2.09,0-3.13,0-.41.11-.82.16-1.23.01-.12-.02-.25-.04-.37-.09-.73-.1-1.45.04-2.18.09-.46.15-.93.17-1.4.03-.6-.01-1.19.34-1.73.1-.16.1-.39.13-.59.11-.69.2-1.39.31-2.09.11-.63.24-1.26.36-1.89.03-.18.07-.36.07-.54,0-.38.01-.73.25-1.07.14-.2.14-.49.19-.74.08-.44.25-.83.57-1.16.06-.06.12-.16.12-.25.06-.93.64-1.65,1.01-2.45.07-.14.09-.31.13-.47.14-.67.56-1.2.95-1.73.35-.48.84-.92.97-1.46.17-.67.8-.89,1.06-1.44.12-.24.26-.48.43-.69.5-.63,1-1.27,1.53-1.88.46-.53.93-1.04,1.44-1.52.51-.48,1.07-.9,1.6-1.36.16-.14.25-.35.41-.48.74-.62,1.5-1.21,2.24-1.82.47-.39.92-.79,1.38-1.19.46-.4,1.08-.53,1.5-1.03.22-.26.67-.31,1-.48.22-.11.44-.24.61-.4.44-.42.99-.6,1.52-.84.61-.27,1.16-.71,1.78-.95.73-.29,1.35-.84,2.18-.95.34-.04.72-.21.98-.44.5-.43,1.14-.49,1.71-.72.92-.37,1.85-.72,2.78-1.04.62-.22,1.28-.34,1.89-.57.76-.3,1.55-.34,2.34-.43.16-.02.31-.1.46-.14.32-.07.64-.15.96-.2.2-.03.43.05.6-.02.75-.29,1.53-.32,2.32-.39.67-.06,1.33-.31,2.01-.37.59-.05,1.19.09,1.79.06.76-.04,1.52-.16,2.28-.25.14-.02.31-.05.43,0,.58.28,1.2.13,1.8.17.42.03.86.13,1.26.07.93-.13,1.78.12,2.66.35.34.09.72,0,1.08.02.22.02.44.13.66.18.27.06.55.09.83.14.63.12,1.26.24,1.89.37.78.17,1.57.31,2.34.53.56.16,1.09.43,1.65.62.55.19,1.12.31,1.66.5.35.13.67.34,1,.51.13.07.28.11.41.17.57.3,1.2.44,1.75.82.51.36,1.14.54,1.68.86.45.27.86.61,1.33.92M18.73,19.05c-.35.24-.71.46-1.05.71-.93.69-1.86,1.38-2.78,2.09-.64.49-1.27,1-1.88,1.54-.6.53-1.17,1.09-1.74,1.65-.39.39-.75.82-1.14,1.22-.45.44-.93.85-1.37,1.3-.18.19-.27.47-.44.68-.31.37-.67.7-.97,1.07-.42.53-.8,1.09-1.2,1.63-.33.44-.71.86-1.01,1.32-.5.77-.98,1.56-1.44,2.36-.35.62-.66,1.26-.95,1.91-.24.52-.45,1.06-.66,1.59-.17.45-.52.81-.56,1.34-.03.42-.21.83-.31,1.26-.08.35-.21.72-.15,1.05.06.32,0,.5-.19.74-.22.26,0,.52.2.6.24.09.62.12.79,0,.44-.35.95-.15,1.4-.29.13-.04.31.07.46.12.32.1.64.21.96.3.09.03.22-.03.3.01.71.44,1.63.48,2.22,1.16.11.13.29.2.43.31.55.44,1.11.88,1.65,1.34.43.37.83.78,1.24,1.18.09.08.16.18.24.28.68.83,1.35,1.67,2.04,2.5.23.27.6.26.85.02.07-.07.14-.14.23-.19.68-.41,1.38-.8,2.05-1.24.2-.13.58-.33.33-.67-.34-.46-.55-.96-.69-1.5-.04-.14-.01-.36-.1-.43-.29-.22-.27-.5-.28-.81,0-.15-.1-.3-.17-.45-.05-.12-.18-.25-.16-.36.13-.77-.39-1.35-.54-2.04-.02-.07-.2-.12-.31-.14-.05,0-.12.08-.18.12-.03-.09-.08-.17-.1-.26-.09-.41.19-.74.24-1.11.1-.78.08-1.58.11-2.38.01-.36.11-.68.23-1.03.25-.74.09-1.57.44-2.34.23-.52.11-1.19.22-1.78.1-.58.27-1.16.43-1.73.19-.66.42-1.3.6-1.97.14-.52.09-1.09.63-1.44.1-.06.11-.26.16-.41.15-.5.26-1.02.44-1.51.21-.56.47-1.11.73-1.65.16-.34.35-.67.55-.99.37-.56.76-1.1,1.13-1.66.39-.6.8-1.2,1.13-1.83.29-.57.48-1.19.71-1.79,0-.03,0-.06,0-.09.04-.17.09-.34.13-.51.03-.12.05-.24.08-.36-.18-.02-.38-.11-.52-.05-.4.19-.77.44-1.16.67-.31.18-.64.35-.94.56-.12.08-.19.24-.32.4M14.51,15.09c.35-.32.39-.72.36-1.18-.02-.3.1-.62.16-.93.05-.27.13-.53.16-.8.01-.08-.07-.23-.15-.26-.08-.03-.23,0-.31.07-.5.42-.98.85-1.47,1.29-.2.18-.4.36-.59.55-.21.22-.42.44-.62.67-.07.08-.11.21-.19.27-.76.55-1.35,1.27-1.89,2.03-.67.94-1.39,1.85-2.05,2.8-.34.5-.61,1.05-.9,1.58-.27.49-.53,1-.8,1.49-.11.2-.29.37-.41.57-.18.31-.34.64-.51.96-.05.08-.15.14-.18.23-.17.52-.32,1.05-.49,1.58-.09.27-.22.52-.29.79-.11.43-.48.75-.46,1.25.02.36-.15.72-.2,1.08-.06.46-.09.93-.12,1.4,0,.03.23.12.26.09.35-.39.7-.8,1.03-1.21.12-.16.17-.37.3-.52.41-.49.84-.96,1.25-1.44.4-.45.79-.91,1.19-1.37.45-.51.9-1.02,1.35-1.52.3-.34.61-.67.92-1,.07-.07.14-.15.22-.21.3-.25.6-.5.91-.74.53-.41,1.06-.8,1.59-1.2.2-.15.38-.35.61-.42.61-.19.75-.66.79-1.2.03-.51-.11-1.06.03-1.53.19-.64-.07-1.35.39-1.94.13-.16.01-.51.02-.77,0-.12.05-.24.08-.44M47.96,30.47c.37.4.73.8,1.11,1.19.26.27.65.49.76.8.2.53.58.88.95,1.26.39.39.8.78,1.23,1.13.12.1.36.05.55.05.03,0,.1-.13.09-.17-.17-.31-.35-.61-.55-.9-.24-.34-.49-.67-.75-.99-.7-.86-1.4-1.7-2.1-2.56-.3-.36-.56-.75-.85-1.12-.34-.43-.67-.86-1.02-1.27-.23-.27-.5-.51-.75-.76-.06-.06-.12-.12-.19-.18-.34-.29-.71-.55-1.02-.87-.32-.34-.56-.76-.87-1.11-.18-.2-.44-.31-.7-.1-.29.23-.06.42.08.59.25.3.53.59.79.89.32.37.67.72.93,1.13.21.32.28.7.7.88.2.08.32.34.47.53.37.51.74,1.02,1.15,1.58M25.54,14.92c-.63.31-1.25.61-1.87.92-.2.11-.39.25-.57.4-.27.21-.24.59.08.63.46.06.99.12,1.38-.06.6-.28,1.11-.76,1.64-1.17.46-.36,1.12-.34,1.54.07.05.05.2.1.23.07.28-.27.65-.5.53-.99-.05-.21-.02-.46-.1-.65-.06-.13-.28-.32-.37-.29-.43.14-.84.35-1.25.53-.2.08-.4.15-.6.23-.2.08-.39.17-.63.3M17.21,29.25c-.08.23-.16.45-.24.68-.06.18-.12.35-.19.53-.06.16-.12.33-.21.48-.18.3-.49.57-.55.89-.09.49-.03,1.01-.02,1.51,0,.07.13.14.2.21.3-.34.71-.1,1.05-.18.09-.02.23-.04.26-.1.17-.35.52-.63.39-1.09-.07-.25-.12-.5-.16-.75-.02-.1-.01-.24.04-.32.38-.56.15-1.19.19-1.78,0-.12-.17-.33-.3-.37-.16-.05-.5-.29-.47.29M27.72,46.97c.05.71-.33,1.61.81,1.85.02,0,.04.06.06.06.28-.02.6.03.84-.08.3-.15.01-.38-.06-.56-.22-.52-.13-1.14-.52-1.61.11-.92-.54-1.74-.37-2.68.02-.12-.25-.34-.42-.43-.07-.04-.37.14-.36.21,0,.21.12.41.18.63.04.13.08.28.06.41-.05.26-.18.52-.2.78-.03.45,0,.9,0,1.43M40.36,21.31c-.51-.47-1-.96-1.53-1.41-.12-.1-.34-.07-.51-.11,0,.17-.08.39,0,.49.41.54.83,1.09,1.31,1.57.32.32.74.57,1.14.8.16.09.41.05.61.08,0-.2.02-.4-.02-.59-.11-.5-.62-.55-1-.83M20.68,45.85c0-.23.06-.48-.02-.69-.07-.19-.25-.42-.42-.47-.24-.07-.34.16-.35.4,0,.25-.06.49-.08.74-.02.33,0,.64-.22.96-.13.19-.11.61.02.82.22.36.62.31,1.01.2.39-.11.48-.3.33-.66-.16-.39-.36-.78-.27-1.31M65.5,15.88c.37.53.79,1.03.88,1.71,0,.06.26.17.29.14.18-.15.45-.35.45-.53,0-.31.25-.68-.18-.95-.35-.22-.63-.56-.95-.84-.18-.16-.36-.31-.54-.45-.25-.2-.32,0-.29.17.05.24.19.47.34.74M42.57,41.76c0-.26.07-.34.36-.26.44.13.85.08,1.19-.31.17-.2.06-.28-.06-.37-.24-.18-.95-.03-1.14.21-.09.11-.25.23-.39.24-.31.01-.62-.1-.92-.05-.17.03-.33.26-.45.42-.02.03.11.22.21.29.18.13.97.03,1.21-.17M60.94,9.14c.22.07.43.14.65.21.12.04.28.12.35.08.12-.09.22-.25.25-.4.01-.06-.19-.17-.3-.23-.17-.1-.34-.24-.53-.28-.35-.07-.72-.09-1.08-.09-.08,0-.16.15-.25.22.1.08.18.17.29.23.17.1.36.18.62.26M46.52,8.88c.23.37.61.31.92.24.17-.04.41-.34.4-.52-.01-.26-.31-.27-.55-.24-.15.02-.29.09-.44.08-.31-.02-.42.1-.33.44M35.4,18.09c.27-.24.13-.5-.06-.64-.14-.11-.4-.07-.6-.09,0,.22-.07.5.04.65.08.12.38.08.63.07Z" fill="#aad037" stroke-width="0"/><path d="M88.98,55.86c.41.35.79.68,1.18,1.01.05.05.13.09.15.15.26.77,1.01,1.06,1.56,1.54.14.12.37.16.57.18.35.03.69,0,1.04,0,.91.02,1.83.06,2.74.08.41.01.82-.02,1.23.01.19.02.36.19.55.24.52.15.85-.27,1.22-.5.6-.39,1.15-.85,1.74-1.27.11-.08.28-.12.42-.12.38-.02.75,0,1.13,0,.34,0,.65,0,.95.24.12.1.43.03.62-.05.36-.15.69-.37,1.04-.54.54-.27,1.09-.58,1.73-.43.24.06.51.15.69.3.46.38.87.83,1.33,1.21.13.11.4.17.54.1.13-.06.21-.32.22-.5.05-.9.44-1.62,1.12-2.19.11-.09.28-.16.41-.15.58.05,1.2-.19,1.73.23.04.03.15-.03.23-.02.24.03.47.06.71.1.13.02.26.12.39.11.52-.07.92.23,1.34.45.64.34,1.25.73,1.72,1.31.53.66,1.03,1.32,1.37,2.12.24.56.49,1.17,1.3,1.28.44.06.84.41,1.26.61.08.04.19.03.28.05.14.04.35.05.41.14.23.36.47.73.6,1.14.15.47.56.53.89.71.5.28,1.04.51,1.53.81.29.17.54.42.76.67.4.46.63,1.02.87,1.59.29.68.23,1.38.38,2.06.07.34-.04.72-.07,1.09,0,.1-.04.24,0,.3.56.59.28,1.32.34,1.99.03.37,0,.72.25,1.08.23.32.29.77.46,1.15.1.23.04.35-.1.55-.25.36-.39.79-.61,1.18-.52.92-.43,1.92-.43,2.91,0,.67.18,1.3.63,1.83.1.11.13.3.15.46.02.32.04.64,0,.95-.03.26-.13.52-.22.78-.15.43-.31.86-.47,1.28-.17.45-.6.62-.98.78-.57.25-.76.57-.62,1.16.09.38.16.77.25,1.15.07.31-.25.81-.54,1.07-.28.25-.45.45-.56.82-.12.39-.38.74-.31,1.17.04.22.17.42.28.62.03.06.14.08.2.13.8.56.8.71.14,1.41-.36.38-.66.82-.97,1.25-.07.1-.07.26-.09.39-.01.11.05.28-.01.34-.36.34-.29.81-.42,1.22-.05.16-.24.28-.37.41-.51.52-1.08.99-1.53,1.56-.32.41-.46.96-.72,1.43-.11.21-.31.36-.6.32-.49-.07-.79.33-1.17.52-.14.07-.3.15-.45.17-.86.1-1.72.19-2.58.26-.24.02-.5-.05-.75-.08-.48-.06-.97-.19-1.45-.15-.59.05-.97-.33-1.44-.54-.33-.15-1.23-.28-1.52-.05-.23.18-.41.21-.63,0-.26-.24-.53-.1-.8.01-.2.08-.41.19-.61.19-1.01.02-2.03,0-3.04,0-.25,0-.46.09-.7.2-.49.23-.82.62-1.24.9-.41.28-.85.56-1.42.57-.58.02-1.16.18-1.72.34-.21.06-.45.27-.53.47-.23.61-.79,1.02-.92,1.71-.07.37-.43.68-.63,1.04-.1.17-.11.4-.23.56-.41.58-.98.87-1.7.91-.17,0-.33.11-.5.16-.19.06-.39.19-.58.17-.38-.05-.59.17-.78.42-.28.37-.58.74-.8,1.14-.29.52-.56,1.06-.58,1.67-.01.39-.11.7-.41.97-.46.4-.9.83-1.34,1.25-.44.42-.86.85-1.29,1.28-.48.48-1.07.45-1.68.44-.51-.01-1.02.1-1.53.14-.24.02-.48.03-.71,0-.44-.07-.89-.14-1.32-.26-.48-.14-.95-.29-1.4-.5-.84-.39-1.65-.83-2.48-1.25-.02-.01-.04-.06-.06-.06-.7,0-1.4-.04-2.1,0-.68.04-1.35.16-2.02.25-.18.02-.36.05-.53.09-.43.11-.95.12-1.27.37-.63.49-1.6.53-1.93,1.4-.12.32-.23.66-.26.99-.05.61-.41,1.03-.83,1.39-.4.34-.85.57-1.42.46-.13-.03-.31.03-.43.11-.68.45-2.11.33-2.64-.28-.13-.15-.19-.38-.24-.59-.06-.24-.04-.5-.1-.74-.09-.38-.57-.57-.96-.55-.82.04-1.35.56-1.94,1-.39.29-.75.62-1.16.88-.21.13-.5.16-.75.16-.81.02-1.62,0-2.43,0-.89,0-1.78-.02-2.66.01-.27,0-.53.18-.81.24-.41.08-.82.12-1.23.19-.84.14-1.7.25-2.52.45-.54.13-1.05.41-1.57.61-.37.15-.75.3-1.13.41-.24.07-.69-.32-.8-.74-.1-.37-.1-.77-.19-1.14-.08-.32-.19-.65-.36-.93-.09-.15-.33-.24-.51-.3-.35-.11-.76-.34-1.05-.24-.75.26-1.61.01-2.28.57-.31.26-.65.42-.6.95.02.22-.32.5-.55.7-.41.36-.69.78-.9,1.28-.21.5-.34,1-.38,1.55-.01.2-.39.49-.64.54-.42.08-.93.14-1.28-.04-.37-.19-.68-.14-1.01-.1-.45.05-.88.21-1.33.24-.8.06-1.61.1-2.41.09-.73-.01-1.46-.18-2.19-.14-.63.03-1.28.04-1.89.36-.52.27-1.1.46-1.67.56-.58.09-.78-.22-.84-.81-.08-.69.15-1.27.58-1.76.2-.23.51-.37.77-.54.59-.38,1.18-.74,1.65-1.28.46-.53.28-1.28-.39-1.5-.4-.13-.88-.21-1.17-.39-.53-.33-1.14-.34-1.66-.63-.5-.27-.94-.55-1.33-.99-.41-.47-.37-.99-.4-1.49-.03-.53-.02-1.11.18-1.58.36-.84.1-1.72.32-2.56.03-.11-.01-.25-.06-.36-.12-.26-.25-.51-.4-.75-.15-.24-.79-.3-1.08-.07-.41.32-.8.32-1.22.03-.13-.09-.3-.13-.46-.15-1-.09-1.55-.89-1.41-1.87.07-.46-.09-.95-.18-1.43-.05-.28-.2-.54-.21-.82-.02-.57-.05-1.13-.33-1.65-.03-.06-.02-.14-.03-.21-.03-.87-.07-1.74-.08-2.61-.01-1.02,0-2.04-.01-3.05,0-.21-.12-.41-.16-.62-.07-.31-.06-.66-.2-.91-.27-.46-.36-.95-.49-1.45-.09-.36-.27-.7-.44-1.03-.37-.7-.34-.94.16-1.59.17-.22.25-.5.36-.76.07-.15.08-.34.18-.44.46-.47.26-1.02.2-1.53-.08-.73-.41-1.42-.4-2.18.01-.59.27-1.08.57-1.5.42-.59.95-1.16,1.56-1.55.54-.34.81-.86,1.22-1.28.99-.99,2.14-1.77,3.29-2.54.08-.05.18-.12.22-.2.44-.93,1.41-1.25,2.12-1.88.29-.26.64-.47.98-.68.6-.37,1.21-.71,1.82-1.07.17-.1.3-.26.47-.35.52-.27,1.05-.54,1.59-.78.6-.26,1.23-.45,1.83-.71.22-.1.41-.28.59-.46.42-.4.73-.41,1.23-.12.32.19.69.28,1.04.42.15.06.3.12.43.21.46.31.95.29,1.42,0,.51-.32,1.06-.59,1.58-.9.2-.12.35-.33.56-.45.49-.27,1-.52,1.52-.73.13-.05.33.06.49.1-.09.12-.16.27-.28.35-.96.62-1.92,1.24-2.88,1.85-.64.4-1.29.79-1.95,1.16-.16.09-.44.13-.58.05-.51-.31-.95-.69-1.55-.89-.29-.09-.55-.22-.86-.22-.34,0-.69-.07-.93.29-.05.07-.19.12-.29.12-.82.05-1.37.68-2.08.96-.41.16-.8.38-1.19.58-.08.04-.22.04-.26.1-.53.77-1.48.98-2.12,1.63-.37.37-.95.53-1.34.93-.28.28-.57.55-.87.81-.32.27-.67.51-.97.81-.67.68-1.57,1.11-2.09,1.97-.11.19-.4.27-.6.42-.16.12-.3.25-.45.38-.37.32-.75.63-1.12.96-.27.24-.4.58-.58.88-.44.73-.24,1.48-.3,2.23,0,.08,0,.18.04.24.48.68.27,1.45.29,2.18,0,.17-.16.37-.3.52-.47.5-.51.87-.08,1.37.09.1.26.18.39.18.35,0,.7-.02,1.05-.08.33-.06.65-.21.98-.24.55-.06,1.1-.09,1.66-.09.73,0,1.5-.07,2.18.12.57.16,1.11.27,1.69.32.92.08,1.51-.52,1.4-1.39-.03-.24,0-.47.29-.53.14-.03.31-.03.44.01.05.02.04.21.05.33,0,.03,0,.06,0,.09.2,1.14-.63,1.68-1.35,2.25-.44.35-1,.55-1.45.88-.29.22-.45.59-.72.86-.52.52-.78,1.24-1.44,1.67-.52.34-.6,1-.49,1.59.03.16.31.35.5.38.37.06.76,0,1.14.02.42.02.84.03,1.2.36.13.11.41.09.61.06.3-.03.39.17.41.36,0,.07-.27.25-.41.24-.71-.03-1.43-.11-2.14-.17-.4-.03-.8-.08-1.2-.07-.61,0-.88.43-.72,1.03.11.41.14.84.24,1.25.08.34.21.67.29,1.01.17.74.32,1.49.49,2.23.03.11.09.22.16.32.11.17.31.32.04.52-.03.02-.03.11-.03.16.08.44.18.88.24,1.33.04.34.28.46.51.38.21-.07.45-.29.52-.5.11-.31.08-.66.11-1,0-.06-.02-.13,0-.17.28-.41.56-.82.87-1.2.07-.09.27-.09.4-.13-.02.11-.02.24-.07.34-.1.19-.23.37-.34.55-.06.09-.16.18-.17.28-.02.38-.02.76,0,1.14,0,.32.24.41.5.35.22-.05.4-.23.62-.28.39-.08.79-.1,1.19-.12.03,0,.12.17.1.24-.01.07-.13.16-.2.16-.22,0-.45-.04-.67-.05-.1,0-.21.02-.29.08-.03.02,0,.18.05.24.17.18.36.34.54.53.07.07.1.18.15.27-.1.05-.21.17-.3.15-.68-.1-1.41-.04-1.87-.72-.15-.22-.29-.21-.55,0-.69.54-.83,1.2-.75,2.01.07.71.09,1.42.09,2.13,0,.86.14,1.74-.31,2.56-.04.08.25.38.43.54.23.21.5.38.76.57.09.06.17.15.27.18.4.11.82.19,1.22.31.18.05.35.16.49.29.41.4,1.02.26,1.34-.18.13-.18.4-.29.63-.36.18-.06.41-.04.6,0,.48.07.76-.15.99-.54.16-.26.16-.45-.07-.63-.18-.14-.17-.25,0-.37.36-.25.72-.49,1.08-.74.03-.02.07-.05.1-.08.15-.17.3-.34.45-.51-.21-.09-.43-.25-.64-.25-.76,0-1.51.04-2.27.08-.24.01-.54.02-.55-.26-.01-.28.18-.55.51-.61.22-.04.45-.04.66-.1.11-.03.29-.2.28-.25-.05-.13-.17-.27-.29-.35-.22-.14-.52-.2-.7-.38-.56-.56-1.07-1.17-1.6-1.76-.05-.06-.06-.15-.08-.22.09-.02.21-.1.25-.06.33.24.66.5.96.77.44.4.85.82,1.28,1.23.08.07.18.12.27.19.4.33,1.27.28,1.62-.12.08-.09.13-.26.12-.37,0-.06-.22-.16-.31-.13-.52.16-.85-.27-1.28-.38-.04,0-.08-.32-.02-.36.39-.29.83-.53,1.22-.82.17-.13.28-.34.42-.51-.12-.08-.25-.24-.34-.23-.22.04-.41.21-.63.25-.43.07-.87.1-1.31.11-.04,0-.16-.24-.13-.29.12-.18.27-.41.45-.45.63-.16,1.17-.48,1.71-.81.21-.13.4-.33.55-.52.16-.2,0-.56-.25-.6-.3-.04-.61-.09-.92-.08-.35,0-.66-.02-.94-.27-.09-.08-.26-.06-.4-.09-.19-.04-.35-.09-.14-.32.19-.22.33-.48.53-.69.1-.11.29-.2.43-.2.31.02.51-.07.63-.36.03-.08.07-.16.11-.24-.09-.04-.17-.1-.26-.1-.29-.01-.58,0-.87,0-.11,0-.22-.05-.33-.08.09-.12.15-.27.26-.34.23-.14.59-.18.69-.37.15-.28.12-.66.16-1-.08.04-.23.07-.24.13-.09.44-.43.65-.77.88-.13.09-.2.25-.33.34-.13.08-.29.11-.44.17-.04-.11-.14-.25-.1-.34.04-.11.19-.17.28-.26.16-.16.37-.29.47-.48.15-.26.85-.66,1.15-.6.21.05.41.08.62.1.05,0,.14-.06.15-.11.04-.38.11-.76.08-1.14-.04-.62-.6-.86-.98-1.23-.02-.02-.07-.02-.08-.01-.22.27-.47.51-.64.81-.06.12.04.37.13.52.13.2.28.26.48,0,.09-.12.36-.12.55-.17.03.2.07.41.09.61,0,.01-.14.04-.22.06-.42.09-.87.07-1.22.43-.09.1-.31.08-.48.09-.05,0-.11-.08-.16-.12.04-.04.08-.09.12-.12.1-.06.26-.08.31-.16.06-.1.02-.25.03-.38-.1.02-.22.02-.3.07-.15.09-.28.23-.43.33-.08.05-.18.06-.27.08-.01-.13-.08-.31-.02-.37.38-.42.78-.81,1.17-1.23.24-.25.47-.51.68-.79.19-.24.38-.43.71-.44.15,0,.33-.07.44-.17.24-.22.5-.28.81-.26.08,0,.19-.02.23-.07.17-.22.39-.3.66-.3.53-.02.82-.43,1.1-.78.22-.27.42-.35.76-.28.16.03.38-.1.53-.21.34-.25.64-.55.98-.78.23-.16.51-.23.76-.35.12-.06.23-.14.31-.24.1-.12.2-.26.26-.41.07-.17.11-.35.16-.53.03-.1.05-.19.07-.29.12.05.31.05.36.14.25.41.06.86-.35,1.17-.57.44-1.08.94-1.63,1.41-.37.32-.77.61-1.13.93-.29.25-.71.42-.69.89,0,.11.12.26.23.31.46.22.92.1,1.41,0,.33-.08.7.04,1.05.05.24,0,.49-.01.73-.04.13-.01.32-.13.39-.08.33.27.63.07.95,0,.34-.08.69-.12,1.04-.11.9.01,1.69-.58,2.61-.42.11.02.25-.03.35-.08.89-.46,1.85-.67,2.84-.68.13,0,.25.11.38.16-.11.12-.21.3-.35.34-.58.17-1.14.84-1.13,1.4,0,.31.13.44.44.44.54,0,1.08-.01,1.6.22.18.08.46-.11.69-.13.14,0,.28.08.42.14.04.01.06.08.09.09.67.16,1.35.31,2.03.46.04,0,.1.02.13,0,.56-.41,1.27-.27,1.87-.53.53-.23,1.07-.25,1.63-.26.25,0,.49-.16.74-.19.41-.05.88-.18,1.22-.03.54.23,1.06.2,1.6.24.17.01.39.04.49.15.31.32.7.14,1.04.23,0,0,.02-.02.03-.03.23-.1.68.22.65-.33-.01-.29-.06-.58-.11-.87-.02-.11-.14-.22-.14-.33,0-.97-.63-1.49-1.34-1.96-.06-.04-.09-.13-.14-.2.08-.05.16-.15.23-.14.31.04.62.1.93.16.04,0,.09.02.13,0,.75-.27.97.37,1.35.76.5.51.81,1.23,1.6,1.42.09.02.15.13.24.16.17.07.43.22.52.16.38-.27.82-.17,1.22-.25.09-.02.18-.09.24-.16.16-.2.05-1.27-.13-1.46-1.04-1.1-2.28-1.93-3.55-2.73-.27-.17-.46-.45-.69-.68.28-.03.56-.07.84-.09.33-.03.61.03.89.27.19.16.5.19.76.25.44.1,1,.04,1.3.29.49.41,1.08.33,1.6.59.58.29,1.23.51,1.91.52.5,0,1.02-.13,1.46.25.08.07.23.1.35.09.47-.05.9.07,1.33.26.21.09.46.13.69.15.62.04,1.07.59,1.77.51.34-.04.78.29,1.09.55.69.56,1.56.76,2.24.4.92-.49,1.83-.38,2.66-.16.78.2,1.53.15,2.29.21.08,0,.15.05.23.08.75.32,1.54.38,2.33.34.24-.01.53-.11.71-.26.44-.38.86-.77,1.45-.91.05-.01.11-.03.15-.06.33-.38.73-.73.94-1.17.13-.27.19-.1.28-.07.89.26,1.67-.24,1.56-1.19-.03-.26-.21-.53-.38-.75-.2-.26-.32-.46,0-.7.08-.06.13-.19.13-.29.04-.68.06-1.37.1-2.05,0-.12.05-.3.12-.33.11-.03.3,0,.37.09.51.56,1.18.41,1.69.2.55-.23,1.1-.25,1.65-.29.68-.05,1.38.02,2.06.07.93.08,1.55-.37,2.14-1.03.57-.63,1.26-1.15,1.85-1.77.41-.42.95-.13,1.39-.34.51-.24,1.02-.46,1.54-.69.06-.03.13-.1.18-.09.44.11.66-.21.89-.47.43-.47.84-.96,1.27-1.42.07-.08.23-.12.34-.1.06.01.14.17.14.26.01.45,0,.9,0,1.35,0,.46.26.72.72.72.35,0,.7-.04,1.04,0,.89.13,1.57-.29,2.25-.76.23-.16.54-.21.74-.39.25-.22.43-.52.62-.79.19-.28.34-.56.39-.93.03-.26.44-.47.69-.69.09-.08.27-.12.29-.21.17-.64.73-.85,1.19-1.18.33-.23.71-1.49.56-1.85-.02-.06-.09-.14-.14-.14-.34-.02-.69-.06-1.02,0-.52.09-.84-.12-.84-.64,0-.22-.01-.44,0-.65,0-.09.05-.21.12-.24.06-.03.19,0,.26.06.55.39,1.27.36,1.86,0,.35-.22.78-.31,1.13-.52.22-.14.44-.37.52-.61.21-.57.47-1.08.95-1.47.12-.1.29-.26.27-.36-.15-.68.42-.87.77-1.19.39-.36.87-.62,1.22-1.01.51-.55.94-1.17,1.41-1.75.14-.17.31-.31.47-.45.82-.73,1-1.64.74-2.66-.07-.28-.24-.55-.43-.77-.54-.63-1.18-1.17-2.01-1.3-.48-.07-.83-.33-1.23-.51-.16-.07-.29-.27-.37-.44-.38-.76-.97-1.32-1.68-1.76-.08-.05-.17-.13-.25-.13-.81.02-1.63.02-2.44.1-.22.02-.4.34-.6.52-.14.13-1.2.25-1.3.11-.09-.12-.14-.33-.09-.47.04-.12.22-.23.36-.26.21-.04.43,0,.65-.02.16-.02.37-.04.45-.15.22-.28.5-.25.8-.3.25-.04.56-.17.7-.36.09-.12-.05-.45-.16-.66-.25-.5-.51-1.01-.83-1.48-.29-.41-.62-.81-1.01-1.13-.27-.22-.7-.24-.97-.46-.54-.44-1.15-.5-1.79-.51-.41,0-.82-.07-1.22-.08-.32,0-.64.04-.96.09-.07,0-.17.07-.2.13-.18.36-.37.72-.52,1.09-.17.41-.19.93-.47,1.23-.38.42-.31.86-.32,1.31-.01.49-.27.68-.76.56-.16-.04-.37-.05-.49.03-.27.17-.29,0-.31-.18-.01-.22,0-.44,0-.67-.03-.81-.57-1.39-.94-2.04-.24-.41-.71-.38-1.11-.32-.61.09-1.13.4-1.67.68-.31.16-.73.15-1.1.17-.33.01-.67-.05-1.01-.08-.06,0-.14.02-.17,0-.44-.36-.68.07-.97.25-.5.29-.97.67-1.51.86-.42.15-.73.55-1.23.49-.18-.02-.37-.04-.55-.03-.8.04-1.61-.08-2.41.15-.37.1-.81-.01-1.22-.07-.72-.1-1.42-.24-2.16-.11-.27.05-.64-.16-.87-.36-.75-.66-1.45-1.38-2.18-2.07-.16-.15-.35-.27-.52-.41-.15-.12-.29-.26-.45-.38-.06-.05-.13-.11-.2-.13-.46-.15-.92-.39-1.38-.41-.73-.04-1.49-.16-2.2.22-.23.12-.55.1-.82.1-.52,0-1.01.07-1.48.31-.36.18-.75.3-1.14.39-.65.15-1.08.63-1.6.97-.43.27-.91.46-1.37.68-.03.01-.08-.01-.12-.02.02-.06.04-.12.05-.18.06-.23.16-.47.17-.71,0-.1-.17-.27-.28-.29-.18-.03-.39.02-.57.08-.37.13-.7.22-1.13.11-.39-.1-.84.09-1.27.14-.3.03-.63-.03-.91.06-.7.22-1.38.53-2,.93-.2.13-.46.22-.68.22-.42,0-.75.23-1.12.34-.44.14-.94.1-1.4.2-.81.18-1.6.41-2.4.6-.36.08-.73.11-1.1.18-.46.08-.91.17-1.37.26-.42.08-.81.51-.88.94-.02.13-.06.27-.14.37-.38.46-.79.89-1.16,1.35-.23.29-.43.6-.6.92-.32.59-.59,1.2-.92,1.79-.06.11-.28.16-.43.18-.86.13-1.83.04-2.56.41-.64.33-1.37.09-1.94.6-.26.23-.82.14-1.24.19-.07,0-.17.02-.21.07-.23.29-.52.14-.79.11,0,0-.02-.14,0-.16.47-.35.95-.71,1.44-1.03.13-.09.33-.06.49-.11.39-.11.78-.22,1.16-.35.14-.05.27-.21.39-.2.72.08,1.29-.41,2.01-.45.78-.04,1.57-.34,2-1.16.23-.44.59-.82.84-1.26.24-.43.39-.92.64-1.34.23-.39.5-.8.85-1.07.46-.35,1-.57,1.61-.61.37-.03.74-.16,1.11-.25.19-.04.42-.02.56-.12.54-.41,1.22-.29,1.79-.51.87-.33,1.84-.21,2.65-.61.66-.32,1.4-.21,2-.52.81-.42,1.77-.53,2.46-1.22.15-.15.45-.2.68-.22.43-.03.87-.03,1.3,0,.31.02.62.11.93.17.16.03.37.13.48.07.65-.4,1.35-.21,2.03-.24.43-.02.85.01,1.22-.32.17-.15.48-.17.73-.2.64-.07,1.3-.05,1.92-.2,1.08-.26,2.16-.1,3.23-.16.64-.03,1.18.18,1.65.67M51.82,112.26c.09-.03.19-.1.26-.08.19.06.37.17.56.26-.12.17-.2.41-.36.5-.19.1-.46.09-.69.1-.69.03-.96.33-.85.98.02.09.15.23.22.22.55,0,1.11-.04,1.66-.08.28-.02.56-.08.83-.07.11,0,.21.15.32.23-.07.09-.12.23-.21.25-.45.14-.9.3-1.37.35-.32.04-.54.13-.7.41-.09.16-.21.29-.34.43-.13.14-.27.24-.08.46.18.2.32.21.52.06.13-.09.28-.18.43-.21.6-.14,1.2-.24,1.8-.38.27-.07.52-.22.78-.31.17-.06.35-.09.53-.09.78,0,1.53.03,2.3.31.6.22,1.32.08,1.99.13.39.03.78.07,1.15.19.24.07.41.1.6-.09.1-.1.26-.14.4-.19.16-.05.35-.04.49-.11.31-.16.6-.38.91-.54.65-.35,1.31-.68,1.97-1.01.25-.13.52-.21.77-.34.39-.2.78-.42,1.16-.65.1-.06.17-.18.25-.27-.13-.07-.27-.21-.39-.19-.3.05-.59.16-.88.27-.55.21-1.09.45-1.63.67-.16.06-.33.1-.5.16-.11.04-.23.17-.3.15-.09-.04-.18-.19-.19-.3,0-.14.02-.37.11-.42.39-.21.79-.39,1.21-.53.76-.26,1.54-.47,2.31-.73.11-.04.24-.21.25-.33.01-.13-.08-.36-.17-.38-.22-.05-.5-.08-.69,0-.89.44-1.76.9-2.73,1.18-.33.1-.4-.14-.44-.23-.06-.15-.02-.48.07-.53.4-.2.84-.33,1.28-.48.15-.05.32-.05.48-.1.26-.07.51-.18.76-.25.2-.06.31-.15.18-.35-.1-.16-.22-.33-.38-.43-.47-.3-1.23-.22-1.69.16-.37.3-.75.24-.86-.15-.03-.13-.01-.28.02-.41.03-.13.07-.32.16-.37.15-.08.36-.04.52-.11.45-.17.9-.35,1.32-.58.1-.05.17-.35.11-.45-.06-.1-.3-.14-.45-.13-.5.02-1.01.09-1.51.11-.16,0-.23-.05-.17-.29.16-.65.73-.74,1.19-.89.43-.14.92-.12,1.39-.1.36.02.28-.29.41-.43-.14-.09-.28-.28-.41-.26-.52.05-1.04.16-1.55.26-.31.05-.62.12-.93.15-.1,0-.21-.09-.32-.14.06-.11.08-.26.17-.31.44-.29.87-.61,1.44-.49.44.09.77-.13,1.03-.44.09-.11.13-.31.12-.46,0-.06-.23-.13-.35-.13-.58-.01-1.16,0-1.74-.02-.11,0-.22-.17-.32-.26.21-.17.4-.4.65-.49.25-.1.57-.03.82-.12.23-.08.47-.24.59-.44.07-.11-.05-.47-.18-.54-.25-.14-.57-.2-.86-.21-.36-.02-.73.07-1.09.07-.12,0-.27-.1-.34-.2-.04-.06.04-.25.12-.31.17-.13.37-.22.56-.31.11-.05.22-.1.34-.14-.13-.05-.27-.1-.4-.15-.04-.01-.09,0-.13,0-.29-.01-.47-.25-.32-.47.1-.14.3-.27.47-.3.39-.07.79-.06,1.18-.11.05,0,.09-.15.13-.23-.13-.06-.27-.18-.4-.18-.49,0-.99.07-1.48.06-.15,0-.42-.19-.41-.24.04-.19.18-.5.28-.51.54,0,.93-.56,1.51-.39.09.03.24-.15.36-.23-.1-.09-.18-.23-.29-.25-.26-.04-.53-.03-.79-.02-.21,0-.41.04-.62.08-.59.11-1.04-.32-1.58-.38-.35-.04-.69-.27-1.04-.29-.28-.02-.58.25-.84.22-.81-.09-1.44.65-2.25.46-.02,0-.06.06-.1.08-.38.18-.74.38-1.13.51-.19.06-.43,0-.64-.03-.1-.01-.19-.09-.29-.13-.45-.15-.89-.3-1.34-.43-.38-.11-.76-.19-1.15-.26-.59-.12-1.04.22-1.48.5-.15.1-.36.35.11.47.45.11.84.07,1.24-.1.05-.02.1-.02.15-.02,0,.05-.03.1-.02.15.05.34-.16.43-.44.48-.53.08-1.06.16-1.58.27-.11.02-.24.11-.3.2-.19.25-.32.55-.1.83.09.12.33.19.49.17.16-.02.29-.19.44-.28.26-.14.53-.07.59.18.04.15-.21.53-.29.52-.42-.06-.66.27-.98.39-.13.05-.23.3-.24.46,0,.09.17.26.28.29.16.03.35-.03.52-.08.25-.08.7.06.73.26.05.36-.28.22-.43.32-.04.03-.12.01-.15.05-.15.14-.3.28-.4.45-.02.04.13.22.23.29.29.23.59.46.91.64.71.41.83,1.32.25,1.91-.16.16-.29.34-.43.52-.42.56-1.04,1.02-.75,1.88.15.45.03.97.35,1.38.05.06.09.15.08.22-.02.29-.05.58-.08.88-.01.09-.01.22-.07.27-.26.21-.23.37.08.45.21.05.43.03.73.05M90.39,100.61c-.28,0-.63-.11-.83.02-.5.33-.84.08-1.17-.22-.15-.13-.19-.37-.29-.56.16-.04.31-.1.47-.11.42-.04.85-.05,1.26-.1.09-.01.21-.16.23-.26.02-.12-.01-.34-.09-.37-.1-.05-.27.03-.4.07-.27.07-.54.17-.82.22-.19.03-.38,0-.58,0-.13,0-.27,0-.4,0,.02-.21-.04-.49.06-.63.24-.32.55-.61,1.04-.5.18.04.38.04.56,0,.25-.07.58-.08.56-.48-.03-.4-.41-.49-.62-.44-.64.16-1.22.15-1.79-.19-.11-.07-.26-.07-.4-.09-.18-.03-.36-.03-.53-.09-.46-.16-.9-.36-1.41-.27-.03,0-.08-.02-.11-.04-.59-.23-1.2-.4-1.83-.39-.14,0-.29.06-.42.13-.04.02-.08.16-.06.2.27.43.52.87.83,1.26.31.39.34.96.05,1.37-.38.52-.6,1.1-.67,1.77-.05.46-.25.91-.38,1.36,0,.02-.04.04-.06.06-.26.29-.78.36-.73.9,0,.02-.04.06-.06.06-.3.05-.22.27-.23.46,0,.14,0,.29-.05.42-.04.1-.14.18-.21.27-.06-.11-.12-.22-.17-.34-.06-.14-.11-.43-.15-.42-.22.02-.41-.05-.66.17-.56.5-.22,1.07-.31,1.6,0,.06.07.18.13.19.06.01.15-.06.2-.11.05-.04.05-.15.1-.17.18-.06.37-.09.55-.14-.04.11-.08.22-.12.33-.17.47-.65.79-.55,1.38.03.18-.05.42-.15.58-.26.4-.25.72.04,1.11.16.21.24.55.2.81-.07.36.09.62.33.71.57.2,1.18.26,1.79.11.07-.02.17-.16.16-.24-.02-.42.06-.78.3-1.14.2-.29-.01-.74-.26-.66-.4.12-.36-.2-.42-.38-.12-.34.19-.09.27-.17.06-.06.14-.08.21-.13.3-.25.6-.5,1-.13.05.04.21.04.25,0,.39-.42.88-.19,1.33-.26.43-.06.85.14,1.29-.07.21-.1.49-.05.33.37-.06.15.12.39.21.58.03.07.13.12.19.17-.1.05-.21.15-.31.15-.17-.01-.35-.07-.5-.15-.34-.19-.66-.44-1.01-.6-.14-.06-.38.04-.54.13-.26.15-.51.34-.73.55-.3.3-.57.62-.82.95-.13.17-.22.37-.27.58-.06.22-.16.56-.06.66.25.25.6.4.92.58.13.07.32.08.4.18.44.59,1.18.6,1.75.93.38.22.87.26,1.32.37.16.04.33.11.48.08.64-.12,1.28-.26,1.91-.42.22-.05.45-.14.62-.28.36-.3.56-1.79.3-2.17-.09-.12-.28-.22-.44-.24-.4-.04-.83.08-1.13-.32-.03-.05-.16-.01-.24-.04-.15-.05-.29-.11-.43-.16.09-.11.16-.23.27-.31.54-.43.55-.52-.02-.88-.11-.07-.27-.06-.38-.13-.12-.07-.26-.18-.29-.3-.08-.32.05-.55.41-.59.25-.03.52,0,.75-.07.36-.13.7-.33,1.04-.52.03-.01.04-.12.02-.14-.23-.27-.45-.55-.71-.77-.05-.04-.3.21-.47.24-.22.04-.45-.01-.67-.02.09-.17.15-.37.27-.51.16-.19.39-.32.56-.49.27-.28.54-.54.98-.48.1.01.21-.09.32-.14-.08-.08-.16-.19-.25-.23-.56-.23-1.12-.43-1.67-.68-.12-.05-.2-.25-.24-.4-.04-.15,0-.32,0-.48,0-.28.12-.42.41-.42.35,0,.7.02,1.04,0,.19-.01.51-.06.53-.13.05-.29,0-.6-.1-.9M46.87,101.74c-.11-.06-.22-.17-.32-.16-.56.04-1.11.11-1.67.15-.13.01-.27-.03-.4-.04.02-.16,0-.35.08-.49.07-.12.22-.21.35-.28.49-.26.98-.5,1.47-.74.1-.05.21-.05.31-.09.19-.07.37-.14.56-.22-.2-.07-.4-.15-.6-.22-.04-.01-.09,0-.13,0-.57.06-1.14.13-1.71.16-.14,0-.36-.07-.41-.17-.08-.19.05-.27.27-.36.44-.18.85-.39,1.34-.45.2-.03.42-.26.53-.45.05-.1-.13-.46-.23-.47-.42-.04-.86-.02-1.28.03-.2.02-.39.2-.59.23-.14.02-.32-.08-.43-.18-.04-.04.06-.26.13-.37.08-.12.2-.21.3-.31.06-.06.12-.11.18-.16-.09-.03-.18-.11-.26-.09-.33.07-.65.18-.98.26-.21.05-.43.09-.64.12-.51.09-.97.37-1.52.32-.74-.06-1.49-.02-2.24,0-.11,0-.27.07-.3.15-.03.09.02.27.1.33.24.18.52.3.75.47.14.11.24.29.35.43-.12.08-.23.24-.35.24-.46,0-.46.31-.43.62.03.33.29.4.56.44.19.03.42,0,.56.1.18.12.29.35.43.53-.18.08-.36.17-.54.23-.08.03-.18-.02-.26,0-.15.06-.35.12-.4.24-.05.12.03.33.12.45.22.32.54.46.94.44.3-.01.58.33.44.5-.25.31-.5.61-.79.88-.4.37-.44.47-.02.84.32.28.25.39-.1.57-.63.32-.83.98-.5,1.45.34.48.34.62-.06,1.04-.25.26-.2.5.06.68.18.13.4.23.62.28.42.1.53.26.31.65-.09.16-.26.26-.38.4-.11.13-.3.29-.29.42.01.16.18.38.32.43.35.12.48.33.43.66-.06.45.04.78.51.96.08.03.18.24.15.28-.37.54-.38,1.04.1,1.52.04.04.02.13.03.2.09.42.54.8.94.72.34-.06.66-.22.99-.32.16-.05.32-.06.48-.11.18-.06.38-.1.52-.21.39-.29.59-.29.99,0,.12.09.32.15.46.11.28-.07.55-.21.82-.33.06-.03.16-.08.16-.11,0-.29.03-.61-.09-.86-.04-.09-.47.03-.73.03-.1,0-.19-.07-.29-.11.1-.19.17-.53.29-.55.43-.07.57-.4.74-.7.07-.13.03-.33.04-.49-.17,0-.35-.02-.5.03-.35.12-.69.28-1.04.42-.03.01-.11,0-.11-.02-.07-.22-.17-.44-.18-.66,0-.14.09-.36.2-.42.32-.16.68-.25,1.02-.37.33-.11.53-.34.5-.68-.05-.57-.32-.87-.73-.88-.32,0-.64.04-.95-.02-.15-.03-.34-.23-.37-.38-.07-.35.34-.65.87-.74.44-.07.98-.02,1.19-.56.11-.27.21-.6.16-.87-.05-.28-.39-.23-.63-.21-.47.05-.93.12-1.4.18-.04,0-.08.01-.12.02.02-.3.04-.6.06-.91.59.02,1.02-.55,1.65-.45.24.04.53-.04.75-.16.11-.06.18-.42.11-.49-.19-.19-.46-.4-.71-.42-.31-.02-.62.17-.94.21-.17.02-.36-.16-.53-.14-.4.07-.63-.17-.8-.43-.1-.15-.25-.51.24-.47.19.01.39-.1.57-.07.63.09,1.16-.1,1.62-.51.14-.13.23-.33.29-.54M115.32,95.75c.21-.23.38-.62.62-.66.57-.1.88-.48,1.21-.85.15-.17.24-.43.27-.66.02-.13-.09-.37-.2-.41-.14-.06-.38-.02-.51.07-.41.28-.79.61-1.19.91-.35.26-.69.1-.79-.3-.03-.14-.22-.3-.37-.34-.51-.13-.95.09-1.35.38-.11.08-.23.17-.04.31.07.06.08.19.13.29.17.38.31.78.53,1.12.2.3.3.76.8.74.19-.01.34-.08.33.21,0,.23.01.44-.32.41-.48-.05-.81-.33-1.07-.7-.14-.21-.23-.46-.38-.67-.35-.48-.48-1.09-1-1.47-.11-.08-.07-.36-.1-.55-.03-.15-.01-.33-.09-.44-.28-.38-.35-.8-.34-1.25.01-.48-.04-.9-.32-1.35-.33-.52-1.31-1.05-1.84-.97-.41.06-.86.07-1.27,0-.66-.12-.65-.16-.65.48,0,.35-.06.59-.46.77-.41.19-.69.7-.63,1.13.05.4.07.95.67,1.11.31.08.46.65.26.89-.48.58-.69,1.25-.62,2,.02.25,0,.42.31.15.25-.22.83-.08.81.16-.06.66.21,1.32-.08,1.97-.22.49-.06.76.48.71.59-.06,1.19-.18,1.76-.36.64-.2,1.27-.16,1.91-.15.14,0,.34-.01.43-.1.33-.36.75-.32,1.09-.16.36.17.66.47.95.75.37.35.75.51,1.25.31.09-.03.2-.03.3-.02.59.09,1.19.29,1.7-.24.02-.02.08-.02.12-.02.44-.06.88-.12,1.32-.17.38-.05.95-.44.93-.72-.02-.37-.06-.77-.21-1.11-.2-.47-.37-.47-.74-.11-.04.04-.09.08-.12.12-.28.34-.57.53-.94.09-.05-.06-.17-.07-.26-.1-.21-.09-.45-.14-.62-.28-.58-.49-1.17-.74-1.9-.34-.03.02-.08,0-.12-.01,0-.05,0-.11.02-.15.1-.14.2-.26.35-.44M102.42,94.23c-.52.11-1.05.24-1.53-.13-.05-.04-.14-.04-.21-.04-.1,0-.28.06-.29.04-.07-.18-.12-.36-.13-.55,0-.04.17-.12.27-.14.48-.1,1-.02,1.42-.35.22-.17.63-.39.61-.54-.05-.36-.45-.22-.72-.24-.09,0-.18.02-.26,0-.08-.03-.17-.1-.19-.18-.12-.38.11-.79.48-.96.2-.09.37-.23.54-.37.06-.05.11-.18.09-.25-.02-.07-.15-.14-.23-.14-.33,0-.68-.1-.95.24-.1.12-.36.1-.55.14-.03-.16-.11-.34-.07-.48.03-.13.17-.27.3-.34.3-.17.64-.27.94-.45.14-.08.22-.27.3-.43.01-.02-.1-.16-.15-.16-.67,0-1.34-.04-2,.04-.58.08-1.12.3-1.74.15-.3-.07-.67.08-.88.41-.23.37-.46.74-.7,1.1-.26.4-.67.74-.43,1.3.04.1.12.19.18.29.06-.08.11-.17.17-.25.1-.15.17-.33.31-.43.19-.14.42-.26.65-.3.21-.04.52-.05.66.07.21.18-.04.99-.29,1.18-.51.39-1.05.77-1.24,1.44-.05.19-.03.42,0,.62.04.25.17.26.34.07.3-.31.59-.64.93-.91.18-.14.44-.2.67-.25.09-.02.24.04.28.11.04.06-.02.21-.08.28-.41.45-.87.87-1.23,1.36-.13.18-.13.58-.02.8.15.29.44.17.63-.06.16-.18.3-.37.47-.53.08-.08.22-.15.32-.13.13.03.26.13.36.23.03.03-.04.18-.1.25-.22.26-.46.49-.66.76-.5.68-.96,1.41-1.49,2.07-.24.29-.2.54-.07.8.09.2.24.16.34-.03.33-.64.72-1.23,1.29-1.67.19-.15.47-.18.72-.24.04,0,.11.1.17.16-.05.04-.1.07-.14.11-.15.15-.34.28-.45.46-.25.4-.48.81-.7,1.23-.06.11-.15.27.13.3.33.04.51-.19.61-.39.15-.28.34-.35.61-.31.12.02.23.06.35.1-.09.08-.18.16-.27.25-.42.43-.76.9-.65,1.55.02.1.12.18.18.28.02-.09.04-.17.07-.26.02-.06.02-.15.06-.19.24-.22.46-.45.47-.81,0,0,.18-.05.23,0,.25.18.47.52.72.55.72.08,1.49.27,2.17-.23.09-.07.25-.03.35-.1.27-.18.59-.35.75-.61.08-.13-.16-.45-.27-.68-.03-.06-.1-.11-.15-.15-.18-.15-.31-.27-.09-.54.1-.12-.04-.43-.06-.66-.17.05-.34.1-.51.16-.1.04-.19.1-.29.14-.08-.2-.24-.41-.23-.61,0-.17.2-.5.28-.49.71.07.99-.49,1.37-.89.21-.22,0-.38-.16-.53-.15-.16-.33-.29-.5-.09-.36.41-.76.71-1.32.8-.22.03-.35-.01-.38-.2-.05-.3.06-.54.35-.69.17-.08.34-.17.49-.29.15-.12.28-.26.42-.4-.21-.06-.41-.12-.66-.14M71.06,97.97c0-.22.07-.47-.02-.64-.12-.26-.33-.48-.55-.67-.04-.04-.27.11-.4.2-.34.22-.69.44-1.02.67-.42.29-.42.38-.14.84.07.11.08.25.13.38.05.14.11.27.15.41.07.19.18.38.18.57,0,.9-.04,1.81-.08,2.71-.01.34-.01.69-.09,1.02-.27,1.1-.18,2.21-.15,3.32.02.62.45,1.22.07,1.86-.01.02-.02.07,0,.08.3.23.26.57.27.89,0,.6.01,1.2,0,1.8-.01.5-.05,1.01-.07,1.51,0,.24,0,.49,0,.73-.02.55-.44,1.03-.28,1.62.05.17.07.37.18.48.33.33,1.15.43,1.51.06.08-.08.21-.12.32-.16.57-.18.67-.32.67-.92,0-1.2.03-2.4-.01-3.6-.02-.63.31-1.1.54-1.61.21-.46.23-.54-.15-.88-.26-.23-.45-.56-.61-.87-.05-.11.12-.31.14-.48.03-.22.09-.54-.02-.64-.32-.29-.2-.63-.24-.96-.02-.22-.02-.47-.12-.64-.22-.36-.25-.72-.26-1.13-.02-1.14-.11-2.28-.13-3.43-.01-.63-.15-1.27.07-1.89.06-.18.06-.38.09-.66M33.19,116.73c-.08.23-.16.45-.25.68-.03.07-.08.14-.1.22-.17.63-.38,1.23-1.2,1.23-.04,0-.08.02-.11.05-.51.42-1.01.84-1.52,1.26-.33.27-.43.62-.38,1.01.02.12.1.31.2.34.11.04.3-.02.4-.11.34-.28.64-.61.98-.87.37-.28.72-.62,1.25-.65.42-.03.85-.17,1.24-.34.24-.1.52-.32.58-.54.09-.31-.04-.68-.01-1.01.02-.26.1-.72.21-.74.4-.06.56-.28.72-.59.05-.09.26-.12.4-.13.09,0,.19.09.28.13-.08.02-.17.04-.25.06-.02,0-.06.04-.06.06.06.52-.52.67-.63,1.17-.11.49.12.6.34.82.11.11.29.14.42.23.59.4,1.22.21,1.84.14.38-.04.25-.44.32-.67.12-.4.26-.8.66-.97.5-.22.67-.63.5-1.15-.1-.31-.15-.68-.08-1,.27-1.17-.02-2.15-.9-2.95-.11-.1-.45-.12-.54-.03-.43.42-.91.74-1.45,1.01-.56.28-1.05.69-1.56,1.05-.57.41-1.14.8-.97,1.67.03.15-.21.36-.33.63M106.94,86.24c.06.27.11.53.17.8.05.22.13.44.17.67.08.5,1.03,1.41,1.53,1.35.64-.08,1.39.13,1.87-.55.02-.03.07-.03.11-.04.38-.14,1.36.2,1.62.54.06.08.29.14.3.13.17-.29.3-.6.48-.88.07-.11.25-.16.38-.22.19-.09.39-.16.59-.25.09-.04.17-.1.26-.1.39,0,.74-.09,1.02-.36.1-.1.17-.23.25-.35-.13-.06-.27-.18-.39-.15-.52.12-1.14-.11-1.57.41-.07.08-.26.06-.39.1-.18.06-.35.14-.52.21-.1.04-.23.15-.28.12-.1-.07-.21-.2-.23-.32-.05-.29.02-.49.4-.56.46-.08.91-.43,1.34-.38.74.09.93-.43,1.26-.84.02-.03-.07-.22-.13-.23-.74-.12-1.49-.2-2.18.21-.04.02-.12.04-.14.02-.36-.35-.83-.13-1.24-.23-.15-.04-.34.05-.51.11-.22.07-.42.2-.64.22-.36.04-.73-.02-1.08.02-.43.04-.6-.08-.56-.54.02-.19-.08-.5-.22-.58-.22-.11-.49-.03-.67.22-.33.46-.67.91-1.01,1.45M74.32,109.74c.88-.44,1.8-.77,2.81-.69.09,0,.19.02.28.05.09.03.16.1.24.15-.06.07-.13.14-.19.22-.08.11-.23.22-.22.33.02.35.76.58.98.4.19-.16.46-.22.66-.38.11-.09.24-.34.2-.41-.17-.27-.42-.49-.61-.74-.05-.06-.04-.22,0-.29.08-.12.21-.2.32-.3-.13-.08-.26-.22-.4-.24-.43-.07-.53-.42-.54-.72,0-.43.34-.73.71-.77.11-.01.21-.09.31-.14-.12-.1-.23-.24-.37-.27-.18-.05-.37,0-.56-.02-.09,0-.17-.06-.26-.1.03-.08.04-.19.1-.23.22-.16.46-.29.68-.45.13-.1.22-.24.32-.37-.14-.11-.26-.24-.42-.31-.09-.05-.24.02-.34-.01-.21-.08-.43-.17-.61-.3-.08-.05-.11-.23-.09-.34.01-.06.17-.09.27-.15.28-.16.57-.31.84-.48.04-.03.04-.2,0-.26-.36-.42-1.49-.7-1.91-.36-.29.23-.6.28-.87.3-.41.02-.65.28-.95.45-.09.05-.16.22-.14.32.03.11.14.26.25.29.47.15.94.13,1.39-.11.11-.06.32-.06.42.01.1.07.2.3.16.38-.06.12-.25.21-.39.24-.65.13-1.25.37-1.73.83-.11.1-.05.38-.06.57.18,0,.43.05.52-.04.39-.42.91-.31,1.38-.38.11-.02.28.2.38.33.02.03-.14.25-.26.3-.64.26-1.29.53-1.96.72-.28.08-.35.21-.28.4.08.22.22.48.55.4.1-.02.21-.06.31-.09.47-.11.94-.25,1.42-.33.17-.03.37.06.55.1-.05.18-.05.44-.16.51-.34.21-.73.48-1.09.47-.8-.03-1.4.31-2.02.73-.27.18-.36.41-.25.61.07.14.38.14.63.17M81.01,103.05c.09-.09.18-.2.29-.26.6-.33,1.09-.71.98-1.51-.02-.16-.02-.32,0-.48.03-.32-.04-.72.13-.93.33-.41.29-.88.37-1.33.1-.53-.22-.97-.47-1.41-.34-.59-.76-1.06-1.55-.95-.11.02-.23,0-.35,0-.39,0-1.16.6-1.18.99-.04.63-.1,1.29.01,1.91.16.87.32,1.73.33,2.61,0,.49.04.99.09,1.48.01.11.14.24.25.29.05.03.18-.09.27-.13.11-.05.23-.08.34-.12.14-.04.28-.09.47-.17M74.45,95.19c.32.5.74.84,1.35.92.09.01.23.1.25.18.03.09,0,.27-.08.31-.24.15-.51.24-.75.37-.09.05-.17.14-.25.22.08.07.18.21.25.2.53-.07.44.29.45.6,0,.23-.09.25-.25.16-.18-.1-.34-.23-.51-.33-.28-.17-.52-.05-.7.16-.1.12-.19.35-.13.46.13.25.36.17.61.12.42-.08.87-.03,1.3-.01.1,0,.29.17.28.21-.06.19-.16.37-.28.53-.02.03-.2-.08-.32-.1-.19-.03-.38-.06-.56-.04-.18.02-.37.17-.53.15-.36-.04-.51.2-.71.39-.19.18-.09.28.1.31.32.05.65.08.98.09.44.01.88,0,1.32.01.07,0,.18.1.19.17.01.08-.05.22-.12.24-.18.06-.38.1-.57.1-.39,0-.79-.07-1.18-.07-.13,0-.31.1-.38.21-.25.42.03,1.27.67,1.25.48-.01.96-.02,1.43,0,.33.02.58-.08.77-.33.17-.23.32-.46.67-.38.05.01.14-.08.19-.14.33-.41.17-.96-.34-1.15-.42-.16-.56-.66-.19-.89.41-.25.71-.5.66-1.02,0-.07.1-.15.14-.24.06-.13.18-.31.14-.41-.21-.45-.39-.95-.71-1.3-.35-.38-.9-.57-1.29-.92-.37-.32-.71-.5-1.22-.55-.44-.05-.56.09-.67.51M114.58,91.54c.08-.42.42-.44.74-.47.22-.02.44-.04.65,0,.64.13.97-.3,1.32-.69.08-.09.08-.31.02-.42-.03-.07-.24-.08-.37-.08-.33,0-.66.02-.99.07-.32.05-.7.06-.94.23-.52.38-1.41.39-1.87-.06-.28-.28-.56-.58-.89-.78-.18-.11-.48-.04-.72-.05.02.16.01.32.05.47.12.44.38.88.36,1.31-.03.76.27,1.39.56,2.04.06.12.33.29.4.25.29-.16.57-.36.79-.6.31-.36.56-.78.88-1.21M122.14,79.98c0-.58.01-1.17,0-1.75-.02-.7-.37-1.09-.91-1.14-.38-.04-.59-.2-.75-.5-.04-.07-.11-.16-.18-.18-.22-.04-.45-.05-.67-.08.03.17.02.35.09.49.09.18.31.32.36.5.13.53.54.57.95.61.42.04.51.17.39.6-.03.1-.08.22-.05.32.09.37.19.73.3,1.09.1.32.25.62.32.95.04.16-.04.35-.07.53-.04.19-.15.39-.11.55.06.23.22.43.35.63.03.05.13.12.16.11.07-.03.13-.1.16-.17.07-.16.1-.34.19-.48.23-.38.24-.74-.01-1.12-.19-.28-.35-.58-.52-.95M122.79,85.24c-.24.19-.32.44-.31.74.02.65,0,1.3.01,1.95,0,.29.03.59.13.86.18.45.42.87.65,1.29.04.08.12.13.19.19.05-.09.16-.18.15-.26-.08-.6.27-1.27-.33-1.77-.02-.02,0-.08,0-.12,0-.54,0-1.08,0-1.62,0-.04.01-.09.03-.11.39-.45.33-1,.3-1.52-.01-.21-.15-.43-.27-.62-.04-.07-.21-.14-.28-.11-.07.03-.11.18-.13.28-.04.26-.06.53-.13.83M116.36,88.89c.13-.19.28-.37.38-.57.04-.07.01-.24-.05-.29-.07-.05-.27-.07-.31-.02-.19.24-.43.29-.72.28-.18,0-.4.06-.52.18-.23.2-.45.36-.78.35-.1,0-.21.18-.31.28.08.08.14.22.23.23.19.03.4.03.58,0,.49-.11.96-.25,1.49-.43M115.23,92.28c-.11,0-.26-.04-.34,0-.18.12-.46.28-.46.43,0,.27.3.3.53.25.38-.09.75-.21,1.11-.33.06-.02.16-.15.14-.19-.03-.07-.12-.16-.2-.17-.23-.02-.47,0-.79,0M64.68,101.05c-.23-.03-.46-.08-.69-.07-.05,0-.1.2-.13.32,0,.02.1.1.13.09.25-.09.49-.19.69-.34M36.32,99.96c-.06-.13-.13-.26-.19-.39-.08.1-.16.21-.23.31.12.06.17.36.43.08M96.12,92.19c-.02.13-.03.26-.05.39h.18c-.02-.13-.03-.26-.13-.39Z" fill="#aad037" stroke-width="0"/><path d="M87.39,3.67c.6-.12,1.16-.27,1.73-.34.53-.06.63.06.62.58-.03.91.15,1.79.33,2.68.13.62.07,1.28.11,1.91.01.21.09.43.13.64.04.21.1.43.12.64.07.84,0,1.72.21,2.52.19.73.17,1.44.24,2.16.06.65.22,1.29.36,1.93.02.11.17.19.26.29.05-.12.11-.24.15-.36.1-.28.19-.56.28-.84.06-.18.09-.37.16-.54.05-.12.12-.29.22-.33.1-.04.28.03.37.11.31.28.59.59.89.88.77.72,1.87.83,2.8.4.44-.2.74-.52,1.01-.87.14-.19.13-.49.17-.75.06-.31-.07-.46-.38-.58-.55-.22-1.06-.51-1.59-.77-.89-.44-1.81-.82-2.66-1.32-.5-.3-.89-.78-.84-1.45,0-.07,0-.14,0-.22,0-.93-.07-1.87.39-2.75.35-.68.69-1.36,1.32-1.83.53-.39,1.05-.81,1.61-1.16.56-.35,1.2-.5,1.85-.68.7-.19,1.37-.24,2.07-.22.88.03,1.68.36,2.36.89.52.4.97.89,1.45,1.34.25.24.33.5.12.8-.3.44-.61.87-.89,1.33-.2.33-.35.7-.56,1.03-.11.17-.28.32-.45.41-.04.02-.21-.2-.33-.29-.45-.34-.9-.67-1.37-.99-.73-.5-1.55-.45-2.33-.25-.53.13-1.04.38-1.38.86-.16.22-.22.46.06.65.37.25.73.53,1.13.72.83.4,1.69.75,2.52,1.14.64.3,1.3.58,1.91.95.39.24.71.6,1.02.94.52.58.5,1.28.36,1.99-.03.14-.02.29,0,.43.09,1.01-.35,1.78-1.02,2.49-.69.73-1.47,1.32-2.36,1.77-.44.22-.94.32-1.38.54-.93.44-1.92.32-2.9.35-.96.03-1.75-.38-2.49-.91-.28-.2-.53-.44-.82-.63-.07-.05-.3-.02-.34.04-.36.57-.86.76-1.52.75-.35,0-.71.23-1.06.34-.34.11-.48-.02-.53-.36-.1-.66-.26-1.32-.33-1.99-.05-.49.02-.99-.02-1.48-.06-.76-.16-1.52-.26-2.28,0-.07-.11-.17-.18-.18-.57-.07-1.05.18-1.13.77-.05.36-.36.7-.36,1.05,0,.62-.52,1.06-.44,1.71.04.29-.22.62-.32.94-.16.53-.27,1.08-.45,1.59-.05.13-.32.23-.5.26-.72.14-1.44.26-2.16.35-.24.03-.5-.04-.74-.09-.04,0-.07-.21-.04-.3.13-.41.28-.81.42-1.22.2-.58.42-1.16.6-1.75.09-.28.1-.59.18-.88.2-.67.43-1.33.63-2,.07-.22.04-.47.1-.7.12-.47.5-.86.4-1.4.54-.46.18-1.24.63-1.74.09-.1.06-.29.1-.43.24-.77.5-1.53.73-2.3.09-.31.11-.65.19-.97.1-.43.16-.9.36-1.28.21-.41.26-.82.35-1.25.08-.37.49-.55,1.1-.55M87.39,9.19c0,.29-.01.59,0,.88,0,.1.11.19.17.29.09-.12.24-.23.25-.35.03-.51.01-1.02.01-1.53,0-.03,0-.06,0-.08-.07-.1-.14-.2-.21-.29-.07.12-.18.22-.2.35-.03.21,0,.43,0,.74Z" fill="#aad037" stroke-width="0"/><path d="M71.93,75.34c.48-.06.92-.13,1.36-.17.12-.01.25.08.38.13-.06.09-.13.18-.19.27-.19.28-.51.41-.8.36-.66-.1-1.14.24-1.66.53-.62.34-1.26.66-1.88,1.02-.39.23-.77.48-1.1.78-.1.1-.09.43,0,.59.35.65.17,1-.57,1-.78,0-1.56,0-2.34,0-.67,0-.85.35-.59,1,.15.37.22.79.27,1.19.02.15-.11.32-.18.48-.12-.05-.25-.08-.35-.15-.59-.48-1.26-.67-2.01-.6-.07,0-.18.03-.21,0-.28-.36-.72-.31-1.09-.42-.08-.02-.15-.1-.22-.15.08-.04.17-.09.25-.12.43-.16.8-.06,1.23.11.42.17.94.11,1.41.15,0-.09.03-.19,0-.26-.18-.49-.64-.46-1.03-.51-.23-.03-.47,0-.71,0-.32,0-.65.07-.91-.22-.05-.05-.19-.05-.28-.04-.1.02-.2.07-.3.11.09.05.17.1.26.14.05.03.16.07.15.08-.03.09-.05.2-.12.25-.33.26-.69.13-1.03.03-.25-.07-.86.14-1.03.36-.32.44-.63.89-1.02,1.27-.23.22-.59.41-.9.42-.54.01-1.02.15-1.52.34-.3.12-.71-.05-1.01.08-.41.17-.88.41-1.08.76-.18.3-.43.25-.62.4-.02.02-.16-.05-.16-.09-.02-.11-.01-.24.02-.35.08-.25.19-.5.28-.75.03-.09.05-.21.11-.25.37-.26.25-.6.14-.91-.11-.3-.39-.34-.71-.34-1.28,0-2.55-.05-3.83-.08-.07,0-.18.01-.2-.02-.26-.41-.66-.32-1.04-.32-.04,0-.11.02-.13,0-.33-.48-.96-.33-1.38-.68-.34-.29-.53-.6-.41-1.04.02-.08.07-.16.06-.23-.02-.1-.08-.2-.12-.3-.08.08-.2.14-.23.23-.05.18-.09.39-.07.57.02.25-.11.24-.28.23-.19,0-.39.01-.58,0-.12-.01-.23-.07-.35-.11.04-.11.04-.25.12-.32.4-.37.81-.75,1.25-1.07.16-.11.44-.07.66-.06.31.01.61-.05.71-.33.11-.31,0-.62-.3-.82-.42-.27-.84-.55-1.26-.83-.07-.04-.17-.07-.2-.13-.09-.16-.14-.35-.21-.52.15-.05.29-.15.44-.15.36,0,.73.1,1.09.06.43-.05.84-.2,1.26-.3.09-.02.21-.06.29-.03.87.31,1.7,0,2.52-.2.34-.09.64-.41.93-.65.16-.13.27-.32.4-.48.26-.31.5-.64.77-.94.24-.26.44-.22.53.13.21.78.59,1.48,1.08,2.12.07.09.16.23.15.32-.07.41.23.63.4.93.28.47.49.98.74,1.47.17.32.47.37.79.34.3-.03.32-.24.34-.49.06-.61-.24-1.06-.57-1.51-.06-.09-.1-.19-.13-.29-.02-.06,0-.15-.03-.21-.28-.42-.34-.9-.47-1.38-.2-.75-.69-1.41-1.02-2.13-.11-.23-.14-.51-.12-.77.02-.29.38-.38.57-.15.25.31.59.3.86.2,1.14-.46,2.32-.26,3.49-.32.04,0,.08.02.11.04.27.24.6.3.95.35.37.05.74.06,1.11.26.2.11.65-.16.95-.33.53-.31,1.02-.67,1.53-1.02.46-.31.93-.63,1.39-.94.1-.06.22-.09.33-.14.05.15.17.31.15.45-.03.2-.13.42-.26.58-.41.55-.28,1.24.27,1.62.38.26.68.35,1.08.03.16-.13.45-.11.68-.13.68-.04,1.43.1,2.03-.14.61-.24,1.23-.09,1.8-.29.26-.09.51-.23.76-.36.8-.42,1.7-.63,2.41-1.21.02-.02.06,0,.08-.02.17-.16.36-.43.58-.14.06.09-.09.47-.25.56-.49.31-1.02.54-1.53.8-.07.04-.17.05-.21.11-.34.39-.63.86-1.03,1.17-.54.42-1.17.72-1.76,1.07-.12.07-.23.15-.35.2-.2.09-.4.23-.6.22-.33-.02-.55.1-.73.34-.07.1-.18.26-.15.31.09.13.24.29.38.3.58.06,1.17.08,1.76.1.48.01.97,0,1.45,0,.09,0,.18-.05.31-.08M56.38,80.68c.05.05.15.11.15.15-.11.48.4.71.45,1.12.01.09.18.16.27.24.03-.09.08-.19.09-.28.01-.3.06-.6-.25-.81-.07-.05-.08-.2-.09-.3-.07-.57-.1-1.15-.44-1.64-.04-.06-.1-.14-.17-.16-.04-.01-.13.06-.16.11-.2.31-.13,1.2.16,1.57M46.87,80.11c.07.1.12.23.22.3.12.09.27.14.41.2.04-.18.1-.36.1-.54,0-.23-.04-.47-.09-.7-.02-.1-.05-.25-.13-.28-.07-.03-.2.04-.29.1-.32.22-.29.55-.23.92M46.39,79.9c0-.16,0-.32,0-.47,0-.09-.02-.17-.03-.26-.1.04-.28.06-.28.11-.04.29-.04.58-.03.87,0,.05.15.09.23.13.04-.1.08-.2.12-.38M52.86,81.16c-.23-.12-.44-.26-.68-.33-.08-.02-.23.13-.3.23-.03.04.07.24.1.24.31-.02.62-.06.89-.14Z" fill="#aad037" stroke-width="0"/><path d="M92.52,39.29c0-3.2,0-6.35,0-9.51,0-.16.06-.32.08-.49.04-.33.08-.65.08-.98.01-.87.01-1.75,0-2.62,0-.37-.06-.74-.08-1.11-.02-.38.14-.6.54-.59.08,0,.19,0,.24-.05.43-.38.94-.26,1.44-.3.7-.06,1.4-.23,2.11-.23.66,0,1.37.03,1.96.28.8.33,1.66.69,2.05,1.59.03.07.09.15.08.22-.02.78.04,1.59-.11,2.35-.13.65-.63,1.17-1.22,1.53-.34.21-.73.34-1.08.53-.11.06-.25.17-.26.28-.01.08.14.21.24.27.15.08.33.13.51.14,1.05.02,1.72.65,2.32,1.4.44.54.42,1.2.48,1.84.02.23.11.45.13.68.01.21-.02.43-.05.64-.05.3-.17.59-.16.88.03.66-.39,1.15-.62,1.7-.37.87-1.18,1.34-1.94,1.74-.62.32-1.3.61-2.06.59-.22,0-.44.11-.66.18-.09.03-.18.07-.27.07-1.06.03-2.13.07-3.19.09-.51.01-.56-.04-.56-.56,0-.17,0-.35,0-.56M95.47,35.51c0,.14,0,.29,0,.43,0,.52.05.53.56.57.66.06,1.23-.19,1.82-.42.6-.25.89-.73.92-1.21.04-.58-.19-.97-.73-1.25-.44-.23-.85-.35-1.33-.16-.23.1-.48.16-.72.25-.3.11-.52.3-.53.65,0,.35,0,.69,0,1.13M95.78,26.6c-.39.39-.16.89-.21,1.34,0,.02.17.09.25.09.24-.02.49-.06.72-.13.28-.08.59-.14.82-.3.38-.26.34-1.2-.04-1.23-.5-.04-1.05-.18-1.55.24M96.47,30.6s-.09.06-.14.09c-.08.06-.17.11-.25.17.09.03.21.11.28.08.24-.09.46-.22.68-.34.08-.04.16-.1.23-.15-.12-.04-.24-.12-.34-.09-.14.04-.25.16-.46.25Z" fill="#aad037" stroke-width="0"/><path d="M114.32,11.49c.03-.8-.09-1.6.12-2.3.41-1.4.12-2.8.23-4.2.03-.31.23-.42.53-.57.69-.32,1.39-.22,2.08-.32.38-.05.51.16.5.49,0,.31-.06.61-.08.92-.09,1.27-.18,2.53-.26,3.8,0,.07-.02.15,0,.22.09.21.18.3.48.24.67-.13,1.37-.17,2.05-.18.45-.01.72-.21.86-.6.04-.12-.01-.27-.01-.41.03-1.38.05-2.76.09-4.13.01-.46.27-.66.75-.69.19-.01.39-.08.58-.07.5.03.95-.13,1.41-.27.24-.07.59-.09.38.38-.02.04,0,.09,0,.13-.03,1.97-.05,3.94-.09,5.91,0,.22-.12.44-.18.66-.02.08-.06.15-.07.23-.03.67-.08,1.34-.09,2-.01,1.41,0,2.82-.01,4.23,0,.33-.1.65-.15.98,0,.04-.03.09-.01.12.24.5-.17.91-.19,1.38,0,.1-.12.27-.21.29-.64.14-1.29.24-1.94.36-.13.02-.27.05-.4.08-.38.1-.57,0-.56-.39.04-.92.15-1.84.23-2.76.04-.43.08-.87.1-1.3.04-.84.05-1.68.09-2.53.02-.34-.12-.51-.47-.49-.51.03-1.02.03-1.53.1-.34.04-.68.16-1.01.27-.09.03-.19.19-.2.3-.05.42-.06.84-.1,1.27-.02.25-.07.49-.11.74-.02.12-.1.27-.06.36.33.69-.18,1.32-.11,2,.07.7.03,1.42.01,2.13-.01.35-.35.64-.82.66-.68.03-1.36.01-2.04,0-.06,0-.17-.16-.16-.24.04-.74.12-1.49.16-2.23.04-.72.07-1.44.09-2.16.04-1.45.06-2.9.09-4.39Z" fill="#aad037" stroke-width="0"/><path d="M136.56,37.81c-.03.67-.02,1.3-.1,1.92-.08.64-.11.65-.78.68-.55.03-1.1.03-1.65,0-.29-.02-.54-.15-.51-.53.05-.83-.12-1.67.17-2.49.04-.12-.08-.29-.07-.44.08-1.02.19-2.04.25-3.06.04-.72,0-1.45,0-2.17,0-.82-.01-1.63,0-2.45.01-.42-.15-.89.25-1.24.03-.02,0-.11,0-.17.03-1.02.07-2.03.08-3.05,0-.23.06-.38.28-.44.77-.22,1.55-.39,2.36-.37.3,0,.53.3.49.6-.04.26-.07.53-.09.79-.04.86-.05,1.71-.1,2.57-.02.37-.11.73-.17,1.1-.06.39.18.5.5.49.74-.02,1.48-.05,2.22-.09.09,0,.2-.03.26-.09.23-.19.42-.37.42-.74,0-1.41.04-2.81.07-4.22.01-.65.15-.75.79-.79.37-.02.74-.18,1.11-.24.36-.06.73-.07,1.09-.08.04,0,.13.15.13.23-.02.63-.07,1.25-.08,1.87-.01.82,0,1.63,0,2.45,0,.32-.06.64-.08.96-.01.22.02.45,0,.67-.04.3-.13.59-.16.88-.05.38-.07.77-.09,1.15-.01.28,0,.56,0,.84,0,.91.01,1.82,0,2.74-.01.73-.05,1.45-.09,2.18,0,.12-.08.23-.11.34-.05.19-.25.36,0,.58.08.06.03.3,0,.45-.03.2-.1.39-.15.59-.06.22-.12.42-.43.4-.45-.03-.84.07-1.27.29-.34.18-.85.05-1.28.04-.05,0-.14-.17-.15-.26-.02-.21-.03-.44,0-.65.11-1.08.27-2.16.33-3.24.06-1,.02-2,0-2.99,0-.08-.18-.21-.27-.21-.78.01-1.57.02-2.35.1-.18.02-.43.31-.47.5-.09.5-.01,1.03-.13,1.52-.1.46.02.92-.2,1.41-.2.46-.04,1.08-.04,1.67Z" fill="#aad037" stroke-width="0"/><path d="M131.11,38.53c-.59.6-1.21,1.09-1.98,1.37-.18.06-.37.1-.56.12-.78.09-1.55.25-2.34.02-1.35-.39-2.26-1.28-3.07-2.39-.42-.58-.65-1.24-.97-1.86-.24-.47-.35-1.04-.39-1.57-.08-1.11-.14-2.24-.08-3.35.05-.87.23-1.74.46-2.58.1-.36.28-.69.33-1.08.03-.3.28-.57.45-.85.25-.43.46-.9.78-1.28.34-.4.76-.76,1.21-1.04.79-.51,1.64-.86,2.62-.48.11.04.26-.01.39.01,1.31.26,2.32.96,3.17,1.98.55.66.89,1.42,1.18,2.21.1.26.25.51.3.78.03.15-.06.43-.18.49-.58.27-1.19.49-1.79.71-.55.2-.82.08-1.03-.44-.36-.88-1.1-1.39-2.03-1.38-.42,0-.85.02-1.26.09-.36.07-.59.3-.72.69-.2.58-.51,1.12-.76,1.68-.04.08,0,.2,0,.3,0,.66.07,1.32-.02,1.97-.09.68.28,1.2.51,1.75.18.42.54.8.9,1.08.35.27.8.51,1.23.56.33.04.73-.18,1.03-.39.72-.5,1.3-1.11,1.47-2.02.05-.27.49-.32.75-.16.62.39,1.26.74,1.87,1.13.14.09.21.28.33.41.19.22-.01.31-.12.44-.03.04-.04.1-.06.15-.17.46-.28.96-.53,1.39-.3.53-.71,1.01-1.09,1.53Z" fill="#aad037" stroke-width="0"/><path d="M105.87,33.88c-.07.13-.14.25-.15.36-.01.52,0,1.04-.01,1.56-.01.29.1.37.37.36.74,0,1.44-.15,2.15-.37.39-.12.83-.1,1.24-.16.15-.02.3-.13.45-.16.18-.04.37-.04.56-.06,0,.13.02.27.01.4-.03.94-.05,1.89-.09,2.83,0,.25-.01.51-.1.74-.05.12-.27.23-.42.25-.51.06-1.06-.05-1.52.12-1.06.38-2.16.09-3.2.35-.7.18-1.4.31-2.12.33-.36.01-.49-.09-.46-.46.05-.72.08-1.45.09-2.18.01-.77,0-1.54,0-2.32,0-.67,0-1.34,0-2.01,0-.15.1-.3.15-.46.04-.16.1-.32.1-.48,0-.85,0-1.71,0-2.56.02-1.72.07-3.45.07-5.17,0-.41.28-.41.52-.44,1.08-.13,2.16-.24,3.24-.36.09-.01.18-.06.27-.08.31-.09.62-.23.93-.25.8-.06,1.61,0,2.39-.33.16-.07.47.05.63.19.15.13.2.37-.01.59-.11.12-.12.36-.13.55-.04.73-.06,1.45-.09,2.18-.01.29-.55.61-.99.64-.54.04-1.08.1-1.62.17-.52.07-1.03.18-1.54.25-.29.04-.53.05-.55.46-.03.45-.23.89-.22,1.32,0,.23.2.46-.03.68.24.09.48.28.7.25,1-.14,1.98-.49,3.01-.37.3.03.55.02.21.39-.09.1-.09.31-.1.47-.04.52-.05,1.05-.1,1.57,0,.09-.08.23-.16.25-.53.16-1.06.33-1.6.43-.31.06-.6.04-.9.25-.26.18-.65.17-1,.26Z" fill="#aad037" stroke-width="0"/><path d="M132.74,20.09c-.35,0-.66.02-.97-.01-.09-.01-.23-.19-.24-.29-.03-.37,0-.75-.01-1.13-.04-.79-.05-1.56-.31-2.34-.19-.59-.1-1.27-.12-1.91,0-.25.03-.53-.3-.56-.35-.04-.74-.07-.91.34-.25.59-.48,1.19-.69,1.8-.06.18-.04.39-.08.58-.14.61-.3,1.21-.45,1.81-.12.49-.21.98-.35,1.46-.1.34-.44.29-.7.34-.64.13-1.29.26-1.94.34-.24.03-.65,0-.7-.11-.1-.26-.06-.6,0-.9.04-.25.19-.47.26-.71.17-.61.3-1.23.49-1.84.18-.58.4-1.14.6-1.71.05-.14.06-.29.09-.44.03-.18.04-.36.09-.53.08-.28.19-.56.27-.84.18-.62.26-1.29.53-1.86.24-.52.2-1.11.56-1.6.17-.23.08-.62.18-.92.2-.61.46-1.2.66-1.81.08-.23.02-.51.08-.75.12-.48.2-1,.44-1.42.19-.34.3-.66.36-1.03.06-.37.42-.3.66-.35.57-.13,1.16-.19,1.74-.32.64-.15.9,0,.95.66.06.8.1,1.6.18,2.4.06.59.18,1.17.27,1.75.03.16.07.33.06.49-.05.86.15,1.68.33,2.51.02.1.01.2.02.3.03.7.04,1.4.1,2.09.03.33.2.65.24.98.06.51.04,1.02.1,1.53.08.71.23,1.42.3,2.13.04.42.2.88-.14,1.26-.11.12-.28.29-.4.27-.48-.08-.83.17-1.25.36M130.52,9.84c-.07.2-.11.41.18.42.12,0,.36-.12.36-.2.03-.59.02-1.18,0-1.77,0-.07-.12-.13-.18-.19-.05.06-.15.11-.16.17-.07.51-.12,1.01-.22,1.56Z" fill="#aad037" stroke-width="0"/><path d="M116.82,33.88c-.28.54-.64,1.02-.59,1.65.01.16-.03.33-.08.48-.22.59-.6,1.16-.65,1.76-.06.63-.42,1.14-.45,1.73-.03.49-.35.58-.67.55-.7-.05-1.31.36-1.99.35-.22,0-.5,0-.62-.12-.12-.12-.18-.5-.09-.61.35-.41.26-.91.4-1.36.17-.54.36-1.07.53-1.6.07-.23.1-.48.17-.71.06-.22.16-.43.23-.64.05-.15.08-.31.13-.47.11-.39.26-.77.33-1.16.12-.68.6-1.27.53-2,.49-.45.16-1.21.66-1.69.19-.19.12-.63.21-.94.19-.62.41-1.22.6-1.83.05-.17.01-.37.04-.55.08-.52.39-.96.45-1.52.04-.36.31-.72.33-1.16.01-.24.28-.33.54-.42.73-.25,1.46-.36,2.22-.39.48-.02.65.15.68.62.04.67.03,1.34.1,2,.04.43.18.85.28,1.27.02.09.05.19.05.28,0,.96.06,1.91.32,2.86.17.61.08,1.3.12,1.95,0,.16.06.32.08.49.09.57.22,1.14.25,1.72.03.75,0,1.5.34,2.21.02.05.02.11.02.16.03.62.05,1.25.09,1.87.05.68-.28.94-.91.97-.39.02-.72.08-1.06.27-.49.28-1.01,0-1.07-.55-.05-.45-.07-.9-.09-1.35-.03-.67.07-1.38-.12-1.99-.21-.68-.21-1.35-.23-2.03,0-.08-.09-.23-.13-.23-.3.02-.6.08-.92.14M117.88,28.82c0-.26.02-.52,0-.78,0-.08-.12-.2-.19-.21-.07,0-.22.11-.22.18-.05.61-.08,1.21-.09,1.82,0,.11.14.22.22.33.07-.09.18-.16.2-.26.05-.33.07-.67.1-1.09Z" fill="#aad037" stroke-width="0"/><path d="M104.51,16.35c0-.78,0-1.51,0-2.24.03-2.12.06-4.24.08-6.36,0-.63-.04-1.26.02-1.88.05-.52.21-1.04.35-1.55.02-.09.15-.18.25-.21.49-.15.99-.27,1.48-.41,1.11-.3,2.27-.45,3.39-.26,1.39.23,2.65.81,3.31,2.21.33.69.51,1.39.52,2.18.02,1.21-.31,2.22-1.15,3.1-.68.71-1.33,1.43-2.3,1.79-.5.19-.95.51-1.44.71-.48.2-1,.32-1.49.5-.11.04-.22.18-.25.3-.08.32-.15.64-.18.97-.03.31,0,.62,0,.93-.02.47-.06.94-.08,1.41-.03.58-.07,1.16-.08,1.74-.02.67-.1.75-.76.82-.25.03-.48.17-.73.21-.34.06-.69.09-1.03.13-.01-.12-.04-.24-.03-.35.02-.2.11-.4.11-.6.01-1.03,0-2.06,0-3.13M109.63,9.62c.41-.27.7-.62.93-1.08.37-.72.3-1.59-.31-2.03-.47-.34-1.89-.35-2.38,0-.1.07-.2.18-.24.29-.11.26-.24.53-.26.8-.06.81-.08,1.62-.09,2.44,0,.13.15.38.22.37.77-.02,1.48-.23,2.11-.79Z" fill="#aad037" stroke-width="0"/><path d="M142.75,18.59c0,.29.04.58-.04.83-.05.14-.29.31-.44.31-.7-.01-1.37.15-2.03.36-.12.04-.26,0-.39,0-.77.06-1.56.03-2.31.2-.68.15-1.34.23-2.02.24-.55,0-.82-.25-.67-.79.24-.9.13-1.81.15-2.71.02-.88-.01-1.77.01-2.65,0-.34.13-.67.16-1.01.02-.25-.04-.5-.03-.75,0-.17,0-.36.08-.5.21-.39.09-.77.09-1.17,0-.87.09-1.74.12-2.62.02-.48,0-.95.02-1.43.04-.87.1-1.75.18-2.62.03-.34.2-.53.6-.54.34,0,.68-.17,1.02-.24.36-.07.73-.15,1.1-.17.22-.01.31.15.22.38-.04.11-.08.24-.09.35,0,.56,0,1.13,0,1.69-.02,1.39-.03,2.78-.09,4.17-.06,1.53-.17,3.05-.26,4.58-.03.46-.09.91-.07,1.37,0,.13.23.37.33.36.57-.05,1.14-.18,1.71-.26.5-.07,1-.1,1.5-.16.34-.04.71.14,1.03-.16.03-.03.27.11.36.22.06.06.04.21.01.32-.05.19-.16.38-.18.57-.05.59-.07,1.19-.07,1.81Z" fill="#aad037" stroke-width="0"/><path d="M145.86,17.48c.03-2.09.05-4.13.1-6.17,0-.31.17-.62.27-.93.03-.09.07-.18.07-.28,0-.7,0-1.4,0-2.1,0-.31-.13-.46-.44-.43-.59.07-1.18.18-1.77.23-.31.03-.48-.19-.49-.48,0-.34-.04-.73.1-1.01.26-.51.23-1.03.24-1.55,0-.41.18-.56.59-.59.8-.05,1.6-.1,2.4-.17,1.04-.1,2.08-.22,3.11-.35.53-.07,1.06-.19,1.59-.24.09,0,.29.19.29.28-.03.89-.12,1.78-.15,2.66-.01.36-.24.46-.5.51-.67.13-1.35.22-2.02.37-.14.03-.32.26-.34.42-.22,1.36-.32,2.73-.28,4.12.04,1.26.02,2.52,0,3.78,0,.76-.04,1.51-.09,2.26-.01.21-.14.41-.16.62-.03.29-.06.6-.01.89.07.41-.15.66-.54.77-.54.16-1.14-.09-1.66.3-.23.17-.58-.1-.58-.41,0-.53-.03-1.05.2-1.57.12-.26.04-.6.06-.95Z" fill="#aad037" stroke-width="0"/><path d="M128.24,98.64c.34-.59.71-1.05,1.47-.9.21.04.43.02.65,0,.11-.01.26-.07.32-.16.21-.31.39-.65.58-.97.48-.84.33-1.42-.45-1.99-.35-.25-.65-.48-1.09-.26-.04.02-.19-.09-.18-.13,0-.1.05-.25.12-.29.37-.19.74-.48,1.13-.51.97-.08,1.95-.03,2.78.59.23.17.39.44.58.66.03.04.08.1.07.14-.06.34-.15.67-.21,1.01-.02.12.01.26.03.38.03.24.11.48.08.71-.04.35-.13.69-.26,1.02-.05.11-.26.21-.4.23-.59.05-1.2.03-1.78.11-.29.04-.62.19-.83.39-.36.36-.64.8-.97,1.19-.06.07-.18.12-.29.13-.36.06-.65.23-.87.52-.6.76-1.3.99-2.24.73-.63-.17-1.27-.29-1.89-.47-.27-.08-.51-.23-.76-.37-.05-.03-.07-.19-.03-.26.09-.16.21-.29.33-.43.06-.07.16-.1.24-.15.01.09,0,.21.05.25.13.11.28.25.43.26.78.02,1.56.02,2.34,0,.35,0,.74-.47.8-.84.03-.2.16-.39.27-.61Z" fill="#aad037" stroke-width="0"/><path d="M75.75,120.33c-.23-.49.14-.79.34-1.04.29-.36.73-.58,1.1-.88.14-.11.28-.24.39-.39.2-.26.34-.57.56-.8.39-.39.82-.73,1.24-1.08.06-.05.15-.07.23-.07.82,0,1.66-.11,2.41.35.18.11.35.26.46.43.36.54.78,1.06,1.02,1.66.14.34.03.82-.08,1.21-.09.34-.85.39-1.31.32-.78-.11-1.54-.2-2.21.42-.51.47-1.18.66-1.86.73-.52.05-1.05.02-1.58,0-.4-.01-.71-.38-.71-.86M80.97,117.68c-.23-.25-.44-.52-.69-.73-.1-.08-.37-.08-.47,0-.25.2-.48.45-.65.72-.4.61-.96,1-1.64,1.16-.6.14-.94.46-1.12,1-.16.47.26.91.74.75.44-.15.85-.4,1.27-.59.31-.14.46-.57.9-.45.04.01.11-.08.17-.1.23-.08.45-.22.68-.22.34,0,.51-.1.6-.44.07-.27.21-.52.3-.79.02-.06-.05-.15-.08-.31Z" fill="#aad037" stroke-width="0"/><path d="M64.96,27.62c.61-.14,1.1-.43,1.58-.78.12-.08.32-.06.49-.06.04,0,.09.1.13.16-.05.03-.1.07-.15.09-.37.15-.76.27-1.11.45-.21.11-.33.36-.53.5-.49.34-.98.68-1.5.99-1.2.7-2.11,1.73-3.11,2.66-.39.36-.71.74-1.01,1.18-.43.62-.98,1.15-1.45,1.74-.34.43-.62.9-.93,1.35-.01.02-.03.05-.03.07.09.64-.45,1-.67,1.5-.08.17-.06.38-.13.55-.17.39-.51.71-.51,1.18,0,.02-.06.06-.09.06-.03,0-.08-.04-.08-.07-.03-.64-.08-1.27-.06-1.91.02-.49.32-.88.62-1.26.25-.32.35-.75.57-1.1.43-.68.86-1.36,1.36-2,.37-.47.82-.88,1.27-1.28.6-.52,1.3-.95,1.82-1.53.45-.5.96-.85,1.5-1.2.53-.34,1.05-.68,1.57-1.03.14-.09.28-.17.43-.28Z" fill="#aad037" stroke-width="0"/><path d="M120.6,101.77c.3-.15.57-.32.86-.41.19-.06.42-.05.61.02.45.17.92,1.12.76,1.57-.05.13-.31.28-.45.26-.67-.13-1.1.29-1.58.62-.1.07-.22.15-.33.15-.35,0-.63.12-.93.3-.09.06-.44-.09-.47-.2-.05-.18.06-.4.11-.61,0,0,.09-.02.12,0,.54.3.69.28,1.19-.09.2-.15.42-.26.61-.41.08-.07.2-.23.17-.27-.07-.1-.21-.24-.31-.23-.32.02-.7-.16-.97.18-.01.01-.23-.08-.22-.12,0-.11.04-.27.12-.33.22-.16.46-.27.72-.42Z" fill="#aad037" stroke-width="0"/><path d="M36.38,82.35c-.26.3-.54.52-.92.58-.11.02-.24.08-.32.15-.2.17-.37.44-.69.24-.41-.25-.57-.73-.58-1.08-.02-.52.17-.86.6-1.09.13-.07.27-.14.41-.15.13,0,.26.07.38.11-.09.08-.18.15-.26.23-.21.2-.42.39-.61.6-.02.03.09.25.15.25.19,0,.39-.02.57-.08.33-.1.66-.21.98-.35.1-.04.24-.21.22-.28-.04-.15-.16-.28-.27-.41-.09-.11-.21-.19-.32-.28.14-.08.27-.21.41-.23.27-.03.57-.06.72.26.15.35.46.69.08,1.07-.16.16-.34.29-.54.45Z" fill="#aad037" stroke-width="0"/><path d="M88.46,120.27c-.1.13-.21.23-.26.36-.24.62-.64.94-1.29.92-.31,0-.69,0-.92-.17-.46-.34-.3-1.26.25-1.66.27-.19.59-.32.91-.42.68-.2,1.25.23,1.3.97M86.83,119.99c-.18.18-.37.35-.53.55-.04.04,0,.2.04.25.05.05.2.08.25.04.26-.18.51-.37.75-.58.03-.02-.03-.22-.08-.25-.1-.04-.22-.01-.43-.01Z" fill="#aad037" stroke-width="0"/><path d="M75.69,79.92c.13.72.06.83-.61,1.09-.21.08-.39.25-.6.33-.57.21-1.13-.09-1.34-.66-.19-.5.25-.67.5-.89.32-.28.71-.51,1.1-.67.26-.1.59-.04.89-.03.04,0,.13.13.12.15-.05.07-.12.16-.2.18-.65.14-1.19.49-1.73.85-.23.16-.08.27.04.33.11.05.29.06.4,0,.41-.2.8-.44,1.2-.66.06-.03.14-.03.23-.02Z" fill="#aad037" stroke-width="0"/><path d="M59.97,85.43c-.22.16-.54.27-.6.46-.15.49-.36.33-.6.13-.25-.21-.66-.26-.65-.72,0-.68.04-.74.73-.85.08-.01.15-.06.21-.11.41-.34.92-.34,1.27.02.31.31.29.61-.07.87-.09.06-.18.12-.29.21Z" fill="#aad037" stroke-width="0"/><path d="M81.68,122.53c.49-.41,1.56-.51,2.03-.18.17.12.31.25.05.46-.15.12-.25.3-.36.45-.04.05-.06.15-.1.17-.54.17-1,.64-1.63.46-.19-.05-.46-.16-.5-.3-.05-.17.07-.42.16-.61.08-.16.22-.29.35-.45M82.31,122.85c-.42-.33-.46.17-.65.32-.03.02.04.26.09.28.38.13.57-.06.56-.6Z" fill="#aad037" stroke-width="0"/><path d="M78.27,77.33c.58-.06,1.12-.12,1.66-.17.14-.01.28.04.43.07-.09.11-.2.2-.26.32-.27.56-.88.65-1.33.96-.48.34-1.38.03-1.51-.53-.03-.13.16-.37.31-.47.18-.12.43-.13.7-.19Z" fill="#aad037" stroke-width="0"/><path d="M47.7,90.97c-.18.17-.32.35-.47.51-.39.4-.75.83-1.19,1.17-.31.24-.98.07-1.19-.24-.07-.1-.08-.36,0-.42.22-.19.5-.48.74-.46.65.04,1-.4,1.46-.7.18-.12.46-.08.69-.11,0,.09,0,.17-.04.26Z" fill="#aad037" stroke-width="0"/><path d="M109.78,77.49c-.07.1-.1.19-.15.27-.05.07-.13.13-.19.19-.05-.08-.12-.14-.15-.23-.22-.66-.54-1.24-1.13-1.65-.12-.09-.16-.29-.24-.44.19,0,.4-.06.56,0,.28.13.35.02.38-.22.02-.21.05-.41.09-.61,0-.05.06-.1.09-.15.03.05.09.1.1.15.04.2.03.42.1.61.13.32.28.65.49.92.29.38.43.73.06,1.16Z" fill="#aad037" stroke-width="0"/><path d="M37.55,83.52c.29.07.57.13.81.26.23.13.32.36.13.61-.32.44-.76.68-1.28.87-.43.15-.6-.17-.86-.32-.04-.02.02-.32.11-.42.33-.35.7-.66,1.08-1.01Z" fill="#aad037" stroke-width="0"/><path d="M83.4,88.37c.61,0,1.18.2,1.72-.25.21-.18.6-.14.91-.18.04,0,.15.12.14.18-.02.1-.08.24-.16.27-.33.15-.66.3-1,.4-.46.14-.9.27-1.25.68-.14.16-.61.02-.94,0-.02,0-.07-.13-.04-.17.19-.32.38-.62.62-.93Z" fill="#aad037" stroke-width="0"/><path d="M99.62,84.52c-.28.02-.54.03-.8.02-.18-.01-.44.11-.47-.2-.02-.21-.08-.52.04-.64.43-.45.98-.76,1.6-.79.29-.01.36.39.34.66-.02.44-.32.71-.71.94M99.25,83.85c-.09.33.17.13.27.17.05.02.14-.04.21-.07-.06-.06-.12-.15-.2-.18-.07-.02-.16.02-.28.08Z" fill="#aad037" stroke-width="0"/><path d="M90.33,85.83c.31-.71.41-.7,1.05-.32.3.18.71.17,1.06.26.12.03.23.11.34.16-.11.03-.21.08-.32.09-.45.04-.91.02-1.35.1-.27.05-.5.24-.75.37-.18.09-.36.18-.54.28-.07.04-.16.13-.21.11-.19-.07-.36-.18-.54-.27.08-.1.15-.24.26-.3.32-.17.65-.31,1-.49Z" fill="#aad037" stroke-width="0"/><path d="M30.6,111.97c.06.06.11.1.14.14.09.12.18.24.27.36-.17.04-.35.13-.5.1-.45-.1-.69-.57-.57-1.03.02-.08.02-.17.02-.25.02-.58.26-.78.83-.69.48.08.92.82.72,1.26-.02.06-.22.11-.24.08-.16-.17-.29-.37-.44-.55-.07-.09-.16-.16-.24-.24-.06.13-.18.26-.18.4,0,.13.1.27.18.43Z" fill="#aad037" stroke-width="0"/><path d="M67.41,83.68c.36.03.68.05,1,.09.08.01.14.1.21.16-.08.06-.16.17-.24.17-.36.02-.72-.01-1.08.02-.2.02-.58-.04-.34.4.04.08-.06.23-.09.34-.09-.04-.22-.06-.26-.13-.24-.36-.46-.73-.67-1.11-.02-.03.09-.2.15-.2.25-.01.49-.06.71.18.1.11.37.05.61.07Z" fill="#aad037" stroke-width="0"/><path d="M104.77,76.29c-.07,0-.1,0-.13,0-.19-.04-.37-.08-.56-.12.14-.1.27-.21.41-.31.29-.23.58-.43.98-.35.07.01.18-.03.21.01.3.36.61.06.92.03.08,0,.16.05.24.08-.03.07-.05.16-.1.21-.31.27-.65.44-1.1.38-.27-.03-.55.05-.87.08Z" fill="#aad037" stroke-width="0"/><path d="M62.2,94.1c-.38.03-.72.1-1.05.08-.49-.04-.71.35-1.01.59-.11.09-.12.39-.33.25-.11-.07-.14-.4-.08-.56.1-.27.3-.51.47-.76.03-.04.16-.08.18-.06.24.27.49.33.85.21.25-.08.55-.03.82,0,.07,0,.13.16.15.25Z" fill="#aad037" stroke-width="0"/><path d="M69.65,79.22c.2-.18.39-.34.64-.18.15.09.39.21.4.33,0,.15-.16.32-.28.48-.04.06-.17.07-.2.13-.13.3-.36.4-.62.26-.29-.15-.2-.46-.14-.72.02-.1.12-.18.2-.29Z" fill="#aad037" stroke-width="0"/><path d="M128.03,95.38c.21-.12.39-.25.59-.31.1-.03.23.05.35.08-.05.07-.1.14-.14.21-.15.3-.41.45-.71.44-.55-.02-.94.59-1.54.39-.07-.02-.2.17-.32.25-.05.04-.12.04-.18.06,0-.07-.04-.15-.02-.2.14-.36.45-.57.79-.55.45.03.8-.14,1.18-.39Z" fill="#aad037" stroke-width="0"/><path d="M77.47,70.15c.19.14.33.35.6.17.05-.03.31.16.36.29.1.25-.11.21-.27.22-.24,0-.48.03-.6-.27-.02-.05-.16-.07-.25-.07-.45,0-.89,0-1.34,0-.12,0-.37.12-.3-.18.02-.1.19-.24.29-.24.49,0,.99.05,1.5.1Z" fill="#aad037" stroke-width="0"/><path d="M54.23,89.95c.11-.02.2,0,.28-.02.17-.03.41-.22.46.09.04.26.13.61-.32.71-.16.03-.34.16-.43.3-.16.22-.27.14-.36-.01-.17-.31-.18-.8.36-1.05Z" fill="#aad037" stroke-width="0"/><path d="M51.6,92.36c-.18-.05-.38-.06-.44-.16-.19-.31-.44-.37-.77-.28-.07.02-.17-.06-.26-.1.08-.08.15-.23.23-.23.4-.02.81-.06,1.15.26.08.08.26.06.4.07.35.02.56.38.37.67-.03.05-.19.07-.26.04-.13-.06-.25-.18-.41-.27Z" fill="#aad037" stroke-width="0"/><path d="M52.06,86.48c.12-.09.22-.16.33-.23-.19-.04-.38-.1-.58-.12-.1,0-.2.06-.3.1-.02-.11-.1-.24-.06-.31.06-.11.2-.23.31-.23.31,0,.61.04.92.08.03,0,.05.15.04.22-.01.18,0,.37-.08.53-.07.16-.21.31-.35.4-.07.04-.24-.04-.34-.1-.07-.04-.11-.15-.16-.23.09-.03.17-.06.28-.12Z" fill="#aad037" stroke-width="0"/><path d="M39.01,90.63c.18-.44.51-.66.91-.75.1-.03.33.14.38.27.08.21-.3.63-.54.67-.1.02-.2.07-.3.11-.11.04-.22.09-.33.14-.04-.13-.08-.26-.12-.43Z" fill="#aad037" stroke-width="0"/><path d="M37.18,90.71c.27.15.36.77.18.99-.23.28-.56.31-.82.05-.04-.04-.05-.17-.02-.24.13-.32.15-.74.67-.8Z" fill="#aad037" stroke-width="0"/><path d="M62.38,90.02c.09-.13.19-.22.27-.32.17-.18.29-.16.43.05.13.2.32.35.48.53.08.1.14.22.21.34-.15.06-.36.22-.44.17-.34-.21-.63-.48-.95-.77Z" fill="#aad037" stroke-width="0"/><path d="M59.4,90.78c-.18.02-.35,0-.5.03-.43.09-.48-.39-.78-.51-.01,0,.04-.31.1-.32.15-.03.37-.04.46.05.25.25.51.37.87.34.1,0,.21.05.29.12.03.03,0,.21-.03.22-.1.03-.21,0-.32.01-.02,0-.05.03-.09.06Z" fill="#aad037" stroke-width="0"/><path d="M110.31,66.19c-.55-.21-.62-.48-.25-.88.08-.09.14-.2.19-.31.14-.31.5-.48.8-.34.07.03.12.14.15.22,0,.02-.09.11-.15.12-.54.1-.61.19-.62.74,0,.15-.05.29-.1.46Z" fill="#aad037" stroke-width="0"/><path d="M93.84,85.74c.15.3.3.57.4.86.03.08-.08.23-.16.31-.05.05-.22.06-.25.02-.25-.28-.49-.57-.7-.88-.04-.05.09-.3.18-.33.15-.05.33,0,.52.02Z" fill="#aad037" stroke-width="0"/><path d="M41.96,76.38c-.13-.31-.09-.47.26-.44.13.01.26,0,.39,0,.43,0,.52.13.29.49-.1.15-.24.3-.4.39-.08.05-.26.01-.34-.06-.09-.08-.13-.23-.19-.39Z" fill="#aad037" stroke-width="0"/><path d="M108.13,72.93c.02-.15.05-.29.11-.4.02-.04.15-.03.23-.04,0,.07.05.16.02.2-.2.25.02.29.15.44.23.26.38.59.54.9.02.04-.03.13-.04.19-.05-.02-.1-.04-.15-.07-.34-.19-.67-.38-.6-.87.01-.1-.16-.22-.27-.35Z" fill="#aad037" stroke-width="0"/><path d="M47.7,92.28c0-.46.08-.5.47-.36.14.05.31,0,.46,0,.06,0,.13-.07.19-.06.17.04.33.11.49.18.02,0,0,.16-.01.16-.17.04-.33.08-.5.09-.35.01-.7,0-1.09,0Z" fill="#aad037" stroke-width="0"/><path d="M40.59,80.27c-.01-.49.33-.43.62-.4.19.02.38.13.56.2-.18.16-.34.39-.55.47-.2.07-.52.11-.63-.26Z" fill="#aad037" stroke-width="0"/><path d="M76.43,61.24c.16.03.36.04.42.14.09.13.09.34.11.51,0,.02-.06.06-.09.06-.31-.04-.63-.07-.94-.13-.03,0-.07-.2-.04-.22.16-.13.33-.23.52-.36Z" fill="#aad037" stroke-width="0"/><path d="M30.26,109.67c-.17.05-.43.13-.44.09-.09-.2-.16-.43-.17-.65,0-.1.16-.3.18-.29.19.08.42.16.52.32.07.11-.03.34-.08.54Z" fill="#aad037" stroke-width="0"/><path d="M86.37,61.98c.06-.03.1-.05.14-.05.23-.01.47-.02.7-.02-.07.17-.14.34-.23.5-.15.27-.45.34-.67.23-.31-.17-.1-.42.05-.66Z" fill="#aad037" stroke-width="0"/><path d="M76.45,74.38c.22,0,.39,0,.56,0,.05,0,.12.07.12.11,0,.05-.05.14-.08.14-.54.04-1.07.06-1.61.08-.04,0-.13-.17-.12-.19.08-.09.19-.21.29-.21.26,0,.52.05.83.08Z" fill="#aad037" stroke-width="0"/><path d="M49.06,69.23c-.22-.04-.36-.17-.12-.3.47-.25.97-.43,1.46-.63.04-.02.11.01.15.04.01,0,0,.09-.02.11-.23.19-.36.49-.76.48-.23,0-.46.18-.71.31Z" fill="#aad037" stroke-width="0"/><path d="M74.1,90.36c.17.16.37.3.42.48.12.43-.25.34-.43.29-.17-.05-.29-.25-.43-.38.13-.13.26-.25.43-.38Z" fill="#aad037" stroke-width="0"/><path d="M42.29,79.92c.12-.04.21-.06.31-.06.41,0,.44.05.28.43-.12.29-.35.46-.61.3-.1-.06,0-.43.02-.67Z" fill="#aad037" stroke-width="0"/><path d="M109.22,80.09c.02-.3-.2-.76.4-.67.12.02.27.1.34.2.04.06-.04.23-.11.31-.15.19-.26.6-.62.15Z" fill="#aad037" stroke-width="0"/><path d="M76.12,89.08c.19-.03.38-.09.52-.03.14.06.22.24.33.36-.14.05-.29.11-.43.16-.05.02-.12.01-.17,0-.13-.02-.26-.06-.4-.09.04-.13.09-.26.15-.41Z" fill="#aad037" stroke-width="0"/><path d="M80.21,69.97c-.41.07-.79.11-1.17.15-.05,0-.15-.07-.14-.08.03-.12.06-.31.12-.32.37-.06.75-.09,1.12-.09.03,0,.07.22.08.35Z" fill="#aad037" stroke-width="0"/><path d="M87.98,63.37c.09-.31.2-.6.32-.88.01-.03.17-.02.17-.01.05.25.16.52.1.75-.06.23-.33.28-.59.14Z" fill="#aad037" stroke-width="0"/><path d="M62.2,85.67c.09.02.17.03.19.06.03.06.04.19.02.2-.28.15-.57.29-.86.42,0,0-.13-.16-.11-.19.11-.17.23-.35.39-.48.07-.06.22,0,.38,0Z" fill="#aad037" stroke-width="0"/><path d="M102.14,80.53c-.08.08-.14.15-.21.2-.11.09-.23.16-.35.24-.07-.16-.21-.33-.18-.47.02-.12.23-.26.37-.28.16-.02.43-.04.36.31Z" fill="#aad037" stroke-width="0"/><path d="M117.6,64.98c-.11,0-.2-.03-.29-.07-.26-.1-.32-.34-.09-.5.17-.11.4-.14.61-.19.03,0,.14.17.12.21-.09.18-.21.34-.35.53Z" fill="#aad037" stroke-width="0"/><path d="M115.34,68.41c.08.16.15.3.21.44-.27.02-.56.11-.82.05-.17-.04.02-.44.28-.51.09-.02.2,0,.32.02Z" fill="#aad037" stroke-width="0"/><path d="M116.84,70.21c.2.11.37.22.51.35.02.02-.09.27-.17.29-.15.03-.37.03-.48-.06-.29-.22-.09-.41.14-.58Z" fill="#aad037" stroke-width="0"/><path d="M33.95,97.16c-.33.14-.38.73-.89.59-.1-.03-.2-.03-.3-.04.05-.11.07-.29.15-.31.33-.11.68-.18,1.04-.24Z" fill="#aad037" stroke-width="0"/><path d="M49.11,40.39c0-.12.03-.31.06-.31.31-.02.63-.02.95,0,.06,0,.12.09.19.14-.06.04-.11.1-.17.11-.33.04-.67.06-1.02.07Z" fill="#aad037" stroke-width="0"/><path d="M31.56,100.77c.08.22.17.47-.12.52-.09.02-.23-.23-.34-.36-.03-.04-.08-.09-.08-.13-.02-.12-.02-.23-.02-.35.12.22.55-.14.56.33Z" fill="#aad037" stroke-width="0"/><path d="M115.08,75.49c.02-.09,0-.17.02-.24.03-.14.08-.28.12-.43.08.15.19.3.22.46.04.19.02.4,0,.6,0,.07-.07.14-.11.21-.05-.05-.12-.1-.15-.16-.06-.14-.09-.29-.11-.45Z" fill="#aad037" stroke-width="0"/><path d="M105.22,77.23c.03-.15.05-.33.15-.4.06-.04.25.06.36.13.1.06.18.15.24.24.03.05-.01.14-.03.21-.23-.06-.47-.11-.72-.19Z" fill="#aad037" stroke-width="0"/><path d="M42.46,5.17c-.02-.11-.02-.2-.02-.28.14.03.32.02.43.1.17.12.31.29.45.45.04.04.01.13.02.2-.09,0-.19.02-.26-.02-.21-.13-.4-.28-.62-.44Z" fill="#aad037" stroke-width="0"/><path d="M60.96,90.82c-.09.19-.89.35-.99.21-.04-.06-.04-.17-.02-.24,0-.04.11-.08.16-.07.28.02.55.05.85.1Z" fill="#aad037" stroke-width="0"/><path d="M115.02,72.9c-.04.23-.08.41-.12.59-.08-.17-.15-.35-.23-.52-.03-.06-.04-.12-.07-.19-.05-.11-.09-.22-.14-.32.15.06.3.11.43.19.06.04.08.13.12.24Z" fill="#aad037" stroke-width="0"/><path d="M90.67,84.96c-.13-.06-.27-.12-.34-.23-.07-.1-.11-.35-.09-.36.16-.08.34-.11.52-.14.03,0,.07.11.1.16-.04.02-.09.04-.13.06-.07.04-.14.08-.21.11.06.06.12.11.16.18.03.05.01.12,0,.2Z" fill="#aad037" stroke-width="0"/><path d="M111.65,65.11c.15-.04.27-.06.4-.08-.03.18-.04.38-.1.55-.03.09-.16.14-.25.2-.05-.07-.15-.14-.15-.22,0-.14.05-.29.1-.46Z" fill="#aad037" stroke-width="0"/><path d="M48.3,90.36c.25-.03.45-.07.66-.09.07,0,.14.02.21.04-.03.08.18.26-.11.23-.28-.03-.56,0-.84,0,.01-.06.02-.12.08-.17Z" fill="#aad037" stroke-width="0"/><path d="M38.07,92.78c-.09-.12-.17-.22-.24-.32.09-.03.19-.1.26-.08.17.06.32.16.48.24-.05.06-.08.16-.14.18-.11.03-.23,0-.36-.01Z" fill="#aad037" stroke-width="0"/><path d="M47.7,69.78c-.13.03-.22.06-.31.08.04-.07.07-.16.14-.2.22-.12.44-.22.67-.32.04-.01.11.06.17.1-.05.05-.09.12-.14.15-.16.07-.32.12-.53.18Z" fill="#aad037" stroke-width="0"/><path d="M57.23,89.21c-.12-.09-.24-.18-.29-.31-.02-.04.14-.16.22-.24.03.18.06.35.07.55Z" fill="#aad037" stroke-width="0"/><path d="M125.96,97.05c-.08.11-.16.17-.24.24,0-.16-.03-.32,0-.47.02-.07.13-.13.2-.19,0,.13.02.25.03.42Z" fill="#aad037" stroke-width="0"/><path d="M76.88,62.65c.08-.12.17-.19.25-.26,0,0,.09.06.09.1,0,.16,0,.32,0,.47-.11-.09-.23-.18-.34-.31Z" fill="#aad037" stroke-width="0"/><path d="M47.96,94.01c-.12.1-.24.15-.36.2,0-.1-.02-.2-.03-.29.13.02.26.03.39.09Z" fill="#aad037" stroke-width="0"/><path d="M46.41,70.41c-.11,0-.2,0-.28-.02.13-.08.25-.18.39-.24.05-.02.13.06.2.1-.1.05-.19.1-.31.17Z" fill="#aad037" stroke-width="0"/><path d="M43.87,80.9c-.09,0-.13,0-.17,0-.15-.02-.29-.04-.44-.06.01-.04.03-.11.04-.11.22.03.43.07.65.1-.01.02-.03.05-.09.07Z" fill="#aad037" stroke-width="0"/><path d="M79.29,70.93c.01.06.01.12,0,.13-.1.06-.21.1-.32.14-.02-.07-.05-.19-.04-.2.11-.05.23-.07.37-.08Z" fill="#aad037" stroke-width="0"/><path d="M52.36,67.67c-.12-.03-.22-.08-.33-.13.08-.05.18-.16.25-.15.11.02.32.08.07.28Z" fill="#aad037" stroke-width="0"/><path d="M86.33,87.74s.07-.07.09-.06c.12.03.23.07.34.1-.03.05-.08.15-.1.14-.12-.04-.24-.11-.33-.18Z" fill="#aad037" stroke-width="0"/><path d="M52.65,84.98c.14.05.25.1.35.15-.04.04-.11.11-.12.11-.1-.08-.18-.17-.23-.26Z" fill="#aad037" stroke-width="0"/><path d="M65.22,83c.03.09.04.17.04.24-.09-.03-.19-.05-.28-.08.07-.06.14-.12.24-.16Z" fill="#aad037" stroke-width="0"/><path d="M32.08,97.86c.09.03.15.08.22.13-.07.03-.14.07-.21.1-.01-.07-.02-.14-.01-.23Z" fill="#aad037" stroke-width="0"/><path d="M71.13,9.47c-.09,0-.17-.02-.24-.04.02-.04.05-.08.07-.12.06.04.12.09.16.15Z" fill="#aad037" stroke-width="0"/><path d="M57.16,105.48c.56.22.64.75.85,1.18.14.28-.32.82-.7.91-.08.02-.17,0-.24.05-.14.09-.33.31-.38.28-.3-.18-.58-.39-.82-.63-.3-.31-.24-.69.09-1.06.19-.22.39-.44.52-.7.22-.45.42-.28.68-.02Z" fill="#aad037" stroke-width="0"/><path d="M55.01,113.36c-.02-.19,0-.37-.03-.54-.09-.45.16-.61.54-.71.78-.23,1.5.03,1.76.66.28.67.1,1.28-.46,1.38-.49.09-.99-.03-1.39-.37-.14-.12-.27-.26-.42-.42M55.86,113.25c.21.27.43.1.55-.06.06-.08-.03-.41-.12-.44-.19-.06-.42,0-.63,0,0,.04,0,.09,0,.12.05.11.1.22.19.37Z" fill="#aad037" stroke-width="0"/><path d="M58.88,99.59c-.1-.07-.2-.11-.26-.18-.07-.09-.1-.21-.15-.32.11-.04.22-.12.34-.12.75-.01,1.5,0,2.26-.01.25,0,.37.06.36.33,0,.25,0,.49-.33.54-.37.06-.74.19-1.1.15-.37-.04-.73-.24-1.12-.39Z" fill="#aad037" stroke-width="0"/><path d="M59.01,100.9c.22-.1.41-.2.62-.26.18-.05.47-.15.54-.07.25.27.59.21.88.32.11.04.23.13.28.23.02.05-.09.21-.18.25-.44.22-.9.35-1.41.23-.16-.04-.36.03-.51-.03-.15-.06-.27-.21-.36-.35-.03-.05.08-.19.14-.32Z" fill="#aad037" stroke-width="0"/><path d="M60.2,102.35c.26.03.48.05.7.09.3.05.35.19.14.42-.26.29-1.34.53-1.66.34-.09-.05-.14-.25-.12-.37.03-.14.13-.33.25-.38.2-.08.43-.07.69-.1Z" fill="#aad037" stroke-width="0"/><path d="M59.79,112.58c-.23-.09-.52-.04-.46-.43.06-.33.28-.36.53-.33.23.02.48.02.7.1.11.04.21.21.24.34.01.07-.14.22-.24.24-.24.06-.49.07-.76.08Z" fill="#aad037" stroke-width="0"/><path d="M61.33,104.61c-.22.27-.46.44-.76.22-.21-.15-.14-.34.09-.39.23-.05.53-.32.68.16Z" fill="#aad037" stroke-width="0"/><path d="M55.25,114.6c.08.05.12.1.16.15-.21,0-.42.02-.63.02-.01,0-.05-.07-.04-.1,0-.03.05-.06.09-.06.13,0,.26,0,.43,0Z" fill="#aad037" stroke-width="0"/><path d="M85.59,104.11c-.32,0-.62,0-.92-.03-.09-.01-.16-.15-.23-.23.08-.06.15-.14.23-.19.26-.16.53-.33.8-.46.08-.04.25-.01.31.05.07.06.12.25.08.31-.13.17.12.51-.28.56Z" fill="#aad037" stroke-width="0"/><path d="M87.33,106.63l-.08.08c-.1-.1-.25-.19-.27-.31-.04-.25-.02-.53.31-.57.12-.01.36.17.36.2-.07.2-.18.38-.31.59Z" fill="#aad037" stroke-width="0"/><path d="M81.73,107.89c.08-.03.19-.05.19-.05.11.49-.22.9-.74.94-.04,0-.08-.02-.11-.03.03-.1.04-.22.11-.29.17-.19.36-.36.56-.57Z" fill="#aad037" stroke-width="0"/><path d="M87.92,105.91c-.16-.3.09-.14.17-.17.04-.02.11.03.16.05-.1.04-.19.08-.33.12Z" fill="#aad037" stroke-width="0"/><path d="M42.77,111.06c.12-.17.21-.31.3-.46.11.14.24.28.32.44.07.15.14.34.1.49-.03.12-.26.29-.33.27-.13-.05-.23-.22-.32-.37-.06-.1-.06-.23-.07-.37Z" fill="#aad037" stroke-width="0"/><path d="M110.39,92.95c-.47.3-.91.6-1.38.83-.11.06-.41-.04-.48-.16-.08-.13-.08-.4,0-.54.15-.24.37-.45.6-.61.44-.31,1.22-.27,1.25.48Z" fill="#aad037" stroke-width="0"/></g></svg>