<?xml version="1.0" encoding="UTF-8"?><svg id="b" xmlns="http://www.w3.org/2000/svg" width="112.09" height="112.09" viewBox="0 0 112.09 112.09"><g id="c"><path d="M112.09,62.3s-.04.03-.05.03c-.04.43-.07.87-.12,1.3-.06.48-.14.97-.22,1.45-.06.38-.15.76-.22,1.15-.13.69-.25,1.38-.4,2.06-.18.81-.38,1.62-.6,2.42-.2.73-.41,1.46-.65,2.18-.32.99-.65,1.98-1,2.97-.24.66-.53,1.3-.78,1.96-.66,1.72-1.54,3.32-2.36,4.96-.35.7-.77,1.37-1.19,2.04-.75,1.2-1.5,2.39-2.28,3.57-.33.5-.72.97-1.08,1.45-.33.44-.66.89-.99,1.32-.3.39-.61.78-.93,1.15-.62.72-1.23,1.44-1.87,2.14-.51.55-1.06,1.07-1.59,1.6-.35.35-.69.72-1.05,1.05-.69.62-1.4,1.22-2.1,1.83-.41.36-.81.73-1.24,1.07-.48.38-.98.74-1.47,1.1-.47.35-.93.72-1.41,1.05-.75.52-1.51,1.03-2.28,1.53-.65.42-1.3.83-1.97,1.21-1,.55-2.01,1.08-3.02,1.6-.78.4-1.56.79-2.35,1.15-.76.35-1.54.66-2.32.97-.7.27-1.42.53-2.13.76-.99.32-1.98.63-2.98.91-.94.27-1.87.53-2.82.75-.79.19-1.6.31-2.4.46-.45.09-.9.19-1.35.26-.41.07-.83.12-1.25.18-.4.05-.81.09-1.21.15-4.17.01-8.34.01-12.53.01-.03-.02-.04-.05-.06-.05-.61-.06-1.22-.1-1.83-.17-.43-.05-.85-.17-1.27-.25-.59-.11-1.18-.19-1.77-.3-.44-.08-.87-.2-1.3-.3-.88-.21-1.76-.4-2.62-.63-.62-.16-1.22-.38-1.82-.57-.52-.17-1.05-.34-1.57-.52-.46-.16-.92-.33-1.39-.51-.53-.2-1.07-.38-1.59-.61-.72-.31-1.44-.65-2.15-.98-.74-.34-1.48-.68-2.2-1.05-.54-.27-1.06-.58-1.59-.89-.65-.37-1.32-.73-1.95-1.13-.99-.63-1.97-1.28-2.93-1.94-.62-.42-1.22-.87-1.82-1.32-.41-.3-.81-.61-1.21-.94-.58-.47-1.15-.94-1.71-1.44-.59-.52-1.15-1.07-1.73-1.61-.46-.43-.91-.86-1.36-1.3-.47-.47-.94-.94-1.38-1.44-.68-.77-1.33-1.57-1.99-2.36-.49-.59-1-1.17-1.45-1.79-.75-1.03-1.48-2.08-2.18-3.14-.94-1.41-1.81-2.86-2.58-4.37-.53-1.04-1.06-2.07-1.54-3.13-.5-1.1-.93-2.23-1.38-3.36-.26-.66-.52-1.33-.73-2.01-.38-1.18-.74-2.37-1.08-3.57-.21-.74-.39-1.49-.55-2.25-.1-.46-.14-.93-.23-1.39-.07-.41-.17-.81-.24-1.22-.07-.42-.13-.84-.2-1.27-.07-.43-.15-.86-.21-1.29-.03-.23-.04-.46-.06-.69-.04-.41-.08-.81-.11-1.22-.04-.55-.06-1.1-.1-1.64C0,57.25,0,55.04,0,52.81c.02-.05.05-.08.05-.11.02-.57.01-1.14.06-1.71.06-.66.18-1.32.27-1.98.06-.48.1-.96.17-1.44.07-.47.15-.94.23-1.41.12-.63.24-1.26.37-1.88.1-.48.2-.96.33-1.43.32-1.19.65-2.37.99-3.55.17-.59.34-1.18.55-1.75.46-1.22.91-2.45,1.44-3.64.6-1.35,1.23-2.68,1.92-3.99.64-1.21,1.36-2.37,2.08-3.54.54-.88,1.09-1.76,1.68-2.6.48-.68,1.01-1.33,1.53-1.98.68-.86,1.36-1.72,2.06-2.55.53-.63,1.09-1.22,1.65-1.82.4-.43.8-.87,1.23-1.28.8-.77,1.61-1.54,2.44-2.27.81-.71,1.65-1.39,2.5-2.06.64-.5,1.32-.97,1.99-1.44.84-.6,1.68-1.21,2.54-1.76.83-.53,1.68-1.03,2.54-1.5,1.13-.62,2.28-1.23,3.44-1.79,1.03-.49,2.09-.92,3.15-1.36.57-.24,1.15-.45,1.73-.67.69-.26,1.38-.53,2.08-.75.77-.25,1.55-.46,2.34-.67.67-.18,1.34-.35,2.02-.5.61-.14,1.23-.25,1.85-.38.38-.08.76-.17,1.14-.24.41-.08.83-.13,1.24-.2.55-.09,1.1-.19,1.65-.27.29-.04.59-.04.88-.06.62-.06,1.23-.13,1.84-.2C54.48,0,56.98,0,59.5.01c.12,0,.23,0,.34-.01.16,0,.31,0,.48,0,.15.04.28.09.42.11.5.05,1,.06,1.49.12.62.07,1.24.18,1.87.27.43.06.85.1,1.28.17.38.06.76.14,1.15.22.48.09.95.18,1.43.28.53.11,1.06.23,1.58.37,1.19.31,2.38.62,3.56.96.54.15,1.06.35,1.59.55.79.29,1.57.59,2.35.89,1.8.69,3.54,1.52,5.24,2.42,1.18.62,2.32,1.31,3.46,2,.93.57,1.85,1.17,2.75,1.79.8.55,1.56,1.15,2.33,1.74.62.48,1.23.97,1.84,1.46.2.16.39.35.58.52.38.34.77.68,1.14,1.03.61.58,1.23,1.16,1.82,1.77.78.8,1.56,1.62,2.29,2.46.74.85,1.45,1.74,2.14,2.63.69.89,1.36,1.79,1.99,2.72.74,1.09,1.44,2.21,2.13,3.32.34.56.64,1.14.96,1.72.32.59.65,1.18.93,1.79.44.93.85,1.88,1.27,2.83.27.63.55,1.26.79,1.9.36.98.72,1.96,1.03,2.96.41,1.36.78,2.74,1.15,4.11.16.59.32,1.17.44,1.77.12.59.18,1.19.28,1.78.08.47.19.93.27,1.4.04.21.04.42.06.64.04.4.09.81.15,1.21.01,4.13.01,8.27.01,12.42M51.73,1.65c-.15,0-.29-.02-.43,0-.48.07-.97.15-1.45.22-.62.08-1.24.14-1.86.22-.69.1-1.38.2-2.06.33-.95.18-1.9.36-2.83.61-1.54.41-3.06.87-4.59,1.34-.68.21-1.34.47-2,.74-.99.39-1.99.78-2.96,1.22-.94.43-1.87.89-2.78,1.39-1.4.77-2.78,1.57-4.15,2.39-.75.45-1.49.95-2.19,1.48-1.02.76-2.03,1.54-3.01,2.35-.9.74-1.79,1.49-2.62,2.3-1.5,1.46-3.02,2.91-4.35,4.55-.45.56-.94,1.09-1.37,1.66-.6.78-1.17,1.58-1.73,2.39-.48.69-.96,1.38-1.42,2.08-.32.5-.6,1.03-.9,1.55-.46.8-.93,1.59-1.37,2.4-.75,1.41-1.44,2.85-2.02,4.33-.36.92-.74,1.82-1.06,2.75-.35.99-.67,2-.95,3.01-.32,1.15-.6,2.3-.86,3.47-.21.96-.38,1.94-.55,2.91-.12.68-.23,1.36-.33,2.04-.09.64-.17,1.28-.22,1.92-.07.87-.16,1.73-.16,2.6,0,1.96-.1,3.91.1,5.87.05.51.07,1.02.11,1.53,0,.09.04.19.05.28.04.46.05.93.12,1.38.09.68.22,1.36.33,2.04.11.69.2,1.38.34,2.06.12.63.27,1.26.44,1.88.32,1.2.64,2.39.99,3.58.41,1.39.9,2.76,1.48,4.09.49,1.13.95,2.28,1.46,3.41.23.53.54,1.03.81,1.53.37.69.74,1.38,1.13,2.06.47.81.94,1.62,1.46,2.39.94,1.41,1.9,2.8,2.99,4.1.65.78,1.27,1.59,1.93,2.36.46.54.96,1.04,1.47,1.53,1.17,1.14,2.25,2.37,3.54,3.39.59.47,1.15.98,1.74,1.45.57.46,1.14.9,1.73,1.34.47.35.93.7,1.42,1.03.73.49,1.46.98,2.21,1.44.73.45,1.49.88,2.24,1.31.55.32,1.1.65,1.68.93.89.44,1.79.85,2.7,1.24,1.16.49,2.33.97,3.51,1.42.94.35,1.89.67,2.84.97.81.25,1.63.45,2.45.66.83.21,1.66.43,2.5.6.91.18,1.84.3,2.76.45.17.03.35.03.53.06.57.09,1.13.2,1.7.27.63.08,1.27.13,1.91.17.84.05,1.68.12,2.51.1,1.5-.03,2.99.1,4.49-.08.82-.1,1.66-.03,2.49-.18.45-.08.92-.06,1.38-.12.7-.09,1.39-.21,2.09-.33.67-.11,1.35-.19,2.01-.34.88-.19,1.75-.42,2.61-.66,1.06-.28,2.13-.57,3.18-.88.74-.22,1.46-.5,2.19-.76.56-.21,1.1-.43,1.65-.66,1.02-.42,2.05-.81,3.04-1.29,1.31-.65,2.59-1.36,3.87-2.07.74-.41,1.47-.86,2.17-1.33.94-.63,1.87-1.3,2.79-1.96.58-.42,1.16-.84,1.72-1.29.59-.48,1.14-.99,1.72-1.49.44-.38.92-.71,1.32-1.12,1.37-1.37,2.8-2.69,4.02-4.22.71-.89,1.47-1.73,2.17-2.63.61-.77,1.19-1.57,1.74-2.39.65-.98,1.28-1.98,1.88-2.99.57-.95,1.13-1.91,1.63-2.9.58-1.15,1.12-2.32,1.63-3.5.52-1.22.99-2.45,1.44-3.69.33-.92.63-1.85.89-2.79.28-1,.5-2.02.72-3.03.18-.82.34-1.64.5-2.46.14-.72.28-1.45.38-2.18.11-.77.2-1.55.28-2.33.07-.81.17-1.62.16-2.43-.03-1.85.12-3.71-.08-5.57-.08-.76-.02-1.53-.17-2.3-.1-.54-.11-1.09-.18-1.63-.08-.61-.18-1.23-.27-1.84-.11-.72-.2-1.45-.34-2.17-.12-.66-.26-1.32-.44-1.96-.37-1.31-.75-2.62-1.15-3.92-.31-.99-.65-1.97-1.03-2.93-.43-1.1-.89-2.2-1.4-3.27-.54-1.16-1.12-2.31-1.74-3.43-.53-.98-1.13-1.92-1.73-2.86-.49-.78-.98-1.57-1.52-2.31-.68-.94-1.41-1.84-2.13-2.75-.63-.78-1.27-1.55-1.93-2.31-.45-.52-.95-1-1.43-1.5-.45-.47-.89-.96-1.36-1.41-.58-.55-1.19-1.06-1.79-1.58-.42-.37-.84-.75-1.28-1.11-.69-.55-1.4-1.09-2.11-1.62-.68-.5-1.35-1.02-2.05-1.48-.84-.56-1.71-1.09-2.58-1.61-.82-.49-1.64-.98-2.49-1.42-1.17-.6-2.36-1.17-3.56-1.71-1.11-.49-2.23-.94-3.36-1.38-.72-.28-1.46-.5-2.2-.72-.74-.22-1.48-.41-2.22-.61-.71-.19-1.42-.37-2.14-.55-.49-.12-.99-.23-1.49-.33-.31-.06-.61-.12-.92-.17-.42-.06-.83-.12-1.25-.18-.61-.09-1.23-.19-1.84-.26-.41-.05-.83-.08-1.25-.11-.28-.02-.55-.03-.83-.06-.74-.07-1.48-.2-2.22-.21-1.96-.02-3.93-.07-5.89.1-.22.02-.44.04-.72.06Z" fill="#aad037" stroke-width="0"/><path d="M108.53,64.54c-.05.35-.1.66-.16.98-.1.54-.19,1.08-.33,1.61-.31,1.26-.61,2.52-.96,3.77-.36,1.26-.76,2.52-1.19,3.75-.31.87-.68,1.73-1.07,2.57-.62,1.36-1.27,2.7-1.94,4.04-.34.69-.75,1.34-1.16,1.99-.62,1.01-1.25,2.02-1.91,3-.49.73-1.02,1.43-1.55,2.13-.44.58-.9,1.14-1.37,1.69-.7.81-1.4,1.61-2.13,2.4-.7.76-1.43,1.5-2.17,2.22-.55.53-1.12,1.04-1.7,1.54-.55.47-1.12.92-1.69,1.37-.63.49-1.25.99-1.9,1.46-.85.61-1.71,1.22-2.59,1.79-.77.5-1.57.97-2.37,1.41-1.33.72-2.67,1.43-4.03,2.09-1.07.51-2.17.95-3.27,1.38-.82.32-1.65.62-2.48.88-.83.27-1.68.5-2.52.73-.64.18-1.29.35-1.94.5-.59.14-1.19.24-1.79.36-.61.12-1.22.26-1.84.36-.44.08-.88.11-1.33.17-.67.09-1.34.18-2.01.27-.03,0-.05,0-.08,0-.41.02-.83.02-1.24.06-2.05.2-4.11.09-6.17.1-.8,0-1.61-.08-2.41-.16-.73-.07-1.45-.16-2.17-.27-.5-.07-1-.18-1.5-.26-.74-.13-1.47-.24-2.21-.38-.41-.08-.82-.18-1.23-.28-.71-.17-1.42-.34-2.12-.52-.44-.11-.87-.24-1.3-.38-1.02-.33-2.04-.66-3.04-1.03-.84-.31-1.67-.65-2.48-1.02-1.35-.62-2.69-1.26-4.01-1.94-.87-.45-1.7-.97-2.54-1.47-.53-.32-1.07-.64-1.58-.99-1.01-.7-2.01-1.4-2.99-2.13-.79-.59-1.53-1.24-2.3-1.86-.39-.32-.8-.61-1.16-.96-1.01-.97-2.01-1.95-3-2.94-.52-.52-1-1.08-1.48-1.64-.38-.44-.73-.9-1.09-1.35-.47-.59-.95-1.18-1.4-1.79-.59-.81-1.18-1.62-1.74-2.45-.44-.65-.81-1.35-1.25-2.01-1.01-1.55-1.81-3.22-2.62-4.88-.37-.75-.67-1.53-.97-2.31-.45-1.16-.89-2.32-1.31-3.49-.25-.7-.47-1.4-.67-2.12-.26-.94-.5-1.88-.71-2.82-.17-.78-.29-1.56-.44-2.35-.13-.71-.27-1.42-.37-2.13-.08-.57-.12-1.16-.17-1.73-.06-.76-.11-1.51-.16-2.27-.03-.43-.1-.87-.1-1.3-.01-1.35-.03-2.71,0-4.06.02-.72.14-1.43.2-2.14.03-.41.02-.83.06-1.24.06-.58.17-1.15.25-1.72.04-.3.08-.59.12-.89.09-.57.17-1.14.28-1.71.11-.61.23-1.21.37-1.81.15-.63.31-1.25.48-1.87.19-.72.38-1.44.59-2.15.13-.45.3-.9.46-1.34.17-.47.33-.94.51-1.4.3-.76.58-1.52.92-2.25.64-1.4,1.3-2.8,1.99-4.18.37-.75.82-1.46,1.26-2.17.59-.95,1.18-1.9,1.8-2.83.49-.73,1.03-1.44,1.56-2.15.5-.66,1.01-1.31,1.52-1.95.23-.29.49-.57.74-.85.38-.41.77-.81,1.16-1.21.75-.78,1.47-1.59,2.25-2.34.64-.62,1.35-1.19,2.03-1.78.44-.38.86-.77,1.31-1.14.51-.41,1.02-.8,1.55-1.18,1.03-.73,2.06-1.45,3.12-2.15.78-.51,1.59-1,2.41-1.44,1.18-.65,2.38-1.26,3.58-1.86.47-.24.97-.42,1.46-.63.6-.26,1.2-.52,1.81-.76.76-.3,1.53-.58,2.31-.85.83-.28,1.67-.56,2.52-.8.83-.24,1.66-.45,2.5-.65.7-.16,1.4-.31,2.11-.43.77-.13,1.54-.23,2.31-.33.74-.1,1.48-.19,2.23-.27.66-.07,1.32-.09,1.98-.17,1.91-.22,3.82-.07,5.74-.09.68,0,1.36.13,2.03.2.25.03.5.04.76.06.46.04.92.05,1.38.11.5.07,1,.18,1.5.26.41.06.82.11,1.22.16.32.05.64.09.95.16.54.12,1.08.24,1.62.38.74.19,1.48.37,2.21.58,1.08.31,2.16.62,3.22.99,1.04.36,2.08.74,3.08,1.19,1.53.68,3.04,1.4,4.54,2.15.86.43,1.69.95,2.52,1.46.88.53,1.75,1.08,2.59,1.66.69.47,1.35.99,2.02,1.5.64.49,1.28.98,1.91,1.48.31.25.61.53.91.8.31.28.64.55.94.84.71.68,1.41,1.36,2.1,2.05.38.39.75.8,1.1,1.21.68.77,1.36,1.54,2.01,2.34.61.74,1.2,1.49,1.77,2.25.45.6.86,1.24,1.28,1.86.32.47.63.94.93,1.42.5.82,1,1.64,1.46,2.49.57,1.05,1.13,2.11,1.63,3.2.51,1.12.97,2.27,1.41,3.42.39,1.02.76,2.05,1.09,3.1.35,1.12.66,2.26.96,3.39.21.81.38,1.64.54,2.47.12.62.18,1.25.27,1.88.11.72.23,1.43.32,2.15.05.44.03.89.06,1.33.05.55.12,1.1.18,1.64,0,.08.03.15.03.23,0,1.75.02,3.5,0,5.24-.01.77-.09,1.53-.16,2.3-.07.73-.17,1.45-.27,2.17-.06.42-.14.85-.21,1.29M20.66,88.12c.13.16.24.35.39.49,1.15,1.12,2.28,2.25,3.45,3.34.8.73,1.65,1.4,2.5,2.08.57.45,1.14.9,1.74,1.31.73.5,1.48.96,2.23,1.43.71.44,1.42.89,2.16,1.29.91.49,1.83.94,2.76,1.38.81.39,1.63.78,2.47,1.11,1.17.45,2.35.86,3.54,1.26.8.27,1.61.48,2.42.7.52.14,1.04.26,1.56.38.43.1.86.17,1.29.26.32.06.63.13.95.17.47.06.94.1,1.41.17.56.08,1.12.19,1.69.26.63.07,1.26.12,1.9.16.71.05,1.42.11,2.13.1.82,0,1.64.06,2.46-.08.62-.11,1.27,0,1.92-.1.61-.09,1.25-.05,1.87-.17.69-.14,1.39-.18,2.09-.28.69-.1,1.39-.19,2.07-.33.87-.17,1.75-.35,2.6-.59,1.14-.32,2.26-.68,3.38-1.06.86-.29,1.71-.63,2.55-.98.91-.37,1.82-.75,2.71-1.17.84-.4,1.66-.85,2.47-1.3.76-.42,1.52-.85,2.25-1.32.87-.56,1.72-1.15,2.56-1.75.59-.42,1.14-.88,1.71-1.33.63-.5,1.26-.99,1.88-1.51.39-.33.75-.68,1.1-1.04.99-1,1.97-2,2.95-3,.27-.28.51-.58.76-.87.13-.15.27-.3.4-.45.4-.52.8-1.05,1.2-1.57.36-.47.73-.93,1.06-1.42.53-.78,1.06-1.56,1.54-2.37.67-1.12,1.34-2.24,1.95-3.39.53-1.02,1-2.08,1.46-3.13.35-.81.67-1.64.97-2.47.29-.81.55-1.64.81-2.46.17-.55.34-1.1.48-1.65.14-.53.26-1.06.38-1.59.11-.48.24-.96.32-1.45.13-.75.22-1.51.33-2.26.09-.59.2-1.18.26-1.77.07-.67.12-1.33.16-2,.04-.59.05-1.17.08-1.76.05-.93.08-1.86-.06-2.81-.15-1.03-.12-2.09-.18-3.13-.02-.38-.07-.76-.11-1.14-.02-.21-.05-.43-.08-.64-.08-.48-.16-.95-.24-1.43-.06-.38-.1-.76-.18-1.14-.1-.5-.24-.99-.36-1.49-.21-.85-.4-1.71-.63-2.56-.18-.65-.39-1.29-.61-1.93-.22-.66-.45-1.32-.7-1.97-.28-.72-.6-1.43-.91-2.15-.23-.53-.43-1.08-.69-1.59-.48-.94-.99-1.87-1.5-2.79-.36-.65-.73-1.3-1.12-1.93-.38-.6-.79-1.18-1.2-1.76-.45-.64-.9-1.28-1.38-1.9-.41-.54-.85-1.05-1.29-1.56-.52-.62-1.02-1.25-1.58-1.84-.79-.84-1.63-1.64-2.45-2.46-.28-.27-.56-.54-.85-.79-.49-.41-.99-.82-1.48-1.22-.35-.29-.71-.58-1.07-.85-.48-.36-.95-.72-1.44-1.06-.81-.56-1.62-1.11-2.44-1.63-.66-.42-1.33-.81-2-1.2-.69-.39-1.38-.78-2.09-1.12-.81-.39-1.65-.74-2.48-1.1-.79-.34-1.58-.69-2.4-.96-1.36-.46-2.73-.91-4.12-1.29-1.06-.29-2.15-.49-3.23-.71-.74-.15-1.49-.26-2.24-.38-.61-.1-1.21-.2-1.82-.27-.65-.07-1.3-.12-1.95-.16-.6-.03-1.2-.06-1.81-.05-1.27,0-2.55.02-3.82.05-.5.01-.99.05-1.49.11-.67.07-1.34.2-2.01.26-.73.06-1.44.17-2.15.33-.82.18-1.65.3-2.46.49-1.07.26-2.14.53-3.2.85-1.58.48-3.14,1.01-4.64,1.72-.68.32-1.4.57-2.07.9-.92.45-1.82.93-2.72,1.42-.68.38-1.35.78-2,1.2-.84.54-1.66,1.1-2.48,1.67-.58.41-1.15.84-1.7,1.27-.4.31-.77.66-1.15.99-.66.57-1.34,1.12-1.97,1.72-.73.68-1.41,1.4-2.12,2.1-.1.1-.21.2-.3.31-.5.59-1,1.18-1.5,1.77-.35.42-.71.83-1.04,1.26-.5.65-.98,1.31-1.44,1.98-.53.77-1.05,1.55-1.54,2.35-.64,1.06-1.27,2.12-1.84,3.22-.58,1.12-1.11,2.26-1.61,3.42-.33.74-.6,1.51-.86,2.28-.29.83-.56,1.67-.81,2.52-.33,1.14-.62,2.29-.92,3.44-.07.26-.12.53-.16.79-.1.54-.19,1.09-.28,1.63-.07.42-.15.84-.2,1.26-.05.4-.07.81-.11,1.22-.08.79-.19,1.57-.26,2.36-.05.53-.06,1.06-.06,1.59,0,.99.03,1.97.05,2.96.01.6-.02,1.19.09,1.79.12.62.11,1.26.18,1.89.08.7.17,1.4.27,2.09.08.6.16,1.2.27,1.8.14.68.31,1.36.48,2.03.24.92.45,1.85.74,2.76.42,1.28.87,2.54,1.36,3.79.38.99.82,1.95,1.26,2.92.26.57.57,1.12.87,1.68.33.62.63,1.25.99,1.85.53.86,1.08,1.71,1.66,2.54.66.95,1.33,1.89,2.03,2.81.52.68,1.09,1.32,1.65,1.98.11.14.25.25.4.41Z" fill="#aad037" stroke-width="0"/><path d="M33.58,83.62c-.26-.2-.52-.38-.74-.59-.88-.83-1.78-1.64-2.61-2.52-.73-.78-1.39-1.64-2.06-2.48-.44-.55-.87-1.1-1.25-1.69-.51-.78-.97-1.59-1.43-2.39-.3-.51-.6-1.02-.84-1.56-.48-1.1-.95-2.21-1.34-3.34-.4-1.14-.72-2.31-1.02-3.47-.18-.68-.27-1.38-.38-2.07-.12-.7-.23-1.4-.32-2.1-.06-.45-.1-.9-.11-1.35-.03-1.55-.07-3.1-.05-4.66.01-.92.08-1.83.25-2.74.09-.46.1-.94.17-1.41.08-.53.16-1.06.27-1.58.14-.69.29-1.38.48-2.06.2-.71.44-1.41.67-2.11.51-1.55,1.16-3.04,1.91-4.48.41-.78.88-1.52,1.34-2.27.35-.57.73-1.12,1.12-1.66.43-.59.88-1.17,1.35-1.72.57-.66,1.22-1.26,1.75-1.94.63-.81,1.44-1.43,2.2-2.1,1.01-.89,2.07-1.72,3.15-2.51.74-.55,1.54-1.02,2.34-1.48.92-.52,1.86-1.01,2.8-1.47.59-.29,1.21-.53,1.83-.76.78-.29,1.57-.59,2.37-.83.85-.25,1.72-.45,2.58-.65.65-.16,1.31-.31,1.97-.43.46-.08.92-.11,1.38-.17.8-.09,1.59-.21,2.39-.26.56-.04,1.12.02,1.68.03.08,0,.16-.01.24-.04.38-.13.75.04,1.12.05.46.01.92-.07,1.38-.04.61.04,1.21.14,1.82.2.25.03.51.03.76.06.55.07,1.11.13,1.66.22.48.07.95.16,1.42.27.74.17,1.48.35,2.22.54.52.13,1.04.26,1.54.43.8.28,1.59.57,2.36.92,1.1.49,2.19,1.01,3.25,1.56.77.4,1.51.86,2.24,1.33.78.5,1.53,1.03,2.28,1.58.55.41,1.06.87,1.59,1.31,1.17.96,2.22,2.04,3.27,3.12.39.4.72.87,1.09,1.29.25.29.53.57.79.85.31.34.61.68.91,1.02.03.03.03.11.01.14-.07.11-.16.21-.24.3-.47.55-.95,1.1-1.43,1.64-.17.2-.35.39-.53.58-.3.34-.61.68-.91,1.02-.57.66-1.14,1.32-1.71,1.98-.18.21-.37.4-.55.61-.46.53-.92,1.07-1.39,1.6-.34.38-.72.74-1.06,1.12-.72.81-1.42,1.63-2.13,2.45-.34.39-.7.76-1.04,1.16-.53.6-1.04,1.22-1.56,1.83-.18.21-.36.42-.56.6-.05.04-.23.02-.28-.04-.55-.67-1.09-1.36-1.63-2.04-.49-.62-.96-1.26-1.49-1.85-.5-.56-1.04-1.08-1.59-1.59-.39-.37-.79-.75-1.23-1.06-.65-.47-1.32-.9-2.01-1.31-.86-.52-1.79-.87-2.75-1.14-.54-.15-1.1-.23-1.65-.38-.48-.13-.97-.08-1.44-.17-.88-.17-1.75-.08-2.62-.07-.61,0-1.22.16-1.82.26-.48.08-.98.14-1.44.28-.89.28-1.77.62-2.6,1.05-.87.46-1.7.97-2.45,1.62-.43.37-.89.72-1.27,1.13-.44.47-.84.98-1.22,1.51-.86,1.17-1.4,2.49-1.8,3.88-.12.42-.17.86-.25,1.3-.06.31-.11.62-.16.93-.02.12-.05.24-.05.35-.02.83-.06,1.67-.05,2.5,0,.89.1,1.78.25,2.66.15.91.35,1.8.67,2.66.32.86.7,1.68,1.2,2.46.57.9,1.23,1.72,1.99,2.45,1.21,1.16,2.59,2.08,4.15,2.7.25.1.49.21.73.31.04.02.08.05.11.05.08-.01.16-.04.24-.07-.05-.04-.1-.1-.16-.13-.56-.31-1.14-.59-1.68-.94-.48-.32-.92-.7-1.36-1.08-.45-.39-.92-.77-1.32-1.22-.5-.56-.95-1.17-1.38-1.79-.3-.43-.6-.88-.8-1.36-.3-.74-.55-1.5-.75-2.27-.13-.48-.12-.99-.18-1.49-.03-.29-.12-.58-.1-.87.06-.68.18-1.36.26-2.04.1-.92.42-1.77.77-2.61.23-.57.57-1.09.9-1.62.32-.52.72-.97,1.21-1.35.65-.51,1.23-1.12,1.83-1.7.5-.47.98-.95,1.48-1.42.32-.3.4-.29.71,0,.44.42.9.82,1.34,1.24.43.41.86.82,1.29,1.23,1.02.97,2.05,1.94,3.07,2.91.51.49,1.03.96,1.55,1.44.11.1.12.16.03.3-.6.96-1.16,1.94-1.76,2.9-.65,1.06-1.33,2.1-2,3.15-.02.03-.04.06-.04.09-.02.1-.03.2-.04.29.07-.05.17-.09.22-.15.59-.69,1.18-1.39,1.77-2.09.72-.85,1.44-1.7,2.17-2.54.16-.19.33-.36.49-.55.29-.32.57-.64.86-.96.59-.68,1.18-1.36,1.77-2.04.22-.25.45-.5.68-.74.22-.23.31-.22.52.02.28.31.56.61.85.91.36.36.75.7,1.11,1.07.37.37.72.76,1.09,1.13.34.35.72.66,1.06,1.01,1.1,1.12,2.18,2.25,3.27,3.38,1,1.04,2,2.08,3,3.11.91.93,1.83,1.86,2.74,2.79.9.92,1.79,1.86,2.68,2.79.83.86,1.68,1.71,2.51,2.56.91.94,1.82,1.88,2.72,2.83.31.32.61.66.89,1.01.05.06.03.23-.02.3-.26.32-.54.62-.81.93-.71.8-1.41,1.63-2.15,2.41-.75.77-1.55,1.49-2.32,2.23-.19.18-.36.38-.55.55-.48.41-.97.8-1.46,1.2-.64.51-1.27,1.02-1.94,1.5-.64.46-1.29.9-1.97,1.29-1.05.61-2.12,1.19-3.21,1.73-.79.39-1.61.7-2.43,1.02-.68.27-1.36.52-2.06.73-.73.22-1.48.38-2.22.56-.44.11-.88.22-1.33.3-.41.08-.83.13-1.24.18-.69.09-1.38.18-2.07.27-.11.01-.23,0-.35,0-1.3.14-2.61.13-3.91.1-.76-.02-1.52-.14-2.28-.2-.27-.02-.54-.03-.81-.06-.55-.05-1.1-.1-1.65-.16-.32-.04-.63-.11-.95-.17-.44-.08-.88-.17-1.32-.26-.35-.07-.7-.12-1.04-.22-1.31-.38-2.62-.77-3.92-1.18-.53-.17-1.05-.41-1.56-.64-.71-.31-1.44-.61-2.12-.98-.86-.45-1.69-.96-2.51-1.46-.58-.35-1.14-.72-1.69-1.12-.56-.41-1.09-.86-1.65-1.3M68.63,62.42c.11-.03.21-.05.32-.08.08-.03.14-.08.22-.13-.04-.06-.07-.14-.12-.19-.72-.69-1.46-1.37-2.17-2.08-1.19-1.17-2.36-2.35-3.54-3.53q-.32-.32-.6.02c-.06.07-.12.13-.17.2-.41.55-.82,1.09-1.23,1.64-.28.38-.57.75-.85,1.13-.04.06-.07.17-.04.23.02.04.13.07.2.07.55-.01,1.1-.04,1.64-.05.07,0,.14.04.21.07-.04.05-.08.1-.12.15-.04.05-.1.1-.13.16-.13.22-.25.45-.38.67-.61,1.01-1.23,2.02-1.84,3.03-.03.04,0,.12,0,.18.05,0,.1,0,.15-.02.24-.1.48-.22.73-.32.81-.3,1.62-.6,2.42-.9.73-.27,1.46-.55,2.18-.83.19-.07.36-.16.55-.23.05-.02.12,0,.18,0-.03.05-.04.11-.08.15-.11.1-.23.18-.33.29-.52.55-1.03,1.09-1.54,1.65-.04.05-.05.12-.08.18.07,0,.14.02.2,0,.66-.24,1.32-.5,1.98-.72.74-.25,1.48-.48,2.25-.75M47.28,57.09c-.15.2-.3.4-.43.6-.03.05,0,.13,0,.2.04,0,.1,0,.13-.01.6-.4,1.21-.81,1.81-1.21,1.04-.7,2.07-1.39,3.11-2.09.03-.02.1-.02.12,0,.02.02.03.09.01.12-.21.48-.42.96-.62,1.43-.29.68-.58,1.37-.87,2.06-.03.07-.02.16-.03.24.09-.01.18,0,.26-.04.75-.31,1.49-.64,2.24-.95.76-.32,1.53-.63,2.3-.94.34-.14.68-.27,1.02-.4.07-.03.14-.05.21-.08-.04-.06-.07-.14-.12-.19-.74-.71-1.49-1.42-2.23-2.13-.93-.9-1.85-1.81-2.77-2.72-.12-.11-.24-.17-.37-.06-.26.21-.52.44-.77.66-.46.4-.92.81-1.38,1.22-.22.2-.42.41-.63.63-.04.04-.04.11-.06.16.03,0,.06.03.1.03.29-.02.58-.04.86-.05.15,0,.29.02.44.03-.08.12-.17.23-.25.35-.01.01-.03.02-.04.04-.67,1.02-1.33,2.05-2.02,3.1M71.34,37.28s.07,0,.11,0c.46-.14.92-.28,1.38-.43.07-.02.13-.09.2-.14-.07-.04-.14-.1-.22-.13-.72-.24-1.44-.46-2.15-.71-.13-.04-.29-.15-.33-.27-.26-.72-.49-1.45-.73-2.17-.02-.07-.06-.13-.1-.19-.06.05-.14.09-.16.15-.21.61-.39,1.24-.6,1.85-.1.28-.16.56-.56.65-.68.15-1.33.41-1.99.63-.07.02-.12.1-.19.16.06.05.12.13.19.16.73.24,1.46.47,2.18.71.08.03.18.09.2.16.26.75.5,1.51.76,2.27.03.09.12.17.18.25.03-.08.06-.16.09-.25,0-.02.02-.05.03-.07.24-.72.48-1.43.73-2.14.02-.07.08-.15.14-.17.27-.11.55-.2.85-.32Z" fill="#aad037" stroke-width="0"/><path d="M54.81,13.3c.49,0,.96,0,1.42,0,.82,0,1.05.6.78,1.22-.31.73-.59,1.48-.88,2.22-.06.15-.09.27.11.35.2.09.33-.04.38-.16.3-.73.59-1.46.86-2.2.08-.22.12-.45.17-.68.11-.46.33-.64.78-.64h1.96c.67,0,.96.47.71,1.1-.33.8-.63,1.62-.94,2.44-.04.1-.08.21-.09.31,0,.04.1.13.13.12.44-.13.87-.29,1.31-.4.17-.05.37-.04.54,0,.21.05.35.09.49-.15.19-.31.44-.59.66-.89.11-.15.1-.29-.01-.44-.37-.49-.17-.9.35-1.11.08-.04.19-.02.27-.06.09-.05.2-.12.22-.2.1-.47.38-.65.82-.65.73,0,1.47-.01,2.2,0,.37,0,.69.14.9.49.14.24,0,.42-.06.62-.05.16-.06.23.14.29.29.1.64.09.86.39.19.26.16.52-.01.74-.18.23-.4.34-.71.31-.32-.04-.65-.03-.97-.06-.25-.03-.36.15-.47.3-.35.48-.68.99-1.01,1.49-.05.08-.08.22-.05.3.03.07.17.1.26.12.23.05.47.08.71.11.07,0,.14,0,.21,0,.42-.03.85-.08,1.27-.1.14,0,.23-.04.31-.18.47-.88,1.23-1.43,2.16-1.73.68-.22,1.39-.2,2.09,0,.68.19,1.28.49,1.81.95.1.09.25.1.33-.06.18-.34.37-.67.55-1.01.23-.45.54-.59,1.02-.4.38.14.74.33,1.11.51.28.14.54.29.81.44.35.19.49.53.3.88-.21.38-.45.76-.72,1.1-.56.69-1.16,1.35-1.74,2.02-.26.3-.55.58-.81.87-.05.06-.06.15-.09.23.08.01.17.05.24.03.49-.1.97-.09,1.43.15.14.07.24.1.36-.04.46-.56,1.08-.85,1.76-1,.57-.13,1.14-.02,1.7.12.91.22,1.68.7,2.4,1.28.6.47,1.08,1.02,1.33,1.73.13.36.19.77,0,1.16-.07.15-.04.26.08.37.25.24.54.39.89.46.29.06.58.21.62.58,0,.06.08.14.13.15.49.06.95.19,1.41.37.42.16.77.41,1.13.66.72.49,1.24,1.16,1.69,1.88.47.73.67,1.54.32,2.39-.05.13-.18.3-.14.38.1.19.27.36.44.51.15.13.34.21.51.31.37.2.44.48.22.83-.03.04-.02.11-.03.17.07,0,.14,0,.2-.02.28-.12.56-.25.84-.37.16-.07.3-.01.39.11.29.38.58.76.83,1.16.24.36.44.75.64,1.13.05.09.08.22.05.3-.13.31.09.47.28.6.51.35.8.83.96,1.4.07.25-.18.71-.52.84-.52.19-1.06.28-1.6.21-.42-.05-.8-.43-.83-.98-.01-.26-.02-.53-.06-.78-.03-.2-.17-.33-.39-.28-.58.12-1.15.25-1.73.37-.36.08-.71.17-1.07.2-.26.02-.5-.14-.64-.36-.37-.57-.73-1.15-1.09-1.73-.08-.13-.19-.27-.23-.41-.09-.33.24-.71.6-.77.51-.07,1.02-.18,1.53-.26.34-.05.69-.07,1.03-.11.06,0,.11-.06.17-.09-.05-.04-.11-.12-.16-.12-.47.01-.78-.27-1.08-.58-.07-.07-.15-.13-.21-.21-.14-.18-.32-.2-.52-.12-.35.14-.71.22-1.1.21-.63,0-1.21-.21-1.76-.5-.68-.35-1.25-.83-1.71-1.44-.31-.42-.63-.84-.86-1.31-.18-.37-.32-.81-.33-1.23,0-.43.14-.88.44-1.23.15-.18.34-.33.52-.48.17-.13.17-.21-.01-.33-.22-.13-.42-.28-.65-.38-.09-.04-.25-.05-.34,0-.56.34-1.15.49-1.81.51-1.2.03-2.17-.44-3.09-1.13-.54-.41-1.05-.84-1.37-1.44-.2-.37-.3-.79-.44-1.19-.01-.03,0-.09.02-.12.09-.21-.04-.22-.19-.22-.53.02-1.06.07-1.59.04-.41-.02-.82-.12-1.23-.21-.51-.11-.99-.32-1.41-.61-.23-.16-.42-.38-.6-.6-.09-.11-.16-.2-.33-.18-.7.08-1.35-.07-1.94-.44-.51-.31-.99-.68-1.2-1.28-.02-.06,0-.12-.03-.17-.07-.13-.09-.29-.35-.22-.44.12-.9.17-1.36.23-.3.04-.61.07-.92.05-.74-.03-1.47-.09-2.2-.25-.38-.08-.72-.19-1.06-.37-.37-.2-.52-.51-.61-.88-.04-.18-.14-.19-.26-.15-.56.19-1.11.4-1.67.58-.21.07-.44.13-.66.15-.65.05-1.31.14-1.95-.1-.12-.05-.25-.1-.35-.19-.2-.17-.39-.16-.62-.09-.61.19-1.23.41-1.88.37-.6-.03-1.19-.19-1.53-.77-.24-.41-.29-.86-.13-1.32.28-.83.56-1.67.84-2.5.04-.13.09-.28.1-.42.02-.35.27-.63.61-.68.2-.03.4-.07.63-.11M77.55,24.56c-.04-.14-.07-.27-.11-.41,0-.02-.04-.03-.07-.05-.01.03-.04.07-.03.08.07.14.14.27.21.43,0,.02,0,.05.02.07.65,1.01,1.55,1.7,2.68,2.1.27.09.55.15.82.21.06.01.12-.03.18-.04-.06-.02-.11-.05-.17-.06-.15-.04-.3-.05-.44-.1-.37-.15-.75-.3-1.11-.49-.6-.32-1.14-.72-1.57-1.26-.13-.16-.28-.3-.42-.48M80.46,24.99c.59-.26,1.01-.71,1.41-1.19.09-.11.06-.21-.07-.23-.18-.02-.39-.05-.56,0-.67.23-1.28.54-1.64,1.2-.05.08-.11.22-.08.26.06.07.19.13.29.12.21-.03.42-.1.66-.18M72.58,19.96c.29-.25.59-.49.86-.76.1-.1.12-.26.18-.4-.13-.04-.27-.13-.4-.12-.74.06-1.32.41-1.68,1.06-.16.27,0,.52.31.48.24-.03.47-.15.73-.26M88.47,29.99c-.06-.03-.12-.07-.18-.08-.85-.06-1.63.11-2.23.77-.06.07-.13.22-.1.26.05.08.18.13.28.14.89.07,1.59-.34,2.23-.89.03-.03.02-.12,0-.21M66.45,19.48l.08-.04s-.07-.06-.11-.06c-.93.01-1.86,0-2.78-.16-.43-.07-.82-.21-1.18-.45-.04-.02-.08-.05-.11-.07.01.05.01.14.05.16.17.11.33.26.52.29.69.13,1.39.25,2.09.32.46.05.93,0,1.45,0M85.05,31.52c-.29-.29-.52-.63-.68-1.01-.05-.12-.15-.22-.23-.34.04.13.07.27.12.4.33.76.89,1.34,1.5,1.86.33.28.76.45,1.14.67.04.02.1,0,.14.01-.03-.03-.06-.07-.1-.09-.17-.09-.33-.18-.51-.27-.57-.28-.98-.73-1.4-1.24M72.74,22.17c-.19-.13-.37-.26-.56-.4-.01-.01,0-.06,0-.07-.03-.02-.07-.03-.1-.04.02.06.03.14.07.18.25.21.48.46.77.59.82.39,1.71.54,2.62.55.05,0,.09-.04.14-.06-.04-.01-.09-.04-.13-.04-.55-.07-1.11-.1-1.65-.23-.38-.09-.79-.17-1.14-.47M57.04,18.35c.21.22.5.27.77.26.51-.01,1.03-.03,1.54-.11.44-.07.86-.24,1.29-.37.03,0,.05-.04.08-.07-.04,0-.08,0-.12,0-.18.05-.36.13-.55.17-.43.1-.87.23-1.31.26-.58.04-1.18.07-1.71-.26-.02-.01-.05,0-.08,0,.02.03.04.06.08.11M54.14,18.4c-.31-.01-.63-.02-.82-.34,0-.01-.04-.01-.06-.02,0,.04-.02.11,0,.12.13.1.26.23.42.28.51.19,1.03.15,1.54,0,.45-.13.89-.28,1.33-.43.03-.01.05-.06.08-.09-.04,0-.08,0-.11.02-.32.1-.63.2-.95.3-.46.15-.93.2-1.44.14M69.94,20.98c-.17-.1-.35-.17-.5-.29-.2-.17-.37-.38-.55-.57-.04-.04-.08-.07-.13-.11.02.05.02.12.05.16.08.12.14.27.25.35.29.22.57.47.9.6.36.14.78.16,1.17.23.07.01.14-.04.21-.06-.07-.01-.13-.04-.2-.04-.4-.02-.8-.06-1.21-.27M88.6,36.31c.27.43.52.86.8,1.28.08.12.22.19.33.28.02.02.05.02.08.03-.01-.03-.02-.06-.04-.08-.1-.12-.21-.23-.29-.37-.19-.3-.35-.61-.54-.9-.09-.14-.2-.28-.3-.41-.03-.04-.1-.06-.15-.09,0,.05.01.1.03.15,0,.03.03.06.08.11M60.91,18.03c.18-.03.4-.03.35-.31,0-.02-.02-.05-.03-.06-.02,0-.07.02-.07.02.05.23-.2.21-.25.36M88.77,35.77s.01-.07.02-.11c-.09,0-.18-.02-.26,0-.06.01-.11.08-.16.12.06,0,.11-.01.17-.01.06,0,.12,0,.24,0M67.79,19.16s.09-.08.13-.13c-.05-.01-.11-.05-.14-.03-.05.04-.09.1-.13.15.04,0,.07.02.13,0M66.72,19.32l-.05.11c.12-.01.24-.02.36-.04.01,0,.02-.04.03-.05-.09,0-.19-.01-.34-.02M61.42,17.62c-.02.05-.03.11-.05.16.04-.02.1-.03.11-.06.01-.03-.02-.08-.05-.1M67.12,19.29c.06.03.13.05.19.08,0-.02.02-.05.02-.07-.06-.01-.13-.02-.22,0M61.74,17.46s-.07.06-.11.09c.03.02.07.03.1.05.01-.04.02-.07,0-.13M85.92,31.58s-.04.04-.05.05c.06.01.12.03.18.04-.02-.03-.05-.06-.12-.09M79.19,25.56s-.08-.09-.13-.14c.02.05.05.09.13.14Z" fill="#aad037" stroke-width="0"/><path d="M46.51,96.47c-.3.39-.59.76-.87,1.14-.06.09-.09.21-.13.31.11.02.21.06.32.06.3,0,.59,0,.89,0,.12,0,.26.04.36.1.19.14.36.09.52-.03.17-.14.35-.21.57-.19.04,0,.08-.01.13-.02-.02-.04-.04-.09-.07-.13-.1-.16-.25-.32-.3-.49-.13-.52.16-1.13.62-1.47.48-.35,1.01-.54,1.59-.57.58-.04,1.17-.1,1.75-.04.67.07,1.32.25,1.97.43.19.05.36.24.51.38.29.27.09.57-.02.82-.14.3-.35.58-.57.84-.11.12-.29.19-.45.25-.12.05-.16.09-.11.22.08.24.13.48.19.73.03.11.06.12.2.09.33-.08.63-.32,1-.2.01,0,.09-.12.09-.18,0-.33,0-.66.13-.97.26-.58.62-1.05,1.16-1.41.64-.43,1.34-.68,2.09-.79.87-.13,1.75-.14,2.57.23.4.18.73.48.94.88.15.28.37.37.67.27.28-.09.56-.2.84-.31.05-.02.09-.13.08-.19-.02-.19-.07-.38-.09-.58-.03-.37.27-.7.66-.79.6-.14,1.2-.31,1.81-.44.15-.03.33.03.49.04.14,0,.32.06.41,0,.47-.32.97-.57,1.51-.72.81-.22,1.7.05,1.9,1.1.09.47,0,.91-.08,1.35-.04.22-.1.44-.14.67,0,.04.03.12.06.13.07.01.16.01.21-.02.28-.18.54-.38.83-.54.41-.23.79-.14.96.3.09.24,0,.45-.14.58-.46.39-.93.77-1.43,1.09-.64.42-1.37.68-2.12.85-.42.09-1.12.05-1.36-.48-.09-.21-.14-.46-.12-.68.05-.63.14-1.25.2-1.87.01-.09.02-.22-.13-.17-.07.03-.17.11-.18.18-.08.78-.14,1.57-.23,2.36-.03.27-.08.54-.19.78-.07.15-.27.28-.44.33-.6.17-1.21.28-1.81.45-.28.08-.52.05-.71-.13-.21-.2-.21-.46-.15-.74.06-.31.08-.63.14-.94.02-.13.08-.25.11-.38.01-.04.02-.09,0-.13-.01-.03-.09-.05-.1-.04-.28.21-.62.25-.95.3-.28.04-.42.23-.5.45-.24.69-.75,1.13-1.34,1.5-.45.28-.94.5-1.45.57-.62.09-1.25.2-1.9.04-.53-.13-1.05-.22-1.49-.57-.14-.11-.28-.24-.37-.39-.08-.12-.12-.12-.21-.04-.39.35-.87.46-1.36.54-.52.09-1.03.2-1.56.26-.31.03-.63-.02-.95-.04-.28-.02-.56-.03-.84-.06-.72-.08-1.43-.23-2.11-.49-.36-.14-.72-.26-.96-.6-.05-.07-.25-.11-.35-.08-.68.18-1.37.16-2.07.1-.61-.05-1.19-.18-1.75-.39-.34-.13-.63-.35-.72-.73-.04-.15,0-.31,0-.47,0-.08,0-.16,0-.24-.07.05-.17.09-.22.15-.11.13-.17.29-.29.42-.15.17-.34.22-.57.13-.54-.18-1.08-.33-1.63-.49-.57-.17-.74-.6-.37-1.1.36-.48.73-.95,1.1-1.43.12-.16.24-.31.35-.47.03-.05,0-.13,0-.2-.06.02-.13.02-.16.05-.18.22-.35.45-.52.67-.3.39-.6.77-.89,1.16-.09.12-.18.25-.26.38-.22.33-.41.43-.78.33-.55-.15-1.08-.33-1.62-.49-.03,0-.06-.03-.09-.04-.72-.07-.78-.75-.4-1.22.53-.65,1.07-1.29,1.57-1.96.21-.29.35-.64.5-.97.18-.38.52-.55.92-.42.58.19,1.17.38,1.74.59.18.07.32.25.5.35.11.07.26.13.39.12.7-.03,1.35.08,1.91.52.11.09.19.22.25.35.08.17.21.21.37.21.39,0,.77-.02,1.16,0,.7.04,1.32.27,1.58.98.1.27.03.6,0,.9-.02.16-.12.31-.19.47M59.46,99.82l-.4.15s.03.06.03.06c.13-.06.27-.12.4-.19,0,0,0-.02.03-.03.06-.01.13-.02.19-.03,0-.02-.01-.05-.02-.07-.06.03-.13.05-.19.08,0,0,0,.02-.03.02M58.57,98.28c.05-.31.13-.62.15-.93.01-.16-.05-.33-.08-.5-.15.12-.33.22-.45.37-.35.48-.42,1.04-.38,1.61,0,.09.05.18.07.27.1-.04.24-.05.29-.12.14-.21.25-.45.39-.7M50.51,99.84s0-.07-.02-.07c-.51-.1-1.03-.19-1.55-.28-.03,0-.07.03-.1.05.03.04.06.1.1.11.51.08,1.03.15,1.57.19M52.09,97.13c.07.03.13.07.2.09.03,0,.08,0,.11-.03.02-.02.04-.08.02-.11-.06-.14-.46-.36-.63-.33-.04,0-.07.04-.11.07.03.03.05.07.08.09.1.07.2.13.32.21M49.46,98.74c0-.05.03-.13,0-.15-.14-.09-.29-.16-.44-.23-.04-.02-.09-.02-.13-.03,0,.05,0,.11.03.14.12.15.27.26.53.27M43.22,98.36c-.07-.03-.13-.07-.2-.09-.03,0-.06,0-.09,0,.01.03.02.07.03.08.33.11.66.22.99.32.03,0,.07-.03.11-.04-.03-.02-.05-.05-.09-.06-.24-.07-.48-.13-.75-.22M37.47,96.32c-.09-.04-.18-.08-.27-.11-.04-.01-.09-.02-.13-.03.02.04.04.11.07.12.09.05.19.09.3.12.11.02.22.01.33.02-.08-.04-.16-.08-.3-.12M64.46,99.44c.08,0,.16-.01.23-.02,0,0,0-.07,0-.07-.09,0-.17-.02-.26-.02-.02,0-.04.03-.06.04-.04,0-.1,0-.13.02-.05.04-.07.1-.11.15.09-.03.18-.07.33-.1M58.38,100.14c.15-.02.3-.03.45-.06.02,0,.05-.02.05-.04,0-.02,0-.05-.02-.07-.07-.05-.48.07-.48.16M39.97,97.15c-.07.01-.13.03-.2.04.06.03.11.08.17.09.1.02.2.01.3.02-.08-.04-.16-.08-.27-.15M68.22,98.58s-.09.03-.13.04c.04.02.07.07.11.06.1,0,.2-.03.29-.05.02,0,.03-.07.03-.11,0-.01-.07-.04-.09-.03-.05.02-.1.06-.2.09M68.71,98.52c.14-.04.29-.07.43-.11.03,0,.05-.05.08-.07-.02-.01-.04-.03-.06-.03-.16.06-.32.12-.45.21M65.05,99.33c.12-.04.24-.07.36-.11.02,0,.04-.08.03-.09-.07-.06-.41.1-.38.2M43.43,95.57s-.06.05-.07.07c-.03.05-.04.1-.06.16.04.01.09.05.11.03.04-.03.09-.07.1-.12.01-.04-.01-.1-.08-.14M56.93,100.08c-.13-.03-.27-.06-.4-.08,0,.02,0,.05,0,.05.14.02.29.04.4.03M51.07,99.82c-.07,0-.13-.01-.2-.01-.01,0-.02.03-.03.05.06.02.12.05.18.07.05.01.1,0,.16,0-.02-.04-.04-.07-.11-.11M67.71,98.77l.04-.04c-.06-.03-.13-.08-.19-.09-.03,0-.07.07-.11.11.06.01.13.03.19.04.02,0,.04,0,.08-.03M53.97,99.33s-.08.1-.13.14c.07-.01.14-.02.2-.04,0-.04-.02-.07-.08-.11M53.52,99.63c-.06,0-.12-.02-.18-.02,0,0-.02.05-.03.08.06-.01.12-.02.21-.06M41.12,97.66s.05-.05.08-.07c-.07-.03-.15-.06-.22-.09,0,0-.03.03-.05.05.05.03.11.06.19.11M57.47,100.19s.09-.03.13-.04c-.04-.02-.08-.07-.1-.06-.04.01-.06.07-.03.1M51.55,99.82s-.05.06-.07.09h.2s-.05-.06-.13-.09M53.06,99.76s.01-.01.02-.02c0,0,0-.02,0-.02-.05,0-.11-.02-.16-.01-.02,0-.03.05-.04.07.05,0,.11,0,.19-.02M36.63,96.13c.08.02.17.05.25.07,0-.02.01-.05.02-.07-.08-.01-.16-.02-.27,0M40.58,97.4s.05.08.08.1c.02.01.06-.02.1-.03-.04-.02-.08-.05-.18-.07M54.35,99.39s-.04-.07-.05-.11c-.04.03-.08.06-.12.09.04,0,.08.01.18.02M56.31,100s.07,0,.11,0c-.04-.03-.08-.05-.13-.08-.03-.01-.06-.01-.09-.02.03.02.05.05.11.1M44.3,98.74s-.02-.07-.03-.11c-.04.01-.07.03-.11.04.03.02.05.04.13.07M57.98,100.17s-.08-.05-.11-.08c-.02.02-.03.05-.05.07.04.01.09.02.16,0M37.9,96.54s.08,0,.12-.01c-.02-.03-.04-.06-.06-.09-.03.03-.06.05-.06.1Z" fill="#aad037" stroke-width="0"/><path d="M23.04,30.17c-.1-.13-.17-.26-.26-.37-.21-.24-.27-.59-.07-.82.54-.62,1.08-1.23,1.65-1.81.24-.24.63-.26.81.03.26.41.48.84.7,1.27.23.44.43.9.65,1.34.06.13.18.23.31.13.13-.09.29-.21.17-.42-.54-.97-.92-2.02-1.6-2.91-.18-.23,0-.46.15-.63.49-.56.99-1.12,1.5-1.66.37-.39.8-.34,1.08.12.16.27.3.55.44.84.15.31.27.64.43.95.18.36.39.7.59,1.05.02.04.06.07.09.11.03-.04.06-.08.08-.13.2-.45.4-.89.58-1.34.11-.26.3-.39.56-.39.17,0,.24-.08.31-.21.13-.26.27-.51.4-.77.03-.05.03-.11.04-.17-.06.02-.14.01-.18.05-.32.23-.43.22-.76.04-.24-.13-.3-.36-.36-.58-.15-.56-.2-1.13-.17-1.71.02-.3.2-.53.42-.71.39-.33.88-.43,1.35-.58.34-.1.68-.18,1.02-.28.05-.02.11-.1.12-.16.08-.5.29-.88.81-1.05.56-.19,1.1-.42,1.65-.62.31-.11.62-.09.87.14.25.24.28.57.2.87-.22.88-.48,1.75-.74,2.62-.05.16-.15.3-.21.45-.02.05.02.11.03.17.05-.02.12-.03.16-.06.45-.39.91-.77,1.34-1.18.26-.25.45-.57.69-.84.13-.14.29-.28.51-.21.28.09.43.29.48.57.02.1-.04.23-.08.34-.25.67-.62,1.26-1.06,1.82-.47.6-1.08.99-1.75,1.3-.28.13-.57.22-.87.31-.18.06-.32.16-.37.33-.09.3-.28.5-.55.62-.72.3-1.44.6-2.16.87-.16.06-.35.03-.52.07-.09.02-.22.09-.25.17-.2.55-.44,1.07-.74,1.58-.34.58-.76,1.07-1.23,1.53-.28.27-.6.43-.98.48-.26.03-.25.28-.33.43-.37.79-.79,1.52-1.56,2.01-.5.32-1.17.25-1.63-.15-.59-.51-.88-1.19-1.23-1.86-.17-.32-.34-.65-.52-.98M34.19,25.29c-.28.16-.56.34-.85.48-.29.14-.6.24-.9.36-.06.02-.1.07-.15.11.07,0,.14.02.2,0,.48-.19.97-.37,1.44-.59.12-.06.33-.12.31-.35.04-.11.09-.23.13-.34,0,0-.02-.02-.03-.03-.04.11-.09.23-.13.34,0,0,0,.02-.03.03M37.68,22.6c-.26.3-.49.61-.8.88-.45.4-.97.67-1.51.89-.22.09-.46.14-.69.22-.03.01-.06.06-.09.08.04,0,.09.03.12.02.15-.05.29-.11.44-.16.83-.23,1.56-.63,2.12-1.28.17-.19.28-.44.45-.66.06-.1.13-.19.19-.29,0-.02,0-.05-.01-.07-.02,0-.05.01-.05.03-.05.11-.1.22-.17.33M30.74,27.11c.03-.08.06-.16.07-.24,0-.04-.02-.09-.03-.14-.02.04-.05.07-.07.11-.11.26-.23.51-.32.78-.19.6-.62,1.04-.95,1.55-.26.4-.62.64-.99.9-.04.02-.07.05-.11.07.05.01.09.04.14.04.06-.01.13-.04.18-.08.24-.21.48-.42.7-.64.64-.66,1.03-1.47,1.38-2.34M27.79,30.18c-.15.31-.32.62-.45.94-.22.5-.57.91-.93,1.3-.11.12-.22.23-.34.34.14-.09.3-.16.42-.27.68-.63,1.04-1.46,1.3-2.31M30.69,26.31c0,.09-.02.17-.02.26,0,.02.06.07.08.06.07-.03.05-.29-.05-.32M25.8,32.76c-.08.01-.16.03-.24.04.03.02.07.07.08.06.07-.04.23.1.16-.1M32.06,26.28c-.05.04-.11.07-.16.11.06,0,.12-.02.18-.03.02,0,.06,0,.07-.02.02-.02.03-.06.04-.09-.04,0-.07,0-.13.03M38.16,21.63c0,.07-.01.13-.02.2.02,0,.05,0,.05-.02.01-.06.01-.12-.03-.18M35.42,23.78v.11s.08-.05.13-.07c-.02-.01-.05-.02-.13-.04Z" fill="#aad037" stroke-width="0"/><path d="M35.61,93.15c-.68.21-1.32.14-1.94-.09-.17-.06-.33-.16-.5-.22-.08-.02-.18.02-.27.04.06.06.1.14.17.17.45.18.91.37,1.37.53.45.16.92.29,1.38.44.23.07.45.24.37.47-.07.21-.28.39-.46.54-.15.12-.33.09-.53.02-.22-.08-.48-.04-.72-.07-.93-.13-1.79-.45-2.62-.88-.77-.39-1.44-.91-1.97-1.57-.21-.26-.26-.64-.4-.96-.03-.07-.09-.17-.15-.18-1.16-.18-2.25-.53-3.19-1.24-.31-.23-.59-.52-.83-.83-.34-.45-.29-.92.11-1.29.38-.35.82-.65,1.25-.94.78-.52,1.59-1.01,2.38-1.53.26-.17.49-.39.72-.61.37-.35.6-.42.99-.12.61.45,1.19.95,1.77,1.44.22.19.22.52,0,.71-.4.33-.82.65-1.25.93-.88.57-1.78,1.11-2.67,1.66-.07.04-.11.12-.16.19.07.04.14.09.22.12.34.13.68.27,1.03.37.09.03.27-.03.32-.11.45-.66,1.13-.95,1.85-1.1.41-.08.87-.02,1.29.04.63.1,1.23.31,1.78.64.61.37,1.23.73,1.54,1.44.21.46.14,1.15-.23,1.52-.18.18-.39.32-.61.48M26.39,89.54c-.11-.09-.21-.18-.32-.26-.04-.03-.11-.04-.16-.06.02.06.02.14.06.16.35.25.71.5,1.06.74.03.02.08,0,.12,0-.02-.03-.04-.07-.07-.09-.22-.15-.45-.31-.7-.49M33.97,91.1c.04-.05.08-.1.12-.15-.07-.02-.15-.07-.21-.06-.17.05-.32.12-.48.2-.05.02-.07.09-.1.14.05,0,.1.04.15.02.16-.05.31-.1.52-.16M31.71,93.47c.1.03.19.06.29.08-.08-.07-.16-.14-.25-.2-.09-.05-.18-.09-.27-.13.07.07.14.15.23.25M33.06,94.12c.13.04.26.09.4.13.02,0,.04,0,.06.01,0-.02,0-.04,0-.05-.03-.11-.39-.19-.46-.09M30.99,92.96c.07.02.13.05.2.07-.03-.04-.07-.09-.1-.13-.05-.05-.1-.1-.15-.15-.02-.02-.06-.01-.09-.02,0,.03,0,.07,0,.09.03.04.07.08.14.14M32.63,93.79c-.1-.01-.19-.02-.29-.04.07.03.14.06.21.09.03.01.05.05.08.06.04.01.08.02.13.02-.04-.04-.07-.07-.13-.14M28.86,90.67s-.01.01-.02.02c.09.03.17.06.26.09.01,0,.03-.02.04-.03-.08-.02-.15-.05-.29-.07M27.57,90.41s.05-.06.07-.09c-.07-.02-.13-.04-.2-.06.02.05.05.1.12.14M33.81,94.33s.08-.01.12-.02c-.04-.03-.08-.06-.12-.09-.02.04-.04.07,0,.11Z" fill="#aad037" stroke-width="0"/><path d="M42.67,14.73c-.05-.31.09-.53.29-.75.69-.75,1.53-1.27,2.44-1.71.53-.25,1.1-.38,1.68-.48.77-.14,1.54-.11,2.24.25.56.28,1.02.69,1.32,1.25.3.56.49,1.13.52,1.78.06,1.17-.26,2.18-1.01,3.09-.59.72-1.29,1.25-2.11,1.65-.71.35-1.46.59-2.26.64-.21.01-.42.09-.63.1-.78.05-1.49-.17-2.09-.65-.24-.19-.42-.48-.55-.76-.23-.53-.37-1.1-.28-1.68.1-.7.37-1.35.79-1.93,0,0,.01-.01.02-.02.21-.3.2-.29-.12-.47-.1-.06-.17-.19-.26-.31M46.98,18.19c.37-.5.54-1.06.56-1.67.01-.36,0-.72,0-1.08,0-.44-.14-.83-.33-1.21-.05-.11-.13-.2-.2-.29-.03-.03-.09-.03-.14-.04-.01.04-.03.08-.03.12.04.27-.08.48-.24.68-.85,1.08-.98,2.29-.62,3.58.09.34.39.47.65.29.12-.08.21-.23.34-.37M46.71,19.8c.1-.04.21-.07.3-.11.43-.19.86-.38,1.29-.58.04-.02.05-.07.08-.11-.04.01-.07.03-.11.04-.29.13-.57.28-.87.38-.51.16-1.02.34-1.55.41-.52.07-1.05.02-1.58.02-.04,0-.08,0-.12,0,.03.04.05.11.09.12.13.03.27.05.41.06.68.04,1.35-.06,2.06-.21M48.49,18.89s-.01.01-.02.02c0,0,0,.01,0,.02.13-.07.26-.13.39-.2,0,0,0-.04,0-.05-.1.04-.2.09-.29.13-.02.01-.04.04-.08.08M43.95,19.83s.07-.02.11-.03c-.11-.05-.21-.11-.32-.16-.01,0-.04.02-.06.04.08.04.16.08.27.15M43.43,19.53s.05-.01.07-.02c-.05-.05-.11-.1-.16-.14,0,0-.03.01-.04.02.03.04.07.07.13.14Z" fill="#aad037" stroke-width="0"/><path d="M19.98,45.46c-.4.74-.93,1.34-1.69,1.68-.78.36-1.57.38-2.36,0-.5-.24-.97-.53-1.36-.94-.48-.5-.81-1.1-1.05-1.74-.39-1.02-.57-2.08-.47-3.16.08-.85.32-1.68.77-2.42.47-.76,1.13-1.31,2.06-1.27.8.03,1.42.5,1.9,1.15.25.34.36.77.33,1.11-.04.6-.13,1.26-.73,1.65-.4.25-.78.23-1.12-.09-.42-.4-.83-.8-1.25-1.2-.05-.04-.11-.07-.17-.11-.04.08-.13.16-.12.24.01.21.03.43.11.63.43,1.07,1.08,1.97,2.17,2.46.45.2.91.37,1.4.06.41-.26.57-.66.66-1.09.11-.52.25-1.03.23-1.58,0-.26.09-.52.32-.7.39-.3.89.05,1.01.41.29.86.31,1.73.11,2.61-.1.43-.15.87-.28,1.28-.11.35-.3.67-.46,1.01M19.48,45.32c.2-.43.45-.84.58-1.29.14-.51.16-1.04.23-1.57,0-.06,0-.12,0-.18-.04.07-.09.14-.1.21-.03.22-.02.45-.06.67-.12.59-.25,1.17-.52,1.71-.26.52-.56,1.02-1.02,1.4-.02.02-.03.06-.04.09.03-.01.07-.02.09-.04.29-.32.57-.64.85-1.01Z" fill="#aad037" stroke-width="0"/><path d="M80.15,90.28c-.47-.22-.8-.56-.92-1.05-.06-.25-.14-.22-.29-.08-.18.17-.4.16-.6.06-.22-.11-.34-.45-.31-.66.1-.76.56-1.33,1-1.89.71-.91,1.57-1.69,2.56-2.29.52-.32,1.1-.55,1.65-.8.16-.08.35-.12.53-.15.35-.06.64.15.77.51.17.44.28.89.27,1.37-.01.45-.41.83-.77.76-.23-.05-.47-.1-.71-.1-.56,0-1.07.19-1.57.42-.12.06-.12.1-.09.23.09.47.44.5.79.52.5.02,1-.02,1.5.01.5.03,1.01.12,1.43.43.43.31.68.72.71,1.28.04.71-.29,1.23-.73,1.72-.61.67-1.3,1.26-2.09,1.71-.43.25-.88.46-1.34.67-.3.13-.62.25-.94.32-.33.07-.54-.17-.64-.43-.13-.36-.2-.75-.24-1.13-.04-.38.13-.6.5-.68.34-.07.69-.11,1.03-.11.41,0,.79-.09,1.17-.22.05-.02.09-.06.14-.09-.06-.04-.11-.12-.17-.12-.2,0-.4.04-.6.05-.7.03-1.39,0-2.07-.23M84.01,91.18c.04-.05.07-.11.11-.16-.05.01-.11.02-.14.04-.06.05-.11.12-.17.18.06-.01.12-.02.21-.06M83.31,91.62c-.1.04-.2.08-.29.13-.03.02-.05.06-.07.09.04,0,.08,0,.11-.02.09-.05.17-.1.26-.2M85.08,90s-.05.08-.07.13c-.03.05-.06.1-.09.14.05-.03.1-.06.15-.1.12-.11.12-.11.01-.17M84.71,90.59s.03-.07.05-.11c-.03,0-.06.01-.07.03-.04.03-.08.07-.11.11-.04.05-.08.1-.11.15.06-.03.11-.06.17-.1.02-.01.04-.04.08-.08M82.72,91.94c-.05.02-.11.04-.16.06.02.02.03.05.05.07.05-.04.09-.07.11-.13M83.58,91.45c-.07.02-.14.04-.22.06,0,.02.01.05.02.07.06-.03.11-.07.19-.13M84.33,90.92s-.06-.05-.09-.07c-.02.04-.04.09-.06.13.04-.01.09-.02.16-.06M81.69,92.42c.05.02.1.04.16.05,0,0,.03-.04.04-.07-.06,0-.12,0-.2.01M82.18,92.26s-.1.02-.14.04c0,0,0,.02,0,.04.05,0,.09-.01.14-.07Z" fill="#aad037" stroke-width="0"/><path d="M90.26,81.71c-.3.35-.68.43-1.08.35-.31-.06-.48-.34-.6-.63-.16-.38-.32-.77-.47-1.15,0-.02,0-.05-.02-.07-.03-.08-.05-.16-.08-.24-.06.08-.15.15-.18.25-.21.56-.12,1.12,0,1.68.13.54.36,1.03.69,1.46.29.38.67.7,1.19.64.23-.03.5-.16.66-.33.45-.46.77-1.02,1.05-1.6.14-.3.49-.47.75-.42.24.05.49.41.49.72,0,.62-.24,1.18-.52,1.72-.36.68-.78,1.31-1.35,1.83-.74.68-1.58,1.18-2.61,1.15-.81-.02-1.46-.42-1.97-1.05-.46-.57-.74-1.22-.85-1.93-.08-.53-.14-1.06.03-1.6.16-.48.23-1,.4-1.48.21-.59.51-1.13.92-1.61.34-.41.72-.77,1.19-1.01.26-.14.56-.19.85-.29.31-.1.61-.02.89.07.47.16.78.54,1.02.93.51.83.5,1.76-.41,2.61M90.78,85.05c-.03.06-.06.12-.08.18.05-.04.1-.07.14-.12.09-.1.17-.21.25-.32.03-.04.03-.1.05-.15-.05.03-.1.05-.14.09-.08.08-.14.17-.22.31M90.14,85.81s.08-.02.09-.04c.03-.06.05-.12.07-.18-.04.03-.09.06-.13.09-.08.05-.15.11-.22.17-.02.02-.03.06-.05.09.03,0,.06-.02.09-.03.04-.02.09-.05.16-.1M90.43,85.4s-.05.1-.07.15c.02,0,.06.02.07.01.05-.06.09-.12.13-.18-.04,0-.07,0-.13.02M91.64,83.82c-.04.06-.07.13-.11.19,0,0,.01.03.02.04.03-.04.06-.09.09-.14.01-.02.01-.05,0-.1M89.68,86.16s.08-.1.12-.15c-.02,0-.06-.02-.07-.01-.04.05-.07.1-.05.16M91.32,84.3s0,.08.01.12c.03-.02.06-.04.09-.06-.03-.03-.05-.06-.1-.06Z" fill="#aad037" stroke-width="0"/><path d="M28.71,83.99c-.13.74-.85,1.38-1.53,1.58-.55.16-1.05.12-1.54-.16-.46-.26-.78-.62-.96-1.12-.15-.4.13-.88.45-1.01.49-.19,1.01-.34,1.51-.51.07-.02.14-.07.21-.11-.06-.05-.12-.13-.19-.15-.4-.11-.8-.23-1.23-.12-.35.09-.73.08-1.09.18-.54.14-1.02.42-1.35.87-.41.54-.41.89.08,1.42.34.37.8.64,1.21.96.16.13.34.24.48.38.27.27.19.66-.12.88-.33.22-.66.15-.95.01-.54-.25-1.07-.53-1.59-.83-.29-.17-.57-.38-.82-.61-.22-.2-.4-.46-.59-.69-.5-.58-.76-1.28-.92-2.01-.09-.42.06-.84.21-1.22.38-.96,1.19-1.48,2.11-1.78.75-.24,1.54-.18,2.32-.05.59.1,1.13.3,1.67.52.37.15.7.4,1.02.64.55.41,1.02.92,1.33,1.54.21.43.34.89.29,1.39M20.98,84.46c-.04-.08-.09-.16-.13-.24-.01,0-.03.03-.03.03.05.08.11.16.16.26.29.33.58.65.87.97.02.02.07.02.11.03-.01-.04-.01-.09-.03-.11-.22-.25-.45-.49-.68-.73-.08-.08-.18-.13-.27-.22M22.44,85.81c-.06-.04-.12-.09-.19-.13-.02,0-.05,0-.07.01,0,.01,0,.03.02.04.09.07.17.15.26.21.01,0,.05-.02.08-.03-.03-.03-.05-.05-.1-.1M20.74,84.01s-.06-.07-.08-.11c-.01.03-.05.07-.04.09.03.06.08.11.13.17,0-.04.01-.08,0-.15Z" fill="#aad037" stroke-width="0"/><path d="M92.03,44.9c-.15-.5-.31-.99-.4-1.49-.1-.52-.17-1.06-.19-1.59-.02-.44.29-.85.68-.96.14-.04.33-.03.47.03.22.1.42.24.62.39.34.27.21.61.13.95-.07.3-.12.61-.18.92,0,.04-.02.1,0,.13.05.1.12.18.18.28.03-.09.08-.19.08-.28,0-.55.13-1.07.28-1.58.19-.66,1.06-.99,1.63-.84.72.19,1.19.67,1.6,1.24.73,1.01,1.13,2.15,1.4,3.35.07.3.13.6.16.9.03.44-.17.99-.83.94-.46-.03-.94.03-1.36-.23-.13-.08-.25-.2-.35-.31-.11-.13-.17-.13-.29,0-.16.17-.33.35-.53.47-.21.12-.23.22-.1.4.19.25.38.49.57.73.19.23.07.45-.06.62-.17.22-.52.29-.72.15-.26-.18-.51-.37-.71-.6-.33-.39-.63-.81-.92-1.23-.5-.72-.85-1.52-1.14-2.37M93.26,46.5c.39.54.78,1.07,1.18,1.61.02.03.06.05.09.08-.01-.04-.02-.09-.04-.13-.07-.1-.15-.19-.22-.28-.02-.03-.03-.06-.04-.09,0,0,.04-.02.06-.03.05,0,.1,0,.15,0-.06-.03-.16-.11-.18-.09-.13.1-.13,0-.2-.08-.33-.4-.62-.82-.81-1.31-.19-.5-.46-.98-.62-1.49-.21-.64-.34-1.31-.5-1.97-.01-.05-.03-.11-.04-.16-.02.06-.07.12-.06.16.08.42.17.84.27,1.26.2.87.53,1.7.97,2.53M96.21,45.85c.06-.19.16-.37.18-.57.03-.22,0-.44-.02-.67,0-.04-.06-.09-.09-.13-.02.04-.06.09-.07.13-.08.4-.15.8-.21,1.2,0,.04.03.09.05.14.04-.03.09-.05.16-.11M94.95,48.35s-.06-.03-.09-.04c-.07,0-.13,0-.2,0,.05.05.09.1.14.15.02.02.03.05.06.06.06.02.12.04.19.06-.02-.07-.04-.14-.09-.23M91.96,41.77c.02.06.04.13.07.19.01-.06.03-.12.04-.19,0-.04,0-.08-.02-.13-.03.02-.06.05-.09.12M92.07,42.41c-.01-.06-.02-.13-.03-.19-.02,0-.05.02-.07.02.03.06.05.13.1.17M92.1,41.42s-.01.09-.02.14c.05-.04.1-.08.14-.13-.02,0-.05-.01-.13-.02Z" fill="#aad037" stroke-width="0"/><path d="M20.92,31.19c.45-.22.58-.19.94.15.39.36.7.77.9,1.27.12.3,0,.83-.29,1.01-.18.11-.36.21-.54.33-.41.29-.57.45-.19.89.41.47.81.95,1.22,1.43.13.15.25.31.4.45.29.25.27.55.12.84-.35.7-.72,1.41-1.09,2.1-.2.37-.82.3-1.11-.07-.47-.61-.95-1.22-1.44-1.82-.41-.51-.87-.98-1.43-1.33-.3-.19-.36-.51-.17-.87.22-.43.47-.85.72-1.26.21-.34.38-.75.68-.96.3-.21.37-.39.41-.73.06-.56.35-1.05.82-1.4.01,0,.04,0,.07-.01M22.06,38.97s-.02.09-.03.13c.05-.03.11-.05.14-.09.17-.31.32-.62.49-.93.08-.15.17-.29.24-.44.03-.05,0-.13,0-.2-.03.04-.07.08-.09.13-.24.45-.48.91-.75,1.39M22.76,36.93c.04.06.08.13.13.18.03.03.08.03.13.05-.01-.04-.01-.08-.03-.11-.06-.08-.12-.17-.19-.24-.05-.06-.12-.11-.19-.16.03.07.05.15.08.22,0,.02.02.03.06.06M21.58,39.08c.06.08.12.16.19.24,0,0,.05,0,.07,0,0-.01,0-.03-.01-.04-.07-.07-.15-.15-.24-.19Z" fill="#aad037" stroke-width="0"/><path d="M73.47,97.61c-.02-.23-.18-.16-.29-.16-.55.03-.92-.22-1.11-.73-.11-.28-.14-.55-.01-.86.3-.78.9-1.19,1.65-1.42.76-.23,1.6.29,1.74,1.09.22,1.22-.1,2.26-1.04,3.09-.31.28-.78.3-1.02.06-.2-.19-.25-.44-.13-.68.06-.13.14-.25.21-.4M73.87,98.36c.67-.29.91-.88,1.1-1.52,0-.03-.02-.06-.02-.1-.03.02-.06.04-.08.07-.03.05-.04.11-.06.16-.14.38-.32.73-.66.98-.03.02-.07.02-.11.03,0-.04-.03-.08-.02-.11.05-.18.12-.36.16-.55.01-.04-.02-.1-.04-.15-.03.03-.07.06-.09.1-.12.27-.25.54-.36.82-.04.11-.05.23.17.25M73.41,96.83s-.02.05-.04.07c.05-.01.1-.02.14-.04-.03-.02-.05-.04-.11-.03Z" fill="#aad037" stroke-width="0"/></g></svg>