<?xml version="1.0" encoding="UTF-8"?><svg id="b" xmlns="http://www.w3.org/2000/svg" width="100.28" height="100.3" viewBox="0 0 100.28 100.3"><g id="c"><g id="d"><path d="m99.94,48.06c.05,1.24.1,2.48.08,3.71-.03,1.29-.11,2.58-.26,3.86-.32,2.65-.77,5.29-1.51,7.85-.56,1.91-1.25,3.78-1.98,5.63-.61,1.52-1.28,3.05-2.09,4.48-1.05,1.89-2.22,3.74-3.44,5.55-.79,1.17-1.7,2.27-2.61,3.33-1.1,1.27-2.22,2.53-3.44,3.69-1.26,1.19-2.64,2.28-3.99,3.38-.89.72-1.81,1.43-2.76,2.05-1.29.85-2.62,1.64-3.96,2.37-1.19.66-2.42,1.28-3.67,1.81-1.62.7-3.24,1.36-4.9,1.9-1.68.55-3.4.97-5.13,1.36-1.13.26-2.31.38-3.48.55-.78.1-1.57.16-2.36.26-2.13.29-4.27.19-6.42.16-1.31-.02-2.61-.18-3.92-.34-1.36-.17-2.73-.36-4.07-.63-1.33-.26-2.65-.63-3.94-1.02-1.62-.5-3.22-1.03-4.8-1.63-1.12-.44-2.22-.96-3.29-1.52-1.78-.95-3.55-1.91-5.26-2.98-1.2-.74-2.29-1.67-3.43-2.51-.03-.02-.08-.02-.15-.06-1.15-1-2.3-1.94-3.38-2.97-1-.95-1.91-1.99-2.85-3.01-.56-.61-1.12-1.23-1.62-1.89-1.07-1.42-2.15-2.83-3.09-4.32-1.08-1.68-2.09-3.43-2.98-5.21-1.12-2.21-2.02-4.53-2.76-6.89-.41-1.32-.77-2.67-1.07-4.01-.26-1.17-.45-2.36-.63-3.54-.13-.85-.19-1.7-.26-2.54-.08-.91-.14-1.8-.18-2.7-.05-1.16-.1-2.3-.08-3.45.05-1.35.14-2.7.26-4.04.1-1.08.24-2.15.45-3.22.26-1.38.57-2.75.94-4.1.44-1.57.91-3.13,1.44-4.66.47-1.28,1.02-2.56,1.62-3.78.7-1.43,1.46-2.83,2.25-4.19.7-1.19,1.46-2.36,2.25-3.48.92-1.28,1.9-2.51,2.88-3.76.26-.34.57-.65.87-.96.69-.73,1.35-1.5,2.1-2.18,1.26-1.15,2.53-2.27,3.87-3.33,1.24-1,2.54-1.93,3.86-2.81,1.08-.72,2.19-1.38,3.32-1.99,1.19-.64,2.39-1.25,3.63-1.79,1.49-.63,3-1.21,4.53-1.74,1.26-.44,2.53-.81,3.82-1.12,1.13-.29,2.29-.46,3.45-.65,1.15-.19,2.29-.37,3.44-.53.45-.06.89-.08,1.34-.09,2.03-.03,4.07-.13,6.1-.07,1.35.03,2.7.31,4.06.41,1.98.16,3.92.58,5.82,1.09,1.81.47,3.58,1.1,5.34,1.7.93.32,1.84.7,2.72,1.12,1.35.65,2.68,1.35,4.01,2.06.86.47,1.72.96,2.56,1.5.91.58,1.79,1.23,2.67,1.87.94.7,1.86,1.42,2.77,2.15.34.28.66.6.99.91.92.87,1.86,1.71,2.7,2.62,1.03,1.11,1.97,2.3,2.94,3.46,1.68,1.99,3.07,4.19,4.37,6.45.99,1.72,1.87,3.47,2.57,5.34.49,1.32,1.04,2.62,1.49,3.96.46,1.43.88,2.89,1.21,4.35.29,1.26.45,2.57.63,3.85.11.79.19,1.6.26,2.41.08.84.15,1.68.18,2.53Zm-.1.71c.02-.58-.1-1.17-.16-1.75-.02-.18-.08-.36-.08-.54-.02-.45.01-.91-.03-1.34-.08-.76-.21-1.5-.33-2.25-.17-1.05-.28-2.12-.55-3.13-.58-2.18-1.23-4.34-1.94-6.49-.47-1.41-1.09-2.78-1.71-4.15-.92-2.04-2.02-3.99-3.23-5.86-.74-1.16-1.56-2.28-2.38-3.38-.63-.84-1.32-1.63-2.03-2.38-1.29-1.39-2.59-2.76-3.93-4.1-.62-.62-1.34-1.15-2.03-1.68-1.15-.89-2.27-1.82-3.46-2.64-2.26-1.54-4.65-2.85-7.14-3.99-1.88-.86-3.79-1.65-5.78-2.25-1.68-.5-3.37-1.02-5.12-1.29-1.38-.21-2.74-.52-4.13-.69-1.35-.16-2.72-.24-4.08-.26-1.52-.02-3.04.05-4.64.08-.28.02-.54.06-.81.08-1.5.18-3.01.32-4.5.55-1.26.19-2.51.45-3.75.76-1.12.28-2.23.64-3.33,1-1.13.38-2.28.74-3.38,1.23-1.62.69-3.2,1.44-4.77,2.22-.91.45-1.76.96-2.6,1.51-1.2.79-2.37,1.6-3.53,2.46-.92.68-1.8,1.42-2.68,2.15-.5.42-.96.88-1.43,1.34-1,.96-2.05,1.88-2.97,2.9-1.01,1.12-1.95,2.33-2.84,3.54-1,1.36-1.97,2.74-2.84,4.17-.85,1.43-1.58,2.93-2.31,4.42-.49.99-.96,1.99-1.34,3.03-.57,1.56-1.11,3.14-1.56,4.74-.45,1.56-.8,3.15-1.12,4.74-.22,1.07-.34,2.17-.45,3.25-.13,1.34-.24,2.69-.25,4.04-.01,1.09-.13,2.19.05,3.29.13.89.01,1.81.18,2.73.16.86.17,1.75.29,2.62.11.88.25,1.76.45,2.64.25,1.16.58,2.29.87,3.44.54,2.23,1.36,4.37,2.3,6.46.55,1.23,1.13,2.45,1.76,3.63.64,1.19,1.31,2.37,2.06,3.47,1.01,1.5,2.1,2.94,3.21,4.37.88,1.12,1.83,2.2,2.81,3.25.54.58,1.18,1.1,1.79,1.63,1.26,1.1,2.51,2.21,3.82,3.27.92.74,1.9,1.42,2.89,2.09.7.48,1.44.91,2.19,1.33.73.42,1.46.87,2.22,1.24,1.35.64,2.72,1.26,4.09,1.86.74.32,1.51.61,2.28.88.55.19,1.13.33,1.7.49,1.18.33,2.35.73,3.55,1,1.39.31,2.81.52,4.22.71,1.33.19,2.67.33,4.01.45.63.06,1.28,0,1.93.01,1.09.02,2.19.13,3.28.07,1.31-.07,2.61-.28,3.92-.42.89-.11,1.8-.18,2.68-.37,1.18-.24,2.35-.57,3.52-.87.84-.22,1.67-.44,2.5-.69,1.93-.6,3.8-1.32,5.61-2.22,1.12-.56,2.29-1.03,3.37-1.65,2.13-1.21,4.22-2.49,6.1-4.06,1.42-1.18,2.86-2.33,4.19-3.6,1.27-1.21,2.45-2.53,3.6-3.85.93-1.07,1.82-2.18,2.62-3.33,1.57-2.27,2.99-4.63,4.16-7.14.37-.8.74-1.6,1.09-2.42.33-.77.64-1.54.91-2.33.42-1.21.84-2.43,1.17-3.66.31-1.12.54-2.26.77-3.4.18-.87.36-1.74.48-2.62.09-.73.11-1.49.18-2.23.05-.53.13-1.05.17-1.58.02-.33,0-.68.02-1.02.07-1.17.19-2.35.23-3.52Z" fill="#acd038"/><path d="m99.68,47.02c.06.58.18,1.17.16,1.75-.03,1.17-.16,2.35-.23,3.52-.02.34,0,.69-.02,1.02-.05.53-.13,1.05-.17,1.58-.07.74-.09,1.5-.18,2.23-.13.88-.3,1.75-.48,2.62-.23,1.15-.46,2.28-.77,3.4-.33,1.23-.74,2.44-1.17,3.66-.26.79-.57,1.56-.91,2.33-.34.81-.72,1.62-1.09,2.42-1.17,2.51-2.59,4.87-4.16,7.14-.8,1.16-1.7,2.27-2.62,3.33-1.15,1.32-2.33,2.64-3.6,3.85-1.33,1.27-2.77,2.42-4.19,3.6-1.88,1.57-3.96,2.84-6.1,4.06-1.08.62-2.25,1.09-3.37,1.65-1.81.91-3.69,1.63-5.61,2.22-.83.25-1.66.47-2.5.69-1.17.3-2.34.63-3.52.87-.88.18-1.79.25-2.68.37-1.31.15-2.61.36-3.92.42-1.09.06-2.19-.05-3.28-.07-.64-.01-1.29.05-1.93-.01-1.34-.11-2.68-.25-4.01-.45-1.41-.19-2.83-.4-4.22-.71-1.2-.26-2.37-.66-3.55-1-.56-.16-1.15-.3-1.7-.49-.77-.28-1.54-.56-2.28-.88-1.38-.6-2.74-1.21-4.09-1.86-.77-.37-1.49-.81-2.22-1.24-.74-.42-1.49-.85-2.19-1.33-.99-.66-1.97-1.34-2.89-2.09-1.31-1.05-2.56-2.17-3.82-3.27-.61-.53-1.25-1.04-1.79-1.63-.97-1.05-1.93-2.13-2.81-3.25-1.11-1.42-2.2-2.86-3.21-4.37-.76-1.1-1.42-2.28-2.06-3.47-.63-1.18-1.21-2.41-1.76-3.63-.94-2.1-1.76-4.23-2.3-6.46-.29-1.15-.62-2.28-.87-3.44-.19-.87-.33-1.75-.45-2.64-.11-.87-.13-1.76-.29-2.62-.17-.92-.06-1.83-.18-2.73-.17-1.1-.06-2.2-.05-3.29.01-1.35.13-2.7.25-4.04.1-1.09.23-2.19.45-3.25.32-1.59.68-3.19,1.12-4.74.45-1.6.99-3.19,1.56-4.74.38-1.03.85-2.04,1.34-3.03.73-1.49,1.47-2.99,2.31-4.42.87-1.43,1.84-2.81,2.84-4.17.89-1.21,1.83-2.42,2.84-3.54.92-1.02,1.97-1.94,2.97-2.9.47-.46.93-.92,1.43-1.34.88-.73,1.76-1.48,2.68-2.15,1.16-.86,2.33-1.67,3.53-2.46.84-.55,1.7-1.07,2.6-1.51,1.57-.78,3.15-1.54,4.77-2.22,1.1-.48,2.25-.85,3.38-1.23,1.1-.36,2.21-.72,3.33-1,1.24-.31,2.49-.56,3.75-.76,1.49-.23,3-.37,4.5-.55.28-.02.54-.06.81-.08,1.6-.03,3.12-.1,4.64-.08,1.36.02,2.73.1,4.08.26,1.39.17,2.75.48,4.13.69,1.75.28,3.44.79,5.12,1.29,1.98.6,3.9,1.39,5.78,2.25,2.49,1.13,4.88,2.45,7.14,3.99,1.19.81,2.31,1.74,3.46,2.64.69.54,1.41,1.07,2.03,1.68,1.34,1.34,2.64,2.72,3.93,4.1.71.76,1.4,1.55,2.03,2.38.83,1.1,1.64,2.22,2.38,3.38,1.21,1.87,2.31,3.82,3.23,5.86.62,1.36,1.24,2.74,1.71,4.15.71,2.14,1.35,4.31,1.94,6.49.28,1.01.38,2.07.55,3.13.13.74.25,1.49.33,2.25.05.44.01.89.03,1.34,0,.18.06.36.08.54Zm-2.28,3.95c.1-.5.28-.99,0-1.48-.01-.03.02-.1.02-.15,0-.54.01-1.08-.03-1.62-.03-.53.06-1.04-.08-1.57-.08-.29.01-.61-.02-.91-.07-.62-.16-1.24-.25-1.84-.11-.69-.22-1.39-.37-2.06-.15-.73-.33-1.44-.53-2.17-.29-1.15-.53-2.3-.92-3.41-.61-1.73-1.25-3.46-2.01-5.13-1.18-2.58-2.58-5.05-4.21-7.4-1.58-2.26-3.36-4.33-5.24-6.34-.49-.53-1.03-1-1.56-1.47-.73-.66-1.46-1.35-2.23-1.97-1.03-.8-2.14-1.52-3.19-2.31-1.64-1.26-3.46-2.21-5.26-3.2-1.11-.61-2.34-1.03-3.52-1.51-1.05-.44-2.11-.88-3.2-1.23-1.72-.55-3.44-1.07-5.23-1.34-1.72-.26-3.43-.56-5.16-.78-.97-.13-1.97-.17-2.97-.18-1.44-.01-2.89.05-4.33.08-.3.01-.6.01-.88.05-.61.06-1.2.15-1.81.22-.58.07-1.19.08-1.78.19-.95.17-1.89.39-2.83.61-.92.19-1.84.38-2.74.64-1.03.3-2.05.66-3.07,1.02-1.72.61-3.4,1.31-5.01,2.18-.83.45-1.71.8-2.51,1.29-1.87,1.16-3.75,2.3-5.43,3.74-1.29,1.11-2.64,2.17-3.85,3.36-1.29,1.26-2.49,2.62-3.66,4-.86,1.01-1.62,2.09-2.38,3.16-1.48,2.04-2.72,4.23-3.77,6.51-.66,1.43-1.24,2.91-1.78,4.39-.45,1.23-.79,2.5-1.17,3.76-.15.5-.33,1.02-.44,1.54-.17.93-.29,1.86-.45,2.77-.17,1.01-.38,2.02-.52,3.03-.09.63-.08,1.28-.1,1.91-.03.92-.08,1.83-.08,2.75.01.65.13,1.31.17,1.96.07,1.17.07,2.35.19,3.52.11,1.17.28,2.34.53,3.48.38,1.72.83,3.41,1.32,5.1.4,1.35.81,2.7,1.36,3.99.77,1.74,1.64,3.44,2.52,5.13.95,1.84,2.1,3.59,3.39,5.21,1.13,1.42,2.25,2.86,3.45,4.22.92,1.01,1.95,1.93,2.98,2.82,1.33,1.13,2.68,2.22,4.07,3.28,1.84,1.39,3.83,2.56,5.9,3.62,1.04.49,2.03,1.02,3.07,1.42,1.67.63,3.36,1.2,5.06,1.74,1.16.37,2.35.65,3.55.91,1.12.23,2.26.39,3.39.54,1.34.17,2.67.38,4.01.42,1.74.06,3.48-.01,5.23-.08.95-.03,1.9-.14,2.84-.25,1.13-.15,2.28-.3,3.4-.54,1.67-.38,3.36-.76,4.98-1.27,2.72-.84,5.36-1.84,7.83-3.29,1.43-.85,2.89-1.65,4.29-2.54,1.01-.64,1.98-1.36,2.91-2.12,1.36-1.11,2.72-2.26,3.99-3.47,1.01-.95,1.93-2.01,2.82-3.06.93-1.09,1.86-2.19,2.65-3.37,1.16-1.71,2.25-3.47,3.27-5.27,1.33-2.35,2.34-4.86,3.12-7.45.42-1.44.86-2.89,1.2-4.35.29-1.17.41-2.38.64-3.58.34-1.75.4-3.53.44-5.31,0-.18-.09-.37-.07-.53Z" fill="#acd038"/><path d="m97.4,49.49c.28.49.1.97,0,1.48-.02.16.07.34.07.53-.03,1.78-.09,3.55-.44,5.31-.23,1.19-.36,2.41-.64,3.58-.34,1.47-.78,2.91-1.2,4.35-.78,2.59-1.79,5.1-3.12,7.45-1.02,1.8-2.11,3.56-3.27,5.27-.79,1.18-1.72,2.28-2.65,3.37-.89,1.05-1.81,2.11-2.82,3.06-1.27,1.21-2.62,2.36-3.99,3.47-.93.76-1.9,1.48-2.91,2.12-1.4.89-2.85,1.7-4.29,2.54-2.46,1.44-5.11,2.45-7.83,3.29-1.63.52-3.31.89-4.98,1.27-1.12.24-2.27.39-3.4.54-.94.11-1.89.22-2.84.25-1.74.07-3.48.14-5.23.08-1.34-.05-2.67-.25-4.01-.42-1.13-.15-2.27-.31-3.39-.54-1.2-.25-2.39-.54-3.55-.91-1.71-.54-3.39-1.11-5.06-1.74-1.04-.4-2.03-.93-3.07-1.42-2.07-1.07-4.06-2.23-5.9-3.62-1.39-1.05-2.74-2.14-4.07-3.28-1.03-.89-2.06-1.81-2.98-2.82-1.2-1.35-2.31-2.8-3.45-4.22-1.29-1.63-2.44-3.37-3.39-5.21-.88-1.7-1.75-3.39-2.52-5.13-.55-1.28-.96-2.64-1.36-3.99-.49-1.68-.94-3.38-1.32-5.1-.25-1.15-.41-2.31-.53-3.48-.13-1.17-.13-2.35-.19-3.52-.05-.65-.16-1.31-.17-1.96,0-.92.05-1.83.08-2.75.02-.63.01-1.28.1-1.91.14-1.01.34-2.02.52-3.03.16-.92.28-1.84.45-2.77.1-.52.29-1.03.44-1.54.38-1.26.72-2.53,1.17-3.76.54-1.48,1.11-2.96,1.78-4.39,1.05-2.28,2.29-4.47,3.77-6.51.77-1.08,1.52-2.15,2.38-3.16,1.17-1.38,2.36-2.74,3.66-4,1.21-1.19,2.56-2.25,3.85-3.36,1.68-1.43,3.56-2.58,5.43-3.74.8-.49,1.68-.85,2.51-1.29,1.6-.87,3.29-1.57,5.01-2.18,1.02-.36,2.04-.72,3.07-1.02.89-.26,1.82-.45,2.74-.64.94-.22,1.88-.44,2.83-.61.58-.11,1.19-.13,1.78-.19.61-.07,1.2-.16,1.81-.22.29-.03.58-.03.88-.05,1.44-.03,2.89-.09,4.33-.08,1,.01,1.99.06,2.97.18,1.73.22,3.44.52,5.16.78,1.79.28,3.51.79,5.23,1.34,1.09.34,2.14.79,3.2,1.23,1.18.48,2.41.91,3.52,1.51,1.8.99,3.62,1.94,5.26,3.2,1.04.79,2.15,1.51,3.19,2.31.78.62,1.5,1.31,2.23,1.97.53.47,1.07.94,1.56,1.47,1.88,2.01,3.66,4.08,5.24,6.34,1.63,2.35,3.03,4.82,4.21,7.4.76,1.67,1.4,3.4,2.01,5.13.39,1.11.63,2.27.92,3.41.19.72.38,1.43.53,2.17.15.68.25,1.38.37,2.06.09.61.18,1.23.25,1.84.03.3-.06.62.02.91.14.53.05,1.04.08,1.57.05.54.03,1.08.03,1.62,0,.05-.03.11-.02.15Zm-.29,2.52c.01-1.34.01-2.69,0-4.03,0-.25-.07-.5-.08-.76-.01-.55.03-1.1-.02-1.64-.1-.84-.28-1.65-.42-2.48-.17-.97-.31-1.96-.54-2.91-.33-1.39-.69-2.77-1.13-4.13-.55-1.64-1.15-3.27-1.84-4.84-.76-1.71-1.57-3.4-2.53-5-1.04-1.73-2.23-3.37-3.46-4.97-1.01-1.32-2.11-2.57-3.24-3.77-.87-.94-1.82-1.8-2.8-2.64-1.25-1.05-2.51-2.12-3.86-3.05-1.6-1.1-3.28-2.13-4.98-3.08-2.68-1.49-5.52-2.65-8.48-3.52-1.26-.37-2.53-.72-3.83-.99-1.34-.28-2.7-.45-4.07-.62-1.19-.16-2.39-.32-3.6-.34-1.56-.05-3.13.01-4.69.08-1.01.03-2.03.14-3.03.26-1.13.14-2.28.3-3.4.53-1.54.33-3.07.68-4.57,1.11-2.84.84-5.58,1.94-8.17,3.39-1.43.79-2.85,1.6-4.23,2.48-2.03,1.29-3.88,2.83-5.66,4.43-1.04.95-2.01,1.97-2.94,3.03-1.03,1.17-2.02,2.38-3,3.61-1.42,1.78-2.6,3.72-3.67,5.72-1.41,2.62-2.62,5.33-3.44,8.19-.47,1.63-.92,3.25-1.27,4.9-.26,1.21-.41,2.46-.54,3.71-.16,1.55-.29,3.11-.34,4.66-.05.99.02,1.97.08,2.97.06,1.11.14,2.22.26,3.32.14,1.15.29,2.29.54,3.4.4,1.82.79,3.67,1.36,5.44.58,1.81,1.29,3.58,2.07,5.32,1.15,2.53,2.53,4.94,4.15,7.2.79,1.1,1.63,2.17,2.5,3.2,1.08,1.28,2.17,2.53,3.31,3.75.64.68,1.4,1.23,2.1,1.86,1.41,1.28,2.94,2.41,4.53,3.45,1.04.7,2.11,1.35,3.21,1.97.99.55,1.99,1.07,3.03,1.52,1.32.58,2.66,1.13,4.01,1.63,1.8.65,3.63,1.24,5.52,1.57,1.58.29,3.14.63,4.72.87,1.07.16,2.15.25,3.24.26,1.66.02,3.33,0,5-.09,1.36-.07,2.74-.25,4.1-.44,1.1-.14,2.22-.26,3.3-.54,1.71-.44,3.39-.99,5.08-1.48,2.42-.71,4.7-1.78,6.9-2.96,1.86-.99,3.68-2.04,5.33-3.36,1.49-1.19,3.03-2.35,4.46-3.61,1.03-.91,1.96-1.94,2.88-2.94.86-.94,1.71-1.89,2.46-2.91,1.05-1.43,2.02-2.93,3.06-4.45.26-.48.56-.94.8-1.43.85-1.72,1.74-3.4,2.49-5.16.58-1.38,1-2.83,1.44-4.25.32-1.02.63-2.05.86-3.09.26-1.23.4-2.48.63-3.71.3-1.55.42-3.11.44-4.68Z" fill="#acd038"/><path d="m65.42,89.52c-1.67.65-3.32,1.23-5.04,1.59-1.35.29-2.7.61-4.05.87-.58.11-1.18.14-1.78.18-.99.07-1.98.15-2.97.17-1.06.03-2.13.02-3.19,0-.82-.01-1.64,0-2.45-.1-1.42-.19-2.84-.46-4.26-.69-1.84-.29-3.62-.81-5.37-1.42-2.73-.96-5.34-2.19-7.84-3.67-1.8-1.06-3.49-2.25-5.09-3.57-1.47-1.21-2.85-2.52-4.17-3.9-1.54-1.61-2.96-3.34-4.13-5.26-.87-1.43-1.71-2.88-2.56-4.32-1.08-1.83-1.81-3.81-2.51-5.8-.53-1.51-.9-3.08-1.27-4.64-.25-1.06-.39-2.14-.54-3.22-.12-.86-.21-1.72-.26-2.58-.08-1.37-.16-2.75-.17-4.12,0-1.06.06-2.13.18-3.19.16-1.39.35-2.78.62-4.16.26-1.34.59-2.66.97-3.97.38-1.31.83-2.6,1.32-3.87.36-.92.81-1.82,1.26-2.7.59-1.16,1.17-2.32,1.85-3.43.7-1.15,1.48-2.25,2.27-3.34,1.42-1.96,3.03-3.78,4.81-5.42,1.06-.98,2.16-1.91,3.31-2.77,1.48-1.1,2.99-2.19,4.57-3.14,1.41-.85,2.91-1.56,4.42-2.21,1.51-.65,3.07-1.21,4.64-1.68,1.49-.45,3.02-.76,4.55-1.07.99-.2,1.99-.31,2.99-.45,1.84-.26,3.69-.33,5.54-.25,1.41.06,2.82.21,4.22.34,1.92.18,3.8.57,5.65,1.07,1.05.28,2.1.62,3.12.99,1.34.49,2.67,1.01,3.97,1.6,1.03.46,2.03,1.02,3.01,1.59.92.53,1.82,1.1,2.69,1.72,1.09.77,2.18,1.54,3.19,2.41,1.35,1.16,2.67,2.38,3.91,3.65.94.97,1.79,2.03,2.6,3.11.99,1.32,1.94,2.69,2.84,4.08.59.92,1.07,1.91,1.57,2.88,1.13,2.17,2,4.45,2.7,6.78.42,1.4.72,2.83,1,4.26.24,1.25.38,2.53.54,3.8.09.77.14,1.54.18,2.31.05.83.1,1.66.08,2.49-.02,1.12-.07,2.25-.18,3.37-.22,2.25-.55,4.49-1.16,6.67-.51,1.82-1.11,3.63-1.8,5.39-.6,1.53-1.29,3.04-2.09,4.47-.93,1.65-1.98,3.23-3.08,4.77-.88,1.23-1.91,2.37-2.89,3.53-1.38,1.63-2.96,3.05-4.63,4.36-1.11.87-2.23,1.76-3.42,2.52-1.4.89-2.86,1.68-4.33,2.44-1.07.56-2.2,1.01-3.35,1.51m-43.31-8.48c.26.23.51.48.78.69,1.45,1.11,2.88,2.25,4.38,3.3.96.68,1.99,1.29,3.04,1.83,1.37.71,2.75,1.38,4.18,1.94,1.7.67,3.43,1.27,5.18,1.76,2.18.61,4.42.95,6.67,1.16,1.12.1,2.25.14,3.37.18.55.02,1.1-.05,1.66-.08.92-.06,1.84-.08,2.75-.18,1.28-.14,2.58-.28,3.84-.54,1.51-.31,3.01-.67,4.48-1.13,1.49-.47,2.95-1.04,4.39-1.65,2.11-.89,4.12-1.98,6.02-3.27,1.13-.77,2.23-1.59,3.32-2.43,1.7-1.31,3.26-2.77,4.66-4.39.88-1.03,1.8-2.03,2.58-3.13,1.11-1.57,2.21-3.16,3.15-4.83,1.37-2.43,2.51-4.99,3.29-7.68.36-1.24.74-2.47.99-3.74.33-1.67.58-3.36.8-5.06.13-1.06.16-2.13.18-3.19.02-.88-.05-1.75-.08-2.63-.02-.65-.02-1.3-.1-1.95-.12-1.02-.27-2.03-.44-3.04-.16-.99-.3-1.99-.55-2.95-.35-1.35-.73-2.69-1.23-3.99-.7-1.81-1.43-3.62-2.3-5.36-.8-1.58-1.76-3.08-2.72-4.57-1.19-1.86-2.6-3.55-4.14-5.13-1.14-1.17-2.36-2.27-3.6-3.34-.96-.83-1.97-1.6-3.02-2.31-1.11-.76-2.26-1.48-3.45-2.12-1.51-.81-3.05-1.59-4.63-2.26-1.31-.56-2.69-.99-4.06-1.39-1.15-.34-2.32-.59-3.5-.82-.99-.2-1.99-.33-2.99-.44-1.32-.15-2.64-.31-3.96-.34-1.37-.03-2.75.06-4.12.17-1.24.1-2.48.23-3.7.45-1.47.26-2.92.61-4.37.96-2.79.67-5.4,1.79-7.94,3.1-1.69.87-3.3,1.88-4.86,2.98-1.64,1.16-3.2,2.41-4.64,3.81-1.2,1.17-2.34,2.42-3.43,3.7-.79.91-1.51,1.89-2.19,2.89-.76,1.12-1.47,2.27-2.12,3.45-.75,1.36-1.51,2.73-2.11,4.16-.65,1.56-1.17,3.17-1.63,4.8-.46,1.62-.81,3.27-1.11,4.92-.23,1.26-.33,2.55-.45,3.83-.07.81-.09,1.62-.09,2.44s.05,1.62.08,2.44c0,.21-.02.41,0,.62.14,1.21.26,2.41.45,3.61.16,1.07.39,2.13.6,3.19.37,1.83.92,3.61,1.61,5.34.58,1.47,1.17,2.94,1.91,4.33.89,1.67,1.93,3.27,2.95,4.87.5.79,1.1,1.53,1.69,2.26.6.74,1.22,1.45,1.87,2.14.85.89,1.74,1.75,2.66,2.67Z" fill="#acd038"/><path d="m94.14,51.84c.54-.21,1.04-.02,1.21.44.16.41-.03.9-.42,1.06-.33.14-.8.12-1.04-.21-.28-.37-.25-.78.08-1.11.05-.05.1-.1.18-.18Z" fill="#acd038"/><path d="m6.05,51.79c-.84.02-.92-.05-1.14-.6-.18-.44.07-.67.34-.89.28-.22.62-.23.92-.02.62.42.48,1.2-.12,1.51Z" fill="#acd038"/><path d="m49.94,95.86c-.46.04-.85.02-1.05-.51-.17-.45-.02-.89.46-1.1.37-.16.86.05,1.05.45.2.42.06.83-.37,1.1-.02.01-.05.03-.09.07Z" fill="#acd038"/><path d="m72.15,28.88c1.01-.37,1.99-.75,3-1.04,1-.29,2.03-.52,3.05-.74.48-.1.94.37,1,.96.03.32-.48.95-.77.86-.78-.23-1.47.07-2.16.3-1.08.37-2.12.85-3.18,1.27-.16.07-.35.12-.52.12-1.52-.01-2.89.46-4.17,1.23-1.7,1.02-3.42,1.99-5.1,3.04-.41.26-.71.74-1.01,1.14-.46.62-.98,1.2-1.21,1.97-.11.36-.05.61.18.88.2.23.33.51.51.76.13.18.26.38.43.52.68.55,1.4,1.06,2.05,1.64.66.58.92,1.37.99,2.23,0,.11.03.25-.02.34-.18.35-.14.6.17.87.12.11.14.39.14.59-.01.29-.08.55.19.79.13.11.16.34.23.52.12.29.22.59.38.86.55.92.8,1.98.03,3.04-.37.52-.42,1.15-.23,1.77.24.77.03,1.4-.52,1.97-.4.41-.77.84-.72,1.47,0,.04-.02.1,0,.13.59,1.04-.04,1.83-.54,2.65-.79,1.29-1.99,1.86-3.45,2.09-.88.14-1.75.45-2.58.79-.32.13-.53.54-.75.85-.05.08,0,.31.08.39.25.24.29.51.26.82-.04.5.1.93.38,1.35.28.42.17,1.01-.23,1.41-.62.61-.61.62-.23,1.4.25.52-.07,1.22-.69,1.61-.35.23-.7.48-1,.77-.35.33-.72.38-1.13.19-.34-.15-.59-.18-.94.07-.69.5-1.55.07-1.72-.81-.04-.22-.15-.27-.36-.18-.49.22-.56.93-.28,1.3.27.36.54.72.81,1.08.49.64.48,1.53.04,2.1-.39.51-.12,1.06-.04,1.61.04.29.07.62,0,.89-.21.77-1.21,1.58-1.89,1.53-.27-.02-.56-.14-.8-.28-.32-.2-.57-.18-.82.08-.15.16-.31.31-.47.47-.56.56-1.05.52-1.79.22-1.18-.48-1.61-1.52-2.11-2.52-.17-.35-.1-.77.15-1.13.16-.22.21-.42.09-.77-.36-1.02-.23-1.8.79-2.51.23-.16.56-.28.64-.5.06-.16-.23-.44-.3-.69-.05-.18.02-.39.03-.59,0-.06,0-.16-.03-.17-.05-.03-.13-.01-.19.01-.24.08-.5.15-.72.27-.14.07-.26.23-.32.37-.45,1.06-1.28,1.5-2.37,1.46-.44-.02-.76.17-1.01.44-.98,1.03-2.19,1.6-3.56,1.87-.73.14-1.46.33-2.19.33-.6,0-1.21-.23-1.8-.42-.48-.15-.94-.37-1.38-.62-.36-.2-.72-.44-1.02-.73-.81-.8-1.67-1.57-2.35-2.47-.59-.79-1.06-1.68-1.22-2.71-.19-1.22-.45-2.43-.7-3.64-.05-.24-.24-.46-.34-.7-.05-.13-.04-.29-.05-.43.11.08.26.14.33.25.56.88,1.14,1.76,1.65,2.67.94,1.69,2.08,3.23,3.69,4.32,1.71,1.16,3.59,1.34,5.5.52,1-.43,1.42-1.39,1.76-2.36.34-.96.35-1.94.19-2.94-.1-.61-.05-1.2.25-1.76.36-.66.29-.83-.32-1.25-.54-.38-1.01-.81-1.16-1.5-.03-.12-.13-.28-.24-.33-.74-.34-1.07-1-1.35-1.68-.19-.47-.28-.97-.46-1.44-.06-.16-.27-.4-.38-.39-.67.09-1.06-.35-1.48-.71-.31-.26-.57-.59-.88-.86-.51-.46-1.01-.94-1.56-1.35-.37-.28-.53-.55-.4-1.03.05-.17-.09-.45-.23-.59-.45-.42-.54-.88-.38-1.46.1-.38.01-.77-.24-1.13-.63-.88-.77-1.85-.48-2.9.18-.64.51-1.15.93-1.65.22-.27.33-.66.41-1.01.11-.48.37-.79.79-1.02.5-.26.53-.79.62-1.25.09-.48.08-.97.1-1.46.03-.8.31-1.49.86-2.07.41-.43.76-.92,1.23-1.28.41-.32.95-.47,1.41-.73.33-.19.66-.42.91-.71.45-.52.93-.95,1.65-.86.81.11,1.44-.37,2.15-.57.67-.19,1.38-.33,2.04.11.05.03.12.05.13.1.34.88,1.05.78,1.73.6.58-.16,1.04.02,1.45.39.19.17.35.25.61.25.43,0,.86.07,1.29.08.72.01.84-.1.96-.81.11-.66-.06-.8-.72-.6-.79.23-1.58.44-2.41.35-.47-.05-1-.03-1.28-.5-.15-.25-.27-.62-.21-.89.14-.58.31-1.11.16-1.75-.13-.52,0-1.12.08-1.67.02-.17.2-.38.36-.44.27-.11.29-.3.23-.48-.21-.61-.08-1.14.37-1.54.42-.37.6-.82.78-1.32.14-.37.35-.72.59-1.03.26-.33.05-.44-.19-.52-.26-.09-.54-.11-.81-.19-.14-.04-.26-.14-.38-.22.11-.05.22-.11.33-.16,1.93-.83,3.96-.86,6-.75.59.03,1.19.15,1.74.48.53.31,1.2.38,1.75.67,1.81.93,3.11,2.34,3.72,4.31.3.95.58,1.91.84,2.88.06.24.08.6-.25.65-.58.08-.8.56-1.11.92-.43.49-.86,1.01-.83,1.73.02.45.31,1,.92.9.34-.05.69-.11,1.03-.18.07-.01.16-.03.19-.07.35-.61,1.01-.81,1.54-1.18,1.09-.74,2.17-1.5,3.28-2.21.78-.5,1.61-.93,2.43-1.38.92-.5,1.85-.99,2.79-1.46.42-.21.88-.36,1.35-.56m-24.09,10.93c-.17-.21-.35-.21-.61-.12-.14.05-.36-.08-.53-.15-.02,0,0-.14.03-.2.15-.28.29-.57.47-.82.54-.74,1.14-1.43,2.02-1.8.07-.03.12-.14.17-.21-.08-.05-.16-.13-.25-.13-.62-.04-1.24-.04-1.86-.1-.23-.02-.48-.13-.68-.27-.27-.2-.52-.4-.88-.33-.49.09-1.06.06-1.46.3-.44.26-.59.03-.82-.19-.84-.81-1.95-1.07-2.99-.31-.1.08-.26.12-.39.12-.62-.02-1.16.22-1.7.48-.33.16-.58.42-.43.77.13.3.32.69.82.44.12-.06.3-.03.44,0,.09.02.15.13.23.19-.08.08-.14.2-.24.23-.2.06-.44.02-.62.11-.27.14-.55.33-.72.57-.13.19-.09.5-.16.74-.03.1-.17.17-.27.26-.04-.16-.13-.34-.11-.49.04-.24.22-.46.24-.69.02-.25-.03-.55-.15-.77-.25-.42-.63-.34-1.02-.17-1.11.48-1.87,1.3-2.36,2.38-.28.62-.55,1.32-.23,1.98.25.51,0,.78-.24,1.15-.13.21-.22.5-.2.74.03.42-.08.62-.48.66-.4.04-.68.23-.78.65-.14.62-.37,1.18-.82,1.65-.18.19-.29.52-.31.79-.03.51-.02,1.05.09,1.55.1.43.17.91.63,1.19.23.14.29.39.14.66-.17.32-.26.63-.1,1,.2.46.42.93.52,1.42.07.34.09.62.35.92.55.63,1.15.88,1.96.66.07-.02.18.08.27.12-.06.12-.1.24-.18.35-.03.04-.14,0-.21,0-.43.01-.48.07-.22.43.18.24.48.37.69.59.23.24.49.29.8.32.61.05,1.16-.17,1.74-.27.3-.05.64.09.95.19.07.02.09.22.13.33-.08,0-.16.02-.24.02-.3.02-.63,0-.91.08-.23.07-.49.25-.59.46-.1.19.5.87.74.94.07.02.14.05.21.08-.05.09-.09.23-.16.26-.24.1-.21.25-.15.45.3.95,1.28,1.52,2.22,1.32.1-.02.27.02.32.1.06.08.01.23.02.35-.09,0-.19,0-.28,0-.1,0-.21,0-.31,0-.36-.03-.46.09-.25.41.39.59.82,1.14,1.58,1.28.21.04.44.09.63.18.12.06.27.31.25.33-.2.23-.41.47-.67.62-.25.14-.47.24-.47.56,0,1.16,0,2.33,0,3.49,0,.1.11.19.18.29.09-.09.25-.18.25-.27,0-.74.04-1.49-.06-2.21-.09-.64.12-1.38.67-1.67.36-.19.46-.52.35-.82-.18-.51.08-.89.24-1.3.22-.55.77-.57,1.17-.51.24.04.49.09.72.06.69-.1,1.51.42,1.68,1.08.01.06.06.11.09.16.06-.04.15-.06.17-.12.14-.31.23-.65-.09-.9-.51-.39-1.04-.74-1.57-1.11-.32-.22-.75-.37-.94-.67-.16-.25-.1-.69-.05-1.03.06-.37.26-.76,0-1.07-.32-.38-.59-.76-.79-1.22-.15-.34-.22-.58.04-.86.08-.08.11-.22.14-.34.15-.64.27-1.3.45-1.93.23-.79.84-1.15,1.47-.91.13.05.24.14.36.2.23.12.38.08.55-.15.18-.23.41-.46.67-.58.61-.27,1.2.05,1.8.13.15.02.35.04.44-.03.23-.19.46-.41.59-.68.46-.93.59-1.95.62-2.96.04-1.13-.01-2.27-.08-3.41-.05-.84-.31-1.62-.92-2.27-.21-.23-.41-.61-.36-.88.06-.34,0-.55-.18-.8-.21-.28-.44-.6-.25-1.03m-2.43,13.91c-.15-.19-.31-.37-.44-.56-.33-.48-.95-.63-1.3-.08-.11.18-.15.41-.21.62-.11.43-.22.86-.29,1.29-.07.45-.15.9-.14,1.35.01.48.34.78.76,1,.15.08.37.2.23.51-.2.44-.33.92-.47,1.39-.06.21.03.26.21.36.76.41,1.64.59,2.26,1.27.48.52.99.39,1.23-.28.29-.82.35-1.65.18-2.5-.02-.1,0-.21.01-.32.11.03.24.04.33.11.3.22.57.47.87.68.29.19.58.38.96.17.45-.25.81-.56.82-1.11.01-.65.02-1.29,0-1.94,0-.15-.09-.32-.19-.45-.37-.48-.92-.33-1.37-.28-.47.06-.95.27-1.37.51-.33.19-.57.51-.53.97.01.14-.22.35-.38.43-.15.07-.37,0-.55-.02.11-.14.22-.29.32-.43.02-.03.02-.08.03-.12.44-.83,1.06-1.46,2.02-1.67.23-.05.46-.09.7-.13.47-.09.69-.39.72-.94.02-.43-.12-.73-.59-.85-.76-.19-1.51-.42-2.27-.59-.49-.11-1,.1-1.11.43-.09.29-.11.6-.19.89-.03.12-.14.23-.26.3m-3.62,14.92c.02-.34-.06-.5-.44-.32-.17.08-.38.06-.58.1-.12.02-.29.02-.35.1-.21.27-.46.55-.56.87-.21.66-.64,1.15-1.19,1.49-1.21.76-2.5,1.2-3.97.9-1.04-.22-2.06-.48-2.99-.99-.95-.52-1.79-1.2-2.29-2.21-.26-.52-.53-1.04-.79-1.57-.21-.41-.41-.83-.62-1.24-.08-.15-.17-.29-.26-.44,0,.14-.02.29,0,.43.14,1.05.27,2.09.76,3.08.49.97,1.09,1.83,1.84,2.59.41.41.87.77,1.27,1.19.53.56,1.17.93,1.9,1.18.6.21,1.19.46,1.84.45.88,0,1.69-.26,2.52-.52,1.29-.42,2.44-1.06,3.4-2.02.4-.4.69-.83.42-1.43-.03-.06,0-.15,0-.22.03-.44.06-.89.09-1.42m9.71-40.09c0-.18,0-.35,0-.53.05-1.6-.76-2.65-2.15-3.31-.49-.24-1.07-.04-1.33.43-.28.5-.56,1.01-.85,1.5-.28.46-.59.9-.85,1.37-.11.2-.18.44-.19.67-.02.28.06.56.07.84,0,.23-.05.42-.33.51-.12.03-.24.23-.27.37-.06.36-.07.74-.1,1.11-.03.33.15.52.44.63.31.11.62.21.92.34.48.22.8.09.94-.42.15-.53.28-.58.69-.24.47.39.85.29,1.03-.31.15-.49.43-.91.91-1.03.42-.1.58-.38.71-.69.16-.38.22-.79.37-1.23m-9.14,34.66c.04.56.1,1.1.36,1.62.38.75.34.76.97.24.1-.08.28-.07.42-.11-.01.11.01.25-.05.33-.93,1.33-.77,2.64.11,3.91.2.29.5.49.88.45.37-.04.37-.37.43-.63.06-.24.13-.51.08-.75-.19-1.12-.1-2.18.46-3.18.32-.57.18-.82-.41-1.1-.29-.13-.55-.29-.41-.77.29-1.04-.24-1.51-.91-1.66-.49-.11-1.03-.05-1.54-.01-.13.01-.32.23-.35.37-.07.41-.07.83-.06,1.29m13.42-6.09c-.4-.4-.66-.39-1.18-.26-.46.12-.98.17-1.44.08-.96-.19-1.6.64-1.48,1.32.12.69.12.7-.52.49-.56-.18-1.24,0-1.16.81.06.59.12,1.19.17,1.78.04.42.35.91.68.98.44.09.78-.1,1.05-.44.25-.31.48-.63.75-.92.39-.43.41-.61.07-1.07-.05-.07-.05-.18-.07-.27.08,0,.17-.04.25-.02.08.01.15.06.23.09.49.24.72.19,1.01-.27.36-.56.82-.99,1.41-1.29.51-.26.56-.47.22-1.01m-.49-5.78s.01.09,0,.13c-.11.38-.3.75-.33,1.14-.03.36.39.73-.02,1.11,0,0,.06.06.08.09.26.64.3,1.32.28,2.01,0,.2.1.54.23.58.26.07.67.08.84-.07.41-.38.82-.71,1.37-.88.34-.1.41-.4.38-.72-.03-.29-.17-.43-.49-.45-.29-.02-.58-.15-.87-.24-.06-.02-.09-.1-.14-.15.06-.04.12-.11.18-.11.18,0,.37.06.55.05.23-.01.58.01.66-.12.2-.32.33-.7.07-1.09-.17-.26-.39-.53-.45-.82-.1-.49-.12-1.01-.11-1.51,0-.42-.28-.61-.57-.72-.31-.11-.64-.06-.96.18-.52.41-.52,1-.69,1.59m-4.24,16.78c.03-.25-.03-.57.11-.75.34-.45.7-.83.02-1.27-.04-.03.04-.25.07-.38.08.06.17.11.25.18.12.1.22.28.35.31.68.17,1.37.32,2.07.45.32.06.52-.11.59-.43.12-.58.23-1.17.36-1.75.1-.48-.11-.83-.49-1.07-.35-.23-.69-.06-1.02.12-.55.3-1.13.56-1.66.89-.2.12-.45.4-.43.59.03.48-.27.64-.59.76-.75.29-1.26.81-1.52,1.55-.11.3-.09.62.31.82.47.23.88.57,1.32.86.13.08.25.17.39.23.09.03.2,0,.3-.01-.04-.09-.09-.18-.13-.28-.1-.24-.19-.48-.28-.81m-4.95.35c0,.5-.03,1.01.01,1.51.02.27,0,.62.36.73.35.11,1.05-.37,1.13-.74.11-.54.26-1.06.72-1.42.07-.05.16-.06.24-.1-.02.09-.03.19-.07.27-.11.26-.24.52-.36.78-.23.52-.23.98.31,1.31.04.02.07.06.09.09.18.21.36.18.61.1.39-.13.81-.17,1.2-.29.19-.06.41-.2.51-.37.24-.41-.02-.66-.3-.98-.45-.51-.98-.82-1.61-1.03-.18-.06-.36-.15-.51-.26-.51-.4-1.01-.83-1.53-1.22-.08-.06-.32,0-.4.08-.39.4-.45.92-.41,1.54m4.11-5.7c-.43-.16-1.2.18-1.45.66-.17.31-.4.52-.76.58-.6.11-1.06.33-1.21,1.05-.12.59-.02,1.02.4,1.4.25.22.52.43.8.62.43.3.62.25.88-.23.03-.06.06-.12.09-.18.3-.6.68-1.11,1.38-1.3.27-.07.46-.23.54-.55.21-.81-.09-1.44-.67-2.05m-1.81,8.7c-.28-.47-.6-.78-1.09-.56-.3.13-.57.35-.83.55-.26.2-.49.44-.75.65-.82.67-1.07,1.3-.77,2.08.12.32.37.5.73.51.68.02,1.36.06,2.04.08.29.01.57.02.58-.39.02-.94.06-1.89.09-2.92m6.05-34.04c1-.79,1.81-1.76,2.59-2.76.49-.62.89-1.32,1.66-1.68.61-.29.88-.84.83-1.54-.07-1.05-.59-1.94-1.04-2.84-.63-1.23-1.65-2.14-2.83-2.86-.09-.06-.22-.04-.34-.06.06.11.1.25.18.33.36.37.79.68,1.1,1.09.83,1.07,1.4,2.29,1.92,3.53.38.91.2,1.48-.54,1.85-.34.17-.71.33-1,.57-.62.53-1.18,1.12-1.79,1.67-.27.25-.57.46-.86.69-.04.03-.04.1-.07.15.06,0,.14.02.19,0,.4-.25.83-.46,1.18-.77.52-.47.96-1.02,1.45-1.5.12-.12.35-.14.53-.19.03,0,.08.08.12.12-.11.11-.24.2-.34.32-.27.32-.53.65-.8.96-.65.73-1.29,1.47-1.96,2.18-.29.32-.64.58-.96.88-.04.04-.05.12-.08.18.06,0,.13,0,.18-.03.2-.08.4-.16.65-.29m-4.9,33.87c-.21.21-.51.38-.6.62-.32.88-.22,1.79-.09,2.7.01.1.27.27.34.24.7-.28,1.42-.11,2.13-.16.11,0,.24-.03.3-.1.48-.5.7-1.12.55-1.78-.23-.99-1.58-1.76-2.63-1.51m-3.93,6.4c.4.28.77.6,1.2.83.52.28.93.05,1.33-.39.52-.58.46-1.24.41-1.9-.03-.36-.2-.66-.62-.86-.81-.38-1.61-.17-2.42-.14-.17,0-.36.07-.51.16-.28.17-.35.66-.15,1.05.22.41.47.81.75,1.25m14.7-37.93c0-.43-.02-.86,0-1.29.06-.82.42-1.51.94-2.12.42-.5.83-1.01,1.25-1.51.03-.04.05-.08.08-.12-.05,0-.11,0-.15.02-.36.24-.72.47-1.07.72-.33.24-.63.65-.98.71-.86.13-1.64.44-2.44.74-.37.14-.51.52-.35.87.08.17.1.37.15.55.16.57.06,1.21.63,1.64.63.49,1.66.58,1.93-.2m-7.37,10.55c-.46.49-.89.99-1.38,1.45-.25.23-.45.44-.53.79-.11.48.11.89.59.84.88-.09,1.75-.22,2.62-.36.09-.02.2-.2.23-.32.19-.72.35-1.44.54-2.15.1-.38-.09-.74-.48-.78-.58-.06-1.13.04-1.6.52m1.37,3.4c-.14-.05-.28-.11-.42-.15-.6-.18-1.15.02-1.71.19-.48.15-.66.5-.82.95-.24.69-.16,1.3.67,1.45.46.08.91.29,1.36.43.89.28,1.45-.13,1.45-1.05,0-.21,0-.41,0-.62-.03-.44-.12-.86-.53-1.21m9.63-.44c-.65.72-1.29,1.44-1.8,2.29-.6.99-1.43,1.82-2.44,2.44-.07.04-.1.16-.14.24.09,0,.2.05.27,0,.55-.3,1.11-.59,1.64-.93.62-.4,1.18-.9,1.82-1.26.69-.39,1.22-.94,1.68-1.55.22-.29.35-.64.09-1.05-.12-.19,0-.52.01-.79,0-.09.03-.18.04-.28-.13,0-.3-.05-.38.01-.28.23-.52.51-.78.85m-11.44,16.91c.28.28.57.54,1.01.35.34-.14.62-.6.62-1.04,0-.29,0-.58.01-.88.02-.41.06-.83.06-1.24,0-.07-.13-.18-.22-.19-.64-.07-1.28-.13-1.92-.18-.05,0-.11.02-.15.05-.59.46-.68,1.07-.27,1.74.27.44.54.89.85,1.38m3.44-6.62c-.13.19-.28.38-.39.58-.32.56-.49,1.18-.49,1.81,0,.3-.07.71.3.89.17.08.42,0,.58.08.7.37,1.17.05,1.61-.47.29-.34.33-.7.1-1.04-.28-.42-.36-.87-.35-1.36,0-.38-.1-.74-.5-.87-.33-.11-.59.09-.86.37m-.71-.26c.21-.09.43-.16.64-.27.47-.23.54-1.02.11-1.27-.55-.32-1.12-.63-1.7-.89-.19-.09-.45-.09-.66-.03-.73.22-1.15.82-1.49,1.44-.17.31-.11.76.29.93.21.09.55.03.76-.09.4-.22.79-.34,1.22-.17.25.1.49.23.82.35m-5.83,14.22c.41.21.76.58,1.29.39.98-.34,1.45-1.38,1.11-2.41-.1-.3-.24-.4-.55-.37-.7.05-1.4.08-2.1.12-.06,0-.15.12-.15.19,0,.43-.01.86.05,1.28.04.26.2.5.34.8m10.42-17.48c-.49.31-.98.62-1.46.94-.06.04-.08.14-.13.21.11,0,.23.03.32-.01.27-.13.51-.33.79-.43.71-.23,1.45-.41,2.16-.63,1.4-.43,2.47-1.22,2.8-2.74.04-.17-.08-.38-.12-.57-.17.05-.4.05-.5.17-1.11,1.21-2.44,2.15-3.87,3.06m15.76-31.92c-.42.12-.84.24-1.26.37-1.83.58-3.61,1.29-5.3,2.21-.23.12-.47.22-.69.35-.06.03-.09.12-.14.18.08,0,.17,0,.24-.03.38-.16.74-.36,1.13-.47,1.03-.3,2.08-.51,3.09-.84,1.06-.34,2.08-.82,3.14-1.16.78-.25,1.55-.58,2.41-.49.11.01.24-.06.36-.09-.05-.13-.07-.28-.15-.39-.19-.31-.49-.25-.77-.19-.67.16-1.33.33-2.04.54m-18.68,41.11c.54-.73.37-1.4-.41-1.64-.34-.11-.68-.24-1.02-.29-.33-.05-.68.02-.73.45-.07.71-.12,1.42-.18,2.13-.02.23.02.41.27.45.23.03.52.11.68,0,.47-.33.88-.73,1.4-1.1m-6.89-36.38c.21-.59.42-1.18.62-1.77.02-.06.04-.12.07-.19-.08-.02-.18-.09-.23-.06-.12.06-.26.13-.32.24-.33.58-.65,1.18-.72,1.87-.05.53-.37.78-.9.8-.39.01-.77.09-1.15.07-.21-.01-.52,0-.52-.4,0-.39-.25-.65-.6-.82-.36-.18-.6-.1-.71.27-.08.25-.12.51-.19.76-.1.37.06.72.4.82.23.06.48.13.71.09,1.05-.15,2.09-.33,3.13-.54.15-.03.29-.29.35-.47.06-.19.01-.41.06-.66m-7.33,34.44c-.24.46-.47.94-.48,1.47-.01.78,0,1.57,0,2.35,0,.36.29.55.65.42.23-.08.47-.15.68-.27.68-.38.78-1.11.3-1.69-.24-.29-.41-.65-.57-.99-.19-.44-.27-.91-.19-1.39.02-.1-.06-.2-.1-.31-.06.07-.13.14-.18.22-.03.04-.04.1-.11.19m14.17-8.7c-.26-.2-.48-.35-.88-.2-.77.28-1.18.88-1.61,1.48-.08.11-.02.44.08.51.44.3.9.58,1.39.78.53.22,1.04-.06,1.1-.62.06-.61-.02-1.23-.04-1.84,0-.01-.02-.02-.03-.12m5.65-11.92c.33-.75.92-1.29,1.53-1.77.6-.48.54-1.03.36-1.64-.24-.8-.82-1.33-1.46-1.81-.08-.06-.2-.08-.3-.12,0,.11-.04.22-.02.33.1.4.28.78.32,1.19.13,1.37-.17,2.67-.76,3.91-.07.16.01.39.02.58.07-.13.14-.26.22-.39.03-.06.06-.12.09-.27m2.61,2.87c-.66,1.04-1.37,2.04-2.27,2.9-.49.47-.95.97-1.39,1.49-.15.17-.22.42-.33.63.2-.15.43-.28.58-.47.53-.66,1.12-1.24,1.85-1.68.6-.36,1.18-.77,1.68-1.25.72-.68,1-1.54.72-2.53-.08-.26-.21-.33-.35-.09-.18.3-.3.64-.49,1m-23.8,17.35c-.25.39-.02.69.27.86.25.14.41-.12.55-.34.17-.26.4-.49.62-.71.23-.24.19-.5.09-.75-.2-.46-.41-.92-.65-1.36-.09-.16-.29-.35-.45-.36-.15,0-.39.18-.45.33-.11.28-.15.61-.14.91.02.45.11.89.17,1.43m17.79-25.39c-.76-.09-1.14-.66-1.56-1.2-.41-.53-.32-1.12-.34-1.72,0-.12-.07-.23-.11-.35-.05.11-.14.21-.14.32-.01.53-.09,1.09.02,1.6.1.49.3,1.04.64,1.39.56.58,1.31.81,2.15.58.67-.19,1.61-.96,1.42-1.68-.03-.13-.14-.23-.21-.35-.04.11-.11.22-.13.34-.11.68-.88,1.32-1.73,1.07m-7.37-10.29c-.24.62-.55,1.23-.69,1.87-.15.72-.24,1.48-.17,2.21.08.84.23,1.67,0,2.51-.02.07.08.19.13.27.01.02.14-.02.14-.04.06-.49.39-.91.24-1.48-.19-.73-.3-1.51-.26-2.26.05-.93.31-1.84.71-2.7.05-.11-.04-.29-.12-.4m12.41,15.59c-.32.8-.85,1.46-1.4,2.11-.31.36-.61.72-.9,1.08-.05.07-.05.18-.07.27.08-.04.18-.06.25-.11,1-.87,1.74-1.94,2.41-3.06.25-.41.32-.92.45-1.4.02-.06-.04-.15-.06-.22-.06.07-.14.12-.17.2-.16.36-.31.72-.51,1.13m-13.38-.22c-.06-.27-.12-.54-.18-.81-.01-.04-.05-.08-.08-.12-.03.04-.08.07-.09.11-.04.09-.09.18-.09.27.05.68.14,1.36.16,2.04,0,.33.36.55.66.33.18-.13.37-.24.55-.37.1-.07.19-.15.29-.23-.13-.07-.26-.19-.4-.21-.83-.13-.84-.12-.84-1.02m-2.21,14.92c.16.16.32.32.49.48,0-.23.04-.47,0-.69-.04-.25-.15-.49-.23-.74-.18-.53-.35-1.06-.53-1.58-.02-.06-.09-.11-.13-.16-.04.07-.12.14-.12.21,0,.14.04.28.05.42.02.22.02.43.03.65.01.22-.02.46.05.66.08.24.26.45.39.76m4.81-37.4h-.26c-.58,0-1.15-.01-1.73.01-.12,0-.3.15-.33.26-.03.12.1.27.17.4.1-.05.2-.1.31-.15.12-.06.24-.16.37-.16.61-.02,1.21,0,1.82-.01.14,0,.28-.03.41-.05-.1-.07-.2-.15-.31-.21-.11-.05-.24-.07-.44-.1m11.79,22.83c-.31.52-.62,1.03-.92,1.55-.03.04,0,.12,0,.17.05-.02.12-.03.15-.07.26-.34.54-.68.77-1.04.12-.19.33-.42,0-.61m2.12-15.1c.19-.1.39-.2.57-.31.05-.03.08-.1.11-.15-.07,0-.15-.03-.2,0-.22.1-.44.21-.65.34-.18.12-.34.28-.51.42.2-.08.39-.17.59-.25.01,0,.03,0,.09-.04m-16.73,8.43c-.17.12-.32.83-.19.94.01.01.14-.06.14-.1.04-.26.07-.53.05-.84m7.24-4.77c-.15.15-.31.3-.46.46,0,0,.04.07.04.07.19-.11.38-.21.56-.33.01-.01-.06-.15-.14-.19m6.05-1.81c-.11.09-.23.18-.34.28.13-.05.26-.09.39-.15.09-.04.17-.1.24-.15.05-.04.1-.1.14-.15-.07.02-.14.02-.21.05-.06.02-.12.06-.23.13m-13.42,11.3c0,.13,0,.26,0,.39,0,.03.04.08.06.09.03,0,.11-.03.11-.04,0-.21-.01-.43-.02-.64-.05.04-.1.08-.15.2m15.14-12.41s-.02.02-.03.03c0,0,0,.02,0,.03.16-.05.32-.1.48-.16,0,0,0-.04.01-.06-.14.04-.28.08-.46.16Z" fill="#acd038"/><path d="m78.93,32.92c-.09,1.3-.14,2.56-.27,3.82-.14,1.3-.29,2.6-.54,3.88-.2,1.04-.3,2.08-.44,3.13-.15,1.14-.4,2.27-.6,3.41-.18.99-.31,1.98-.54,2.96-.31,1.3-.65,2.61-1.09,3.87-.26.75-.53,1.5-.67,2.28-.02.11-.14.21-.21.31-.04-.11-.13-.23-.13-.34.01-.39.11-.78.07-1.15-.08-.78-.22-1.56-.33-2.33-.01-.1-.01-.2-.01-.3-.03-1.11-.05-2.21-.09-3.32-.05-1.15-.08-2.31-.18-3.46-.1-1.11-.3-2.2-.43-3.31-.09-.81-.11-1.63-.19-2.44-.13-1.39-.21-2.78-.51-4.16-.2-.93-.33-1.87-.72-2.75-.17-.39.03-.68.33-.94.18-.15.31-.36.47-.54.05-.05.11-.08.17-.12.03.07.1.16.08.2-.14.28-.25.6-.46.82-.26.26-.24.48-.15.8.23.78.45,1.56.61,2.35.19.95.31,1.91.45,2.86.04.29.06.59.09.89.12,1.23.24,2.46.35,3.69.07.75.13,1.51.18,2.27.07.96.12,1.92.18,2.88.06,1.18.1,2.37.18,3.55.06.85.17,1.69.26,2.54,0,.07.06.13.1.19.06-.06.15-.11.16-.18.15-1.39.89-2.62,1.13-3.99.17-.94.36-1.88.55-2.82.11-.55.27-1.1.38-1.65.1-.49.17-.99.24-1.49.13-.98.24-1.96.36-2.94.12-.97.24-1.93.35-2.9.15-1.28.3-2.56.44-3.84.05-.5.07-1.01.09-1.51.03-.62.09-1.24.08-1.86-.01-.61-.11-1.22-.17-1.83,0-.07-.01-.15,0-.22,0-.04.05-.08.08-.12.03.04.08.07.09.11.09.43.23.87.26,1.3.04.78.01,1.56.01,2.38Z" fill="#acd038"/><path d="m56.34,13.95c-.36.36-.31.72-.15,1.14.4,1.05.78,2.12,1.16,3.18.04.1.03.23.03.34.02.26-.14.22-.26.12-.09-.07-.13-.21-.18-.32-.21-.47-.41-.95-.61-1.42-.21-.5-.4-1.01-.63-1.5-.07-.15-.22-.27-.34-.41-.06.14-.14.27-.19.42-.3.95-.58,1.91-.9,2.85-.03.09-.3.2-.37.16-.2-.14-.4-.29-.27-.62.27-.7.53-1.4.73-2.12.32-1.13.58-2.29.9-3.42.18-.63.29-1.26.27-1.92,0-.09.14-.19.22-.28.07.09.15.17.2.27.03.06,0,.15,0,.22.03.13.08.26.12.39.1-.07.22-.12.3-.21.49-.49,1.08-.79,1.77-.84.43-.03.75.28.71.7-.05.53-.18,1.04-.59,1.43-.64.61-1.28,1.22-1.94,1.86m1.66-2.63c.06-.08.14-.15.17-.24.06-.14.09-.29.13-.43-.19-.03-.39-.12-.55-.07-1.18.37-2.1,1.62-2.13,2.84,0,.1.07.2.11.31.09-.05.21-.08.27-.15.67-.72,1.33-1.45,2-2.26Z" fill="#acd038"/><path d="m48.44,11.48c.17.37.32.72.46,1.08.03.08,0,.18,0,.28-.08-.03-.17-.04-.24-.08-.18-.11-.36-.22-.52-.35-.05-.04-.06-.16-.07-.24-.02-.14,0-.3-.05-.43-.06-.14-.19-.25-.28-.37-.02.14-.05.27-.06.41,0,.33-.05.67.01.98.05.23.26.42.37.64.05.09.07.3.03.32-.63.37-.59,1.05-.77,1.62-.27.83-.57,1.64-.88,2.46-.06.15-.2.28-.33.39-.09.07-.24.08-.36.12-.02-.13-.09-.28-.06-.39.36-1.14.8-2.27,1.09-3.43.22-.85.26-1.75.37-2.63.04-.34.04-.69.1-1.02.03-.16.16-.42.25-.42.18,0,.42.1.52.24.18.23.28.53.43.82Z" fill="#acd038"/><path d="m46.23,13.29c-.09.04-.19.1-.23.07-.34-.26-.66-.53-.99-.8-.06-.05-.14-.09-.21-.13-.02.08-.07.17-.05.24.17.43.04,1.02.63,1.23-.04.1-.05.26-.12.29-.34.14-.38.4-.44.73-.15.94-.33,1.88-.58,2.8-.11.4-.41.74-.64,1.1-.04.07-.16.09-.24.13-.04-.09-.13-.18-.11-.26.05-.24.13-.47.22-.7.59-1.57.93-3.18.83-4.86-.02-.34-.1-.68-.08-1.02,0-.22.13-.43.2-.64.17.07.39.1.51.23.46.51.88,1.04,1.3,1.59Z" fill="#acd038"/><path d="m60.47,13.05c.71,0,1.21.57,1.04,1.21-.05.18-.27.38-.46.45-.36.14-.75.18-1.12.28-.39.11-.54.42-.52.81.01.19.06.34.32.16.3-.21.64-.37.97-.53.09-.04.22,0,.33,0-.02.11.01.27-.05.32-.45.36-.89.74-1.38,1.02-.35.2-.89-.19-.89-.6,0-1.36.68-2.33,1.76-3.12m-.31.97c-.18.13-.12.28.06.25.24-.04.47-.19.69-.31.02,0-.04-.25-.1-.28-.29-.11-.44.13-.65.34Z" fill="#acd038"/><path d="m62.61,15.9c.42-.17.82-.3,1.2-.47.12-.05.19-.22.28-.33-.12-.06-.24-.16-.37-.18-.15-.02-.3.06-.45.06-.1,0-.25-.03-.29-.1-.04-.06,0-.25.07-.28.43-.26.86-.53,1.33-.73.19-.08.47-.11.35.35-.3,1.15-.62,2.31-.55,3.52.01.23-.05.34-.28.12-.26-.24-.56-.34-.93-.31-.64.06-.93-.2-1.05-.62-.08-.29.16-.72.7-1.03m.77.2c-.24.19-.51.35-.72.57-.08.08-.06.27-.06.4,0,.01.13.06.19.04.39-.09.75-.25.97-.6.08-.12.08-.3.12-.45-.15,0-.3,0-.49.04Z" fill="#acd038"/><path d="m68.18,19.03c.23.36.5.12.74.1.07,0,.14-.01.21-.02-.01.07,0,.15-.04.2-.27.45-1.28.54-1.63.15-.3-.34-.17-.71,0-.99.45-.71.89-1.46,1.65-1.9.23-.13.55-.19.81-.15.34.05.31.4.26.64-.15.71-.52,1.02-1.26,1.11-.56.07-.76.28-.74.86m.95-1.7c-.03.15-.05.3-.08.45.15-.07.31-.12.45-.21.08-.06.14-.17.18-.27.03-.06.03-.16,0-.2-.04-.04-.15-.05-.2-.02-.11.05-.2.14-.35.25Z" fill="#acd038"/><path d="m39.39,82.48c0,.48.06.94.05,1.4,0,.21-.14.41-.21.61-.07-.2-.2-.41-.21-.61-.05-1.02-.07-2.03-.09-3.05,0-.13.1-.26.16-.4.06.13.15.24.18.38.05.25.03.51.1.75.11.39.46.45.77.35.18-.06.37-.27.44-.46.09-.26.06-.56.11-.84.01-.07.13-.12.2-.18.05.08.14.16.14.24-.01.44-.07.89-.08,1.33,0,.24.07.47.08.71.01.68.01,1.36,0,2.04,0,.09-.1.18-.16.27-.03-.09-.09-.19-.09-.28,0-.58.01-1.16-.01-1.73-.01-.29-.13-.56-.51-.55-.28,0-.57,0-.87.02Z" fill="#acd038"/><path d="m75.75,41.22c.06-1.61.13-3.17.17-4.73.03-1.09.06-2.19-.01-3.28-.07-1.05-.26-2.09-.39-3.14,0-.08.06-.16.09-.24.07.04.19.06.2.12.08.29.16.59.19.89.08.75.15,1.51.18,2.26.05,1.57.11,3.15.08,4.72-.02,1.23-.16,2.45-.26,3.68,0,.08-.09.16-.14.23-.04-.07-.1-.14-.12-.21-.02-.08,0-.18,0-.31Z" fill="#acd038"/><path d="m42.92,82.39c-.05.22-.1.41-.11.6,0,.34-.16.58-.5.6-.31.02-.53-.09-.67-.44-.15-.41-.03-.74.11-1.08.12-.28.58-.37.84-.11.26.26.51.11.69.02.16-.08.25-.35.3-.56.05-.19-.01-.41.02-.61.02-.11.14-.19.22-.29.04.1.1.2.12.3.09.43.17.87.25,1.31.01.08-.03.18-.05.27-.06.21-.17.42-.18.63-.02.62,0,1.24-.01,1.87,0,.07-.08.14-.12.21-.05-.06-.13-.12-.14-.19-.04-.49-.1-.98-.08-1.46.02-.54-.25-.85-.69-1.06m-.86.24c-.01.12-.08.28-.03.37.06.1.22.15.33.21.03-.16.1-.33.08-.48-.01-.06-.22-.1-.38-.1Z" fill="#acd038"/><path d="m38.57,17.91c-.06-.4-.14-.76-.16-1.12,0-.09.15-.29.21-.28.49.05.66-.36.92-.62.1-.1.16-.26.28-.32.19-.1.39-.1.43.2.04.28.11.55.13.83,0,.07-.14.23-.2.22-.55-.07-.8.16-.82.74-.01.42,0,.85-.08,1.25-.06.28-.26.54-.43.79-.06.09-.21.11-.32.16-.05-.13-.14-.26-.13-.38.04-.48.11-.95.17-1.47Z" fill="#acd038"/><path d="m27.91,21.73c-.08-.01-.19-.03-.2-.08-.08-.41-.38-.31-.57-.19-.49.29-.96.62-1.41.96-.12.1-.18.31-.22.47-.02.09.07.2.11.3.08-.04.17-.08.24-.14.08-.06.14-.15.23-.2.06-.03.21-.04.23-.01.04.07.06.19.02.26-.18.34-.69.53-.96.36-.32-.2-.38-.65-.14-1.02.44-.68,1.09-1.06,1.81-1.36.33-.14.71-.2.83-.64.08-.32.22-.12.27.02.08.22.15.18.28.05.1-.09.23-.21.35-.21.57,0,.74-.38.88-.83.06-.19,0-.59.36-.49.31.08.32.44.15.66-.26.33-.56.65-.9.9-.26.2-.64.26-.9.47-.2.16-.3.45-.47.71Z" fill="#acd038"/><path d="m47.67,82.9c.03-.12.06-.2.09-.27.04-.11.09-.23.13-.34.07.1.16.19.22.3.13.24.23.5.38.72.06.09.22.11.33.17,0-.11.03-.22,0-.32-.11-.39-.41-.74-.17-1.17.05-.09.16-.15.25-.23.03.1.09.19.1.29.02.36-.07.75.24,1.05.06.05.12.09.19.14.04-.07.1-.15.1-.22.01-.34-.02-.69.02-1.03.02-.14.16-.27.24-.4.06.13.18.25.18.38,0,.38-.04.77-.08,1.15-.05.5-.41.66-1.05.6-.48-.04-.96,0-1.44.06-.29.03-.49,0-.42-.33.11-.49.27-.97.43-1.45.04-.13.14-.25.25-.33.07-.05.19-.02.29-.02,0,.08.01.17-.01.24-.14.34-.3.67-.45,1-.03.06-.01.14-.02.2.07-.04.14-.09.21-.18Z" fill="#acd038"/><path d="m72.47,18.96c.26.08.46.14.3.49-.09.21-.06.47-.11.7-.02.11-.13.21-.21.31-.05-.1-.13-.21-.14-.31-.03-.57-.21-.66-.79-.54-.54.11-.89.46-1.21.87-.23.29-.49.56-.74.84-.06.06-.16.06-.24.09-.01-.11-.08-.25-.03-.33.15-.24.34-.47.52-.71.39-.5.79-1.02,1.2-1.56.33-.57.37-.56.84-.11.15.15.41.21.63.26Zm-.95.23c.05-.06.1-.11.16-.18-.05-.03-.09-.07-.15-.1-.02.08-.05.16-.01.29Z" fill="#acd038"/><path d="m71.68,19c-.06.07-.11.13-.16.18-.03-.13-.01-.21.01-.29.06.03.1.07.15.1Z" fill="#acd038"/><path d="m66.58,15.71c-.09.09-.17.18-.26.28.07.06.14.1.25.1,0-.13.01-.25.01-.38Zm1.74-.42c.32.25.38.76.18,1.12-.57,1.1-1.51,1.82-2.56,2.42-.06.03-.14.03-.21.05-.41.06-.66.26-.87.66-.56,1.07-1.18,2.1-1.8,3.13-.09.15-.38.33-.47.29-.31-.14-.34-.4-.16-.71.84-1.44,1.66-2.89,2.51-4.35.38-.77.73-1.5,1.08-2.23.13-.26.28-.38.58-.23.19.09.42.1.64-.09.26-.24.85-.23,1.07-.05Zm-.29.74s0-.14-.03-.17-.13-.07-.17-.05c-.99.46-1.65,1.24-2.22,2.13-.05.08-.02.22-.05.32.15,0,.32.05.41-.02.68-.5,1.39-.99,1.79-1.84.09-.11.19-.24.28-.37Z" fill="#acd038"/><path d="m66.58,15.71c0,.13-.01.25-.01.38-.11,0-.18-.05-.25-.1.09-.09.17-.18.26-.28Z" fill="#acd038"/><path d="m36.71,17.41c.17,1.26.29,2.52-.17,3.76-.21.56-.63.96-.97.78-.39-.19-.8-.46-1.02-.81-.45-.74-.77-1.56-1.17-2.36-.11-.53-.24-1.03-.29-1.55-.07-.68-.08-1.36-.08-2.05,0-.38-.01-.77.1-1.1.1-.26.37-.55.63-.65.33-.13.74-.05.95.31.34.64.65,1.29.94,1.95.06.11-.08.31-.13.46-.09-.11-.22-.22-.29-.36-.23-.44-.38-.92-.65-1.32-.1-.16-.42-.25-.64-.24-.14,0-.37.24-.38.39-.03.55-.03,1.12.01,1.67.05.52.17,1.02.23,1.54.11,1,.46,1.89,1.18,2.6.18.18.49.25.74.38.13-.26.29-.53.37-.81.06-.22-.01-.47.02-.7.03-.3.11-.6.17-.89.02-.14.03-.26.05-.39-.14.07-.28.11-.39.21-.07.06-.09.18-.16.23-.11.08-.24.1-.37.15,0-.14-.07-.32-.01-.4.28-.33.57-.66.91-.95.13-.11.38-.1.41.17Zm-.97,3.99l.17-.28c-.08.02-.16.03-.25.05-.03.01-.08.01-.13.01-.08-.01-.15-.02-.23-.03.06.07.1.15.17.21.07.05.15.06.26.05Z" fill="#acd038"/><path d="m35.91,21.12l-.17.28c-.11.01-.19,0-.26-.05-.07-.06-.11-.14-.17-.21.08.01.15.02.23.03.05,0,.09,0,.13-.01.09-.01.17-.02.25-.05Z" fill="#acd038"/><path d="m44.82,88.18c-.06.18-.12.34-.14.5-.05.29.25.46.59.39.22-.05.45-.08.68-.06.11,0,.21.13.31.2-.09.05-.18.12-.28.14-.47.09-.93.17-1.4.23-.07,0-.24-.14-.24-.21,0-.39.09-.77.07-1.15-.03-.56-.14-1.12-.2-1.68,0-.09.06-.26.09-.26.64-.02,1.28-.02,1.91,0,.08,0,.16.15.24.22-.1.04-.2.11-.3.11-.35.01-.71.02-1.06,0-.3-.02-.43.07-.41.39.03.4.08.75.61.78.12,0,.23.15.34.23-.13.04-.26.08-.4.11-.12.03-.25.03-.4.07Z" fill="#acd038"/><path d="m55.11,87.65c-.05-.17-.08-.32-.11-.47-.05-.3.04-.53.36-.56.29-.02.65-.11.79.3.05.14.09.3.09.45-.02.47.04.92.22,1.37.23.56-.14,1.08-.69,1.06-.53-.02-.86-.36-.65-.83.2-.46.15-.86,0-1.31m.95.95c-.15-.14-.32-.4-.51-.09-.1.16-.11.41-.1.61,0,.11.11.29.19.3.13.02.36-.05.4-.13.07-.2.05-.43.02-.69m-.18-1.24c-.03-.09-.03-.21-.1-.26-.08-.07-.22-.12-.32-.1-.05,0-.13.22-.09.28.1.17.25.32.39.47.04-.1.08-.2.12-.39Z" fill="#acd038"/><path d="m53.85,88.29c-.04.41-.09.75-.36,1.04-.26.29-.48.21-.73.03-.47-.33-.54-.84-.57-1.35-.02-.33.03-.69.17-.98.17-.36.55-.54.95-.41.43.14.48.58.54.96.04.21,0,.44,0,.7m-1.32-.22c.11.29.21.59.35.86.04.08.22.17.27.14.11-.06.24-.19.25-.3.06-.44.12-.88.08-1.32-.02-.18-.3-.33-.46-.49-.13.15-.31.27-.39.44-.08.17-.07.38-.1.66Z" fill="#acd038"/><path d="m58.24,81.69c.17.69.07,1.32-.25,1.91-.21.4-.65.43-.94.08-.41-.51-.38-1.65.07-2.16.39-.45.8-.4,1.12.16m-.95,1.35c.03.12.04.25.1.35.04.07.16.11.25.12.04,0,.13-.1.13-.17.03-.44.35-.86.14-1.32-.05-.1-.13-.26-.2-.26-.11,0-.25.08-.32.17-.25.31-.22.68-.09,1.09Z" fill="#acd038"/><path d="m51.55,89.17c.23.07.42.15.62.22-.19.07-.37.19-.56.21-.29.04-.59,0-.88.01-.33.02-.38-.18-.3-.41.22-.63.47-1.24.71-1.87.04-.1.08-.23.06-.32-.03-.11-.12-.22-.21-.3-.02-.02-.16.08-.23.14-.07.05-.12.12-.19.18-.08.08-.17.15-.25.22-.02-.15-.09-.31-.05-.44.1-.36.55-.57.94-.47.25.06.46.51.36.87-.16.53-.37,1.05-.54,1.58-.04.13-.06.26-.09.39.14,0,.28-.02.42-.02.06,0,.12,0,.22,0Z" fill="#acd038"/><path d="m52.02,83.76c-.41-.7-.22-1.37.08-2.01.09-.19.35-.3.53-.44.14.18.34.34.42.55.22.6.12.81-.42,1.14-.12.08-.28.27-.26.37.03.14.17.35.41.16.04-.03.17.07.25.11-.04.08-.06.18-.12.24-.29.26-.55.23-.9-.11m.38-1.66c-.01.07-.06.14-.04.2.04.14.11.28.17.42.09-.14.18-.28.26-.43.03-.06.02-.15,0-.21-.03-.08-.09-.16-.14-.23-.07.07-.14.15-.25.26Z" fill="#acd038"/><path d="m55.79,81.4c-.19-.34-.28-.35-.34-.06-.13.63-.2,1.27-.26,1.91,0,.08.21.18.33.27.03-.11.06-.22.1-.32.04-.1.08-.2.12-.3.08.1.21.19.22.29.01.3.05.63-.4.7-.36.06-.64-.1-.68-.38-.07-.51-.05-1.05-.01-1.57.02-.29.13-.59.23-.87.1-.29.33-.44.64-.37.24.05.44.54.37.8-.01.05-.01.11-.04.16-.04.07-.1.12-.15.18-.04-.06-.09-.11-.11-.18-.02-.07,0-.15,0-.26Z" fill="#acd038"/><path d="m46.25,81.31c.01.29,0,.55.05.79.07.33.25.64.28.98.02.14-.17.4-.32.45-.17.06-.45,0-.58-.11-.16-.14-.22-.4-.31-.61-.01-.03.11-.15.17-.15.06,0,.12.1.17.16.14.14.39.42.41.4.27-.21.06-.41-.05-.61-.48-.89-.43-1.52.19-2.04.1-.08.43-.07.45-.02.07.19.06.41.07.62,0,.01-.14.06-.17.04-.26-.2-.25-.2-.38.12Z" fill="#acd038"/><path d="m27.11,19.56c-.19-.36-.36-.7-.51-1.05-.03-.08.03-.2.05-.3.07.05.16.08.21.14.09.11.14.24.23.34.08.08.19.12.29.18.05-.09.14-.19.14-.28-.01-.17-.1-.34-.12-.52-.02-.16.02-.32.04-.48.1.1.23.19.31.31.23.39.45.78.66,1.18.08.16.14.33.18.5.02.06-.05.15-.09.22-.06-.04-.14-.06-.18-.11-.09-.12-.16-.26-.26-.38-.1-.11-.1-.36-.41-.2-.27.15-.23.27-.12.46.01.02.02.05.03.08.04.17.09.35.13.52-.14-.13-.29-.25-.43-.38-.06-.06-.09-.14-.15-.23Z" fill="#acd038"/><path d="m25.13,20.05c-.12-.11-.17-.25-.34-.07-.21.23-.46.43-.71.62-.07.05-.21.01-.32.02.03-.1.03-.23.09-.3.59-.58,1.19-1.15,1.81-1.7.08-.07.27-.02.41-.02-.06.09-.1.2-.17.28-.62.63-.63.91-.09,1.76.03.05.12.08.12.13,0,.12-.04.24-.06.36-.08-.05-.2-.07-.24-.14-.17-.29-.32-.6-.5-.93Z" fill="#acd038"/><path d="m28.53,17.13c.04.17.1.32.17.47.09-.07.18-.16.28-.21.1-.04.22-.04.33-.06-.04.09-.07.19-.12.28-.09.19-.46.23-.27.59.12.23.17.25.33.06.14-.16.3-.32.47-.46.05-.04.16,0,.24,0-.02.08,0,.18-.05.24-.12.17-.26.34-.4.5-.36.37-.67.33-.9-.13-.18-.37-.34-.74-.47-1.13-.04-.13,0-.33.08-.44.11-.16.28-.29.46-.37.12-.06.29-.03.44-.04-.07.11-.13.23-.22.33-.1.12-.23.23-.36.37Z" fill="#acd038"/><path d="m75.42,46.36c.07-.08.12-.14.16-.2.03.06.08.11.08.16-.05.95-.12,1.89-.17,2.84-.04.68-.05,1.36-.1,2.03-.02.33-.11.65-.16.97-.03-.3-.1-.6-.09-.9.03-.57.11-1.13.15-1.7.01-.17-.07-.36-.07-.53.05-.89.11-1.77.19-2.68Z" fill="#acd038"/><path d="m46.98,88.8c.11.11.18.24.27.26.1.02.22-.06.32-.12.02-.01,0-.16-.06-.2-.14-.14-.3-.26-.46-.38-.32-.24-.38-.75-.13-1.05.24-.29.7-.24.85.1.02.04-.02.13-.05.15-.08.03-.17.01-.25.04-.12.03-.23.08-.34.13.06.12.1.26.18.36.14.15.4.24.47.42.09.22.12.53.02.73-.12.24-.41.3-.7.15-.26-.13-.46-.29-.41-.62.01-.07.09-.13.14-.19.04.07.08.14.15.23Z" fill="#acd038"/><path d="m51.46,82.11c-.04.14-.08.24-.12.34-.05-.08-.1-.15-.16-.23-.07-.1-.14-.19-.22-.28-.04.13-.1.26-.12.39-.02.2,0,.41,0,.62-.02.26.03.43.35.4.09,0,.18.1.27.15-.09.1-.17.24-.29.28-.38.11-.75-.2-.76-.68-.01-.44.03-.89.09-1.33.02-.14.2-.3.34-.35.11-.03.3.07.39.17.11.13.15.31.23.52Z" fill="#acd038"/><path d="m48.64,86.96c.04-.15.08-.25.11-.35.05.09.09.19.15.27.16.21.33.41.5.61.04.04.11.09.11.13,0,.04-.06.12-.1.13-.33.1-.45.31-.42.65.02.31.02.62,0,.92-.01.13-.12.25-.18.38-.06-.13-.15-.26-.16-.4-.05-.43.07-.94-.13-1.26-.27-.45-.04-.71.12-1.08Z" fill="#acd038"/><path d="m41.77,15.19c.11-.08.2-.13.3-.19.04.11.12.23.12.34.01.6.02,1.2,0,1.8,0,.14-.12.27-.19.41-.08-.15-.23-.3-.24-.45-.03-.63-.01-1.26.01-1.91Z" fill="#acd038"/><path d="m54.64,88.91c0,.19.02.34,0,.48-.01.1-.08.2-.12.3-.08-.11-.21-.21-.22-.32-.03-.28-.02-.56,0-.85.01-.43.03-.85.05-1.28,0-.05.03-.1.04-.16.04.02.11.03.12.06.05.14.12.28.13.43.02.43,0,.86,0,1.33Z" fill="#acd038"/><path d="m41.73,13.73c.17.04.33.1.48.18.02,0,.01.13,0,.14-.14.06-.29.16-.42.13-.35-.07-.12-.27-.05-.45Z" fill="#acd038"/><path d="m58.88,83.61c.01-.05.02-.07.03-.07.14-.05.28-.09.42-.14,0,.08.03.18,0,.24-.13.2-.29.22-.45-.03Z" fill="#acd038"/><path d="m46.61,42.81c.24-.18.44-.12.54.08.04.07-.07.27-.15.36-.2.2-.46.36-.63.58-.1.12-.09.33-.14.51.18,0,.39.04.55-.03.21-.09.37-.3.58-.41.13-.07.31-.05.47-.08-.06.17-.07.38-.18.49-.24.23-.53.41-.8.61-.26.19-.36.48-.18.71.17.22.44.13.68-.05.37-.28.79-.5,1.2-.73.06-.03.15,0,.23,0-.03.08-.03.19-.08.24-.47.4-.94.78-1.41,1.17-.22.19-.4.38-.27.72.27.74.51,1.5.76,2.25.02.06.09.14.07.19-.07.19-.16.37-.24.55-.13-.14-.31-.26-.37-.43-.23-.63-.4-1.27-.64-1.9-.05-.14-.27-.22-.42-.32-.06.14-.2.29-.18.42.1.51.24,1.01.38,1.52.09.34.24.67.29,1.02.02.15-.15.32-.23.49-.12-.11-.31-.21-.35-.34-.2-.65-.35-1.33-.55-1.98-.05-.16-.19-.33-.47-.17-.28.16-.41.36-.33.65.17.6.37,1.2.55,1.8.04.12.07.24.1.36.02.1.02.2.04.3-.12-.03-.3-.03-.35-.1-.16-.27-.28-.56-.4-.85-.16-.38-.31-.75-.44-1.14-.11-.34-.26-.12-.38-.04-.19.11-.36.26-.56.36-.09.05-.22.02-.33.02,0-.13-.05-.3.01-.38.18-.23.4-.42.61-.63.05-.05.14-.1.15-.16.04-.21.15-.48.06-.61-.16-.25-.37-.03-.54.09-.44.33-.87.67-1.32.98-.12.08-.38.15-.47.08-.22-.17-.04-.3.12-.44.6-.52,1.19-1.05,1.77-1.59.06-.06.09-.16.13-.24-.1-.04-.21-.13-.3-.11-.17.04-.34.11-.48.22-.65.49-1.29,1-1.95,1.49-.1.07-.22.12-.33.15-.07.02-.21.01-.23-.03-.04-.07-.04-.21,0-.26.19-.22.39-.43.62-.62.61-.51,1.24-1,1.84-1.51.13-.11.3-.3.29-.44-.03-.42.19-.44.51-.43.47.01.8-.46.66-.91-.19-.61-.45-1.18-.86-1.67-.2-.24-.05-.46.11-.56.15-.09.4-.13.51.19.17.49.4.95.6,1.43.11.25.2.54.55.46.28-.06.4-.47.28-.8-.26-.69-.51-1.38-.74-2.08-.05-.14.03-.32.04-.48.13.1.32.18.38.31.23.49.44.99.63,1.5.26.71.39.75.97.21m-.79,1.99c-.07-.1-.17-.3-.2-.29-.18.07-.38.15-.49.29-.07.09-.07.32,0,.44.05.09.32.17.35.13.13-.15.2-.34.34-.56m.13,1.99c.29-.16.24-.44.21-.69-.02-.13-.15-.25-.23-.37-.12.1-.32.18-.34.29-.05.28-.18.64.36.77m-1.02.13c-.14,0-.3-.06-.42,0-.19.09-.18.34-.01.71.02.05.11.1.16.09.41-.04.55-.38.26-.79m-.75-1.28c-.17.12-.42.2-.3.47.06.12.32.28.34.26.17-.16.3-.35.45-.54-.15-.08-.29-.16-.49-.19Z" fill="#acd038"/><path d="m47.51,27.91c.13-.24.08-.61.48-.54.13.02.34.13.36.23.15.68.27,1.37.36,2.06.05.38-.06.71-.57.71-.27,0-.54.09-.8.07-.35-.02-.48-.24-.3-.53.39-.61.32-1.31.46-2Z" fill="#acd038"/><path d="m59.83,36.61c.23-.09.3-.04.2.17-.19.41-1,.92-1.47.9-.09,0-.18-.06-.27-.1.06-.08.11-.2.19-.24.44-.25.88-.48,1.35-.74Z" fill="#acd038"/><path d="m58.46,39.34c.08-.1.21-.25.28-.23.15.05.28.18.4.3.01.01-.05.17-.08.17-.14,0-.28-.02-.42-.06-.06-.02-.11-.1-.18-.17Z" fill="#acd038"/><path d="m65.22,50.82c-.07.05-.11.08-.16.11,0-.04-.02-.09,0-.12.17-.26.34-.52.52-.78.01-.02.06-.02.09-.03,0,.04.03.09.01.12-.14.23-.29.46-.46.71Z" fill="#acd038"/></g></g></svg>