<?xml version="1.0" encoding="UTF-8"?><svg id="b" xmlns="http://www.w3.org/2000/svg" width="684.98" height="175.86" viewBox="0 0 684.98 175.86"><g id="c"><path d="M497.73,44.72c-.27.51-.48.93-.72,1.34-6.97,11.92-13.94,23.85-20.95,35.75-.53.9-.52,1.51.07,2.38,9.19,13.61,18.33,27.26,27.48,40.89.33.5.64,1.01,1.03,1.64-.56.18-.98.32-1.39.44-38.76,11.8-77.52,23.61-116.29,35.41-14.34,4.36-28.67,8.72-43,13.1-.83.25-1.55.23-2.36-.02-47.52-14.76-95.05-29.51-142.58-44.26-5.41-1.68-10.81-3.35-16.22-5.03-.46-.14-.91-.31-1.46-.5.2-.37.32-.65.49-.91,7.93-11.61,15.86-23.22,23.77-34.84.47-.69.94-.85,1.73-.68,6.93,1.49,13.86,2.95,20.79,4.41.43.09.87.14,1.49.24-.04-4.55-.33-8.96-.53-13.55-5.22,1.51-10.29,2.98-15.47,4.49-8.8-12.77-17.58-25.5-26.46-38.38.62-.22,1.1-.41,1.59-.56,12.53-3.85,25.07-7.7,37.6-11.55C263.55,23.1,300.76,11.66,337.97.2c.81-.25,1.54-.28,2.37-.04,39.89,11.3,79.78,22.57,119.67,33.85,11.99,3.39,23.99,6.77,35.98,10.15.54.15,1.08.34,1.75.55ZM409.46,144.87c-1.08-38.76-2.16-77.37-3.24-116.02-8.97-2.64-17.87-5.25-26.91-7.91.4,12.15.8,24.12,1.19,36.09-.4-.31-.57-.66-.73-1.02-5.62-13.02-11.23-26.03-16.83-39.05-.3-.7-.68-1.07-1.46-1.24-5.33-1.15-10.65-2.37-15.98-3.56-1.46-.33-2.92-.63-4.52-.98,0,.54,0,.94,0,1.34.11,5.26.24,10.51.34,15.77.25,13.16.49,26.32.74,39.48.16,8.72.33,17.44.49,26.16.25,13.28.49,26.57.74,39.85.18,9.94.36,19.88.55,29.83,0,.27.07.53.11.91,9.22-2.68,18.36-5.34,27.55-8.02-.34-15.39-.76-30.67-1.06-45.95.09-.01.19-.02.28-.03,3.84,14.16,7.69,28.31,11.55,42.53,9.17-2.76,18.17-5.46,27.21-8.18ZM273.21,144.94c21.85,6.26,43.67,12.5,65.58,18.78.03-.41.07-.65.06-.88-.1-7.25-.22-14.51-.31-21.76-.13-9.74-.18-19.48-.37-29.22-.23-11.69-.57-23.38-.87-35.07-.25-9.86-.49-19.72-.73-29.58-.27-11.28-.54-22.57-.81-33.85,0-.35-.05-.7-.09-1.2-10.16,3.13-20.21,6.23-30.3,9.33.39,14.36.69,28.58,1.18,42.79.38,11.11,1.14,41.92.88,42.74-1.05,0-2.11.03-3.16,0-1.04-.04-2.09.17-3.17-.15-.54-27.85-1.09-55.65-1.64-83.6-9.93,3.02-19.65,5.97-29.42,8.94,1.06,37.62,2.11,75.13,3.17,112.74ZM409.73,29.89c0,1.46-.03,2.72,0,3.98.37,11.49.75,22.97,1.12,34.46.21,6.52.38,13.03.59,19.55.37,11.69.76,23.38,1.13,35.07.2,6.27.38,12.55.57,18.82.01.39.07.78.12,1.32,9.21-2.61,18.28-5.18,27.26-7.72.08-.16.1-.2.11-.23.02-.12.05-.24.05-.36-.1-7.91-.2-15.81-.31-23.71,0-.12,0-.24,0-.37,0-.08.03-.16.06-.23.01-.03.05-.06.08-.07.04-.02.08-.02.2-.04,3.61,7.12,7.23,14.27,10.89,21.49,12.07-3.71,24.04-7.39,36.15-11.11-8.4-12.51-16.7-24.89-25.04-37.31,3.16-5.4,6.31-10.78,9.45-16.16,3.13-5.36,6.27-10.72,9.45-16.17-8.88-2.62-17.58-5.19-26.15-7.72-.2.12-.25.14-.27.17-4.72,7.95-9.45,15.9-14.17,23.85-.08.14-.17.28-.26.41-.02.03-.05.07-.08.09-.03.02-.08.03-.11.03-.03,0-.06-.03-.19-.1-.4-9.7-.8-19.46-1.2-29.27-9.83-2.89-19.59-5.77-29.46-8.67ZM204.25,52.58c4.65,6.74,9.22,13.36,13.79,20,7.1-2.06,14.07-4.09,21.17-6.16.21,4.76.42,9.31.62,13.87.19,4.52.37,9.04.56,13.56.19,4.53.46,9.05.54,13.68-10.09-2.13-20-4.22-29.9-6.31-4.32,6.33-8.56,12.54-12.82,18.77,2.3,1.02,70.23,22.82,71.17,22.84-1.12-36.31-2.24-72.61-3.37-109.08-20.66,6.3-41.13,12.54-61.77,18.83Z" fill="#aad037" stroke-width="0"/><path d="M15.07,52.53c52.69-.17,105.39-.52,158.23-.68v69.25c1.95.33,3.83-.05,5.87.29-.75,1.1-1.37,2.05-2.02,2.97-1.75,2.47-.78,1.99-3.77,2.06-11.25.27-22.5.52-33.74.77-3.3.07-6.6.15-9.9.23-.39,0-.78.06-1.21.29.33.22.65.44.99.64,8.78,5.16,17.57,10.32,26.35,15.49.69.41,1.38.61,2.19.61,14.96-.02,29.93,0,44.89-.01,7.62,0,15.25-.02,22.87-.01.68,0,1.39.1,2.04.3,8.18,2.52,16.34,5.06,24.51,7.6.36.11.72.27,1.03.63h-1.29c-7.83,0-15.66,0-23.49,0-24.18,0-48.36,0-72.54.04-.98,0-1.79-.24-2.61-.77C102.91,119.76,52.35,87.31,1.8,54.86c-.51-.33-1.02-.67-1.8-1.19.4-.27.73-.44,1-.67,11.48-9.84,22.97-19.69,34.44-29.55.68-.59,1.36-.87,2.29-.88,18.06-.05,36.12-.14,54.18-.22,17.78-.08,35.55-.16,53.33-.24,17.94-.08,35.88-.16,53.82-.25,15.57-.07,31.15-.15,46.72-.22,2.08,0,4.16-.02,6.24-.02.39,0,.77.03,1.19.25-.33.11-.66.23-1,.33-8.29,2.55-16.58,5.1-24.88,7.63-.77.23-1.59.37-2.39.37-12.19.07-24.38.11-36.57.16-16.51.07-33.02.13-49.54.21-15.37.07-30.74.15-46.11.22-17.33.08-34.65.17-51.98.23-.74,0-1.3.2-1.87.69-7.69,6.62-15.41,13.23-23.11,19.84-.27.23-.52.48-.78.73.03.09.07.18.1.26ZM167.26,56.18c-.69,0-1.17,0-1.66,0-14.31.08-28.61.16-42.92.22-13.74.07-27.47.13-41.21.18-10.35.04-20.71.06-31.06.11-9.74.05-19.48.12-29.23.18-.3,0-.59.05-1.08.09.45.32.7.52.97.7,7.67,5.17,15.34,10.34,23,15.53.78.53,1.56.74,2.5.74,10.19-.08,20.38-.15,30.57-.2,13.21-.07,26.41-.12,39.62-.18,5.79-.03,11.58-.04,17.37-.06,10.6-.04,21.2-.08,31.8-.12.43,0,.87-.06,1.34-.09v-17.1ZM167.34,80.11c-37.08.18-73.99.35-110.89.53.27.44.58.67.91.87,8.35,5.18,16.7,10.35,25.03,15.54.72.45,1.43.66,2.29.65,10.27-.08,20.55-.13,30.82-.18,5.67-.03,11.33-.04,17-.06,11.13-.04,22.26-.08,33.39-.12.47,0,.94-.07,1.45-.11v-17.11ZM167.48,103.89c-25.23.12-50.26.24-75.29.35-.02.08-.05.16-.07.24.32.22.63.46.96.66,7.99,4.89,16,9.76,23.95,14.7,1.61,1,3.17,1.51,5.12,1.45,5.74-.16,11.49-.1,17.23-.11,8.96-.03,17.93-.05,26.89-.08.39,0,.78-.05,1.2-.08v-17.14Z" fill="#aad037" stroke-width="0"/><path d="M556.57,127.25c-2.89-.05-5.78-.1-8.67-.16-8.48-.18-16.95-.37-25.43-.55-3.63-.08-7.25-.16-10.88-.24-.29,0-.57-.05-.85-.02-1.02.09-1.65-.36-2.14-1.24-.55-.99-1.26-1.9-1.88-2.86-.17-.26-.3-.54-.56-1.03h5.71V51.67c52.82.16,105.52.43,158.43.57-.28-.33-.42-.55-.61-.71-7.86-6.74-15.73-13.47-23.59-20.21-.51-.44-1.04-.55-1.67-.55-7.3,0-14.6-.03-21.9-.06-21.36-.07-42.73-.15-64.09-.22-5.14-.02-10.27-.04-15.41-.06-19.77-.07-39.55-.13-59.32-.21-7.05-.03-14.11-.08-21.16-.15-.6,0-1.23-.06-1.81-.22-9.22-2.59-18.42-5.19-27.63-7.8-.29-.08-.57-.2-.83-.51.34-.02.68-.05,1.02-.05,21,.07,42,.14,62.99.21,4.57.02,9.13.06,13.7.08,17.61.06,35.23.1,52.84.17,16.63.06,33.27.14,49.9.2,8.32.03,16.64.04,24.95.08,3.38.01,6.77.07,10.15.09.57,0,1,.17,1.43.54,11.7,10.03,23.41,20.05,35.12,30.07.15.13.31.26.6.5-.52.35-.94.64-1.37.92-22.42,14.42-44.84,28.84-67.26,43.26-28.25,18.17-56.49,36.34-84.73,54.52-.71.46-1.41.68-2.27.68-17.45-.01-34.9,0-52.36,0-13.7,0-27.4.02-41.1.03-.48,0-.97,0-1.49-.21.27-.12.53-.27.81-.36,8.38-2.55,16.75-5.11,25.14-7.62.8-.24,1.68-.28,2.53-.28,17.29-.02,34.58-.01,51.86-.01,4.08,0,8.16-.03,12.23,0,.89,0,1.65-.24,2.42-.69,8.77-5.19,17.55-10.35,26.33-15.52.31-.18.6-.39.9-.58-.02-.1-.03-.19-.05-.29ZM664.86,56.8c-.03-.08-.05-.17-.08-.25-43.4-.17-86.8-.33-130.2-.5-5.34-.02-10.68-.03-16.02-.05-.16,0-.32.03-.48.06-.04,0-.07.04-.1.07-.03.02-.06.05-.12.11v16.88c.47.02.87.06,1.27.06,5.05.02,10.11.02,15.16.05,11.86.06,23.72.13,35.58.18,22.95.09,45.89.16,68.84.26.86,0,1.56-.24,2.26-.72,5.79-3.94,11.61-7.86,17.41-11.78,2.16-1.46,4.31-2.92,6.47-4.37ZM517.78,97.1c.45.02.85.05,1.25.05,5.75.02,11.49.02,17.24.05,9.01.04,18.01.1,27.02.14,12.51.05,25.03.07,37.54.12.6,0,1.1-.14,1.6-.46,8.58-5.34,17.16-10.67,25.74-16.01.2-.13.37-.32.71-.61-37.14-.14-74.05-.28-111.1-.42v17.16ZM592.93,104.33c-.03-.11-.05-.22-.08-.33-25.03-.08-50.07-.17-75.17-.26v17.18c.61,0,1.13,0,1.66,0,15,.06,29.99.12,44.99.2.94,0,1.72-.23,2.52-.72,8.36-5.15,16.73-10.28,25.1-15.41.34-.21.66-.44.99-.66Z" fill="#aad037" stroke-width="0"/></g></svg>