<?xml version="1.0" encoding="UTF-8"?><svg id="b" xmlns="http://www.w3.org/2000/svg" width="298.38" height="51.53" viewBox="0 0 298.38 51.53"><g id="c"><path d="M54.69,0c.63.08,1.26.21,1.9.23,15.34.54,30.69.95,46.02,1.62,16.32.71,32.64,1.67,48.95,2.52,13.89.72,27.79,1.42,41.68,2.18,15.13.82,30.25,1.7,45.38,2.54,11.47.64,22.94,1.25,34.41,1.88,3.95.22,7.91.46,11.86.82-.77,0-1.54.01-2.31,0-29.96-.51-59.92-.81-89.87-1.59-44.31-1.15-88.63-2.08-132.96-1.57-8.81.1-17.62.46-26.42.9-2.99.15-5.95.88-8.92,1.42-.76.14-1.5.51-2.19.89-1.78.99-2.27,2.38-1.12,4.05,2.02,2.91,4.1,5.82,6.44,8.46,4.52,5.1,9.24,10.02,14.13,15.28-.6-.27-.91-.38-1.2-.55-10.74-6.04-21.25-12.43-31-19.98-1.76-1.36-3.56-2.73-5.02-4.38C2.79,12.84,1.47,10.64,0,8.58c0-.59,0-1.18,0-1.77,1.06-1.04,2-2.27,3.21-3.07,1.03-.68,2.36-1.08,3.6-1.25,4.98-.7,9.96-1.35,14.96-1.87,3.23-.34,6.49-.42,9.73-.61,7.73,0,15.46,0,23.18,0Z" fill="#aad037" stroke-width="0"/><path d="M71.6,29.31c-2.53,0-5.05.03-7.58-.02-.83-.01-1.74-.04-2.46-.38-.61-.29-1.36-1.03-1.38-1.59-.02-.6.61-1.51,1.19-1.78,1-.46,2.17-.67,3.29-.73,2.62-.15,5.25-.14,7.87-.2,1.45-.04,2.61-1.07,2.58-2.29-.02-1.13-1.03-1.94-2.52-1.95-4.41-.03-8.82-.06-13.22-.04-2.16,0-2.57.5-2.6,2.63-.06,3.99-.16,7.98-.22,11.97-.03,1.65-.93,2.75-2.45,2.85-3.04.21-6.13.36-9.16.1-2.43-.21-3.22-1.5-3.23-3.97,0-3.4-.02-6.8,0-10.2.03-3.43,1.1-4.87,4.35-6.04,4.01-1.45,8.19-1.9,12.4-1.96,6.29-.08,12.58-.09,18.87.05,2.45.05,4.94.38,7.32.97,2.77.69,4.4,2.8,4.52,5.06.09,1.54-.55,2.77-1.59,3.83-2.18,2.23-4.9,3.32-7.97,3.44-2.67.11-5.35.02-8.02.02,0,.08,0,.15,0,.23Z" fill="#aad037" stroke-width="0"/><path d="M194.38,23.38c-1.72-2.08-3.5-3.07-5.9-3.01-3.07.09-6.14.03-9.21.01-2.38-.01-3.61-.84-3.62-2.38,0-1.46,1.34-2.58,3.54-2.61,5.25-.07,10.52-.33,15.74.08,4.36.34,8.48,1.81,10.56,6.26.36.78.59,1.68.6,2.54.07,3.25-.02,6.51.05,9.76.02,1.17-.45,1.97-1.29,2.67-2.25,1.88-6.64,1.93-8.84-.05-.57-.51-1-1.45-1.05-2.23-.14-2.15-.05-4.32-.05-6.57-.49-.07-.86-.16-1.24-.16-3.07-.06-6.14-.11-9.21-.15-1.36-.01-2.3,1.12-2.33,2.78-.03,1.57.84,2.62,2.27,2.67,1.93.06,3.86.15,5.79.1,1.4-.04,1.99.56,2.07,1.88.09,1.56-.54,2.47-1.93,2.64-.44.06-.89.04-1.33.04-3.71,0-7.43-.14-11.14.04-4.42.22-6.68-2.86-6.74-6.49-.07-3.89,1.67-6.68,5.03-7.59.61-.17,1.27-.21,1.9-.21,4.85-.02,9.7,0,14.56,0,.48,0,.95,0,1.76,0Z" fill="#aad037" stroke-width="0"/><path d="M135.53,27.69c0,2.46-.06,4.93.02,7.39.05,1.46-.6,2.35-1.91,2.8-2.07.71-4.18.79-6.26.09-1.45-.49-2.24-1.45-2.24-3.09,0-4.39-.06-8.77-.12-13.16-.03-2.06-.48-2.48-2.58-2.5-1.83-.02-3.66-.04-5.5,0-1.88.03-2.48.66-2.52,2.49-.09,4.38-.18,8.77-.27,13.15-.04,1.81-.81,2.99-2.59,3.24-1.53.21-3.16.18-4.67-.12-2.06-.41-2.82-1.58-2.84-3.7-.03-4.28.08-8.57-.08-12.85-.16-4.26,2.87-6.09,6.39-6.24,6.47-.28,12.96-.15,19.44-.09,2.2.02,4.03,1.02,5.14,2.98.35.61.57,1.37.59,2.07.07,2.51.03,5.03.03,7.54h-.02Z" fill="#aad037" stroke-width="0"/><path d="M152.9,15.34c3.61,0,7.22-.1,10.82.04,1.97.08,3.59,1.11,4.56,2.89.34.62.59,1.37.6,2.07.04,5.03-.03,10.05.01,15.08.01,1.42-.64,2.45-1.88,2.63-1.97.28-4.02.42-5.98.17-1.84-.24-2.49-1.39-2.51-3.28-.05-4.34-.07-8.67-.12-13.01-.02-2-.45-2.44-2.44-2.47-1.93-.03-3.86-.08-5.79-.02-1.83.06-2.37.66-2.41,2.46-.09,4.33-.16,8.67-.25,13-.05,2.22-1.07,3.37-3.3,3.58-1.07.1-2.19.09-3.25-.08-2.55-.4-3.57-1.61-3.59-4.2-.04-4.14.06-8.27-.07-12.41-.12-3.69,1.77-5.93,6.41-6.38,3.04-.3,6.13-.06,9.2-.06h0Z" fill="#aad037" stroke-width="0"/><path d="M287.63,38.68c-2.08,0-4.16.03-6.24,0-3.98-.08-7.46-1.51-10.31-4.23-2.62-2.5-3.25-5.68-2.36-9.11,1.09-4.22,3.7-7.23,7.74-8.94.93-.39,1.99-.63,3-.65,4.35-.07,8.71-.04,13.06-.02.79,0,1.58.07,2.36.22,2.23.42,3.13,1.83,2.26,3.94-.27.65-1.4,1.28-2.18,1.35-3.15.26-6.32.21-9.48.44-1.23.09-2.54.41-3.63.97-2.34,1.19-3.18,3.07-2.69,5.35.58,2.72,2.57,4.76,5.02,4.88,3.56.17,7.12.19,10.68.24,1.92.03,3.46,1.24,3.5,2.82.03,1.44-1.52,2.71-3.47,2.74-2.42.04-4.85,0-7.27,0Z" fill="#aad037" stroke-width="0"/><path d="M227.08,37.94c-2.87,0-5.75.13-8.61-.03-4.62-.26-9.57-3.99-10.74-7.91-1.43-4.76,1.35-10.57,6.14-12.75,2.22-1.01,4.52-1.63,7.02-1.57,4.16.1,8.32.03,12.47.03,1.97,0,3.14.95,3.14,2.52,0,1.65-1.38,3.06-3.14,3.1-3.07.08-6.14.09-9.21.14-3,.04-5.58,2.15-5.97,4.85-.36,2.54,1.85,5.82,4.5,6.62.41.12.88.1,1.32.1,3.56,0,7.13,0,10.69.01,2.01.01,3.15,1.54,2.63,3.47-.25.9-.74,1.43-1.78,1.42-2.82-.03-5.64-.01-8.46-.01,0,0,0,0,0,.01Z" fill="#aad037" stroke-width="0"/><path d="M257.64,38.45c-3.36,0-6.75.25-10.08-.07-3.52-.34-6.77-1.69-8.8-4.83-.68-1.05-1.14-2.41-1.21-3.66-.17-3.15.04-6.31-.1-9.46-.07-1.67.64-2.75,1.92-3.54,2.53-1.57,5.17-1.54,7.77-.21,1.1.57,1.73,1.47,1.66,2.87-.12,2.51-.07,5.03-.1,7.54-.04,3.31,1.85,5.67,5.17,6.05,2.5.29,5.04.23,7.56.31,1.58.05,3.17.05,4.75.11,1.43.06,2.14.92,2.08,2.45-.06,1.61-.85,2.63-2.17,2.64-2.82.03-5.65,0-8.47,0,0-.08,0-.15,0-.23Z" fill="#aad037" stroke-width="0"/><path d="M100.75,27.2c0,2.56-.07,5.12.03,7.68.06,1.52-.65,2.45-1.89,3.03-2.35,1.08-4.71.98-6.97-.28-1.03-.57-1.62-1.41-1.61-2.75.07-5.07.03-10.14.03-15.21,0-2.24.83-3.32,3.03-3.62,1.46-.2,2.96-.29,4.42-.15,1.97.18,3.13,1.68,3.13,3.63,0,2.56,0,5.12,0,7.68-.06,0-.12,0-.17,0Z" fill="#aad037" stroke-width="0"/><path d="M289.58,29.15c-1.93,0-3.86.02-5.79,0-1.62-.02-2.78-1-2.78-2.27,0-1.21,1.38-2.52,2.82-2.53,3.76-.04,7.53-.03,11.29,0,1.34,0,2.46,1.17,2.45,2.43-.01,1.56-.85,2.38-2.49,2.38-1.83,0-3.66,0-5.5,0Z" fill="#aad037" stroke-width="0"/><path d="M274.98,46.46c.16,1.93-.78,3.07-2.2,3.72-4.06,1.85-8.19,1.85-12.13-.28-2.7-1.46-2.66-4.24-.09-5.88,3.43-2.19,9.94-2.06,13.56.45-1.5.4-2.54,1.28-4.21.56-1.82-.79-3.91-.78-5.77.11-.64.31-1.38,1.18-1.39,1.79,0,.61.73,1.52,1.36,1.8,1.85.83,3.8.92,5.72-.26-.96-.05-1.93-.11-2.96-.16v-1.74c.28-.04.52-.11.76-.11,2.42,0,4.84,0,7.35,0ZM272.7,44.55c-3.03-2.13-9.23-1.96-12.04.03-1.95,1.37-1.97,3.35-.05,4.72,2.9,2.08,9.44,2.23,12.32.17.72-.51,1.17-1.39,1.88-2.27h-7.5l-.04.56c1.32.07,2.64.15,4.08.23-1.65,1.97-5.1,2.52-7.6,1.14-.73-.4-1.52-1.46-1.51-2.21,0-.75.82-1.8,1.56-2.18,2.07-1.08,4.29-.78,6.5-.23.75.19,1.59.03,2.39.03Z" fill="#aad037" stroke-width="0"/><path d="M76.5,51c-3.42.97-5.9-.22-7.79-3.04-.09.11-.18.22-.27.33v2.83h-3.82v-8.66c2.86.19,5.66.31,8.43.59,1.13.12,2.34.58,2.4,1.98.07,1.47-1.12,1.93-2.3,2.29-.14.04-.28.08-.75.21,1.43,1.21,2.71,2.29,4.1,3.47ZM67.96,46.79c1.17,1.08,2.22,1.91,3.08,2.9,1.12,1.27,2.44,1.18,4.14.92-1.43-1.21-2.67-2.26-4.04-3.43.81-.16,1.35-.23,1.87-.37.93-.24,2.07-.59,1.84-1.71-.13-.62-1.15-1.42-1.85-1.51-2.57-.34-5.17-.41-7.84-.59v7.65h2.73v-6.8c1.08.09,1.99.04,2.82.29.5.15.85.77,1.27,1.17-.4.37-.74.91-1.22,1.06-.78.25-1.65.25-2.8.4ZM68.33,44.35c.05.77.09,1.23.13,1.84.84-.11,1.56-.16,2.26-.32.26-.06.45-.4.68-.61-.24-.2-.45-.53-.72-.59-.69-.16-1.41-.2-2.34-.31Z" fill="#aad037" stroke-width="0"/><path d="M156.88,42.99v1.98c-1.96-.11-3.86-.35-5.76-.29-2.03.06-3.36,1.11-3.36,2.28,0,1.17,1.13,2.16,3.19,2.26,1.93.09,3.89-.22,5.91-.36v1.9c-3.61.95-7.23,1.09-10.75-.55-1.31-.61-2.25-1.6-2.27-3.19-.03-1.67.99-2.64,2.33-3.3,3.41-1.66,6.98-1.44,10.71-.74ZM156.2,44.53c.12-.13.24-.26.36-.39-.3-.29-.57-.78-.92-.84-3.12-.54-6.22-.54-9.16.84-1.2.57-2.18,1.4-2.12,2.93.06,1.49,1.05,2.31,2.27,2.84,2.93,1.26,5.97,1.24,9.03.61.32-.07.55-.62.82-.95-2.61.39-4.89.63-7.18-.17-1.18-.41-2.04-1.13-2.04-2.43,0-1.31.92-1.97,2.08-2.39,2.29-.83,4.57-.6,6.86-.04Z" fill="#aad037" stroke-width="0"/><path d="M220,46.01v5.11h-3.62v-8.42c1.95-.16,3.7-.21,5.33,1.15,1.68,1.41,3.6,2.54,5.67,3.96v-5.1h3.75v8.43c-1.9.2-3.65.27-5.29-1.06-1.74-1.42-3.68-2.58-5.84-4.07ZM230.59,50.62v-7.36h-2.69v5.51c-2.37-1.63-4.59-3.02-6.65-4.61-1.35-1.04-2.75-1.15-4.39-.91v7.38h2.73v-5.55c2.46,1.7,4.71,3.13,6.81,4.74,1.33,1.01,2.67,1.06,4.19.79Z" fill="#aad037" stroke-width="0"/><path d="M118.04,51.24c-1.48,0-2.6.03-3.73-.02-.29-.01-.76-.21-.84-.43-.56-1.54-1.81-1.41-3.06-1.36-.69.03-1.39.06-2.07,0-.88-.08-1.45.21-1.94.98-.25.4-.88.74-1.37.8-1.01.12-2.05.04-3.41.04,1.34-1.9,2.52-3.57,3.69-5.24.23-.32.54-.61.68-.96,1-2.52,3.05-2.71,5.32-2.41.34.05.77.23.97.49,1.87,2.58,3.7,5.19,5.77,8.11ZM117,50.67c-1.79-2.52-3.22-5.04-5.18-7.04-.69-.7-3.29-.71-3.97-.01-1.97,2-3.41,4.52-5.1,6.88,2.23.51,2.55.42,3.66-1,.65-.84,6.33-.94,6.77,0,.84,1.75,2.2,1.2,3.82,1.17Z" fill="#aad037" stroke-width="0"/><path d="M188.01,51.17h-3.73v-8.47h3.73v8.47ZM187.46,50.66v-7.39h-2.58v7.39h2.58Z" fill="#aad037" stroke-width="0"/><path d="M109.81,43.97c.89,1.43,1.68,2.7,2.57,4.13h-5.11c.85-1.39,1.65-2.69,2.54-4.13ZM111.42,47.58c-.56-.91-1.03-1.68-1.61-2.62-.57.95-1.03,1.73-1.57,2.62h3.17Z" fill="#aad037" stroke-width="0"/></g></svg>