<?xml version="1.0" encoding="UTF-8"?><svg id="b" xmlns="http://www.w3.org/2000/svg" width="155.07" height="107.28" viewBox="0 0 155.07 107.28"><g id="c"><path d="M29.48,59.98c30.08.12,60.17.25,90.25.37,1.92,0,4.01-.05,5.47-1.29,4.9-4.17,9.81-8.34,14.71-12.5,1.23.9,2.45,1.8,3.68,2.7-4.62,3.89-9.25,7.77-13.87,11.66-1.33,1.12-2.83,2.3-4.57,2.3-34.74-.07-69.49-.13-104.23-.2,2.87-2.5,5.75-4.99,8.62-7.49,2.25-1.96,5.37-4.02,7.96-2.55-2.67,2.33-5.35,4.66-8.02,6.99Z" fill="#aad037" stroke-width="0"/><path d="M57.25,5.85c-1.05-1.95-2.11-3.9-3.16-5.85,18.12,8.14,36.24,16.28,54.36,24.42,6.27,2.82,12.08,6.65,17.13,11.3-21.3-9.67-42.62-19.27-63.98-28.8,1.08,1.9,2.16,3.8,3.25,5.7-1.78-.04-3.44-1.02-4.66-2.31-1.23-1.29-2.09-2.88-2.93-4.45h0Z" fill="#aad037" stroke-width="0"/><path d="M94.06,31.21c-.6-.28-1.23-.57-1.89-.52-.76.06-1.4.57-1.99,1.06-9.86,8.16-19.72,16.32-29.58,24.47-.77.64-1.86.66-2.86.66-6.95-.03-13.89-.06-20.84-.1,12.68-10.79,25.37-21.57,38.05-32.36-2.49-4.07-4.97-8.13-7.46-12.2,15.81,7.11,31.62,14.23,47.44,21.34.86.39,1.81.87,2.08,1.77.37,1.22-.71,2.37-1.68,3.2-5.97,5.07-11.94,10.14-17.91,15.22-1.26,1.07-2.62,2.18-4.26,2.35-1.45.15-2.85-.47-4.18-1.07-5.13-2.33-10.25-4.67-15.38-7,1.53-1.35,3.06-2.69,4.59-4.04.6-.53,1.54-.34,2.24.03.71.37,1.37.89,2.17.96,1.06.1,2-.64,2.82-1.33,4.17-3.54,8.35-7.08,12.52-10.62-1.29-.61-2.58-1.22-3.88-1.83Z" fill="#aad037" stroke-width="0"/><path d="M45.61,70.97c-2.1,4.42-4.2,8.84-6.29,13.27-.45.95-.95,1.95-1.83,2.52-.91.58-2.05.59-3.13.59-3.76-.02-7.52-.03-11.27-.05.56-1.25,1.13-2.5,1.69-3.75.22-.48.83-.63,1.35-.6.53.02,1.06.16,1.57,0,.76-.23,1.19-1.02,1.53-1.74,1.55-3.27,3.1-6.54,4.66-9.81-.95-.21-1.94-.28-2.91-.19-.52.05-1.07.15-1.48.47-.37.3-.58.74-.78,1.17-3.65,7.88-7.31,15.76-10.96,23.64-.18.39-.71.44-1.14.43-3.55-.05-7.09-.1-10.64-.16-.04-.31.09-.61.23-.88,3.9-8.2,7.81-16.4,11.71-24.6-5.97-1.47-11.93-2.94-17.9-4.4,12.25,0,24.51,0,36.76-.01,1.13,0,2.26,0,3.38.14,1.4.17,2.77.55,4.12.93.64.18,1.35.42,1.64,1.01.31.63,0,1.38-.3,2.02Z" fill="#aad037" stroke-width="0"/><path d="M132.03,41.29c1.75.79,3.53,1.6,4.89,2.96-2.33,2.05-4.69,4.07-7.08,6.07-.16.14-.33.28-.54.33-.31.08-.64-.06-.93-.19-4.74-2.15-9.48-4.31-14.21-6.46-.08-.04-.17-.08-.21-.17-.08-.16.07-.33.21-.44,2.36-2.01,4.72-4.02,7.08-6.02.19-.16.39-.33.63-.39.36-.09.72.06,1.06.21,3.04,1.37,6.08,2.74,9.13,4.11Z" fill="#aad037" stroke-width="0"/><path d="M120.91,57.79c-.41.17-.86.17-1.3.18-7.48.03-14.96.06-22.44.1.05-.3.3-.53.53-.72,3.75-3.18,7.5-6.37,11.25-9.55.17-.15.36-.3.58-.34.24-.04.48.06.71.16,4.82,2.17,9.64,4.34,14.46,6.51.11.05.24.12.24.24,0,.09-.07.17-.14.23-1,.87-2,1.73-3,2.59-.27.23-.55.47-.88.6Z" fill="#aad037" stroke-width="0"/><path d="M79.39,87.35c-3.77-.02-7.54-.05-11.32-.07.57-1.25,1.13-2.49,1.7-3.74.23-.5.88-.64,1.43-.61.55.03,1.12.17,1.64-.03.66-.24,1.02-.93,1.31-1.57,1.57-3.32,3.13-6.65,4.7-9.97-.92-.18-1.86-.35-2.79-.22-.93.13-1.86.63-2.26,1.48-3.7,7.82-7.4,15.64-11.1,23.46-.12.26-.26.54-.51.69-.24.15-.55.15-.84.15-3.44-.05-6.87-.1-10.31-.15-.06-.47.15-.92.35-1.34,3.75-7.87,7.5-15.74,11.25-23.61.05-.1.1-.21.07-.32-.03-.13-.17-.21-.29-.27-.58-.29-1.17-.58-1.8-.66-.64-.08-1.35.11-1.74.62-.31.4-.37.94-.54,1.42-.17.48-.53.97-1.04.97-3.43,0-6.85,0-10.28,0-.19,0-.42-.03-.49-.2-.05-.12,0-.26.06-.38l2.34-5.03c-1.27-.37-2.55-.75-3.82-1.12,14.81,0,29.62.02,44.43.05.68,0,1.48.06,1.87.61.45.62.13,1.49-.2,2.18-2.24,4.74-4.49,9.49-6.73,14.23-.56,1.17-1.19,2.43-2.35,3.02-.83.42-1.81.43-2.74.42Z" fill="#aad037" stroke-width="0"/><path d="M148.22,69.83c-2.26,4.75-4.53,9.5-6.79,14.26-.54,1.14-1.16,2.36-2.3,2.89-.66.31-1.41.35-2.14.38-.67.03-1.35.06-2.02.09.66,1.41,1.33,2.81,1.99,4.22.2.43.46.9.92,1,5.76,1.27,11.49,2.68,17.18,4.22-8.7,0-17.4.02-26.1.03-.49,0-1.08-.06-1.29-.5-1.32-2.79-2.64-5.58-3.96-8.37-.17-.36-.51-.79-.87-.62-.16.07-.25.25-.33.41-1.31,2.81-2.62,5.62-3.93,8.43-.27.58-1.04.66-1.68.66-3.4,0-6.79-.03-10.19-.09,4.02-8.46,8.01-16.94,11.97-25.42-5.88-1.5-11.76-3.01-17.65-4.51,15.15,0,30.29-.01,45.44-.02.7,0,1.51.05,1.93.61.5.66.16,1.6-.2,2.35M131.62,71.2c-1,0-1.64,1.04-2.07,1.95-1.49,3.14-2.97,6.29-4.46,9.43-.05.11-.1.25-.02.34.06.06.15.06.23.07,1.04.01,2.08.03,3.12.04.67,0,1.4,0,1.93-.42.33-.27.53-.66.72-1.04,1.68-3.41,3.31-6.85,4.87-10.32l-4.32-.03Z" fill="#aad037" stroke-width="0"/><path d="M45.53,76.83c3.46,0,6.91,0,10.37,0,.08,0,.17,0,.23.06.09.09.04.23-.02.34-3.05,6.4-6.09,12.8-9.14,19.2-.21.44-.81.5-1.3.5-3.32-.04-6.63-.07-9.95-.11-.08,0-.16,0-.22-.05-.14-.1-.08-.31,0-.46,2.95-6.22,5.9-12.44,8.86-18.65.14-.3.31-.62.61-.75.18-.08.38-.08.57-.08Z" fill="#aad037" stroke-width="0"/><path d="M108.7,83.99c-3.53,0-7.07-.01-10.6-.02-.27,0-.57,0-.79.17-.17.12-.26.32-.36.51-.89,1.86-1.79,3.72-2.68,5.57-.08.17-.15.4,0,.53.08.06.19.07.29.07,4.34,0,8.67.01,13.01.02-.84,1.76-1.68,3.52-2.52,5.29-.1.21-.21.43-.41.54-.17.09-.37.1-.56.1-8.14,0-16.29,0-24.43-.01,4.65-9.78,9.29-19.55,13.94-29.33.34-.72,1.38-.66,2.16-.48,5.95,1.36,11.88,2.8,17.8,4.32-2.76-.02-5.52-.04-8.27-.06-.51,0-1.04,0-1.5.22-.68.33-1.05,1.06-1.38,1.75-.93,1.95-1.86,3.91-2.78,5.86-.12.24-.13.66.14.66,3.7-.03,7.4-.04,11.1-.03.21,0,.52.12.43.32-.54,1.14-1.07,2.27-1.61,3.41-.09.19-.19.39-.36.5-.17.11-.39.11-.6.11Z" fill="#aad037" stroke-width="0"/><path d="M102,106.82c-.02.07-.04.15-.09.2-.06.06-.16.06-.24.06-1.01,0-2.01,0-3.02.01-.32,0-.42-.43-.42-.75.03-1.97.05-3.93.08-5.9,0-.07,0-.14.04-.19.06-.07.16-.08.26-.08h1.13c.14,0,.34.04.33.18,0,1.57,0,3.13,0,4.7,0,.13,0,.27.09.36.09.1.24.11.38.12.34.01.67.02,1.01.03.26,0,.46.25.52.5s0,.51-.07.77Z" fill="#aad037" stroke-width="0"/><path d="M116.3,102.09c-.05.05-.12.08-.19.1-.66.18-1.41-.03-1.88-.53-.19-.2-.58-.07-.68.19-.1.26.04.57.24.75s.48.29.74.39c.76.31,1.54.77,1.83,1.54.3.78-.04,1.72-.7,2.24-.66.51-1.58.63-2.38.42-.9-.24-1.75-1.01-1.68-1.93,0-.11.03-.22.11-.3.09-.1.24-.13.38-.15.25-.04.51-.07.76-.02.25.06.49.23.56.47.12.44.76.63,1.09.32s.19-.97-.24-1.11c-.57-.19-1.14-.39-1.63-.74s-.9-.86-.97-1.45c-.08-.64.25-1.29.76-1.68.51-.39,1.18-.54,1.83-.51.5.03,1.01.17,1.41.47.4.3.69.78.7,1.28,0,.09,0,.19-.07.26Z" fill="#aad037" stroke-width="0"/><path d="M87.22,104.31c-.31-.07-.64-.13-.95-.05-.31.08-.59.36-.57.68.02.3.31.53.61.59s.6-.02.9-.09c.28-.07.58.15.68.43.1.27.07.58.04.87-.03.27-.39.33-.67.33-.98-.02-1.95-.05-2.93-.07-.09,0-.19-.01-.25-.08-.04-.05-.04-.12-.04-.18,0-2.11,0-4.22,0-6.33,0-.07,0-.16.06-.21.05-.05.13-.05.2-.05,1.08,0,2.15.01,3.23.02.11,0,.22,0,.3.08.08.07.1.19.11.29.03.27.06.56-.04.81-.1.26-.37.47-.63.41-.32-.08-.66-.15-.98-.07-.32.08-.62.36-.59.7.02.23.23.45.46.43.35-.03.7-.05,1.05-.05.16,0,.34,0,.47.1.15.12.18.33.19.52.01.22,0,.46-.1.65-.1.2-.33.35-.55.3Z" fill="#aad037" stroke-width="0"/><path d="M57.71,106.46c.01-.64.02-1.29.03-1.93,0-.09,0-.2-.07-.26-.07-.07-.17-.07-.27-.07-.48,0-.97,0-1.45,0-.19,0-.4,0-.53.14-.15.14-.15.37-.15.58.02.53.03,1.05.05,1.58,0,.28-.25.51-.53.56-.28.05-.56-.02-.83-.1-.08-.02-.17-.05-.22-.12-.05-.06-.05-.15-.05-.23,0-2.03,0-4.05,0-6.08,0-.12,0-.26.1-.35.09-.08.22-.09.34-.09.26,0,.51,0,.77.01.2,0,.46.07.45.27,0,.55-.01,1.1,0,1.65,0,.2.02.43.19.53.09.06.21.06.32.06.51,0,1.01,0,1.52,0,.1,0,.21,0,.28-.07.06-.06.07-.14.08-.22.06-.52.05-1.05-.04-1.57-.05-.29.19-.56.46-.65.28-.09.57-.05.86,0,.18.03.41.11.4.29-.03,2.1-.04,4.2-.01,6.31,0,.18-.22.27-.4.3-.26.05-.54.1-.8.03-.26-.07-.5-.29-.5-.56Z" fill="#aad037" stroke-width="0"/><path d="M72.62,105.44c.29-.02.58,0,.86.06.07.01.14.03.18.09.04.05.04.12.04.18,0,.28,0,.56,0,.85,0,.09,0,.18-.05.25-.08.13-.27.15-.42.15-.99,0-1.97,0-2.96,0-.28,0-.37-.38-.37-.66v-5.78c0-.16.02-.35.15-.43.07-.05.17-.05.25-.05,1.07,0,2.13.01,3.2.02.18,0,.25.23.23.41-.03.17-.1.36-.03.52.14.3-.19.63-.51.68-.33.05-.65-.07-.98-.07s-.71.2-.71.53c0,.3.32.49.62.52.3.02.59-.07.88-.06s.63.17.68.46c.04.22.07.45.03.66s-.18.43-.39.5c-.17.06-.36.01-.53-.02-.33-.06-.7-.06-.98.12-.28.18-.43.61-.22.87.23.29.66.23,1.03.2Z" fill="#aad037" stroke-width="0"/><path d="M36.68,100.54c.25,1.35.5,2.7.75,4.05.3-1.19.6-2.39.9-3.58.06-.25.13-.51.3-.71.41-.47,1.34-.22,1.45.39.22,1.19.44,2.39.66,3.58.02.08.07.19.15.16.35-1.24.63-2.5.82-3.77.04-.3.33-.52.62-.58.29-.07.6-.02.9.03.11.02.24.05.29.15.04.08.02.18,0,.27-.51,1.94-1.02,3.88-1.54,5.81-.11.42-.53.74-.97.73-.43,0-.84-.34-.93-.77-.28-1.26-.55-2.51-.82-3.77-.47,1.26-.71,2.58-.95,3.9-.05.28-.32.47-.59.53-.28.06-.56,0-.84-.04-.12-.02-.25-.05-.34-.13-.09-.09-.13-.22-.16-.34-.5-2-1-3.99-1.5-5.99-.08-.32.39-.44.72-.41.21.02.42.04.63.06.11.01.22.02.3.09.1.08.12.21.15.33Z" fill="#aad037" stroke-width="0"/></g></svg>