<?xml version="1.0" encoding="UTF-8"?><svg id="b" xmlns="http://www.w3.org/2000/svg" width="75.84" height="63.59" viewBox="0 0 75.84 63.59"><g id="c"><g id="d"><path d="m10.04,55.19l-.1.47c-.32,1.46-1.02,2.55-2.11,3.13l.82,4.28c.05.28-.03.39-.31.39h-1.68c-.18,0-.37-.17-.38-.35l-.74-3.82h-2.36l-.87,3.95c-.03.18-.07.22-.26.22H.26c-.18,0-.28-.15-.25-.33l2.53-11.44c.05-.18.09-.22.26-.22h4.48c2.42,0,3.26,1.48,2.76,3.73m-6.39,1.91h2.38c.87,0,1.36-.35,1.62-1.57l.12-.45c.26-1.2,0-1.44-.86-1.44h-2.49l-.76,3.46Z" fill="#acd038"/><path d="m17.39,57.56l-.61,2.77c-.41,1.94-1.77,3.23-3.74,3.23h-.9c-1.94,0-2.82-1.4-2.41-3.34l.61-2.77c.43-1.94,1.79-3.28,3.77-3.28h.9c1.97,0,2.81,1.46,2.38,3.39m-2.16-.48c.14-.63-.12-.79-.58-.79h-.9c-.5,0-.94.28-1.09.92l-.75,3.39c-.14.63.12.83.58.83h.9c.48,0,.95-.31,1.09-.96l.75-3.39Z" fill="#acd038"/><path d="m19.98,52.04h1.66c.18,0,.25.11.22.28l-2.28,10.85c-.05.2-.12.29-.28.29h-1.72c-.2,0-.29-.11-.25-.29l2.3-10.85c.06-.24.17-.28.35-.28" fill="#acd038"/><path d="m23.45,52.04h1.66c.18,0,.25.11.22.28l-2.28,10.85c-.05.2-.12.29-.28.29h-1.72c-.2,0-.29-.11-.25-.29l2.3-10.85c.06-.24.17-.28.35-.28" fill="#acd038"/><path d="m32.29,57.58l-.4,1.72c-.07.35-.2.48-.55.48h-4.24l-.18.81c-.14.65.12.85.58.85h.92c.92,0,1.15-.06,1.48-.48.12-.15.27-.13.43-.04l.74.66c.16.13.25.35.07.53-.76.76-1.48,1.44-3.07,1.44h-.92c-1.95,0-2.84-1.62-2.4-3.58l.55-2.51c.43-1.95,1.85-3.3,3.82-3.3h.9c1.68,0,2.71,1.36,2.27,3.41m-2.15-.5c.14-.63-.03-.79-.47-.79h-.9c-.48,0-.94.28-1.09.94l-.17.72h2.43l.2-.87Z" fill="#acd038"/><path d="m38.51,56.42c-.47-.11-.75-.13-1-.13-.9,0-1.54.39-1.81.72l-1.42,6.18c-.05.2-.11.28-.3.28h-1.71c-.2,0-.27-.11-.24-.28l1.91-8.67c.05-.22.13-.28.32-.28h1.71c.17,0,.25.06.2.28l-.19.77c.62-.77,1.51-1.13,2.49-1.13.76,0,1.7.37,1.35.89l-.82,1.24c-.12.17-.25.18-.49.13" fill="#acd038"/><path d="m47.11,57.56l-.61,2.77c-.43,1.94-1.75,3.23-3.71,3.23l-3.98-.09c-.18,0-.23-.15-.19-.33l2.43-10.87c.03-.18.13-.22.31-.22h1.75c.11,0,.19.15.16.33l-.42,1.8-.15.69c.38-.39.92-.7,1.64-.7h.42c1.92,0,2.78,1.46,2.35,3.39m-2.72-1.27h-1.14c-.39,0-.92.2-1.02.72l-.84,3.8c-.11.48.21.63.61.63h1.12c.46,0,.95-.31,1.09-.96l.75-3.39c.14-.63-.12-.79-.58-.79" fill="#acd038"/><path d="m49.7,52.04h1.66c.18,0,.25.11.22.28l-2.43,10.85c-.05.2-.12.29-.28.29h-1.71c-.2,0-.29-.11-.25-.29l2.45-10.85c.06-.24.17-.28.35-.28" fill="#acd038"/><path d="m58.61,57.34l-1.26,5.62c-.1.33-.04.5-.11.5h-1.86c-.2,0-.33-.24-.27-.5l.08-.31c-.48.52-1.07.9-1.82.9h-.46c-1.62,0-2.69-1.12-2.31-2.9.43-1.94,1.51-2.71,3.41-2.71h2.21l.2-.87c.15-.7-.05-.79-.77-.79h-.55c-.92,0-1.68.29-1.96.46-.39.07-.61-.04-.64-.31l-.23-1.09c-.02-.2-.06-.35.09-.48.86-.42,2.07-.7,3.08-.7h.55c2.18,0,3.1,1.07,2.62,3.17m-3.02,3.45l.21-1.01h-2.07c-.35,0-.78.26-.9.89-.14.61.07.77.42.77h.98c.79,0,1.13-.31,1.36-.65" fill="#acd038"/><path d="m68.01,52.37l-2.43,10.87c-.05.18-.09.22-.26.22h-1.77c-.11,0-.25-.15-.23-.33l.08-.33c-.39.44-.93.76-1.67.76h-.41c-1.92,0-2.8-1.4-2.39-3.34l.61-2.77c.43-1.94,1.79-3.28,3.75-3.28h.41c.79,0,1.6.06,1.6.06l.47-1.97c.03-.18.11-.22.22-.22h1.73c.2,0,.3.15.27.33m-4.12,8.25l.79-3.6c.12-.59-.14-.74-.59-.74h-1.12c-.5,0-.94.28-1.09.92l-.75,3.39c-.14.63.12.83.58.83h1.13c.42,0,.87-.28,1.06-.81" fill="#acd038"/><path d="m74.81,57.58l-.4,1.72c-.06.35-.2.48-.55.48h-4.24l-.18.81c-.14.65.12.85.58.85h.92c.92,0,1.15-.06,1.48-.48.12-.15.27-.13.43-.04l.74.66c.16.13.25.35.07.53-.76.76-1.48,1.44-3.07,1.44h-.92c-1.95,0-2.84-1.62-2.4-3.58l.55-2.51c.43-1.95,1.85-3.3,3.82-3.3h.9c1.68,0,2.71,1.36,2.27,3.41m-2.15-.5c.14-.63-.03-.79-.47-.79h-.9c-.48,0-.94.28-1.09.94l-.17.72h2.43l.2-.87Z" fill="#acd038"/><path d="m61.75,26.91l-10.82-7.86c-.82-.59-1.15-1.83-.75-2.75l6.6-15.05c.4-.92-.06-1.45-1.03-1.18l-10.1,2.83c-.97.27-2.31,1.11-2.99,1.85,0,0-20.47,21.12-21.91,23.63-.29.51-.63,1.48-.68,1.86-.06.38-.17,1.63.16,2.36.33.73.92,1.21,1.73,1.45.46.14,2.38.2,2.38.2,0,0,1.07,0,1.24,0h33.4c2.34.1,4.09-4.17,4.09-4.17.5-1.18.1-2.06-1.34-3.17Z" fill="#acd038"/><path d="m8.9,42.63c1.58-3.88,6.26-7.03,10.44-7.03s6.3,3.15,4.72,7.03c-1.58,3.88-6.26,7.03-10.44,7.03s-6.3-3.15-4.72-7.03" fill="#acd038"/><path d="m23.23,42.63c1.58-3.88,6.26-7.03,10.44-7.03s6.3,3.15,4.72,7.03c-1.58,3.88-6.26,7.03-10.44,7.03s-6.3-3.15-4.72-7.03" fill="#acd038"/><path d="m37.57,42.63c1.58-3.88,6.26-7.03,10.44-7.03s6.3,3.15,4.72,7.03c-1.58,3.88-6.26,7.03-10.44,7.03s-6.3-3.15-4.72-7.03" fill="#acd038"/><path d="m51.91,42.63c1.58-3.88,6.26-7.03,10.44-7.03s6.3,3.15,4.72,7.03c-1.58,3.88-6.26,7.03-10.44,7.03s-6.3-3.15-4.72-7.03" fill="#acd038"/><path d="m74.97,61.85c.48,0,.87.39.87.87s-.39.87-.87.87-.87-.39-.87-.87.39-.87.87-.87Zm0,1.53c.36,0,.66-.3.66-.66s-.29-.66-.66-.66-.66.29-.66.66.29.66.66.66Zm-.33-1.06s.02-.05.05-.05h.39c.15,0,.3.12.3.31,0,.15-.08.22-.16.27l.1.23s0,.07-.04.07h-.16s-.04-.02-.04-.03l-.09-.26h-.09v.24s-.02.05-.05.05h-.14s-.05-.02-.05-.05v-.79Zm.4.35s.08-.04.08-.08c0-.05-.04-.08-.08-.08h-.17v.16h.17Z" fill="#acd038"/></g></g></svg>