<?xml version="1.0" encoding="UTF-8"?><svg id="b" xmlns="http://www.w3.org/2000/svg" width="92.75" height="103.21" viewBox="0 0 92.75 103.21"><g id="c"><g id="d"><g id="e"><g id="f"><g id="g"><g id="h"><path d="m12.15,26.27c2.89-3.64,6.3-6.77,10.08-9.28.38-.25.76-.51,1.15-.75l1.18-.7.59-.35.6-.32,1.21-.64c1.64-.8,3.3-1.54,5.02-2.13.43-.15.85-.31,1.29-.45l1.3-.39.65-.19.66-.16,1.32-.32c.44-.1.89-.18,1.33-.27.45-.08.89-.18,1.34-.24l1.35-.19c.22-.03.45-.07.67-.09l.68-.06c.49-.05.98-.08,1.47-.12.06-.42.13-.83.19-1.22-.26,0-.51.02-.77.04l-.95.06c-2.53.19-5.03.57-7.47,1.16-2.44.6-4.83,1.4-7.14,2.38-2.32.97-4.54,2.16-6.67,3.53-2.13,1.37-4.16,2.91-6.06,4.63-3.79,3.46-7.08,7.62-9.61,12.41-.23.49-.79,1.47-1.45,2.97-.23.47-.45,1-.68,1.58,2.09-3.45,4.99-7.27,8.73-10.87" fill="#acd038"/><path d="m92.54,54.36s-.08.34-.13,1c-.02.33-.05.73-.08,1.19-.03.46-.1.99-.15,1.56-.23,2.29-.73,5.36-1.61,8.39-.86,3.03-2.09,5.98-3.21,8.18-.2.38-.39.74-.57,1.08l.98.46c1.24-2.39,2.18-4.72,2.89-6.89.96-2.96,1.48-5.62,1.79-7.84.54-4.44.25-7.03.1-7.13" fill="#acd038"/><path d="m77.02,87.74c-1.89,1.65-4.07,3.29-6.53,4.78-1.9,1.15-3.98,2.22-6.2,3.14-.97,1.1-2.05,2.17-3.23,3.19,2.18-.71,4.27-1.59,6.26-2.58,2.16-1.06,4.17-2.3,6.06-3.62.23-.17.47-.33.7-.5l.35-.25.34-.26c.45-.35.89-.7,1.34-1.05.43-.36.85-.73,1.27-1.09.21-.18.42-.36.62-.55.2-.19.4-.38.6-.57.72-.68,1.4-1.37,2.06-2.07-.41-.26-.84-.51-1.28-.76-.72.73-1.5,1.47-2.34,2.2" fill="#acd038"/><path d="m82.2,26.37c1.63,2.02,3.08,4.11,4.35,6.26,1.26,2.16,2.34,4.39,3.23,6.69l.33.87c.11.29.22.58.31.87l.56,1.77c.15.6.31,1.2.46,1.79l.11.45.09.46.18.91.17.92.13.93c.04.31.08.62.12.93l.06.47.04.47c.05.63.09,1.25.13,1.88.01.63.02,1.26.02,1.9,0,.22.05.4.11.43.06.02.11-.14.1-.39,0-.64,0-1.27-.01-1.91-.03-.63-.08-1.26-.12-1.89-.03-.63-.13-1.25-.21-1.87l-.12-.93c-.05-.31-.11-.62-.17-.92l-.18-.92-.09-.46-.11-.46-.45-1.82-.55-1.79c-.09-.3-.19-.59-.3-.89l-.32-.88c-.88-2.34-1.96-4.61-3.23-6.82-1.28-2.2-2.75-4.34-4.41-6.42-1.64-2.04-3.38-3.88-5.21-5.56-1.85-1.66-3.78-3.15-5.81-4.49l-.77-.5c-.26-.17-.51-.33-.78-.48-.21-.12-.42-.25-.63-.37-.01.24-.02.49-.04.74,4.88,2.76,9.34,6.46,13.02,11.04" fill="#acd038"/><path d="m80.48,27.72c1.55,1.92,2.93,3.91,4.15,5.95,1.2,2.06,2.23,4.18,3.08,6.37l.31.82c.11.27.21.55.29.83l.53,1.68c.15.57.3,1.14.44,1.71l.11.43.09.43.17.87.17.87.12.88.12.88.06.44.03.45c.04.6.09,1.19.12,1.79,0,.6.01,1.2.02,1.81,0,.21.05.38.11.41.06.02.11-.13.1-.37,0-.61,0-1.21,0-1.82-.03-.6-.07-1.2-.11-1.8-.03-.6-.13-1.19-.2-1.79l-.12-.89c-.05-.29-.11-.59-.16-.88l-.17-.88-.09-.44-.11-.43-.43-1.73-.53-1.7c-.08-.28-.18-.56-.29-.84l-.31-.84c-.84-2.22-1.87-4.39-3.08-6.49-1.22-2.1-2.62-4.13-4.21-6.11-1.56-1.94-3.22-3.7-4.96-5.3-1.76-1.58-3.6-3-5.54-4.28l-.73-.47c-.14-.09-.28-.18-.42-.27-.02.19-.03.38-.05.58,0,.05,0,.1-.01.15,4.29,2.56,8.21,5.9,11.49,9.97" fill="#acd038"/><path d="m88.58,68.62c.91-2.82,1.41-5.36,1.7-7.47.5-4.23.23-6.7.08-6.8-.04-.02-.08.32-.13.95-.02.31-.05.7-.08,1.14-.03.44-.1.94-.15,1.49-.23,2.18-.7,5.11-1.54,7.98-.82,2.88-1.99,5.69-3.06,7.79-.22.42-.43.81-.62,1.17l.99.45c1.22-2.32,2.14-4.59,2.82-6.71" fill="#acd038"/><path d="m64.82,95.03c.51-.23,1.02-.47,1.52-.72,2.06-1.01,3.98-2.19,5.77-3.45.22-.16.45-.32.67-.48l.33-.24.32-.25c.43-.34.85-.67,1.27-1,.41-.34.81-.7,1.21-1.04.2-.18.4-.34.59-.52.19-.18.38-.36.57-.54.56-.52,1.09-1.06,1.61-1.6-.45-.23-.92-.46-1.4-.68-.55.54-1.14,1.08-1.76,1.63-1.8,1.57-3.87,3.12-6.23,4.54-.73.44-1.48.86-2.26,1.28-.64,1.03-1.38,2.07-2.23,3.09" fill="#acd038"/><path d="m43.89,10.58c-.1,0-.2.01-.31.02l-.9.06c-2.41.18-4.79.54-7.12,1.11-2.33.57-4.6,1.33-6.8,2.26-2.21.93-4.33,2.06-6.36,3.36-2.03,1.3-3.96,2.77-5.78,4.41-1.18,1.08-2.31,2.23-3.38,3.45.98-.89,2-1.76,3.09-2.61,3.73-2.9,6.95-4.71,9.77-5.48l.09-.05.57-.31,1.15-.61c1.56-.76,3.14-1.47,4.77-2.03.41-.14.81-.3,1.22-.43l1.24-.37.62-.19.63-.16,1.26-.31c.42-.1.84-.17,1.27-.25.42-.08.84-.18,1.27-.23l1.28-.18c.21-.03.43-.06.64-.09l.64-.06c.34-.03.68-.06,1.02-.08.04-.42.08-.83.13-1.23" fill="#acd038"/><path d="m24.41,82.43l-.3-.24-.42-.34-.41-.36-.81-.72-.78-.76c-.13-.12-.26-.25-.38-.37-.64.6-1.3,1.15-1.8,1.57-3.23,2.65-4.6,3.01-5.52,3.01-.87,0-1.68-.43-2.18-1.16-.58-.84-1.3-1.88-1.07-24.46.03-2.51.06-5.07.11-7.55-.97,2.37-2.76,5.08-5.94,5.38-.23.02-.45.03-.67.03-2.08,0-3.31-.97-3.96-1.78-.1-.12-.19-.25-.27-.38-.02,2.27.13,4.68.48,7.18.61,3.99,1.75,8.21,3.64,12.35,1.86,4.15,4.48,8.18,7.73,11.84,1.64,1.82,3.44,3.53,5.39,5.11.49.39.98.79,1.49,1.16.51.37,1.03.74,1.54,1.11.53.35,1.06.69,1.6,1.04.53.35,1.09.65,1.64.98.61.35,1.24.68,1.87,1-.95-3.13-1.14-6.32-1.18-8.92-.01-.93.07-2.58.2-4.71" fill="#acd038"/><path d="m68.04,90.18c-.17.35-.37.71-.57,1.06,1.17-.67,2.3-1.4,3.38-2.16.21-.15.43-.3.64-.45l.32-.23.31-.24c.41-.32.81-.64,1.21-.95.39-.33.77-.66,1.15-.99.19-.17.38-.33.56-.5.18-.17.36-.35.54-.52.35-.33.69-.66,1.03-1-.5-.22-1-.42-1.5-.62-.34.32-.68.63-1.05.95-1.55,1.34-3.31,2.68-5.28,3.92-.2.57-.45,1.15-.74,1.74" fill="#acd038"/><path d="m86.51,67.92c.87-2.68,1.34-5.1,1.61-7.1.47-4.03.2-6.37.05-6.47-.04-.02-.08.31-.13.9-.02.3-.05.66-.08,1.08-.03.42-.09.89-.14,1.41-.22,2.07-.67,4.85-1.47,7.58-.78,2.73-1.89,5.4-2.91,7.39-.23.44-.45.85-.65,1.23l.99.45c1.18-2.25,2.08-4.45,2.74-6.49" fill="#acd038"/><path d="m42.86,12.84c-2.29.17-4.55.51-6.76,1.05-2.21.54-4.37,1.26-6.46,2.14-.58.24-1.15.5-1.71.77.39-.04.76-.07,1.13-.07.7,0,1.47.08,2.27.3.68-.29,1.36-.56,2.05-.8.39-.13.77-.28,1.16-.4l1.17-.35.59-.18.6-.15,1.19-.29c.4-.09.8-.16,1.2-.24.4-.07.8-.17,1.21-.22l1.21-.17c.2-.03.4-.06.61-.08l.61-.06c.23-.02.47-.04.71-.06.01-.42.03-.83.06-1.23l-.82.05Z" fill="#acd038"/><path d="m78.76,29.07c.57.7,1.11,1.42,1.63,2.14.32.37.61.77.88,1.19.09.14.17.29.26.45.41.62.81,1.24,1.18,1.87,1.15,1.95,2.13,3.96,2.94,6.04l.3.78c.1.26.2.52.28.79l.51,1.59c.14.54.28,1.08.42,1.62l.1.41.08.41.16.83.16.83.12.84.11.84.05.42.03.42c.04.57.08,1.13.12,1.71,0,.57,0,1.15.01,1.72,0,.2.05.36.11.39.06.02.11-.12.1-.35,0-.58,0-1.16,0-1.73-.03-.57-.07-1.15-.11-1.72-.03-.57-.12-1.13-.19-1.7l-.11-.84c-.05-.28-.1-.56-.15-.84l-.16-.83-.08-.42-.1-.41-.41-1.64-.5-1.62c-.08-.27-.18-.54-.28-.8l-.29-.79c-.81-2.11-1.79-4.17-2.94-6.17-1.17-1.99-2.5-3.92-4-5.8-1.48-1.85-3.06-3.51-4.72-5.03-1.67-1.5-3.42-2.85-5.26-4.07l-.19-.12c-.02.23-.05.46-.07.7,3.72,2.35,7.13,5.33,10.01,8.9" fill="#acd038"/><path d="m36.85,17.41l.56-.14,1.13-.28c.38-.09.76-.15,1.14-.23.38-.07.76-.16,1.14-.21l1.15-.16c.19-.03.38-.06.57-.08l.58-.05c.17-.02.34-.03.51-.04,0-.42,0-.83,0-1.23l-.57.04c-2.17.16-4.31.48-6.41.99-1.48.36-2.94.81-4.38,1.34.58.24,1.16.56,1.72.99.04-.01.07-.03.11-.04.37-.13.73-.27,1.09-.38l1.11-.33.55-.17Z" fill="#acd038"/><path d="m83.87,42.21c.1.25.19.49.27.75l.49,1.51.4,1.54.1.39.08.39.16.78.15.78.11.79.11.8.05.4.03.4c.04.54.08,1.08.11,1.62,0,.54,0,1.09.01,1.63,0,.19.05.35.11.37.06.02.11-.12.1-.33,0-.55,0-1.1,0-1.64-.03-.54-.07-1.09-.1-1.63-.02-.54-.12-1.08-.18-1.61l-.11-.8c-.04-.27-.1-.53-.15-.79l-.15-.79-.08-.39-.1-.39-.39-1.56-.48-1.53c-.08-.26-.17-.51-.26-.76l-.28-.75c-.31-.8-.64-1.59-1-2.37,0,.24,0,.48-.01.73.26.57.5,1.15.73,1.74l.28.74Z" fill="#acd038"/><path d="m69.59,87.29c.2-.14.4-.29.6-.43l.3-.21.29-.23c.39-.3.77-.6,1.15-.9.37-.31.73-.63,1.09-.94.18-.16.36-.31.54-.47.17-.16.34-.33.51-.49.11-.1.21-.21.32-.31-.54-.2-1.07-.4-1.6-.58-.07.06-.14.13-.22.19-.96.83-2.01,1.66-3.15,2.46-.04.73-.17,1.5-.41,2.31.19-.13.38-.26.56-.39" fill="#acd038"/><path d="m81.78,73.5c1.15-2.18,2.02-4.3,2.66-6.28.82-2.54,1.26-4.83,1.52-6.73.44-3.82.18-6.05.03-6.13-.04-.02-.08.29-.13.86-.02.28-.05.63-.07,1.03-.03.4-.09.85-.14,1.34-.21,1.97-.64,4.6-1.4,7.18-.74,2.59-1.8,5.11-2.76,7-.15.29-.3.57-.44.83l.04.59.71.32Z" fill="#acd038"/><path d="m75,28.09c.25.04.5.09.74.16-.95-1.05-1.93-2.04-2.94-2.97-1.36-1.22-2.77-2.33-4.24-3.34-.02.22-.05.44-.07.67,2.33,1.56,4.52,3.4,6.51,5.49" fill="#acd038"/><path d="m72.55,28.06c-.4-.4-.8-.78-1.21-1.16-.99-.89-2.01-1.71-3.06-2.48-.03.22-.05.43-.08.65,1.32.94,2.58,1.98,3.78,3.1.19-.04.37-.08.57-.11" fill="#acd038"/><path d="m35.68,20.05s.1-.03.14-.05l1.05-.32.52-.16.53-.13,1.06-.26c.35-.09.71-.14,1.07-.22.36-.06.71-.15,1.07-.2l1.08-.16c.18-.03.36-.06.54-.08l.55-.05c.13-.01.26-.02.39-.03-.02-.41-.04-.82-.05-1.23l-.41.03c-2.05.15-4.07.45-6.05.93-.87.21-1.72.46-2.57.73.37.34.73.74,1.08,1.19" fill="#acd038"/><path d="m80.76,68.09l.14,2.25c.59-1.32,1.08-2.6,1.47-3.82.77-2.4,1.19-4.57,1.43-6.36.41-3.61.16-5.72,0-5.8-.04-.02-.08.28-.13.81-.02.27-.05.59-.07.97-.03.38-.09.8-.13,1.26-.2,1.86-.61,4.34-1.33,6.78-.39,1.35-.87,2.68-1.37,3.9" fill="#acd038"/><path d="m82.33,43.57c-.04.17-.08.33-.13.5l.3.94.38,1.45.09.36.07.37.15.74.15.74.1.75.1.75.05.38.03.38c.03.51.07,1.02.1,1.53,0,.51,0,1.03,0,1.55,0,.18.05.33.11.35.06.02.11-.11.1-.31,0-.52,0-1.04,0-1.55-.02-.51-.06-1.03-.1-1.54-.02-.51-.11-1.02-.17-1.52l-.1-.76c-.04-.25-.09-.5-.14-.75l-.14-.75-.07-.37-.09-.37-.37-1.47-.44-1.39Z" fill="#acd038"/><path d="m69.46,84.68c.36-.29.73-.57,1.09-.86.35-.29.69-.6,1.03-.89.17-.15.35-.29.51-.45,0,0,0,0,.01-.01-.61-.2-1.19-.39-1.74-.56-.4.33-.81.65-1.24.98.19.56.3,1.16.32,1.8h.02Z" fill="#acd038"/><path d="m24.29,46.54c-2.41,2.78-4.79,4-4.79,4l-1.33-18.84-.02-.23s11.08-12.1,11.16.94c.04,6.65-2.51,11.24-5.03,14.13m9.89,1.01c-.55-2.73-3.67-2.28-3.67-2.28,0,0,8.43-15.85,5.28-23-3.09-7.01-9.71-4.47-16.87,1.11-3.65,2.85-6.63,5.99-8.98,9.02-4.25,5.48-6.46,10.6-6.96,12.96-.77,3.66-.94,7.58,2.69,7.24.78-.07,1.45-.43,2-.95,2.03-1.88,2.67-5.86,2.67-5.86,0,0-.45.72-1.08,1.59-.39.55-.86,1.15-1.31,1.68-.69.79-1.38,1.4-1.82,1.34-1.19-.17-.45-3.02,1.53-6.47.88-1.52,2.4-3.63,3.83-5.45,1.98-2.53,3.8-4.54,3.5-3.75-.51,1.36-1.36,45.66,0,45.66,1.05,0,4.44-2.74,6.17-4.46.51-.51.87-.93.99-1.16.46-.93-1.67-16.89-2.07-19.89-.04-.31-.07-.48-.07-.48,0,0,5.38-4.33,7.93-2.63,2.56,1.7-.24,29.37-.17,34.08.09,5.62.85,19.08,16.36,17.21,8.43-1.02,15.39-5.81,19.56-10.71,3.5-4.12,5.03-8.32,3.78-10.42-2.73-4.6-13.18-2.3-17.12-1.02-2.02.66-4.8,2.33-6.1,4.41-.28.45-.5.92-.62,1.41-.19.75-.11,1.56.23,2.26.29.59.79,1.17,1.7,1.62.77.38,1.63.55,2.49.55,3.79,0,6.2-.99,7.58-2.25,1.86-1.7,1.84-3.89.82-4.83-.36-.33-.83-.5-1.4-.44,2.73-1.87,10.05-1.02,7.16,4.43-.4.76-.94,1.48-1.56,2.16-3.87,4.21-11.49,6.85-16.33,6.7-5.62-.17-6.3-4.86-7.33-10.9-.8-4.7-1.51-24.81-2.2-33.67-.18-2.27-.35-3.81-.52-4.15-.01-.22-.04-.43-.08-.62" fill="#acd038"/><path d="m85.13,83.96s-2.03-1.3-5.22-2.86c-3.19-1.56-8.12-3.35-8.12-3.35l-1.17-21.8s1.23.07,2.49.31c1.38.26,2.6.79,2.6.79l1.06,17.27s2.3.97,3.36,1.36c2.49.93,4.52,2.21,4.52,2.21,0,0,.18.91.41,3.14.23,2.22.05,2.93.05,2.93m-15.32-6.77c-2.12-1-7.44-1.33-7.44-1.33l1.48-21.69s-1.72-.26-4.02-.26c-.71,0-1.48.02-2.27.09-1.93.16-4.31.65-4.31.65l2.22-3.73c.15-.26.41-.43.7-.45.92-.07,2.93-.32,5.74-.32,1.39,0,2.98.06,4.74.23,5.54.53,11.73,2.11,12.27,2.57.54.47.24,4.17.24,4.17,0,0-2.03-.98-4.59-1.6-2.56-.62-5.36-.86-5.36-.86,0,0,.79,19.96.6,22.52m-9.72-1.85l-6.05.44,2.21-9.32s-.02,0-.05,0c-.24,0-1.4.02-3.22.28-1.69.25-2.63.58-2.63.58l-4.27,10.22-6.69,2.18,5.9-11.7-4.12.78,2-3.62,4.19-.83,4.91-7.9s1.75-.35,4.07-.66c1.23-.17,2.75-.2,3.9-.2,1.01,0,1.75.03,1.75.03l-1.92,19.73Zm-7.78-52.74c-.54-6.85.06-12.94.81-16.67.18-.91.37-1.69.56-2.3,1.07,1.81,1.66,5.83,1.26,10.55-.22,2.63-1.25,6.29-2.5,9.85-.05-.48-.09-.96-.13-1.43m-6.62,35.35c-.61.37-1.31.32-1.97.02-1.33-.58-3.86-5.52-3.78-12.54,0-.55.03-1.11.07-1.69,1.23.72,3.13.96,5.15-.28.41-.25.81-.59,1.21-.99.3,1.63.57,3.64.77,6.13.69,6.02-.17,8.59-1.43,9.35m-4.29-20.89c.78-1.58,1.53-1.41,1.53-1.41,0,0,1.22-.22,2.39,2.91-.4.42-.78.73-1.15.97-1.92,1.24-3.2.14-3.3-1.08.17-.57.35-1.02.53-1.38m22.59-28.96c.05-.28.11-.55.15-.81.15-.78.29-1.44.4-1.98.17.11.35.3.55.59,1.14,1.64.38,8.88-.36,15.26-.29,2.49-.75,5.99-1.19,9.31-.12-1.49-.2-3.06-.25-4.65-.23-7.23.18-14.97.69-17.71m22.95,73.12s-.03-.07-.03-.07h0s0,0,0,0c-.01-.04-.02-.06-.02-.06h0s0-.01,0-.01c-.01-.04-.02-.06-.02-.06v-.02s-.01,0-.01,0c-.01-.03-.02-.05-.02-.05v-.02s-.01,0-.01,0c0-.03-.02-.04-.02-.05v-.03s-.01,0-.01,0c0-.02-.01-.04-.02-.04v-.03s-.02,0-.02,0c0-.02-.01-.03-.01-.04l-.02-.04h0s0-.03-.01-.03l-.02-.04h0s0-.02,0-.03l-.02-.05h0s0-.02,0-.02l-.02-.06h0s0-.01,0-.01l-.02-.06h0s0,0,0,0l-.03-.07h0s-.03-.08-.03-.08h0s-.03-.08-.03-.08h0s-.03-.08-.03-.08h0s-.03-.08-.03-.08h0s-.03-.08-.03-.08h0s-.03-.08-.03-.08h0s-.03-.08-.03-.08h0s-.02-.08-.02-.08h0s-.02-.08-.02-.08h0s-.02-.08-.02-.08h0s-.02-.08-.02-.08h0s-.02-.08-.02-.08h0s-.02-.07-.02-.07h0s-.02-.07-.02-.07h0s-.02-.07-.02-.07h-.01s-.02-.07-.02-.07h-.01s0,0,0,0l-.02-.07h-.01s-.02-.07-.02-.07h-.01s-.02-.07-.02-.07h-.01s-.02-.07-.02-.07h-.01s-.02-.07-.02-.07h-.01s-.02-.07-.02-.07h-.01s-.02-.07-.02-.07h-.01s-.02-.07-.02-.07h-.01s-.02-.07-.02-.07h-.01s-.02-.07-.02-.07h-.01s-.02-.07-.02-.07h-.01s-.02-.07-.02-.07h-.01s-.02-.07-.02-.07h-.01s-.02-.07-.02-.07h-.01s-.02-.07-.02-.07h-.02s-.01-.07-.01-.07h-.02s-.01-.07-.01-.07h-.02s-.01-.07-.01-.07h-.02s-.01-.07-.01-.07h-.02s-.01-.07-.01-.07h-.02s-.01-.07-.01-.07h-.02s-.01-.07-.01-.07h-.02s-.01-.07-.01-.07l-.28-.18c-.09-.05-2.12-1.33-4.66-2.28-.34-.13-.83-.32-1.32-.52l-.88-14.07-.96-2.1c1.96.59,3.38,1.27,3.38,1.27,0,0,.23-2.86-.08-3.87,0-.03-.01-.05-.02-.07,0-.02-.01-.04-.02-.05,0-.01,0-.03-.01-.04-.01-.04-.02-.09-.04-.13,0,0,0,0,0,0,0-.02,0-.03-.01-.05,0,0,0,0,0,0,0-.04-.02-.07-.03-.11,0-.02-.01-.04-.02-.05,0-.01,0-.02,0-.03,0-.01,0-.03-.01-.04,0,0,0,0,0-.01,0,0,0,0,0,0,0-.02-.01-.04-.02-.05,0-.02-.01-.04-.02-.05,0-.02-.01-.04-.02-.05,0-.01,0-.02,0-.03,0-.03-.02-.07-.03-.1,0-.02-.01-.04-.02-.06,0-.02-.01-.04-.02-.06,0-.02-.01-.04-.02-.05,0,0,0,0,0,0,0,0,0-.02,0-.02,0-.03-.02-.06-.03-.09-.02-.11-.05-.2-.07-.28-.02-.07-.03-.13-.05-.18,0-.02-.01-.04-.02-.05,0-.02,0-.04-.02-.05,0-.02-.01-.04-.02-.06-.01-.06-.03-.12-.04-.17,0-.02,0-.04-.02-.05,0-.02,0-.04-.02-.05-.02-.07-.04-.13-.06-.19,0,0,0,0,0,0,0-.02-.01-.04-.02-.05,0-.02,0-.03-.01-.05-.14-.62-.34-.79-.45-.89-.23-.2-.91-.46-1.89-.74-.05-.01-.1-.03-.14-.04-1.05-.3-2.42-.63-3.93-.93-2.16-.44-4.59-.83-6.74-1.04-.53-.05-1.05-.09-1.58-.12-1.08-.07-2.16-.11-3.23-.11-.14,0-.29,0-.43,0-.11,0-.22,0-.33,0,.26-.17.49-.36.69-.55.51-.47.87-.99,1.13-1.47.57-1.05.65-1.95.65-1.95,0,0,2.07,5.11,9.91,4.14,1.85-.23,3.34-1.08,4.5-2.29,3.75-3.91,4.06-11.63,2.08-14.8-2.38-3.83-7.55-4.34-9.34-.94-.28.53-.48,1.15-.57,1.87-.79,6.19,5.96,5.71,5.96,5.71,0,0,.71,4.95-1.79,7.03-.61.51-1.41.85-2.47.9-4.75.25-5.7-4.05-7.22-9.22.78-5,1.99-13.32,2.79-21.73,1.04-10.91-1.38-12.96-2.3-13.35,0,0,0,0,0,0,0,0,0,0-.01,0-.2-.08-.33-.08-.33-.08-.65-.16-2.11-.44-3.32-.25-.44.07-.83.5-1.18,1.32-.93,2.2-1.54,7.23-1.97,15.97-.6,12.01,3.15,22.32,3.15,22.32,0,0-.78,2.44-1.92,3.32-.15.11-.3.2-.46.26-1.79.6-2.47-1.95-5.28-13.29-.23-.93-.44-1.86-.62-2.79,1.45-3.48,3.55-9.54,4.08-16.61.84-11.12-3.71-12.43-3.71-12.43-.86-.33-2.06-.41-2.61-.46-.37-.04-.85.44-1.35,1.36-.95,1.75-1.95,5.11-2.34,9.63-.52,6.04.79,15.75,1.71,21.53-.37.8-.71,1.5-1,2.05-.23.44-.45.84-.67,1.21-.06-.09-.12-.17-.19-.25-1.32-1.73-3.07-2.53-5.4-2-1.65.38-3.1,1.5-4.21,3.17-1.84,2.76-2.77,7.03-2.18,11.86.94,7.76,5.33,13.61,9.8,13.07.91-.11,1.71-.52,2.38-1.17,2.64-2.5,3.51-8.59,2.76-14.76-.14-1.13-.31-2.21-.51-3.23-.24-1.23-.53-2.38-.88-3.41-.02-.05-.03-.09-.05-.14,0,0,0-.01.01-.02.33-.58.64-1.17.93-1.75.01.08.02.12.02.12,0,0,1.88,9.84,5.69,12.57-.31.14-.57.37-.74.68l-.32.57-1.28,2.23-1.4,2.44-.03.04-.14.23-4.74,7.62-3.86.77-.35.07-.17.31-.32.58h0s-1.68,3.04-1.68,3.04l-.79,1.43,2.98,1.62-3.99,7.9-.79,1.57-.04.08.18.08.18.08.06.03.18.08.06.03.06.03.06.03.23.11.29.13.12.05.12.05.12.05.12.05.18.08.12.05.12.05.23.11.18.08.06.03.18.08.12.05.06.03,6.2-2.03.49-.16.03-.07,4.24-10.15s.94-.33,2.63-.58c.11-.02.22-.03.33-.05l-1.48,6.27-.24,1.02s.02.02.05.04h0s0,0,0,0c.01.01.03.02.05.04h0s0,0,0,0c.01.01.03.02.05.04h0s0,0,0,0c.02.01.03.02.05.04h0s0,0,0,0c.02.01.03.02.05.04h0s0,0,0,0c.01.01.03.02.05.04h0s0,0,0,0c.02.01.03.02.05.04h0s0,0,0,0c.02.01.03.02.05.04h0s0,0,0,0c.01.01.03.02.05.04h0s0,0,0,0c.02.01.03.02.05.03h0s0,0,0,0c.02.01.03.02.05.04h0s0,0,0,0c.01.01.03.02.05.03h0s0,0,0,0c.02.01.03.02.05.03h0s0,0,0,0c.02.01.03.02.05.03h0s0,0,0,0c.02.01.03.02.05.03h0s0,0,0,0c.01.01.03.02.05.03h0s0,0,0,0c.02.01.03.02.05.03h0s0,0,0,0c.02.01.03.02.05.03h0s0,0,0,0c.02.01.03.02.05.03h0s0,0,0,0c.02.01.03.02.05.03h0s0,0,0,0c.02.01.03.02.05.03h0s0,0,0,0c.01.01.03.02.05.03h0s0,0,0,0c.02.01.03.02.05.03h0s0,0,0,0c.02.01.03.02.05.03h0s0,0,0,0c.02.01.03.02.05.03h0s0,0,0,0c.02.01.03.02.05.03h0s0,0,0,0c.02.01.03.02.05.03h0s0,0,0,0c.02.01.03.02.05.03h0s0,0,0,0c.02.01.03.02.05.03h0s0,0,0,0c.02.01.03.02.05.04h0s0,0,0,0c.02.01.03.02.05.03h0s0,0,0,0c.02.01.03.02.05.04h0c.44.33.82.6.87.62h.02s.02,0,.04-.01c.22-.04,1.47-.26,2.83-.35.75-.05,1.85-.07,2.54-.08.37,0,.63,0,.64,0h.02s.1-1.33.1-1.33c0,0,.02,0,.03.02h0s.01,0,.01,0c.01,0,.03.01.05.02h0s.01,0,.01,0c.02,0,.03.02.05.02h0s0,0,0,0c.02,0,.03.02.05.02h0s0,0,0,0c.02,0,.03.02.05.03h0s0,0,0,0c.02,0,.04.02.06.03h0s0,0,0,0c.02,0,.04.02.06.03h0s0,0,0,0c.02,0,.04.02.06.03h0s0,0,0,0c.02,0,.04.02.06.03h0s0,0,0,0c.02,0,.04.02.06.03h0s0,0,0,0c.02,0,.04.02.06.03h0s0,0,0,0c.31.14.66.3.85.39.02.01.04.02.06.03.36.17,1.39.67,1.39.67h.01s.02,0,.05,0c.23.04,1.28.2,2.53.47,1.38.29,3,.71,4.04,1.2h.02s0-.01,0-.01c.02-.25.03-.66.03-1.2h.01s.02.01.02.01l.06.05.06.05.06.05.06.05.06.05.06.05.06.05.06.05.06.05.06.05.06.05.06.05.06.05.06.05.06.05.06.05.06.05.06.05.06.05.06.05.06.05.06.05.06.05.06.05.06.05.06.05.06.05.06.05.06.05.06.05.06.05.06.05.06.05.06.05.06.05.06.05.06.05.06.05.06.05.06.05.06.05.06.05s.05.05.05.05c0,0,.05.05.05.05,0,0,.05.05.05.05,0,0,.1.08.1.08h0s.02.02.05.03c.53.19,5.09,1.88,8.06,3.33.46.23.9.45,1.31.67,2.39,1.28,3.88,2.4,3.9,2.41h.02s0,0,0,0c0,0,.18-.74-.05-2.94-.2-1.87-.5-2.81-.59-3.05" fill="#acd038"/><path d="m56.57,58.67c-.89.08-2.31.32-2.31.32l-2.36,4.73s.52-.19,2.02-.39c1.92-.25,2.92-.27,3.19-.27.05,0,.08,0,.08,0l.78-4.37s-.24-.04-.69-.04c-.19,0-.43,0-.7.03" fill="#acd038"/></g></g></g></g></g></g></svg>