<?xml version="1.0" encoding="UTF-8"?><svg id="b" xmlns="http://www.w3.org/2000/svg" width="213.87" height="69.67" viewBox="0 0 213.87 69.67"><g id="c"><g id="d"><g id="e"><path d="m59.51,63c-4.68,3.82-9.44,5.29-14.27,4.42-4.82-.89-9.43-3.74-13.82-8.56l5.39-7.48c3.14,3.38,6.2,5.7,9.17,6.95,2.97,1.26,5.81.78,8.52-1.44,2.01-1.65,3.08-3.46,3.19-5.43.11-1.99-.69-4.04-2.41-6.15-1.88-2.28-3.92-3.78-6.13-4.5-2.2-.73-5.1-1.15-8.71-1.25l-16.1-.61c-3.24-.11-6.07-.77-8.48-1.97-2.41-1.21-4.74-3.2-7-5.96-3.34-4.07-4.76-8.18-4.25-12.34.5-4.17,2.76-7.91,6.81-11.22,4.4-3.59,8.68-5.14,12.85-4.63,4.17.5,8.49,3,12.96,7.52l-5.14,7.19c-2.92-3.07-5.61-5.06-8.07-5.98-2.46-.91-5.03-.29-7.69,1.88-1.97,1.62-3.06,3.38-3.28,5.28-.21,1.89.51,3.84,2.16,5.85,1.34,1.65,2.75,2.81,4.23,3.49,1.47.68,3.34,1.05,5.62,1.12l16.15.53c4.2.17,8.05.92,11.56,2.26,3.52,1.34,6.59,3.61,9.21,6.83,3.34,4.07,4.74,8.32,4.23,12.72-.52,4.41-2.76,8.24-6.7,11.48Z" fill="none" stroke="#acd038" stroke-miterlimit="10"/></g><path d="m6.84,64.38C2.1,60.05-.17,55.29.01,50.09c.2-5.18,2.49-10.46,6.89-15.83l8.67,4.48c-3.08,3.85-5.04,7.42-5.9,10.72-.85,3.31.1,6.22,2.83,8.73,2.04,1.87,4.11,2.71,6.19,2.52,2.08-.18,4.1-1.34,6.04-3.47,2.12-2.32,3.4-4.7,3.83-7.12.42-2.43.42-5.54,0-9.34l-1.84-17.01c-.37-3.39-.11-6.45.78-9.15.9-2.71,2.63-5.45,5.18-8.24C36.46,2.24,40.57.12,45.01,0c4.45-.11,8.72,1.7,12.81,5.43,4.45,4.07,6.73,8.34,6.83,12.79.11,4.44-1.87,9.35-5.94,14.73l-8.33-4.29c2.77-3.51,4.46-6.63,5.05-9.36.59-2.73-.46-5.33-3.15-7.8-2-1.83-4.01-2.71-6.02-2.64-2.02.07-3.96,1.13-5.83,3.17-1.52,1.66-2.53,3.32-3.02,4.97-.48,1.64-.58,3.65-.3,6.04l1.9,17.08c.46,4.44.26,8.59-.61,12.47-.88,3.89-2.8,7.45-5.77,10.69-3.78,4.13-8.03,6.26-12.74,6.38-4.71.13-9.06-1.64-13.04-5.28Z" fill="#acd038"/><path d="m73.65,24.62c1.32.32,2.22.66,2.71,1.05.33.27.5.62.5,1.04s-.1.77-.27,1.01c-.45.63-1.26.95-2.4.95-1.59,0-2.49-.54-2.69-1.62h-1.23c.36,1.73,1.67,2.58,3.92,2.58,1.01,0,1.85-.21,2.53-.66.81-.53,1.23-1.31,1.23-2.33,0-.84-.33-1.48-.99-1.94-.47-.33-1.22-.63-2.26-.9-1.05-.27-1.73-.5-2.04-.66-.69-.35-1.04-.83-1.02-1.46,0-.33.06-.62.21-.83.39-.59,1.08-.88,2.07-.88,1.4,0,2.19.45,2.4,1.32h1.14c-.38-1.47-1.56-2.22-3.55-2.22-.9,0-1.7.24-2.36.72-.68.48-1.03,1.19-1.03,2.15,0,1.31,1.05,2.21,3.13,2.69Z" fill="#acd038"/><path d="m85.51,29.43v-4.57h4.64v4.57h1.05v-10.22h-1.05v4.6h-4.64v-4.6h-1.05v10.22h1.05Z" fill="#acd038"/><path d="m104.54,29.43v-.98h-5.02v-3.64h4.87v-.99h-4.87v-3.64h5.02v-.98h-6.07v10.22h6.07Z" fill="#acd038"/><path d="m113.45,25.67l1.87-4.7,1.84,4.7h-3.71Zm6.34,3.76l-4.48-10.92-4.5,10.92h1.15l1.09-2.78h4.49l1.1,2.78h1.14Z" fill="#acd038"/><path d="m132.56,18.16h-1.13l-5.83,14.29h1.13l5.83-14.29Z" fill="#acd038"/><path d="m142,24.62c1.32.32,2.22.66,2.71,1.05.33.27.5.62.5,1.04s-.1.77-.27,1.01c-.45.63-1.26.95-2.4.95-1.59,0-2.49-.54-2.69-1.62h-1.23c.36,1.73,1.67,2.58,3.92,2.58,1.01,0,1.85-.21,2.53-.66.81-.53,1.23-1.31,1.23-2.33,0-.84-.33-1.48-.99-1.94-.47-.33-1.22-.63-2.26-.9-1.05-.27-1.73-.5-2.04-.66-.69-.35-1.04-.83-1.02-1.46,0-.33.06-.62.21-.83.39-.59,1.08-.88,2.07-.88,1.4,0,2.19.45,2.4,1.32h1.14c-.38-1.47-1.56-2.22-3.55-2.22-.9,0-1.7.24-2.36.72-.68.48-1.03,1.19-1.03,2.15,0,1.31,1.05,2.21,3.13,2.69Z" fill="#acd038"/><path d="m151.99,20.16h2.48v9.24h1.05v-9.24h2.48v-.98h-6.01v.98Z" fill="#acd038"/><path d="m173.44,24.29c0,1.17-.42,2.16-1.24,2.97-.82.82-1.82,1.23-2.97,1.23s-2.15-.41-2.96-1.23c-.82-.81-1.23-1.81-1.23-2.97s.41-2.13,1.23-2.96c.81-.81,1.8-1.23,2.96-1.23s2.15.42,2.97,1.23c.81.83,1.24,1.82,1.24,2.96Zm1.05,0c0-.72-.15-1.4-.42-2.04-.27-.63-.64-1.19-1.13-1.67-.48-.46-1.04-.84-1.67-1.11-.64-.27-1.32-.42-2.04-.42s-1.41.15-2.04.42c-.63.27-1.19.64-1.67,1.11-.48.48-.86,1.04-1.13,1.67-.27.64-.41,1.32-.41,2.04s.14,1.41.41,2.04c.27.65.64,1.2,1.13,1.69.48.48,1.04.86,1.67,1.13.63.27,1.32.41,2.04.41s1.4-.14,2.04-.41c.63-.27,1.19-.64,1.67-1.13.48-.48.86-1.04,1.13-1.69.27-.63.42-1.32.42-2.04Z" fill="#acd038"/><path d="m182.35,29.43v-4.79l3.44,4.79h1.35l-3.75-5.11,3.75-5.11h-1.35l-3.44,4.81v-4.81h-1.05v10.22h1.05Z" fill="#acd038"/><path d="m199.5,29.43v-.98h-5.02v-3.64h4.87v-.99h-4.87v-3.64h5.02v-.98h-6.07v10.22h6.07Z" fill="#acd038"/><path d="m209.59,24.62c1.32.32,2.22.66,2.71,1.05.33.27.5.62.5,1.04s-.1.77-.27,1.01c-.45.63-1.26.95-2.4.95-1.59,0-2.49-.54-2.69-1.62h-1.23c.36,1.73,1.67,2.58,3.92,2.58,1.01,0,1.85-.21,2.53-.66.81-.53,1.23-1.31,1.23-2.33,0-.84-.33-1.48-.99-1.94-.47-.33-1.22-.63-2.26-.9-1.05-.27-1.73-.5-2.04-.66-.69-.35-1.04-.83-1.02-1.46,0-.33.06-.62.21-.83.39-.59,1.08-.88,2.07-.88,1.4,0,2.19.45,2.4,1.32h1.14c-.38-1.47-1.56-2.22-3.55-2.22-.9,0-1.7.24-2.36.72-.68.48-1.03,1.19-1.03,2.15,0,1.31,1.05,2.21,3.13,2.69Z" fill="#acd038"/><path d="m73.5,44.65v-10.22h-1.05v10.22h1.05Z" fill="#acd038"/><path d="m81.83,37.12l5.74,8.16v-10.85h-1.06v7.51l-5.74-8.16v10.86h1.05v-7.53Z" fill="#acd038"/><path d="m95.88,43.59v-9.17h-1.05v10.22h4.7v-1.05h-3.65Z" fill="#acd038"/><path d="m107.02,44.65v-10.22h-1.05v10.22h1.05Z" fill="#acd038"/><path d="m115.35,37.12l5.74,8.16v-10.85h-1.06v7.51l-5.74-8.16v10.86h1.05v-7.53Z" fill="#acd038"/><path d="m134.42,44.65v-.98h-5.02v-3.64h4.87v-.99h-4.87v-3.64h5.02v-.98h-6.07v10.22h6.07Z" fill="#acd038"/><path d="m153.58,39.84c1.32.32,2.22.66,2.71,1.05.33.27.5.62.5,1.04s-.1.77-.27,1.01c-.45.63-1.26.95-2.4.95-1.59,0-2.49-.54-2.69-1.62h-1.23c.36,1.73,1.67,2.58,3.92,2.58,1.01,0,1.85-.21,2.53-.66.81-.53,1.23-1.31,1.23-2.33,0-.84-.33-1.48-.99-1.94-.47-.33-1.22-.63-2.26-.9-1.05-.27-1.73-.5-2.04-.66-.69-.35-1.04-.83-1.02-1.46,0-.33.06-.62.21-.83.39-.59,1.08-.88,2.07-.88,1.4,0,2.19.45,2.4,1.32h1.14c-.38-1.47-1.56-2.22-3.55-2.22-.9,0-1.7.24-2.36.72-.68.48-1.03,1.19-1.03,2.15,0,1.31,1.05,2.21,3.13,2.69Z" fill="#acd038"/><path d="m165.44,39.58v-4.15h2.38c.61,0,1.11.2,1.48.57.36.39.55.87.55,1.47s-.2,1.11-.59,1.52c-.39.39-.87.59-1.45.59h-2.38Zm5.47-2.08c0-.9-.33-1.64-.96-2.22-.63-.57-1.38-.86-2.28-.86h-3.28v10.22h1.05v-4.04h2.22c.9,0,1.67-.29,2.28-.86.63-.6.96-1.34.96-2.24Z" fill="#acd038"/><path d="m183.42,44.65v-.98h-5.02v-3.64h4.87v-.99h-4.87v-3.64h5.02v-.98h-6.07v10.22h6.07Z" fill="#acd038"/><path d="m196.76,44.65v-.98h-5.02v-3.64h4.87v-.99h-4.87v-3.64h5.02v-.98h-6.07v10.22h6.07Z" fill="#acd038"/><path d="m211.96,39.54c0-.73-.15-1.41-.42-2.04-.27-.63-.64-1.17-1.11-1.62-.48-.45-1.04-.79-1.67-1.05-.64-.25-1.34-.39-2.06-.39h-2.67v10.22h2.67c.72,0,1.42-.12,2.06-.38.63-.25,1.19-.62,1.67-1.07.46-.45.84-.98,1.11-1.61.27-.63.42-1.31.42-2.06Zm-1.03,0c0,1.17-.42,2.15-1.23,2.92-.81.77-1.8,1.14-2.97,1.14h-1.65v-8.12h1.65c1.17,0,2.17.39,2.97,1.15.81.78,1.23,1.75,1.23,2.91Z" fill="#acd038"/></g></g></svg>