<?xml version="1.0" encoding="UTF-8"?><svg id="b" xmlns="http://www.w3.org/2000/svg" width="144.74" height="101.37" viewBox="0 0 144.74 101.37"><g id="c"><g id="d"><path d="M99.91,64.3c-4.9,4-9.88,5.54-14.93,4.62-5.04-.93-9.87-3.92-14.47-8.96l5.64-7.83c3.29,3.54,6.49,5.97,9.6,7.28,3.11,1.32,6.08.81,8.92-1.5,2.11-1.73,3.22-3.62,3.34-5.69.12-2.08-.72-4.23-2.52-6.44-1.96-2.39-4.1-3.96-6.42-4.71-2.3-.76-5.34-1.2-9.11-1.31l-16.86-.64c-3.39-.12-6.35-.8-8.87-2.06-2.52-1.27-4.96-3.35-7.32-6.24-3.5-4.26-4.98-8.57-4.45-12.92.52-4.36,2.89-8.28,7.12-11.75,4.6-3.76,9.09-5.38,13.45-4.84,4.37.52,8.89,3.14,13.56,7.88l-5.38,7.52c-3.05-3.21-5.87-5.3-8.45-6.26-2.58-.96-5.27-.3-8.05,1.97-2.06,1.7-3.21,3.54-3.43,5.53-.22,1.98.53,4.02,2.26,6.13,1.4,1.73,2.88,2.94,4.42,3.65,1.54.71,3.5,1.1,5.88,1.17l16.9.55c4.39.18,8.43.97,12.1,2.37,3.68,1.4,6.9,3.78,9.65,7.15,3.5,4.26,4.97,8.7,4.42,13.32-.55,4.62-2.89,8.62-7.01,12.01Z" fill="none" stroke="#acd038" stroke-miterlimit="10" stroke-width="1.05"/></g><path d="M46.1,64.38c-4.73-4.33-7.01-9.09-6.83-14.29.2-5.18,2.49-10.46,6.89-15.83l8.67,4.48c-3.08,3.85-5.04,7.42-5.9,10.72-.85,3.31.1,6.22,2.83,8.73,2.04,1.87,4.11,2.71,6.19,2.52,2.08-.18,4.1-1.34,6.04-3.47,2.12-2.32,3.4-4.7,3.83-7.12.42-2.43.42-5.54,0-9.34l-1.84-17.01c-.37-3.39-.11-6.45.78-9.15.9-2.71,2.63-5.45,5.18-8.24C75.73,2.24,79.84.12,84.27,0c4.45-.11,8.72,1.7,12.81,5.43,4.45,4.07,6.73,8.34,6.83,12.79.11,4.44-1.87,9.35-5.94,14.73l-8.33-4.29c2.77-3.51,4.46-6.63,5.05-9.36.59-2.73-.46-5.33-3.15-7.8-2-1.83-4.01-2.71-6.02-2.64-2.02.07-3.96,1.13-5.83,3.17-1.52,1.66-2.53,3.32-3.02,4.97-.48,1.64-.58,3.65-.3,6.04l1.9,17.08c.46,4.44.26,8.59-.61,12.47-.88,3.89-2.8,7.45-5.77,10.69-3.78,4.13-8.03,6.26-12.74,6.38-4.71.13-9.06-1.64-13.04-5.28Z" fill="#aad037" stroke-width="0"/><path d="M4.01,81.09c1.32.32,2.22.66,2.71,1.05.33.27.5.62.5,1.04s-.1.77-.27,1.01c-.45.63-1.26.95-2.4.95-1.59,0-2.49-.54-2.69-1.62H.61c.36,1.73,1.67,2.58,3.92,2.58,1.01,0,1.85-.21,2.53-.66.81-.53,1.23-1.31,1.23-2.33,0-.84-.33-1.48-.99-1.94-.47-.33-1.22-.63-2.26-.9-1.05-.27-1.73-.5-2.04-.66-.69-.35-1.04-.83-1.02-1.46,0-.33.06-.62.21-.83.39-.59,1.08-.88,2.07-.88,1.4,0,2.19.45,2.4,1.32h1.14c-.38-1.47-1.56-2.22-3.55-2.22-.9,0-1.7.24-2.36.72-.68.48-1.03,1.19-1.03,2.15,0,1.31,1.05,2.21,3.13,2.69Z" fill="#aad037" stroke="#acd038" stroke-miterlimit="10"/><path d="M15.87,85.9v-4.57h4.64v4.57h1.05v-10.22h-1.05v4.6h-4.64v-4.6h-1.05v10.22h1.05Z" fill="#aad037" stroke="#acd038" stroke-miterlimit="10"/><path d="M34.9,85.9v-.98h-5.02v-3.64h4.87v-.99h-4.87v-3.64h5.02v-.98h-6.07v10.22h6.07Z" fill="#aad037" stroke="#acd038" stroke-miterlimit="10"/><path d="M43.82,82.14l1.87-4.7,1.84,4.7h-3.71ZM50.16,85.9l-4.48-10.92-4.5,10.92h1.15l1.09-2.78h4.49l1.1,2.78h1.14Z" fill="#aad037" stroke="#acd038" stroke-miterlimit="10"/><path d="M62.92,74.63h-1.13l-5.83,14.29h1.13l5.83-14.29Z" fill="#aad037" stroke="#acd038" stroke-miterlimit="10"/><path d="M72.37,81.09c1.32.32,2.22.66,2.71,1.05.33.27.5.62.5,1.04s-.1.77-.27,1.01c-.45.63-1.26.95-2.4.95-1.59,0-2.49-.54-2.69-1.62h-1.23c.36,1.73,1.67,2.58,3.92,2.58,1.01,0,1.85-.21,2.53-.66.81-.53,1.23-1.31,1.23-2.33,0-.84-.33-1.48-.99-1.94-.47-.33-1.22-.63-2.26-.9-1.05-.27-1.73-.5-2.04-.66-.69-.35-1.04-.83-1.02-1.46,0-.33.06-.62.21-.83.39-.59,1.08-.88,2.07-.88,1.4,0,2.19.45,2.4,1.32h1.14c-.38-1.47-1.56-2.22-3.55-2.22-.9,0-1.7.24-2.36.72-.68.48-1.03,1.19-1.03,2.15,0,1.31,1.05,2.21,3.13,2.69Z" fill="#aad037" stroke="#acd038" stroke-miterlimit="10"/><path d="M82.35,76.63h2.48v9.24h1.05v-9.24h2.48v-.98h-6.01v.98Z" fill="#aad037" stroke="#acd038" stroke-miterlimit="10"/><path d="M103.8,80.76c0,1.17-.42,2.16-1.24,2.97-.82.82-1.82,1.23-2.97,1.23s-2.15-.41-2.96-1.23c-.82-.81-1.23-1.81-1.23-2.97s.41-2.13,1.23-2.96c.81-.81,1.8-1.23,2.96-1.23s2.15.42,2.97,1.23c.81.83,1.24,1.82,1.24,2.96ZM104.85,80.76c0-.72-.15-1.4-.42-2.04-.27-.63-.64-1.19-1.13-1.67-.48-.46-1.04-.84-1.67-1.11-.64-.27-1.32-.42-2.04-.42s-1.41.15-2.04.42c-.63.27-1.19.64-1.67,1.11-.48.48-.86,1.04-1.13,1.67-.27.64-.41,1.32-.41,2.04s.14,1.41.41,2.04c.27.65.64,1.2,1.13,1.69.48.48,1.04.86,1.67,1.13.63.27,1.32.41,2.04.41s1.4-.14,2.04-.41c.63-.27,1.19-.64,1.67-1.13.48-.48.86-1.04,1.13-1.69.27-.63.42-1.32.42-2.04Z" fill="#aad037" stroke="#acd038" stroke-miterlimit="10"/><path d="M112.71,85.9v-4.79l3.44,4.79h1.35l-3.75-5.11,3.75-5.11h-1.35l-3.44,4.81v-4.81h-1.05v10.22h1.05Z" fill="#aad037" stroke="#acd038" stroke-miterlimit="10"/><path d="M129.87,85.9v-.98h-5.02v-3.64h4.87v-.99h-4.87v-3.64h5.02v-.98h-6.07v10.22h6.07Z" fill="#aad037" stroke="#acd038" stroke-miterlimit="10"/><path d="M139.96,81.09c1.32.32,2.22.66,2.71,1.05.33.27.5.62.5,1.04s-.1.77-.27,1.01c-.45.63-1.26.95-2.4.95-1.59,0-2.49-.54-2.69-1.62h-1.23c.36,1.73,1.67,2.58,3.92,2.58,1.01,0,1.85-.21,2.53-.66.81-.53,1.23-1.31,1.23-2.33,0-.84-.33-1.48-.99-1.94-.47-.33-1.22-.63-2.26-.9-1.05-.27-1.73-.5-2.04-.66-.69-.35-1.04-.83-1.02-1.46,0-.33.06-.62.21-.83.39-.59,1.08-.88,2.07-.88,1.4,0,2.19.45,2.4,1.32h1.14c-.38-1.47-1.56-2.22-3.55-2.22-.9,0-1.7.24-2.36.72-.68.48-1.03,1.19-1.03,2.15,0,1.31,1.05,2.21,3.13,2.69Z" fill="#aad037" stroke="#acd038" stroke-miterlimit="10"/><path d="M11.3,100.81v-9.09h-.94v9.09h.94Z" fill="#aad037" stroke-width="0"/><path d="M18.71,94.11l5.11,7.26v-9.65h-.94v6.68l-5.11-7.26v9.66h.94v-6.7Z" fill="#aad037" stroke-width="0"/><path d="M31.21,99.87v-8.16h-.94v9.09h4.18v-.94h-3.25Z" fill="#aad037" stroke-width="0"/><path d="M41.13,100.81v-9.09h-.94v9.09h.94Z" fill="#aad037" stroke-width="0"/><path d="M48.53,94.11l5.11,7.26v-9.65h-.94v6.68l-5.11-7.26v9.66h.94v-6.7Z" fill="#aad037" stroke-width="0"/><path d="M65.5,100.81v-.87h-4.47v-3.23h4.33v-.88h-4.33v-3.23h4.47v-.87h-5.4v9.09h5.4Z" fill="#aad037" stroke-width="0"/><path d="M82.55,96.53c1.18.28,1.98.59,2.41.94.29.24.44.55.44.92s-.08.68-.24.9c-.4.56-1.12.84-2.14.84-1.41,0-2.22-.48-2.39-1.44h-1.1c.32,1.54,1.49,2.3,3.49,2.3.9,0,1.65-.19,2.25-.59.72-.47,1.1-1.17,1.1-2.07,0-.75-.29-1.32-.88-1.73-.42-.29-1.09-.56-2.01-.8-.94-.24-1.54-.44-1.82-.59-.61-.31-.92-.74-.91-1.3,0-.3.05-.55.19-.74.35-.52.96-.79,1.84-.79,1.25,0,1.95.4,2.14,1.18h1.02c-.33-1.31-1.39-1.98-3.15-1.98-.8,0-1.51.21-2.1.64-.6.43-.91,1.06-.91,1.91,0,1.16.94,1.96,2.78,2.39Z" fill="#aad037" stroke-width="0"/><path d="M93.1,96.3v-3.69h2.12c.55,0,.99.17,1.32.51.32.35.49.78.49,1.31s-.17.99-.52,1.35c-.35.35-.78.52-1.29.52h-2.12ZM97.97,94.46c0-.8-.29-1.46-.86-1.98-.56-.51-1.23-.76-2.03-.76h-2.91v9.09h.94v-3.6h1.98c.8,0,1.49-.25,2.03-.76.56-.54.86-1.19.86-1.99Z" fill="#aad037" stroke-width="0"/><path d="M109.1,100.81v-.87h-4.47v-3.23h4.33v-.88h-4.33v-3.23h4.47v-.87h-5.4v9.09h5.4Z" fill="#aad037" stroke-width="0"/><path d="M120.96,100.81v-.87h-4.47v-3.23h4.33v-.88h-4.33v-3.23h4.47v-.87h-5.4v9.09h5.4Z" fill="#aad037" stroke-width="0"/><path d="M134.48,96.26c0-.65-.14-1.26-.38-1.82-.24-.56-.57-1.04-.99-1.44-.43-.4-.93-.71-1.49-.94-.57-.23-1.19-.35-1.83-.35h-2.38v9.09h2.38c.64,0,1.26-.11,1.83-.33.56-.23,1.06-.55,1.49-.95.41-.4.75-.87.99-1.43.24-.56.38-1.17.38-1.83ZM133.57,96.26c0,1.04-.37,1.91-1.1,2.59-.72.68-1.6,1.02-2.65,1.02h-1.47v-7.22h1.47c1.04,0,1.93.35,2.65,1.02.72.69,1.1,1.56,1.1,2.59Z" fill="#aad037" stroke-width="0"/></g></svg>