<?xml version="1.0" encoding="UTF-8"?><svg id="b" xmlns="http://www.w3.org/2000/svg" width="151.06" height="123.02" viewBox="0 0 151.06 123.02"><g id="c"><path d="M34.8,122.86c-.06.06-.17.07-.26.07-.55,0-1.1,0-1.65,0,0-3.07,0-6.14,0-9.21,0-.11,0-.24.09-.32.07-.07.17-.09.27-.1.8-.11,1.73-.17,2.27.42,1.9,2.05,3.79,4.11,5.69,6.16,0-2.08,0-4.17,0-6.25,0-.1,0-.2.07-.27.07-.08.19-.08.3-.08.42,0,.85,0,1.27,0,.15,0,.33.01.42.14.04.07.05.16.05.24.02,2.93.05,5.87.07,8.8,0,.12,0,.25-.08.33-.07.08-.18.1-.29.11-.78.12-1.69.19-2.23-.39-1.94-2.08-3.89-4.15-5.83-6.23-.02,2.11-.05,4.23-.07,6.34,0,.09,0,.19-.07.25h0Z" fill="#aad037" stroke-width="0"/><path d="M92.03,113.02c.89.06,1.8.16,2.62.51.83.34,1.58.95,1.93,1.77.07.17.12.38.01.53-.07.1-.2.14-.32.17l-1.51.45c-.3-.72-1.02-1.21-1.77-1.42-.75-.21-1.55-.18-2.33-.12-.48.04-1,.11-1.32.46-.32.35-.24,1.07.23,1.15,1.33.24,2.67.48,4,.71.74.13,1.51.27,2.13.7.79.53,1.26,1.51,1.18,2.45-.07.95-.69,1.84-1.55,2.24-.73.34-1.57.34-2.38.33l-2.54-.02c-.45,0-.9,0-1.34-.1-1.09-.23-2.04-1.03-2.46-2.06-.03-.08-.06-.18-.04-.26.03-.11.14-.18.24-.24.6-.35,1.43-.67,1.91-.17,1.32,1.37,3.55,1.76,5.26.92.34-.17.7-.46.66-.83-.04-.34-.39-.55-.71-.67-1.31-.49-2.76-.41-4.13-.69-1.37-.28-2.81-1.16-2.99-2.54-.15-1.16.69-2.29,1.75-2.79s2.28-.53,3.46-.45Z" fill="#aad037" stroke-width="0"/><path d="M114.14,121.84c-1-.9-1.42-2.3-1.42-3.64,0-1.4.46-2.84,1.47-3.8,1.12-1.06,2.74-1.4,4.28-1.41,1.59-.01,3.26.32,4.43,1.4,1.05.97,1.54,2.43,1.53,3.85-.01,1.78-.9,3.66-2.55,4.34-.71.29-1.5.34-2.27.39-1.91.11-4.05.15-5.48-1.13M115.04,117.05c-.12.38-.15.79-.14,1.19.02.59.15,1.18.45,1.69.76,1.26,2.46,1.66,3.92,1.45.76-.11,1.52-.36,2.08-.88.91-.84,1.09-2.27.71-3.45-.15-.47-.39-.92-.75-1.25-.43-.41-1.01-.62-1.59-.75-.91-.21-1.88-.22-2.76.1-.88.32-1.64,1.01-1.92,1.9Z" fill="#aad037" stroke-width="0"/><path d="M132.86,119.63c-.71-.42-1.59-.32-2.41-.21-.08.01-.17.02-.24.08-.12.09-.13.26-.13.41-.01,1.01-.02,2.02-.04,3.02-.71,0-1.42,0-2.13,0-.01-3.06-.02-6.11-.04-9.17,0-.15,0-.33.13-.42.08-.06.2-.07.3-.07,1.95,0,3.91,0,5.86,0,.61,0,1.24,0,1.82.21,1.22.43,2,1.8,1.84,3.09s-1.19,2.39-2.44,2.74c.87,1.2,1.75,2.4,2.62,3.6-.62.02-1.25.04-1.87.06-.81.03-1.45-.69-1.85-1.4-.4-.71-.74-1.52-1.44-1.93M135.69,116.21c-.03-.42-.37-.77-.76-.94-.39-.17-.82-.19-1.25-.2-1.08-.03-2.16-.04-3.23-.01-.17,0-.4.06-.4.23,0,.67.03,1.34.07,2.02,0,.05,0,.11.05.15.04.05.11.05.18.05,1.05,0,2.11,0,3.16,0,.48,0,.97,0,1.4-.2.44-.19.81-.62.77-1.09Z" fill="#aad037" stroke-width="0"/><path d="M102.54,119.42c-.13.11-.14.3-.14.46,0,.83.01,1.65.02,2.48,0,.41-.51.63-.92.6-.41-.03-.83-.17-1.22-.04-.03-3.1-.03-6.19-.02-9.29,0-.11,0-.23.09-.3.07-.06.17-.07.27-.07l5.72-.02c.6,0,1.21,0,1.79.17,1.21.37,2.11,1.56,2.15,2.82.03,1.26-.81,2.5-2,2.92-.68.25-1.43.24-2.15.23-1.07-.02-2.14-.03-3.2-.05-.13,0-.28,0-.38.08M107.81,116.99c.07-.12.08-.27.1-.41.04-.39.06-.82-.21-1.1-.25-.26-.64-.27-1-.28-1.36,0-2.73-.02-4.09-.02-.16,0-.2.21-.2.36,0,.57,0,1.14,0,1.71,0,.06,0,.12.04.17.05.07.15.08.24.08h3.28c.45.01.92.01,1.34-.13.2-.07.4-.18.51-.37Z" fill="#aad037" stroke-width="0"/><path d="M49.52,119.61c0,.37,0,.74,0,1.11,0,.12,0,.25.07.34.11.15.33.17.51.17,1.92,0,3.83-.02,5.75-.03.25,0,.46.23.53.47.07.25.02.51-.03.76-.03.17-.08.36-.23.45-.09.05-.19.05-.3.05-2.82,0-5.63,0-8.45,0,0-3.09,0-6.19,0-9.28,0-.08,0-.17.05-.25.08-.12.25-.13.39-.13,2.67,0,5.34,0,8,0,.13,0,.27,0,.36.1.07.08.07.2.07.31,0,.39-.01.78-.02,1.17,0,.07,0,.15-.06.2-.05.05-.13.06-.2.06-1.94.1-3.88.1-5.82.01-.33-.01-.61.28-.69.6s-.02.66.05.98c.03.14.06.28.18.36.09.07.22.07.34.07,1.53-.01,3.06-.03,4.6-.04.33,0,.59.3.66.63s-.02.65-.11.97c-.02.08-.05.17-.11.23-.08.06-.19.07-.29.07-1.55,0-3.11,0-4.66-.01-.17,0-.36,0-.48.12-.13.12-.13.32-.13.5Z" fill="#aad037" stroke-width="0"/><path d="M69.76,123c-1.03.02-2.15,0-2.98-.61-.81-.6-1.16-1.72-.93-2.71s.99-1.8,1.92-2.2c.22-.09.45-.17.62-.34.17-.17.24-.46.09-.64-.66-.76-.44-2.02.29-2.71s1.82-.88,2.81-.76c.85.1,1.73.44,2.2,1.16.45.68.43,1.6.08,2.33-.35.73-1.01,1.28-1.74,1.63.61.55,1.21,1.11,1.82,1.66.67-.4,1.22-1.02,1.54-1.74.14-.32.56-.45.9-.37.34.07.63.3.91.51.11.08.22.18.24.31.02.12-.05.24-.12.35-.47.72-1,1.39-1.58,2.03-.12.13.1.29.27.32.6.12,1.2.25,1.8.37l-.14,1.3c-.98.08-2.01.16-2.94-.18-.23-.09-.46-.2-.71-.23-.39-.06-.79.09-1.17.2-1.03.29-2.11.3-3.18.32M69.6,118.74c-.4.13-.81.27-1.14.53-.33.26-.57.68-.5,1.1.09.55.67.9,1.21,1.02.91.2,1.87,0,2.76-.29.05-.02.1-.03.13-.07.07-.09-.02-.22-.1-.3-.63-.62-1.25-1.24-1.88-1.86-.06-.06-.13-.13-.22-.15-.08-.02-.17,0-.25.04M71.8,114.57c-.51-.38-1.34-.18-1.62.38s.06,1.35.66,1.53c.26.08.54-.06.76-.22.31-.23.58-.58.58-.97,0-.28-.16-.55-.39-.72Z" fill="#aad037" stroke-width="0"/><path d="M7.63,116.23c-.38-.67-1.1-1.1-1.85-1.27-.75-.17-1.54-.12-2.3-.02-.44.06-.91.16-1.19.5-.28.34-.18.99.25,1.07,1.34.24,2.67.48,4.01.73.85.15,1.73.32,2.4.87.77.63,1.12,1.72.87,2.69-.24.97-1.05,1.76-2.01,2.02-.5.14-1.03.14-1.55.14-.72,0-1.44,0-2.16,0-1.03,0-2.1-.01-3.01-.49-.44-.24-.84-.6-1.02-1.07s-.08-1.06.32-1.38c.39-.31,1.01-.27,1.36.09,1.36,1.42,3.71,1.77,5.42.81.24-.13.49-.33.52-.6.04-.38-.37-.64-.73-.77-1.26-.46-2.63-.49-3.95-.72-.74-.13-1.5-.33-2.08-.8-1.16-.93-1.27-2.9-.22-3.95.92-.93,2.37-1.05,3.68-1.04,1.02,0,2.06.06,3.02.41s1.84,1.03,2.22,1.98c.06.14.09.32,0,.43-.05.06-.14.09-.22.11-.4.12-.8.25-1.2.37-.21.06-.48.1-.59-.09Z" fill="#aad037" stroke-width="0"/><path d="M26.42,113.71c0-.13,0-.27.1-.36.09-.09.23-.09.35-.09.5,0,.99,0,1.49,0,.08,0,.17,0,.23.06.08.07.08.18.08.28.02,2.73.04,5.46.05,8.19,0,.38,0,.78-.15,1.13-.72,0-1.44,0-2.16,0,0-3.07,0-6.14,0-9.21Z" fill="#aad037" stroke-width="0"/><path d="M141.26,113.28c3.27-.04,6.54-.03,9.8.05,0,.51,0,1.02,0,1.53,0,.14-.05.34-.19.33-.92-.02-1.85-.05-2.77-.07-.33,0-.77.09-.77.42,0,2.27,0,4.54,0,6.81,0,.17,0,.36-.13.47-.11.1-.27.1-.42.1-.57,0-1.14,0-1.71-.01l-.02-7.35c0-.09,0-.19-.06-.27-.07-.09-.2-.11-.32-.12-1.05-.09-2.11-.07-3.16.04-.34.04-.64-.27-.72-.6s0-.68.07-1.01c.02-.1.05-.21.14-.27.08-.06.18-.06.28-.06Z" fill="#aad037" stroke-width="0"/><path d="M15.43,122.61c0,.25-.34.33-.59.32-.52,0-1.03-.01-1.55-.02-.03-3.09-.03-6.17-.02-9.26,0-.11,0-.23.09-.31.08-.07.19-.08.29-.08h5.68c.61-.01,1.24-.01,1.82.17,1.2.37,2.09,1.57,2.11,2.82s-.82,2.48-2,2.9c-.67.24-1.41.23-2.12.22-1.07-.01-2.13-.03-3.2-.04-.16,0-.35,0-.45.13-.08.1-.08.23-.08.36v2.79M21,116.42c.03-.44-.15-.91-.54-1.12-.25-.13-.54-.14-.82-.14-1.29,0-2.59-.01-3.88-.02-.1,0-.21,0-.27.08-.06.06-.06.16-.06.24,0,.59,0,1.19,0,1.78,0,.08,0,.18.07.23.05.03.11.03.16.03,1.22,0,2.44-.01,3.66-.02.55,0,1.18-.05,1.49-.5.12-.17.17-.37.18-.57Z" fill="#aad037" stroke-width="0"/><path d="M68.98,96.83c.21.2.16.57-.02.79-.18.23-.46.35-.73.46-1.41-1.43-3.62-2.02-5.56-1.49-.41.11-.81.28-1.11.58s-.45.77-.3,1.16c.15.38.54.6.93.75,1.34.49,2.81.34,4.22.56,1.41.22,2.93,1.06,3.13,2.47.14,1.01-.48,2.01-1.33,2.56-.85.56-1.89.74-2.91.8-1.12.07-2.26.01-3.32-.34-1.06-.35-2.05-1.03-2.63-1.98.13-.24.26-.5.48-.66.22-.16.57-.19.75.01,1.58,1.66,4.25,2.19,6.34,1.24.55-.25,1.12-.69,1.12-1.3,0-.43-.32-.81-.7-1.02-.38-.21-.82-.27-1.25-.33-1.04-.15-2.08-.3-3.12-.45-1.16-.17-2.48-.43-3.06-1.45-.57-1-.12-2.34.77-3.07.89-.73,2.09-.95,3.24-.97,1.83-.04,3.76.4,5.06,1.67Z" fill="#aad037" stroke-width="0"/><path d="M91.29,102.73l-4.37-.04c-.56,0-1.01.49-1.27.99-.26.5-.44,1.06-.85,1.45s-1.18.47-1.48,0c1.56-3.05,3.12-6.09,4.67-9.14.08-.16.16-.32.29-.44.39-.39,1.07-.32,1.51,0s.71.83.95,1.33l4.18,8.32c-.5.4-1.29.2-1.74-.26-.45-.46-.65-1.1-.83-1.71-.12-.41-.65-.49-1.08-.49M90.97,101.45c.14,0,.29,0,.39-.11-.69-1.39-1.37-2.77-2.06-4.16-.02-.04-.04-.09-.09-.11-.1-.05-.21.07-.26.17-.7,1.4-1.39,2.8-2.06,4.21,1.36,0,2.72-.01,4.08-.02Z" fill="#aad037" stroke-width="0"/><path d="M82.96,96.72c-1.54.04-3.08.09-4.62.13,0,2.69,0,5.37,0,8.06,0,.1,0,.2-.06.28-.06.08-.17.1-.26.12-.5.11-1.24.03-1.24-.48v-8.05c-1.06,0-2.14.02-3.21.02-.38,0-.77,0-1.1-.19-.32-.19-.52-.65-.3-.96.19-.27.57-.29.9-.29,3.1,0,6.2,0,9.3,0,.15,0,.32,0,.43.1.34.28-.1.89.15,1.25Z" fill="#aad037" stroke-width="0"/><path d="M92.92,20.06c-2.31,1.93-4.61,3.88-6.89,5.84-.43.37-1.06.39-1.63.39-6.7,0-13.4,0-20.1-.01-1.03,0-2.06,0-3.06.24.44-3.03,2.91-5.66,5.91-6.28,1-.21,2.04-.21,3.06-.21,7.57,0,15.14.02,22.7.03Z" fill="#aad037" stroke-width="0"/><path d="M64.67,56.64c.29-.25.59-.51.96-.62.27-.08.55-.08.83-.08,7.81-.01,15.62-.02,23.43-.03-.66,2.82-2.8,5.37-5.61,6.04-1.01.24-2.07.24-3.11.24-7.64,0-15.28-.01-22.92-.02,2.14-1.84,4.27-3.68,6.41-5.52Z" fill="#aad037" stroke-width="0"/><path d="M42.48,100.12c0,1.34-.02,2.78-.84,3.84-.98,1.27-2.78,1.55-4.39,1.53-1.41-.02-2.95-.26-3.91-1.3-.89-.97-1.05-2.4-1-3.71.06-1.32.29-2.65.02-3.94-.09-.44.03-.95.42-1.18.38-.23,1,.03,1,.47,0,1.57,0,3.15-.01,4.72,0,.87.01,1.8.52,2.5.63.89,1.84,1.15,2.94,1.18,1.29.03,2.78-.28,3.4-1.42.34-.63.34-1.38.33-2.09-.02-1.62-.04-3.24-.06-4.86,0-.5.72-.59,1.22-.5.12.02.26.06.32.17.03.06.03.13.03.19,0,1.47.01,2.93.02,4.4Z" fill="#aad037" stroke-width="0"/><path d="M86.83,38.04c3.24.12,6.41,2.13,7.64,5.13,1.23,3,.27,6.83-2.41,8.67-1.04-3.81-4.45-6.87-8.36-7.47-.91-.14-1.84-.16-2.77-.17-.79-.01-1.58-.03-2.37-.04,2.15-1.82,4.29-3.64,6.44-5.46.23-.19.46-.39.74-.51.34-.14.71-.15,1.08-.14Z" fill="#aad037" stroke-width="0"/><path d="M69.91,38.01c.9.02,1.79.04,2.69.06-2.25,1.89-4.49,3.78-6.74,5.67-.56.47-1.37.51-2.1.44-3.14-.31-6.11-2.38-7.22-5.33-1.11-2.95-.12-6.64,2.48-8.42,1.08,3.57,4.08,6.6,7.74,7.33,1.04.2,2.1.23,3.15.25Z" fill="#aad037" stroke-width="0"/><path d="M102.44,96.77c-.18,0-.4.02-.49.17-.05.08-.05.19-.05.29-.01,2.67-.02,5.34-.04,8.01-.24.37-.85.26-1.11-.1-.26-.35-.27-.82-.27-1.26,0-2.24.02-4.48.03-6.73,0-.13,0-.27-.1-.35-.08-.08-.21-.08-.33-.07-.94.03-1.87.07-2.81.1-.33.01-.67.02-.98-.11-.3-.13-.55-.45-.49-.78.1-.5.75-.61,1.26-.61,2.74,0,5.48,0,8.22.01.39,0,.8,0,1.12.22s.48.72.21,1c-.18.19-.48.2-.74.2-1.15,0-2.29,0-3.44,0Z" fill="#aad037" stroke-width="0"/><path d="M56,96.71c.23.37.34.8.39,1.23.07.67-.03,1.37-.39,1.94-.81,1.25-2.56,1.37-4.04,1.37-1.04,0-2.08,0-3.12-.01-.16,0-.34,0-.44.13-.08.1-.08.23-.08.35l.02,3.15c0,.48-.7.55-1.17.45-.12-.03-.24-.06-.32-.15-.07-.09-.07-.21-.07-.31,0-3.06,0-6.13,0-9.19,0-.08,0-.18.06-.23.06-.06.16-.07.25-.07l5.16.04c1.39,0,3.01.15,3.75,1.32M54.78,99.03c.31-.47.28-1.14-.07-1.57-.5-.62-1.41-.67-2.21-.67-1.32,0-2.64,0-3.96,0-.06,0-.12,0-.16.04-.05.04-.06.12-.06.19,0,.86,0,1.72.01,2.59,0,.08.01.18.09.22.03.01.06.01.1.01,1.29,0,2.58,0,3.87,0,.44,0,.88,0,1.31-.11s.84-.33,1.08-.7Z" fill="#aad037" stroke-width="0"/><path d="M111.23,101.36c.01.85.03,1.7.04,2.55,2.37,0,4.74,0,7.12,0,.12,0,.25,0,.33.1.04.05.05.11.06.17.08.47,0,1.15-.48,1.15-2.68,0-5.36,0-8.03-.01-.11,0-.24,0-.32-.08-.09-.09-.1-.23-.1-.36,0-3.02,0-6.04-.01-9.06,0-.14,0-.3.12-.39.08-.06.19-.07.29-.07,2.54,0,5.09,0,7.63,0,.26,0,.55,0,.74.19.3.29.14.84-.21,1.07-.35.23-.79.23-1.21.22-1.81-.03-3.61-.06-5.42-.09-.18,0-.39.01-.48.16-.05.08-.05.19-.05.29,0,.64,0,1.29,0,1.93,0,.09,0,.2.07.27.07.08.19.08.3.08,1.52-.02,3.05-.03,4.57-.05.31,0,.63,0,.91.12.28.12.51.41.47.72-.07.52-.75.64-1.27.64l-4.52-.05c-.16,0-.35,0-.46.13-.08.1-.09.25-.08.38Z" fill="#aad037" stroke-width="0"/><path d="M43.96,14.71C53.33,3.52,68.96-2.06,83.3.69c14.07,2.7,26.36,13.29,31.1,26.81,4.74,13.52,1.77,29.47-7.54,40.37-9.3,10.9-24.58,16.35-38.68,13.78-14.1-2.56-26.49-13.03-31.37-26.51-4.88-13.47-2.06-29.45,7.14-40.44M89.71,53.11c-.94.37-1.97.37-2.98.37-7.13,0-14.25-.01-21.38-.02-.59,0-1.09.4-1.54.78-4.09,3.48-8.19,6.95-12.28,10.43,9.53,0,19.07.02,28.6.03,1.57,0,3.16,0,4.69-.38,3.76-.95,6.73-4.33,7.38-8.16.14-.81.25-1.76.95-2.19,3.56-2.23,5.1-7.07,3.77-11.05-1.33-3.98-5.24-6.87-9.41-7.3-1.22-.12-2.55-.02-3.49.76-4.01,3.38-8.02,6.77-12.03,10.15,2.32.33,4.67.08,7.02.02,2.34-.06,4.76.08,6.87,1.11,2.11,1.02,3.84,3.11,3.83,5.45M79.21,35.61c-2.64.01-5.27.03-7.91.04-1.8,0-3.65.01-5.33-.63-2.31-.87-4.11-2.97-4.61-5.39-.04-.19-.07-.4.05-.55.11-.15.32-.19.51-.21,1.33-.15,2.67-.15,4.01-.15,6.57,0,13.15.01,19.72.02.69,0,1.28-.47,1.81-.92,4.02-3.42,8.05-6.83,12.07-10.25-9.59,0-19.17,0-28.76-.01-1.4,0-2.81,0-4.18.29-3.86.83-7.06,4.19-7.69,8.09-.14.84-.24,1.82-.96,2.27-3.72,2.32-5.22,7.49-3.63,11.58,1.6,4.09,5.94,6.83,10.32,6.87.5,0,1.01-.02,1.47-.22.4-.17.74-.45,1.07-.73,4.01-3.37,8.02-6.74,12.03-10.12Z" fill="#aad037" stroke-width="0"/></g></svg>