<?xml version="1.0" encoding="UTF-8"?><svg xmlns="http://www.w3.org/2000/svg" width="965.42" height="698.34" viewBox="0 0 965.42 698.34"><g id="e"><g id="f"><g id="g"><path d="m260.42,199.65l33.97-22.64c2.51-1.67,3.89-4.6,3.58-7.6l-14.87-143.92c-.03-.31-.36-.51-.65-.38-5.49,2.35-58.21,43.51-42.41,31.01" fill="none" stroke="#231f20" stroke-miterlimit="10" stroke-width="40"/></g></g><polygon points="142.08 496.53 136.7 488.49 107.91 481.12 103.04 510.22 108.79 518.81 142.08 496.53" fill="#231f20"/><polygon points="113.92 453.64 85.37 447.62 80.26 475.37 92.55 493.72 101.04 470.09 126.2 471.99 113.92 453.64" fill="#231f20"/><path d="m119.84,499.35l52.52,78.96c.14.21.14.48-.02.69-3.65,4.79-44.71,60.44.25,87.43,0,0,31.72,18.37,59.09-8.54.85-.84,1.54-1.84,2.06-2.92l10.77-22.15s6.21-10.68,17.33-16.32,42.82-18.59,49.06-41.37l1.05-19.11s-3-5.9,15.95-28.73c1.07-1.29,1.49-3,1.12-4.64-2.19-9.92-8.16-45.38,17.45-49.75.46-.08.75-.55.58-.98-1.75-4.46-8.46-26.66,12.04-66.16l1.55-22.32s-2.73-10.24,34.48-59.05c0,0,10.24-13.31,2.73-29.7l-8.53-28.67s-2.05-9.56-12.63-12.29c-9.52-2.46-81.74-29.5-96.15-34.9-1.65-.62-3.17-1.54-4.49-2.71l-13.95-12.45c-2.3-2.05-4.37-4.35-6.17-6.85l-21.36-29.64s-8.26-9.7-19.4-13.29c-9.91-3.2-42.26-18.37-49.29-21.69-.99-.47-2.05-.76-3.14-.86-1.25-.11-3.05-.19-4.97-.02-1.14.1-2.2.67-2.91,1.57l-76.17,97.5c-.77.98-1.41,2.04-1.92,3.17-6.69,14.69-54.34,119.87-50.42,125.75l51.56,76.36" fill="none" stroke="#231f20" stroke-miterlimit="10" stroke-width="40"/><polygon points="103.4 437.96 90.04 418 56.75 440.28 69.74 459.69 77.96 436.07 103.4 437.96" fill="#231f20"/><g id="h"><text transform="translate(435.38 332.17) scale(.95) skewX(-18)" fill="#231f20" font-family="PottaOne-Regular, &apos;Potta One&apos;" font-size="98.49"><tspan x="0" y="0">CA</tspan><tspan x="151.28" y="0" letter-spacing="-.04em">R</tspan><tspan x="225.15" y="0">OLINA</tspan><tspan x="0" y="95.25">RE</tspan><tspan x="140.15" y="95.25" letter-spacing="-.07em">A</tspan><tspan x="209.09" y="95.25">PER</tspan><tspan x="0" y="190.49" letter-spacing="-.04em">R</tspan><tspan x="73.87" y="190.49">OAD</tspan><tspan x="0" y="285.73">RACE</tspan></text></g></g><g id="i"><g id="j"><g id="k"><path d="m260.42,199.65l33.97-22.64c2.51-1.67,3.89-4.6,3.58-7.6l-14.87-143.92c-.03-.31-.36-.51-.65-.38-5.49,2.35-29.15,21.43-45.34,33.43" fill="none" stroke="#add136" stroke-linecap="round" stroke-miterlimit="10" stroke-width="40"/></g></g><path d="m119.84,499.35l52.52,78.96c.14.21.14.48-.02.69-3.65,4.79-44.71,60.44.25,87.43,0,0,31.72,18.37,59.09-8.54.85-.84,1.54-1.84,2.06-2.92l10.77-22.15s6.21-10.68,17.33-16.32,42.82-18.59,49.06-41.37l1.05-19.11s-3-5.9,15.95-28.73c1.07-1.29,1.49-3,1.12-4.64-2.19-9.92-8.16-45.38,17.45-49.75.46-.08.75-.55.58-.98-1.75-4.46-8.46-26.66,12.04-66.16l1.55-22.32s-2.73-10.24,34.48-59.05c0,0,10.24-13.31,2.73-29.7l-8.53-28.67s-2.05-9.56-12.63-12.29c-9.52-2.46-81.74-29.5-96.15-34.9-1.65-.62-3.17-1.54-4.49-2.71l-13.95-12.45c-2.3-2.05-4.37-4.35-6.17-6.85l-21.36-29.64s-8.26-9.7-19.4-13.29c-9.91-3.2-42.26-18.37-49.29-21.69-.99-.47-2.05-.76-3.14-.86-1.25-.11-3.05-.19-4.97-.02-1.14.1-2.2.67-2.91,1.57l-76.17,97.5c-.77.98-1.41,2.04-1.92,3.17-6.69,14.69-54.34,119.87-50.42,125.75l51.56,76.36" fill="none" stroke="#e73325" stroke-miterlimit="10" stroke-width="40"/><polygon points="103.4 437.96 90.04 418 56.75 440.28 69.74 459.69 77.96 436.07 103.4 437.96" fill="#e83427"/><polygon points="142.08 496.53 136.7 488.49 107.91 481.12 103.04 510.22 108.79 518.81 142.08 496.53" fill="#e83427"/><polygon id="l" points="113.92 453.64 85.37 447.62 80.26 475.37 92.55 493.72 101.04 470.09 126.2 471.99 113.92 453.64" fill="#e83427"/><g id="m"><text transform="translate(435.38 332.17) scale(.95) skewX(-18)" fill="#e83427" font-family="PottaOne-Regular, &apos;Potta One&apos;" font-size="98.49"><tspan x="0" y="0">CA</tspan><tspan x="151.28" y="0" letter-spacing="-.04em">R</tspan><tspan x="225.15" y="0">OLINA</tspan><tspan x="0" y="95.25">RE</tspan><tspan x="140.15" y="95.25" letter-spacing="-.07em">A</tspan><tspan x="209.09" y="95.25">PER</tspan><tspan x="0" y="190.49" letter-spacing="-.04em">R</tspan><tspan x="73.87" y="190.49">OAD</tspan><tspan x="0" y="285.73">RACE</tspan></text></g></g></svg>