<?xml version="1.0" encoding="UTF-8"?><svg id="d" xmlns="http://www.w3.org/2000/svg" width="965.42" height="698.34" viewBox="0 0 965.42 698.34"><g id="e"><g id="f"><path d="m260.42,199.65l33.97-22.64c2.51-1.67,3.89-4.6,3.58-7.6l-14.87-143.92c-.03-.31-.36-.51-.65-.38-5.49,2.35-29.15,21.43-45.34,33.43" fill="none" stroke="#add136" stroke-linecap="round" stroke-miterlimit="10" stroke-width="40"/></g></g><path d="m119.84,499.35l52.52,78.96c.14.21.14.48-.02.69-3.65,4.79-44.71,60.44.25,87.43,0,0,31.72,18.37,59.09-8.54.85-.84,1.54-1.84,2.06-2.92l10.77-22.15s6.21-10.68,17.33-16.32,42.82-18.59,49.06-41.37l1.05-19.11s-3-5.9,15.95-28.73c1.07-1.29,1.49-3,1.12-4.64-2.19-9.92-8.16-45.38,17.45-49.75.46-.08.75-.55.58-.98-1.75-4.46-8.46-26.66,12.04-66.16l1.55-22.32s-2.73-10.24,34.48-59.05c0,0,10.24-13.31,2.73-29.7l-8.53-28.67s-2.05-9.56-12.63-12.29c-9.52-2.46-81.74-29.5-96.15-34.9-1.65-.62-3.17-1.54-4.49-2.71l-13.95-12.45c-2.3-2.05-4.37-4.35-6.17-6.85l-21.36-29.64s-8.26-9.7-19.4-13.29c-9.91-3.2-42.26-18.37-49.29-21.69-.99-.47-2.05-.76-3.14-.86-1.25-.11-3.05-.19-4.97-.02-1.14.1-2.2.67-2.91,1.57l-76.17,97.5c-.77.98-1.41,2.04-1.92,3.17-6.69,14.69-54.34,119.87-50.42,125.75l51.56,76.36" fill="none" stroke="#e73325" stroke-miterlimit="10" stroke-width="40"/><polygon points="103.4 437.96 90.04 418 56.75 440.28 69.74 459.69 77.96 436.07 103.4 437.96" fill="#e83427"/><polygon points="142.08 496.53 136.7 488.49 107.91 481.12 103.04 510.22 108.79 518.81 142.08 496.53" fill="#e83427"/><polygon id="g" points="113.92 453.64 85.37 447.62 80.26 475.37 92.55 493.72 101.04 470.09 126.2 471.99 113.92 453.64" fill="#e83427"/><g id="h"><path d="m513.86,276c-1.5,2.31-3.2,4-5.11,5.06-1.91,1.06-3.67,1.48-5.28,1.26-1.62-.22-2.78-1.04-3.5-2.48,1.33-.81,1.94-1.7,1.85-2.67-.09-.97-.81-1.78-2.16-2.44-1.35-.66-3.27-.89-5.77-.7-2.54.13-5.31.94-8.33,2.44s-5.82,3.65-8.42,6.46c-2.6,2.81-4.67,6.31-6.22,10.49-1.59,4.31-2.29,7.81-2.1,10.49.19,2.69.85,4.73,1.99,6.14s2.42,2.4,3.85,3c1.43.59,2.61.98,3.55,1.17,1.23.25,2.69.42,4.38.52,1.69.09,3.45-.01,5.3-.33,1.85-.31,3.52-.84,5.01-1.59,1.35-.69,3.05-1.61,5.11-2.76,2.06-1.15,4.11-2.45,6.13-3.89,2.03-1.44,3.66-2.9,4.9-4.4,1.66,1.44,2.32,3.47,2,6.09-.32,2.62-1.47,5.43-3.44,8.43-1.97,3-4.62,5.82-7.95,8.48-3.33,2.66-7.23,4.81-11.7,6.46-4.47,1.65-9.37,2.42-14.7,2.29-2.48-.06-5.18-.53-8.11-1.41-2.93-.87-5.71-2.26-8.34-4.17-2.63-1.9-4.76-4.43-6.39-7.59-1.63-3.15-2.37-7.07-2.22-11.76.15-4.68,1.57-10.21,4.26-16.58,2.53-6.06,5.74-11.27,9.63-15.64,3.89-4.37,8.08-7.95,12.57-10.72,4.49-2.78,8.98-4.87,13.47-6.28,4.49-1.4,8.58-2.14,12.28-2.2,3.72-.12,6.74.44,9.05,1.69,2.31,1.25,3.99,2.86,5.04,4.82s1.51,4.06,1.38,6.28c-.13,2.22-.8,4.23-2.01,6.04Z" fill="#e83427"/><path d="m574.47,314.6c.16,1.81.66,3.54,1.5,5.2.83,1.66,1.62,2.89,2.36,3.7-2.51,3.12-5.1,5.4-7.75,6.84-2.2,1.19-4.36,1.87-6.48,2.06-1.17.12-2.42.03-3.75-.28s-2.53-1.2-3.58-2.67c-1.05-1.47-1.8-3.82-2.25-7.07-.09-1.06-.82-1.81-2.17-2.25-1.36-.44-2.86-.7-4.52-.8-1.66-.09-3.01-.14-4.08-.14s-2.37.03-3.92.09c-1.55.06-3.02.31-4.41.75-1.39.44-2.4,1.22-3.01,2.34-.58,1-.94,2.03-1.1,3.09-.16,1.06.02,1.75.55,2.06-1.39,1-2.72,1.87-3.99,2.62-1.27.75-2.51,1.34-3.72,1.78-1.49.56-2.94.84-4.35.84s-2.88-.31-4.43-.94c-.71-.31-1.37-.87-1.98-1.69-.61-.81-.84-1.93-.68-3.37.15-1.44.99-3.25,2.51-5.43.12-.19.76-1.19,1.91-3,1.15-1.81,2.66-4.2,4.53-7.17,1.87-2.96,3.94-6.26,6.21-9.88,2.27-3.62,4.6-7.35,7.01-11.19,2.4-3.84,4.73-7.54,6.98-11.1,2.25-3.56,4.28-6.77,6.09-9.65,1.81-2.87,3.76-5.99,5.85-9.37.66-.31,1.83-.7,3.52-1.17,1.68-.47,3.41-.73,5.18-.8,1.98-.12,3.78.13,5.42.75,1.64.63,2.65,1.87,3.04,3.75.19.75.38,2.19.57,4.31.18,2.12.38,4.68.59,7.68.21,3,.42,6.2.63,9.6.21,3.4.41,6.78.6,10.12.19,3.34.35,6.45.48,9.32.13,2.87.25,5.29.36,7.26.11,1.97.2,3.23.27,3.79Zm-25.58-12.08c1.66-.12,2.77-.59,3.31-1.4.54-.81,1.02-1.75,1.43-2.81.22-.69.39-1.53.49-2.53.1-1,.08-1.89-.07-2.67-.15-.78-.54-1.17-1.17-1.17-.88,0-2.02.61-3.45,1.83-1.43,1.22-2.4,2.45-2.93,3.7-.57,1.19-.84,2.34-.8,3.47.04,1.12,1.1,1.66,3.18,1.59Z" fill="#e83427"/><path d="m644.25,302.51c-.27.06-.74.41-1.41,1.03-.67.62-1.21,1.28-1.62,1.97-.64,1-.81,1.81-.51,2.44.8,1.56,1.9,3.39,3.28,5.48,1.38,2.09,2.81,4.07,4.3,5.95,1.48,1.87,2.81,3.31,3.99,4.31-2.1,3-4.64,5.39-7.62,7.17-2.98,1.78-5.93,2.64-8.85,2.58-2.92-.06-5.36-1.37-7.34-3.93-.25-.37-.7-1.2-1.35-2.48-.65-1.28-1.37-2.79-2.18-4.54-.81-1.75-1.61-3.5-2.42-5.25-.81-1.75-1.5-3.28-2.07-4.59-.57-1.31-.93-2.12-1.08-2.44-.68-1.56-1.69-1.9-3.04-1.03-1.35.87-2.59,2.69-3.73,5.43-.65,1.62-1.24,3.48-1.76,5.57-.53,2.09-.88,3.95-1.06,5.57-.18,1.62-.14,2.59.13,2.9-1.64,1-3.56,1.94-5.78,2.81-2.22.87-4.61,1.41-7.17,1.59-.96.06-1.97-.19-3.03-.75-1.07-.56-1.85-1.48-2.33-2.76-.49-1.28-.45-2.89.12-4.82.16-.5.57-1.81,1.23-3.93.66-2.12,1.47-4.73,2.45-7.82.97-3.09,2-6.29,3.07-9.6,1.08-3.31,2.07-6.43,3-9.37.92-2.94,1.97-6.21,3.15-9.84,1.2-3.68,2.1-6.76,2.72-9.23.61-2.47.48-4.36-.41-5.67-.8-1.19-1.13-2.9-1-5.15.14-2.25.56-4.37,1.27-6.37.23.06.95.14,2.17.23,1.22.09,2.4.2,3.55.33.81,0,1.99-.02,3.53-.05,1.54-.03,3.19-.08,4.96-.14,1.77-.06,3.41-.11,4.92-.14,1.51-.03,2.65-.08,3.42-.14.56,0,1.61-.01,3.15-.05,1.54-.03,3.34-.05,5.4-.05s4.15.02,6.26.05c2.11.03,4.05.11,5.83.23,1.77.13,3.12.28,4.06.47,3.88.75,6.62,2.12,8.21,4.12,1.6,2,2.42,4.4,2.48,7.21.06,2.81-.36,5.87-1.25,9.18-.79,2.81-2.05,5.75-3.8,8.8-1.74,3.06-3.95,5.9-6.61,8.52s-5.74,4.68-9.22,6.18Zm-21-20.14c-.65,2-.66,3.48-.04,4.45.62.97,1.31,1.55,2.06,1.73,1.04.25,2.47.27,4.29.05,1.82-.22,3.71-.66,5.67-1.31,1.96-.66,3.72-1.51,5.29-2.58,1.56-1.06,2.57-2.28,3.01-3.65.59-1.81.29-3.2-.89-4.17-1.18-.97-2.88-1.58-5.07-1.83-2.2-.25-4.48-.19-6.85.19-1.83.25-3.4,1.03-4.69,2.34-1.3,1.31-2.22,2.9-2.77,4.78Z" fill="#e83427"/><path d="m738.61,292.02c-1.26,5.81-3.2,10.96-5.82,15.46-2.62,4.5-5.66,8.38-9.13,11.66-3.47,3.28-7.17,5.96-11.1,8.06-3.93,2.09-7.88,3.65-11.87,4.68-3.99,1.03-7.76,1.55-11.32,1.55s-7.03-.47-10.41-1.41c-3.38-.94-6.39-2.4-9.01-4.4-2.63-2-4.66-4.59-6.09-7.77-1.43-3.18-2.03-6.98-1.78-11.38.24-4.4,1.62-9.51,4.13-15.32,2.12-5,4.89-9.66,8.3-14,3.41-4.34,7.23-8.12,11.46-11.33,4.23-3.22,8.69-5.71,13.39-7.49,4.7-1.78,9.37-2.61,14.01-2.48.31,0,.86-.23,1.63-.7.78-.47,1.77-.92,2.97-1.36,1.2-.44,2.54-.59,3.99-.47,2.73.25,5.32,1.41,7.77,3.47,2.45,2.06,4.53,4.79,6.24,8.2,1.7,3.4,2.82,7.26,3.36,11.57.54,4.31.29,8.8-.73,13.49Zm-43.32,24.07c2.21-.06,4.38-.37,6.53-.94s4.25-1.59,6.3-3.09c2.05-1.5,4-3.62,5.86-6.37,1.86-2.75,3.52-6.28,4.99-10.58,1.04-3,1.32-5.9.86-8.71-.46-2.81-1.59-5.2-3.38-7.17-1.8-1.97-4.21-3.11-7.23-3.42-3.25-.37-6.23-.05-8.94.98-2.71,1.03-5.15,2.53-7.32,4.5-2.17,1.97-4.06,4.17-5.66,6.6-1.6,2.44-2.9,4.9-3.9,7.4-1.77,4.31-2.52,7.84-2.22,10.58.29,2.75,1.19,4.87,2.71,6.37,1.51,1.5,3.32,2.53,5.41,3.09,2.1.56,4.09.81,5.99.75Z" fill="#e83427"/><path d="m792.18,313.66c.59.69.69,2.05.32,4.07-.38,2.03-1.17,4.14-2.38,6.32-.96,1.81-2.21,3.54-3.75,5.2-1.54,1.66-3.17,2.64-4.89,2.95-.67.12-2.13.2-4.38.23-2.26.03-4.9.03-7.92,0-3.02-.03-6.07-.06-9.15-.09-3.08-.03-5.83-.03-8.24,0-2.42.03-4.14.11-5.18.23-2.7.44-5.36.59-7.97.47-2.62-.13-4.35-.5-5.21-1.12.72-.87,1.53-2.2,2.42-3.98.89-1.78,1.77-3.73,2.65-5.85.88-2.12,1.6-4.15,2.17-6.09l18.37-57.7c.73-.12,1.94-.16,3.64-.09,1.7.06,3.43.34,5.21.84,1.96.5,3.56,1.44,4.8,2.81,1.24,1.37,1.7,3.12,1.39,5.25-.1.69-.45,2.05-1.04,4.07-.6,2.03-1.33,4.42-2.19,7.17-.86,2.75-1.78,5.56-2.74,8.43-.96,2.87-1.85,5.56-2.66,8.06-.81,2.5-1.76,5.31-2.83,8.43-.83,2.37-1.28,4.51-1.34,6.42-.06,1.9.27,3.39.99,4.45.55.81,1.36,1.38,2.45,1.69,1.08.31,2.48.53,4.19.66.73.06,1.9.06,3.51,0,1.61-.06,3.41-.17,5.4-.33,1.99-.16,3.97-.36,5.96-.61,1.99-.25,3.75-.53,5.29-.84,1.54-.31,2.58-.66,3.14-1.03Z" fill="#e83427"/><path d="m803.4,333.05c-2.52-.5-3.83-2.31-3.9-5.43-.08-3.12.63-6.99,2.14-11.62.18-.56.62-1.97,1.32-4.21.7-2.25,1.58-5.04,2.63-8.38,1.05-3.34,2.2-6.95,3.42-10.82,1.23-3.87,2.44-7.74,3.63-11.62,1.2-3.87,2.29-7.45,3.3-10.73,1-3.28,1.82-5.98,2.45-8.1.63-2.12.98-3.4,1.06-3.84,1-.19,2.46-.23,4.4-.14s3.89.41,5.88.94c1.98.53,3.59,1.41,4.81,2.62,1.23,1.22,1.62,2.89,1.18,5.01-.2,1-.66,2.7-1.38,5.11-.72,2.4-1.6,5.25-2.63,8.52-1.03,3.28-2.15,6.76-3.35,10.44-1.2,3.69-2.38,7.32-3.54,10.91-1.17,3.59-2.24,6.9-3.23,9.93-.98,3.03-1.79,5.56-2.42,7.59-.63,2.03-.98,3.26-1.06,3.7-.3,1.31-.36,2.26-.18,2.86.18.59.35,1.33.5,2.2-2.11,1.69-4.49,3.06-7.15,4.12-2.66,1.06-5.29,1.37-7.89.94Z" fill="#e83427"/><path d="m907.47,266.73c-.22,1.06-.73,2.86-1.52,5.39-.79,2.53-1.75,5.54-2.89,9.04-1.14,3.5-2.33,7.18-3.59,11.05s-2.52,7.71-3.79,11.52-2.43,7.27-3.47,10.4c-1.05,3.12-1.89,5.67-2.53,7.63s-.97,3.08-.99,3.32c-.04.5-.39,1.3-1.06,2.39-.67,1.09-1.5,2.12-2.5,3.09-1,.97-2.06,1.55-3.19,1.73-1.08.25-2.47.26-4.18.05-1.71-.22-3.33-.72-4.85-1.5-1.53-.78-2.58-1.92-3.15-3.42-.34-.87-.88-2.14-1.62-3.79-.74-1.65-1.56-3.47-2.45-5.43-.89-1.97-1.77-3.87-2.64-5.71-.87-1.84-1.59-3.43-2.15-4.78-.56-1.34-.92-2.17-1.07-2.48-.28-.87-.91-1.76-1.9-2.67-.99-.9-1.89-1.23-2.72-.98-.83.25-1.64,1.02-2.43,2.29-.79,1.28-1.48,2.64-2.07,4.07-.43.94-.95,2.36-1.57,4.26-.62,1.91-1.24,3.86-1.86,5.85-.62,2-1.16,3.62-1.63,4.87-.77,2.19-.77,4.28.02,6.28-.6.31-1.76.8-3.47,1.45-1.71.66-3.49,1.23-5.34,1.73-1.85.5-3.36.72-4.52.66-1.96-.13-3.39-1.16-4.29-3.09-.9-1.94-.92-4.34-.04-7.21.18-.56.68-2.14,1.49-4.73.81-2.59,1.83-5.82,3.06-9.7,1.23-3.87,2.57-8.06,4.03-12.55s2.89-8.95,4.29-13.35c1.4-4.4,2.68-8.43,3.83-12.08,1.15-3.65,2.44-7.66,3.86-12.04,3.85-.12,6.97.16,9.37.84,2.4.69,4.18,1.94,5.34,3.75.53.69,1.22,1.91,2.09,3.65.87,1.75,1.8,3.73,2.8,5.95,1,2.22,1.97,4.42,2.91,6.6.94,2.19,1.77,4.11,2.48,5.76.71,1.66,1.17,2.73,1.39,3.23.59,1.25,1.29,2.23,2.09,2.95.8.72,1.58.95,2.35.7,1.66-.5,3.09-2.59,4.29-6.28l8.64-27.16c.73-.12,1.94-.16,3.64-.09,1.7.06,3.43.34,5.21.84,1.96.5,3.62,1.34,4.99,2.53,1.36,1.19,1.8,2.9,1.32,5.15Z" fill="#e83427"/><path d="m957.58,314.6c.16,1.81.66,3.54,1.5,5.2.83,1.66,1.62,2.89,2.36,3.7-2.51,3.12-5.1,5.4-7.75,6.84-2.2,1.19-4.36,1.87-6.48,2.06-1.17.12-2.42.03-3.75-.28s-2.53-1.2-3.58-2.67c-1.05-1.47-1.8-3.82-2.25-7.07-.09-1.06-.82-1.81-2.17-2.25-1.36-.44-2.86-.7-4.52-.8-1.66-.09-3.01-.14-4.08-.14s-2.37.03-3.92.09c-1.55.06-3.02.31-4.41.75-1.39.44-2.4,1.22-3.01,2.34-.58,1-.94,2.03-1.1,3.09-.16,1.06.02,1.75.55,2.06-1.39,1-2.72,1.87-3.99,2.62-1.27.75-2.51,1.34-3.72,1.78-1.49.56-2.94.84-4.35.84s-2.88-.31-4.43-.94c-.71-.31-1.37-.87-1.98-1.69-.61-.81-.84-1.93-.68-3.37.15-1.44.99-3.25,2.51-5.43.12-.19.76-1.19,1.91-3,1.15-1.81,2.66-4.2,4.53-7.17,1.87-2.96,3.94-6.26,6.21-9.88,2.27-3.62,4.6-7.35,7.01-11.19,2.4-3.84,4.73-7.54,6.98-11.1,2.25-3.56,4.28-6.77,6.09-9.65,1.81-2.87,3.76-5.99,5.85-9.37.66-.31,1.83-.7,3.52-1.17,1.68-.47,3.41-.73,5.18-.8,1.98-.12,3.78.13,5.42.75,1.64.63,2.65,1.87,3.04,3.75.19.75.38,2.19.57,4.31.18,2.12.38,4.68.59,7.68.21,3,.42,6.2.63,9.6.21,3.4.41,6.78.6,10.12.19,3.34.35,6.45.48,9.32.13,2.87.25,5.29.36,7.26.11,1.97.2,3.23.27,3.79Zm-25.58-12.08c1.66-.12,2.77-.59,3.31-1.4.54-.81,1.02-1.75,1.43-2.81.22-.69.39-1.53.49-2.53.1-1,.08-1.89-.07-2.67-.15-.78-.54-1.17-1.17-1.17-.88,0-2.02.61-3.45,1.83-1.43,1.22-2.4,2.45-2.93,3.7-.57,1.19-.84,2.34-.8,3.47.04,1.12,1.1,1.66,3.18,1.59Z" fill="#e83427"/><path d="m470.94,393.1c-.27.06-.74.41-1.41,1.03-.67.62-1.21,1.28-1.62,1.97-.64,1-.81,1.81-.51,2.44.8,1.56,1.9,3.39,3.28,5.48,1.38,2.09,2.81,4.07,4.3,5.95,1.48,1.87,2.81,3.31,3.99,4.31-2.1,3-4.64,5.39-7.62,7.17-2.98,1.78-5.93,2.64-8.85,2.58-2.92-.06-5.36-1.37-7.34-3.93-.25-.38-.7-1.2-1.35-2.48-.65-1.28-1.37-2.79-2.18-4.54-.81-1.75-1.61-3.5-2.42-5.25-.81-1.75-1.5-3.28-2.07-4.59-.57-1.31-.93-2.12-1.08-2.44-.68-1.56-1.69-1.9-3.04-1.03-1.35.88-2.59,2.69-3.73,5.43-.65,1.62-1.24,3.48-1.76,5.57-.52,2.09-.88,3.95-1.06,5.57-.19,1.62-.14,2.59.13,2.9-1.64,1-3.56,1.94-5.78,2.81-2.22.87-4.61,1.41-7.17,1.59-.96.06-1.97-.19-3.04-.75-1.07-.56-1.85-1.48-2.33-2.76-.49-1.28-.45-2.89.12-4.82.16-.5.57-1.81,1.23-3.93.66-2.12,1.47-4.73,2.45-7.82.97-3.09,2-6.29,3.07-9.6,1.08-3.31,2.07-6.43,3-9.37.92-2.93,1.97-6.21,3.15-9.84,1.2-3.68,2.1-6.76,2.72-9.23.61-2.47.48-4.36-.41-5.67-.8-1.19-1.13-2.9-1-5.15.14-2.25.56-4.37,1.27-6.37.23.06.95.14,2.17.24,1.22.09,2.4.2,3.55.33.81,0,1.99-.01,3.53-.05,1.54-.03,3.19-.08,4.96-.14,1.77-.06,3.41-.11,4.92-.14,1.51-.03,2.65-.08,3.42-.14.56,0,1.61-.01,3.15-.05,1.54-.03,3.34-.05,5.4-.05s4.15.02,6.26.05c2.11.03,4.05.11,5.83.23,1.77.13,3.12.28,4.06.47,3.88.75,6.62,2.12,8.22,4.12,1.6,2,2.42,4.4,2.48,7.21.05,2.81-.36,5.87-1.25,9.18-.79,2.81-2.05,5.75-3.8,8.8-1.75,3.06-3.95,5.9-6.61,8.52-2.66,2.62-5.74,4.68-9.22,6.18Zm-21-20.14c-.65,2-.66,3.48-.04,4.45.62.97,1.31,1.55,2.06,1.73,1.04.25,2.47.27,4.29.05,1.82-.22,3.71-.66,5.67-1.31,1.96-.66,3.72-1.51,5.29-2.58,1.56-1.06,2.57-2.28,3.01-3.65.59-1.81.29-3.2-.89-4.17-1.19-.97-2.88-1.58-5.07-1.83-2.2-.25-4.48-.19-6.85.19-1.83.25-3.4,1.03-4.69,2.34-1.3,1.31-2.23,2.9-2.77,4.78Z" fill="#e83427"/><path d="m528.19,405.74c.91-.12,2.07-.28,3.48-.47,1.4-.19,2.76-.42,4.07-.7,1.31-.28,2.24-.61,2.8-.98.59.69.68,2.08.29,4.17-.4,2.09-1.21,4.26-2.44,6.51-1,1.94-2.25,3.75-3.73,5.43-1.49,1.69-3.16,2.72-5.03,3.09-1.6.31-3.38.5-5.33.56-1.96.06-3.92.06-5.9,0-1.98-.06-3.79-.13-5.42-.19-1.63-.06-2.89-.09-3.76-.09s-2.24.01-4.09.05c-1.85.03-3.48.08-4.87.14-1.69.19-3.51.31-5.46.38-1.96.06-3.72,0-5.28-.19-1.56-.19-2.65-.5-3.25-.94.72-.87,1.53-2.2,2.42-3.98s1.77-3.73,2.65-5.85c.88-2.12,1.6-4.15,2.17-6.09l5.38-17.14,2.59-7.96c.73-2.25,1.32-4.12,1.78-5.62.46-1.5.7-2.31.75-2.44.67-2.06,1.29-4.28,1.88-6.65.58-2.37,1.1-4.64,1.55-6.79.45-2.16.8-3.92,1.06-5.29.09-1.06.25-2.11.46-3.14.21-1.03.48-1.95.8-2.76.38.19,1.52.36,3.44.51,1.92.16,4.17.3,6.75.42.19,0,1.09.02,2.7.05,1.61.03,3.61.08,6,.14,2.38.06,4.87.11,7.45.14,2.58.03,4.93.05,7.06.05s3.69-.03,4.71-.09c2.6-.12,4.84-.33,6.71-.61,1.87-.28,3.2-.67,3.99-1.17.55.62.87,1.79.97,3.51.1,1.72-.13,3.51-.67,5.39-.59,1.81-1.56,3.51-2.92,5.1-1.36,1.59-3.23,2.67-5.59,3.23-.87.19-2.19.34-3.95.47-1.76.13-3.44.2-5.04.23-1.6.03-2.74.02-3.4-.05-1.88-.19-3.94.02-6.19.61-2.25.59-4.26,1.38-6.01,2.34-1.75.97-2.84,2.01-3.27,3.14-.41,1.06-.25,1.94.46,2.62.71.69,1.77,1.23,3.17,1.64,1.4.41,2.95.67,4.66.8,1.71.13,3.35.16,4.93.09,1.29-.12,2.79-.34,4.52-.66,1.72-.31,2.83-.62,3.3-.94.59.69.75,1.97.49,3.84-.27,1.87-.91,3.81-1.93,5.81-.84,1.62-1.95,3.12-3.33,4.5-1.38,1.37-3,2.31-4.85,2.81-1.43.37-3.12.66-5.05.84-3.69,0-7,.64-9.94,1.92-2.94,1.28-4.83,2.8-5.64,4.54-.74,1.5-.86,2.87-.36,4.12.5,1.25,1.6,1.94,3.31,2.06,1.17.06,2.67.08,4.53.05,1.85-.03,3.68-.09,5.49-.19,1.81-.09,3.14-.2,3.99-.33Z" fill="#e83427"/><path d="m606.58,405.18c.16,1.81.66,3.54,1.5,5.2.84,1.66,1.62,2.89,2.36,3.7-2.51,3.12-5.1,5.4-7.75,6.84-2.2,1.19-4.36,1.87-6.48,2.06-1.17.12-2.41.03-3.75-.28-1.33-.31-2.53-1.2-3.58-2.67-1.05-1.47-1.8-3.82-2.24-7.07-.09-1.06-.82-1.81-2.17-2.25-1.36-.44-2.86-.7-4.52-.8-1.66-.09-3.01-.14-4.08-.14s-2.37.03-3.92.09c-1.55.06-3.02.31-4.41.75-1.39.44-2.39,1.22-3.01,2.34-.58,1-.94,2.03-1.1,3.09-.16,1.06.02,1.75.55,2.06-1.39,1-2.72,1.87-3.99,2.62-1.27.75-2.51,1.34-3.72,1.78-1.5.56-2.94.84-4.35.84s-2.88-.31-4.43-.94c-.71-.31-1.37-.87-1.98-1.69-.61-.81-.84-1.93-.68-3.37.15-1.44.99-3.25,2.51-5.43.12-.19.76-1.19,1.91-3s2.66-4.2,4.53-7.17c1.87-2.96,3.94-6.26,6.21-9.88,2.27-3.62,4.6-7.35,7.01-11.19,2.4-3.84,4.73-7.54,6.98-11.1,2.25-3.56,4.28-6.77,6.08-9.65,1.81-2.87,3.76-5.99,5.85-9.37.66-.31,1.83-.7,3.52-1.17,1.68-.47,3.41-.73,5.18-.8,1.98-.12,3.78.13,5.42.75,1.64.62,2.65,1.87,3.04,3.75.19.75.38,2.19.57,4.31.18,2.12.38,4.68.59,7.68.21,3,.42,6.2.63,9.6.21,3.4.4,6.78.6,10.12.19,3.34.35,6.45.48,9.32.13,2.87.25,5.29.36,7.26.11,1.97.2,3.23.27,3.79Zm-25.58-12.08c1.66-.12,2.77-.59,3.31-1.4.54-.81,1.02-1.75,1.43-2.81.22-.69.39-1.53.49-2.53.11-1,.08-1.89-.07-2.67-.15-.78-.54-1.17-1.17-1.17-.88,0-2.02.61-3.45,1.83-1.43,1.22-2.41,2.45-2.94,3.7-.57,1.19-.84,2.34-.8,3.47.04,1.12,1.1,1.66,3.18,1.59Z" fill="#e83427"/><path d="m677.05,348.32c4.4.69,7.67,1.92,9.8,3.7,2.14,1.78,3.49,3.83,4.05,6.14.56,2.31.67,4.58.32,6.79-.35,2.22-.77,4.11-1.28,5.67-.65,2-1.74,4.29-3.27,6.88-1.53,2.59-3.49,5.12-5.88,7.59-2.4,2.47-5.19,4.59-8.39,6.37-3.2,1.78-6.83,2.86-10.89,3.23-.71.06-1.6.13-2.68.19-1.08.06-2.05.11-2.9.14-.85.03-1.37.05-1.56.05-2.42.13-4.81.81-7.18,2.06-2.37,1.25-4.46,2.86-6.25,4.82-1.8,1.97-3.12,4.17-3.97,6.6l-1.13,3.47c-.53,1.62-.79,3.11-.79,4.45,0,1.34.04,2.26.13,2.76-1.94,1.37-3.57,2.34-4.88,2.9s-2.84.97-4.61,1.22c-1.43.19-2.91.06-4.42-.37-1.51-.44-2.73-1.27-3.64-2.48-.92-1.22-1.21-2.92-.87-5.1.06-.38.42-1.58,1.08-3.61.66-2.03,1.5-4.56,2.51-7.59,1.01-3.03,2.13-6.35,3.33-9.98,1.21-3.62,2.4-7.24,3.58-10.87,1.18-3.62,2.27-6.99,3.29-10.12,1.03-3.37,1.81-6.21,2.35-8.52.53-2.31.53-3.78-.02-4.4-.95-1.12-1.39-2.87-1.34-5.25.05-2.37.45-4.62,1.21-6.75.23.06.89.14,1.98.24,1.09.09,2.24.2,3.45.33.62,0,1.66-.01,3.11-.05,1.45-.03,3.05-.11,4.81-.23,1.76-.12,3.46-.23,5.12-.33,1.65-.09,2.99-.17,4.01-.23,1.41-.12,3.28-.25,5.6-.38,2.32-.12,4.91-.16,7.76-.09,2.85.06,5.67.31,8.47.75Zm-20.64,29.23c.85.06,1.99-.01,3.4-.23,1.41-.22,2.9-.58,4.47-1.08,1.57-.5,2.97-1.2,4.2-2.11,1.23-.9,2.06-2.01,2.49-3.33.59-1.81.37-3.22-.64-4.21-1.02-1-2.42-1.69-4.2-2.06-1.78-.37-3.56-.53-5.33-.47-2.58.06-5,.77-7.24,2.11-2.25,1.34-3.67,2.92-4.25,4.73-.32,1.19-.19,2.26.4,3.23.59.97,1.49,1.76,2.69,2.39,1.2.63,2.54.97,4.02,1.03Z" fill="#e83427"/><path d="m724.99,405.74c.92-.12,2.07-.28,3.48-.47,1.4-.19,2.76-.42,4.07-.7,1.31-.28,2.24-.61,2.8-.98.59.69.68,2.08.29,4.17-.4,2.09-1.21,4.26-2.44,6.51-1,1.94-2.25,3.75-3.73,5.43-1.48,1.69-3.16,2.72-5.03,3.09-1.6.31-3.38.5-5.33.56-1.96.06-3.92.06-5.9,0-1.98-.06-3.79-.13-5.42-.19-1.64-.06-2.89-.09-3.76-.09s-2.24.01-4.09.05c-1.85.03-3.48.08-4.87.14-1.69.19-3.5.31-5.46.38-1.96.06-3.71,0-5.28-.19-1.56-.19-2.65-.5-3.25-.94.72-.87,1.53-2.2,2.42-3.98s1.78-3.73,2.65-5.85c.88-2.12,1.6-4.15,2.17-6.09l5.38-17.14,2.59-7.96c.73-2.25,1.32-4.12,1.78-5.62.46-1.5.7-2.31.74-2.44.67-2.06,1.3-4.28,1.88-6.65.58-2.37,1.1-4.64,1.55-6.79.45-2.16.8-3.92,1.06-5.29.09-1.06.25-2.11.46-3.14.21-1.03.48-1.95.8-2.76.38.19,1.52.36,3.44.51,1.92.16,4.17.3,6.75.42.19,0,1.09.02,2.7.05,1.61.03,3.61.08,6,.14,2.38.06,4.87.11,7.45.14,2.58.03,4.93.05,7.06.05s3.69-.03,4.71-.09c2.6-.12,4.84-.33,6.71-.61,1.87-.28,3.2-.67,3.99-1.17.55.62.87,1.79.97,3.51s-.13,3.51-.67,5.39c-.59,1.81-1.56,3.51-2.92,5.1-1.36,1.59-3.23,2.67-5.59,3.23-.87.19-2.19.34-3.94.47-1.76.13-3.44.2-5.04.23-1.6.03-2.74.02-3.4-.05-1.88-.19-3.94.02-6.19.61-2.25.59-4.26,1.38-6.01,2.34-1.75.97-2.84,2.01-3.27,3.14-.41,1.06-.25,1.94.46,2.62.71.69,1.77,1.23,3.17,1.64s2.95.67,4.66.8c1.71.13,3.35.16,4.93.09,1.29-.12,2.79-.34,4.52-.66,1.72-.31,2.83-.62,3.3-.94.59.69.75,1.97.49,3.84-.27,1.87-.91,3.81-1.93,5.81-.84,1.62-1.95,3.12-3.33,4.5-1.38,1.37-3,2.31-4.85,2.81-1.43.37-3.12.66-5.05.84-3.69,0-7,.64-9.94,1.92-2.94,1.28-4.83,2.8-5.64,4.54-.74,1.5-.86,2.87-.36,4.12.5,1.25,1.6,1.94,3.31,2.06,1.17.06,2.67.08,4.53.05,1.85-.03,3.68-.09,5.49-.19,1.81-.09,3.14-.2,3.99-.33Z" fill="#e83427"/><path d="m801.03,393.1c-.27.06-.74.41-1.41,1.03-.67.62-1.21,1.28-1.62,1.97-.64,1-.81,1.81-.51,2.44.8,1.56,1.9,3.39,3.28,5.48,1.38,2.09,2.81,4.07,4.3,5.95,1.48,1.87,2.81,3.31,3.99,4.31-2.1,3-4.64,5.39-7.62,7.17-2.98,1.78-5.93,2.64-8.85,2.58-2.92-.06-5.36-1.37-7.34-3.93-.25-.38-.7-1.2-1.35-2.48-.65-1.28-1.37-2.79-2.18-4.54-.81-1.75-1.61-3.5-2.42-5.25-.81-1.75-1.5-3.28-2.07-4.59-.57-1.31-.93-2.12-1.08-2.44-.68-1.56-1.69-1.9-3.04-1.03-1.35.88-2.59,2.69-3.73,5.43-.65,1.62-1.24,3.48-1.76,5.57-.53,2.09-.88,3.95-1.06,5.57-.18,1.62-.14,2.59.13,2.9-1.64,1-3.56,1.94-5.78,2.81-2.22.87-4.61,1.41-7.17,1.59-.96.06-1.97-.19-3.03-.75-1.07-.56-1.85-1.48-2.33-2.76-.49-1.28-.45-2.89.12-4.82.16-.5.57-1.81,1.23-3.93.66-2.12,1.47-4.73,2.45-7.82.97-3.09,2-6.29,3.07-9.6,1.08-3.31,2.07-6.43,3-9.37.92-2.93,1.97-6.21,3.15-9.84,1.2-3.68,2.1-6.76,2.72-9.23.61-2.47.48-4.36-.41-5.67-.8-1.19-1.13-2.9-1-5.15.14-2.25.56-4.37,1.27-6.37.23.06.95.14,2.17.24,1.22.09,2.4.2,3.55.33.81,0,1.99-.01,3.53-.05,1.54-.03,3.19-.08,4.96-.14,1.77-.06,3.41-.11,4.92-.14,1.51-.03,2.65-.08,3.42-.14.56,0,1.61-.01,3.15-.05,1.54-.03,3.34-.05,5.4-.05s4.15.02,6.26.05c2.11.03,4.05.11,5.83.23,1.77.13,3.12.28,4.06.47,3.88.75,6.62,2.12,8.21,4.12,1.6,2,2.42,4.4,2.48,7.21.06,2.81-.36,5.87-1.25,9.18-.79,2.81-2.05,5.75-3.8,8.8-1.74,3.06-3.95,5.9-6.61,8.52-2.66,2.62-5.74,4.68-9.22,6.18Zm-21-20.14c-.65,2-.66,3.48-.04,4.45.62.97,1.31,1.55,2.06,1.73,1.04.25,2.47.27,4.29.05s3.71-.66,5.67-1.31c1.96-.66,3.72-1.51,5.29-2.58,1.56-1.06,2.57-2.28,3.01-3.65.59-1.81.29-3.2-.89-4.17-1.18-.97-2.88-1.58-5.07-1.83-2.2-.25-4.48-.19-6.85.19-1.83.25-3.4,1.03-4.69,2.34-1.3,1.31-2.22,2.9-2.77,4.78Z" fill="#e83427"/><path d="m441.51,483.68c-.27.06-.74.41-1.41,1.03-.67.62-1.21,1.28-1.62,1.97-.64,1-.81,1.81-.51,2.44.8,1.56,1.9,3.39,3.28,5.48,1.38,2.09,2.81,4.07,4.3,5.95,1.48,1.87,2.81,3.31,3.99,4.31-2.1,3-4.64,5.39-7.62,7.17-2.98,1.78-5.93,2.64-8.85,2.58-2.92-.06-5.36-1.37-7.34-3.93-.25-.37-.7-1.2-1.35-2.48-.65-1.28-1.37-2.79-2.18-4.54-.81-1.75-1.61-3.5-2.42-5.25-.81-1.75-1.5-3.28-2.07-4.59-.57-1.31-.93-2.12-1.08-2.44-.68-1.56-1.69-1.9-3.04-1.03-1.35.88-2.59,2.69-3.73,5.43-.65,1.62-1.24,3.48-1.76,5.57-.52,2.09-.88,3.95-1.06,5.57-.19,1.62-.14,2.59.13,2.9-1.64,1-3.56,1.94-5.78,2.81s-4.61,1.41-7.17,1.59c-.96.06-1.97-.19-3.04-.75-1.07-.56-1.85-1.48-2.33-2.76-.49-1.28-.45-2.89.12-4.82.16-.5.57-1.81,1.23-3.93.66-2.12,1.47-4.73,2.45-7.82.97-3.09,2-6.29,3.07-9.6,1.07-3.31,2.07-6.43,3-9.37.92-2.93,1.97-6.21,3.15-9.84,1.2-3.68,2.1-6.76,2.72-9.23s.48-4.36-.41-5.67c-.8-1.18-1.13-2.9-1-5.15.14-2.25.56-4.37,1.27-6.37.23.06.95.14,2.17.24,1.22.09,2.4.2,3.55.33.81,0,1.99-.02,3.53-.05,1.54-.03,3.19-.08,4.96-.14,1.77-.06,3.41-.11,4.92-.14s2.65-.08,3.42-.14c.56,0,1.61-.01,3.15-.05,1.54-.03,3.34-.05,5.4-.05s4.15.02,6.26.05c2.11.03,4.05.11,5.83.23,1.77.13,3.12.28,4.06.47,3.88.75,6.62,2.12,8.21,4.12,1.6,2,2.42,4.4,2.48,7.21.05,2.81-.36,5.87-1.25,9.18-.79,2.81-2.05,5.75-3.8,8.8-1.74,3.06-3.95,5.9-6.61,8.52-2.66,2.62-5.74,4.68-9.22,6.18Zm-20.99-20.14c-.65,2-.66,3.48-.04,4.45.62.97,1.31,1.55,2.06,1.73,1.04.25,2.47.27,4.29.05,1.82-.22,3.71-.66,5.67-1.31,1.96-.66,3.72-1.51,5.29-2.58,1.56-1.06,2.57-2.28,3.01-3.65.59-1.81.29-3.2-.89-4.17-1.18-.97-2.88-1.58-5.07-1.83-2.2-.25-4.48-.19-6.85.19-1.83.25-3.4,1.03-4.69,2.34-1.3,1.31-2.22,2.9-2.77,4.78Z" fill="#e83427"/><path d="m535.87,473.19c-1.26,5.81-3.2,10.96-5.82,15.46-2.62,4.5-5.66,8.38-9.13,11.66-3.47,3.28-7.17,5.96-11.09,8.05-3.93,2.09-7.88,3.65-11.87,4.68-3.99,1.03-7.76,1.54-11.32,1.54s-7.03-.47-10.41-1.41c-3.38-.94-6.39-2.4-9.01-4.4-2.63-2-4.66-4.59-6.09-7.77-1.43-3.18-2.03-6.98-1.78-11.38.24-4.4,1.62-9.51,4.13-15.31,2.12-5,4.89-9.66,8.3-14,3.41-4.34,7.23-8.12,11.46-11.33,4.23-3.22,8.69-5.71,13.39-7.49,4.7-1.78,9.37-2.61,14.01-2.48.31,0,.86-.23,1.63-.7.77-.47,1.77-.92,2.97-1.36,1.2-.44,2.54-.59,3.99-.47,2.73.25,5.32,1.41,7.77,3.47,2.45,2.06,4.53,4.79,6.24,8.2,1.7,3.4,2.82,7.26,3.36,11.57.54,4.31.29,8.81-.73,13.49Zm-43.32,24.07c2.21-.06,4.38-.37,6.53-.94,2.15-.56,4.25-1.59,6.3-3.09,2.05-1.5,4-3.62,5.86-6.37,1.86-2.75,3.52-6.28,4.99-10.58,1.04-3,1.32-5.9.86-8.71-.46-2.81-1.59-5.2-3.38-7.17-1.8-1.97-4.21-3.11-7.23-3.42-3.25-.38-6.23-.05-8.94.98-2.71,1.03-5.15,2.53-7.32,4.5s-4.06,4.17-5.66,6.6c-1.6,2.44-2.9,4.9-3.9,7.4-1.78,4.31-2.52,7.84-2.22,10.58.29,2.75,1.19,4.87,2.71,6.37,1.51,1.5,3.31,2.53,5.41,3.09,2.1.56,4.09.81,5.99.75Z" fill="#e83427"/><path d="m594.2,495.76c.16,1.81.66,3.54,1.5,5.2.83,1.66,1.62,2.89,2.36,3.7-2.51,3.12-5.1,5.4-7.75,6.84-2.2,1.19-4.36,1.87-6.48,2.06-1.16.12-2.41.03-3.75-.28-1.33-.31-2.53-1.2-3.58-2.67-1.05-1.47-1.8-3.83-2.25-7.07-.09-1.06-.82-1.81-2.17-2.25-1.36-.44-2.86-.7-4.52-.8-1.66-.09-3.02-.14-4.08-.14s-2.37.03-3.92.09c-1.55.06-3.02.31-4.41.75-1.39.44-2.4,1.22-3.01,2.34-.58,1-.94,2.03-1.1,3.09-.16,1.06.02,1.75.55,2.06-1.39,1-2.72,1.87-3.99,2.62-1.27.75-2.51,1.34-3.72,1.78-1.49.56-2.94.84-4.35.84s-2.88-.31-4.43-.94c-.71-.31-1.37-.87-1.98-1.69-.61-.81-.84-1.93-.68-3.37.15-1.44.99-3.25,2.51-5.43.12-.19.76-1.19,1.91-3s2.66-4.2,4.53-7.17c1.87-2.96,3.94-6.26,6.21-9.88,2.27-3.62,4.61-7.35,7.01-11.19,2.4-3.84,4.73-7.54,6.98-11.1,2.25-3.56,4.28-6.77,6.08-9.65,1.81-2.87,3.76-5.99,5.85-9.37.66-.31,1.83-.7,3.52-1.17,1.68-.47,3.41-.73,5.18-.8,1.98-.12,3.78.13,5.42.75,1.64.62,2.65,1.87,3.04,3.75.19.75.38,2.19.57,4.31.18,2.12.38,4.68.6,7.68.21,3,.42,6.2.63,9.6.21,3.4.4,6.78.6,10.12.19,3.34.35,6.45.48,9.32.13,2.87.25,5.29.36,7.26s.2,3.23.27,3.79Zm-25.58-12.08c1.66-.12,2.77-.59,3.31-1.4.54-.81,1.02-1.75,1.43-2.81.22-.69.39-1.53.49-2.53.1-1,.08-1.89-.07-2.67-.15-.78-.54-1.17-1.17-1.17-.88,0-2.02.61-3.45,1.83-1.43,1.22-2.41,2.45-2.94,3.7-.57,1.19-.84,2.34-.8,3.47.04,1.12,1.1,1.66,3.18,1.59Z" fill="#e83427"/><path d="m679.63,463.45c-.3,1.87-.72,3.9-1.28,6.09-.56,2.19-1.43,4.82-2.62,7.92-1.19,3.09-2.86,6.88-5.01,11.38-2.91,6.06-7.02,11.13-12.35,15.22-5.33,4.09-11.22,6.76-17.68,8.01-1.81.38-3.86.64-6.16.8-2.3.16-4.57.28-6.82.38-2.25.09-4.27.2-6.05.33-1.66.31-3.61.53-5.83.66-2.23.12-4.28.09-6.15-.09-1.88-.19-3.17-.53-3.88-1.03.78-.87,1.62-2.2,2.51-3.98.89-1.78,1.77-3.73,2.65-5.85.88-2.12,1.6-4.15,2.17-6.09l10.04-31.75c.83-2.56,1.58-4.9,2.24-7.02.66-2.12,1.12-3.78,1.38-4.96.3-1.31.19-2.47-.33-3.47-.52-1-.8-2-.85-3-.11-2.75.33-5.43,1.31-8.06.29.06.97.14,2.03.24,1.06.09,2.29.2,3.69.33,1.54.06,3.96.16,7.26.28,3.3.13,6.68.25,10.13.38,2.04.06,3.82.16,5.34.28,1.52.13,3.09.3,4.7.52,1.62.22,3,.48,4.14.8,3.71,1.06,6.66,2.51,8.84,4.36,2.18,1.84,3.78,3.83,4.81,5.95,1.03,2.12,1.65,4.2,1.86,6.23.21,2.03.18,3.76-.1,5.2Zm-43.13,32.13c2.76-.62,5.58-1.86,8.46-3.7,2.88-1.84,5.5-4.34,7.87-7.49,2.37-3.15,4.1-7.01,5.21-11.57,1.49-5.93,1.28-10.05-.62-12.36-1.91-2.31-4.97-3.5-9.19-3.56-1.17-.06-2.36.72-3.57,2.34-1.22,1.62-2.54,4.25-3.96,7.87-.9,2.37-1.56,4.14-2,5.29-.44,1.16-.76,2.11-.97,2.86-.21.75-.54,1.72-.99,2.9-.67,2.25-1.21,4.2-1.62,5.85-.41,1.66-.81,3.34-1.18,5.06-.37,1.72-.62,3.17-.76,4.36-.12,1.31.24,2.05,1.06,2.2.82.16,1.58.14,2.26-.05Z" fill="#e83427"/><path d="m412.08,574.26c-.27.06-.74.41-1.41,1.03-.67.63-1.21,1.28-1.62,1.97-.64,1-.81,1.81-.51,2.43.8,1.56,1.9,3.39,3.28,5.48,1.38,2.09,2.81,4.07,4.3,5.95,1.48,1.87,2.81,3.31,3.99,4.31-2.1,3-4.64,5.39-7.62,7.17-2.98,1.78-5.93,2.64-8.85,2.58-2.92-.06-5.36-1.37-7.34-3.93-.25-.37-.7-1.2-1.35-2.48-.65-1.28-1.37-2.79-2.18-4.54-.81-1.75-1.61-3.5-2.42-5.25-.81-1.75-1.5-3.28-2.07-4.59s-.93-2.12-1.08-2.44c-.68-1.56-1.69-1.9-3.04-1.03-1.35.88-2.59,2.69-3.73,5.43-.65,1.62-1.24,3.48-1.76,5.57-.52,2.09-.88,3.95-1.06,5.57-.19,1.62-.14,2.59.13,2.9-1.64,1-3.56,1.94-5.78,2.81-2.22.87-4.61,1.41-7.17,1.59-.96.06-1.97-.19-3.04-.75-1.07-.56-1.85-1.48-2.33-2.76-.49-1.28-.45-2.89.12-4.82.16-.5.57-1.81,1.23-3.93.66-2.12,1.47-4.73,2.45-7.82.97-3.09,2-6.29,3.07-9.6,1.08-3.31,2.07-6.43,3-9.37.92-2.93,1.97-6.21,3.15-9.84,1.2-3.68,2.1-6.76,2.72-9.23.61-2.47.48-4.36-.41-5.67-.8-1.19-1.13-2.9-1-5.15.14-2.25.56-4.37,1.27-6.37.23.06.95.14,2.17.24,1.22.09,2.4.2,3.55.33.81,0,1.99-.01,3.53-.05,1.54-.03,3.19-.08,4.96-.14,1.77-.06,3.41-.11,4.92-.14,1.51-.03,2.65-.08,3.42-.14.56,0,1.61-.01,3.15-.05,1.54-.03,3.34-.05,5.4-.05s4.15.02,6.26.05c2.11.03,4.05.11,5.82.23,1.77.13,3.12.28,4.06.47,3.88.75,6.62,2.12,8.22,4.12,1.6,2,2.42,4.4,2.48,7.21.06,2.81-.36,5.87-1.25,9.18-.79,2.81-2.05,5.75-3.8,8.8-1.74,3.06-3.95,5.9-6.61,8.52-2.66,2.62-5.74,4.68-9.22,6.18Zm-21-20.14c-.65,2-.66,3.48-.04,4.45.62.97,1.31,1.55,2.06,1.73,1.04.25,2.47.27,4.29.05,1.82-.22,3.71-.66,5.67-1.31,1.96-.66,3.72-1.51,5.29-2.58,1.56-1.06,2.57-2.28,3.01-3.65.59-1.81.29-3.2-.89-4.17-1.18-.97-2.88-1.58-5.07-1.83-2.2-.25-4.48-.19-6.85.19-1.83.25-3.39,1.03-4.69,2.34-1.3,1.31-2.22,2.9-2.77,4.78Z" fill="#e83427"/><path d="m488.42,586.35c.16,1.81.66,3.54,1.5,5.2.83,1.66,1.62,2.89,2.36,3.7-2.51,3.12-5.1,5.4-7.75,6.84-2.2,1.19-4.36,1.87-6.48,2.06-1.16.12-2.41.03-3.75-.28-1.33-.31-2.53-1.2-3.58-2.67-1.05-1.47-1.8-3.83-2.25-7.07-.09-1.06-.82-1.81-2.17-2.25-1.36-.44-2.86-.7-4.52-.8-1.66-.09-3.02-.14-4.08-.14s-2.37.03-3.92.09c-1.55.06-3.02.31-4.41.75-1.39.44-2.4,1.22-3.01,2.34-.58,1-.94,2.03-1.1,3.09-.16,1.06.02,1.75.55,2.06-1.39,1-2.72,1.87-3.99,2.62-1.27.75-2.51,1.34-3.72,1.78-1.49.56-2.94.84-4.35.84s-2.88-.31-4.43-.94c-.71-.31-1.37-.87-1.98-1.69-.61-.81-.84-1.93-.68-3.37.15-1.43.99-3.25,2.51-5.43.12-.19.76-1.19,1.91-3s2.66-4.2,4.53-7.17c1.87-2.96,3.94-6.26,6.21-9.88,2.27-3.62,4.61-7.35,7.01-11.19,2.4-3.84,4.73-7.54,6.98-11.1,2.25-3.56,4.28-6.77,6.08-9.65,1.81-2.87,3.76-5.99,5.85-9.37.66-.31,1.83-.7,3.52-1.17,1.68-.47,3.41-.73,5.18-.8,1.98-.12,3.78.13,5.42.75,1.64.62,2.65,1.87,3.04,3.75.19.75.38,2.19.57,4.31.18,2.12.38,4.68.6,7.68.21,3,.42,6.2.63,9.6.21,3.4.4,6.78.6,10.12.19,3.34.35,6.45.48,9.32.13,2.87.25,5.29.36,7.26s.2,3.23.27,3.79Zm-25.58-12.08c1.66-.12,2.77-.59,3.31-1.4.54-.81,1.02-1.75,1.43-2.81.22-.69.39-1.53.49-2.53.1-1,.08-1.89-.07-2.67-.15-.78-.54-1.17-1.17-1.17-.88,0-2.02.61-3.45,1.83s-2.41,2.45-2.94,3.7c-.57,1.19-.84,2.34-.8,3.47.04,1.12,1.1,1.65,3.18,1.59Z" fill="#e83427"/><path d="m571.68,547.76c-1.5,2.31-3.2,4-5.11,5.06-1.91,1.06-3.67,1.48-5.28,1.26-1.62-.22-2.78-1.04-3.5-2.48,1.33-.81,1.94-1.7,1.85-2.67-.09-.97-.81-1.78-2.16-2.44-1.35-.66-3.27-.89-5.77-.7-2.54.13-5.31.94-8.33,2.44s-5.82,3.65-8.42,6.46c-2.6,2.81-4.67,6.31-6.22,10.49-1.59,4.31-2.29,7.81-2.1,10.49.19,2.69.85,4.73,1.99,6.13,1.14,1.41,2.42,2.41,3.85,3,1.43.59,2.61.98,3.55,1.17,1.23.25,2.69.42,4.38.52,1.69.09,3.45-.02,5.3-.33,1.85-.31,3.52-.84,5.01-1.59,1.35-.69,3.05-1.61,5.11-2.76,2.06-1.15,4.11-2.45,6.13-3.89,2.03-1.44,3.66-2.9,4.9-4.4,1.66,1.44,2.32,3.47,2,6.09-.32,2.62-1.47,5.43-3.44,8.43-1.97,3-4.62,5.82-7.95,8.48-3.33,2.66-7.23,4.81-11.7,6.46s-9.37,2.42-14.7,2.29c-2.48-.06-5.18-.53-8.11-1.41-2.93-.87-5.71-2.26-8.34-4.17-2.63-1.9-4.76-4.43-6.39-7.59-1.63-3.15-2.37-7.07-2.22-11.76.15-4.68,1.57-10.21,4.26-16.58,2.53-6.06,5.74-11.27,9.63-15.64,3.89-4.37,8.08-7.95,12.57-10.72,4.49-2.78,8.98-4.87,13.47-6.28,4.48-1.4,8.58-2.14,12.28-2.2,3.72-.12,6.74.44,9.05,1.69,2.31,1.25,3.99,2.86,5.04,4.82,1.05,1.97,1.51,4.06,1.38,6.28-.13,2.22-.8,4.23-2.01,6.04Z" fill="#e83427"/><path d="m613.2,586.91c.92-.12,2.07-.28,3.48-.47,1.4-.19,2.76-.42,4.07-.7,1.31-.28,2.24-.61,2.8-.98.59.69.68,2.08.29,4.17-.4,2.09-1.21,4.26-2.44,6.51-1,1.94-2.25,3.75-3.73,5.43-1.49,1.69-3.16,2.72-5.03,3.09-1.6.31-3.38.5-5.33.56-1.96.06-3.92.06-5.9,0-1.98-.06-3.79-.13-5.42-.19-1.64-.06-2.89-.09-3.76-.09s-2.24.01-4.09.05c-1.85.03-3.48.08-4.87.14-1.69.19-3.5.31-5.46.38-1.96.06-3.72,0-5.28-.19-1.56-.19-2.65-.5-3.25-.94.72-.87,1.53-2.2,2.42-3.98.89-1.78,1.77-3.73,2.65-5.85.88-2.12,1.6-4.15,2.17-6.09l5.38-17.14,2.59-7.96c.73-2.25,1.32-4.12,1.78-5.62.45-1.5.7-2.31.74-2.44.67-2.06,1.29-4.28,1.88-6.65.58-2.37,1.1-4.64,1.55-6.79.45-2.16.8-3.92,1.06-5.29.09-1.06.25-2.11.46-3.14.21-1.03.48-1.95.8-2.76.38.19,1.52.36,3.44.51,1.92.16,4.17.3,6.75.42.19,0,1.09.02,2.7.05,1.61.03,3.61.08,6,.14,2.38.06,4.87.11,7.45.14,2.58.03,4.93.05,7.06.05s3.69-.03,4.71-.09c2.6-.12,4.84-.33,6.71-.61,1.87-.28,3.2-.67,3.99-1.17.55.62.87,1.79.97,3.51s-.13,3.51-.67,5.39c-.59,1.81-1.56,3.51-2.92,5.1-1.36,1.59-3.23,2.67-5.59,3.23-.87.19-2.19.34-3.95.47-1.76.13-3.44.2-5.04.23-1.6.03-2.74.02-3.4-.05-1.88-.19-3.94.02-6.19.61-2.25.59-4.26,1.38-6.01,2.34-1.75.97-2.84,2.01-3.27,3.14-.41,1.06-.25,1.94.46,2.62.71.69,1.77,1.23,3.17,1.64s2.95.67,4.66.8c1.71.13,3.35.16,4.93.09,1.29-.12,2.79-.34,4.52-.66,1.72-.31,2.83-.62,3.3-.94.59.69.75,1.97.49,3.84-.27,1.87-.91,3.81-1.93,5.81-.84,1.62-1.95,3.12-3.33,4.5-1.38,1.37-3,2.31-4.85,2.81-1.43.37-3.12.66-5.05.84-3.69,0-7,.64-9.94,1.92-2.94,1.28-4.83,2.8-5.64,4.54-.74,1.5-.86,2.87-.36,4.12.5,1.25,1.6,1.94,3.31,2.06,1.16.06,2.67.08,4.53.05,1.85-.03,3.68-.09,5.49-.19,1.81-.09,3.14-.2,3.99-.33Z" fill="#e83427"/></g><path d="m307.43,661.63l-.98,3.64h6.08l7.01-26.16,1.46-2.34.17-.62h9.51l-8.14,30.37c-.24.9-.5,1.74-.78,2.52-.28.78-.76,1.55-1.45,2.31l-.66,1.09-.36.57s.03-.07.05-.1c.03-.03.04-.07.05-.1l-.11.21c-.3.49-.68.96-1.14,1.43s-1.04.93-1.75,1.38c-1.22.8-2.41,1.28-3.57,1.46-1.16.17-2.23.23-3.22.16-.17,0-.4,0-.67-.03s-.5-.03-.67-.03h-7.82c-1.91,0-3.31-.29-4.19-.88-.88-.59-1.43-1.37-1.64-2.33s-.17-2.08.11-3.34.61-2.57.97-3.91l.61-2.28,1.46-2.33.17-.62,9.48-.05Zm-8.66,1.09l-1.07,3.98c-.35,1.3-.48,2.47-.39,3.51.09,1.04.51,1.87,1.26,2.5.75.62,2.05.94,3.89.94h7.82c.62,0,1.24.02,1.84.05s1.19.03,1.78-.03c.59-.05,1.2-.17,1.84-.36.64-.19,1.32-.53,2.04-1.02.76-.49,1.36-.99,1.81-1.51s.8-1.06,1.06-1.61c.25-.56.45-1.14.6-1.75.15-.61.31-1.24.48-1.9l7.59-28.33h-7.33l-1.95,7.29-5.86,21.88h-9.1l.98-3.64h-7.28Zm6.29.78h-5.72l-.16.61-.07.28h5.72l.24-.88Zm-6.35,2.34h5.72l.24-.88h-5.72l-.24.88Zm5.37,1.3l.21-.78h-5.72l-.13.47c-.04.14-.06.29-.07.47h22.05l.21-.78.04-.16h-5.72l-.21.78h-10.66Zm16.2.68h-22c-.05.17-.08.33-.1.47-.02.14-.04.29-.05.47h21.84c.08-.17.14-.33.18-.47l.13-.47Zm-.5,1.46h-21.58c0,.16,0,.32,0,.47.01.15.04.29.07.42h20.9c.1-.13.2-.27.29-.42.09-.15.19-.3.31-.47Zm-1.12,1.46l-20.31-.04c.09.18.18.36.27.54s.2.34.34.49h18.39s.07-.02.12-.05c.22-.17.44-.33.65-.47.21-.14.39-.29.54-.47Zm-1.99,1.4h-17.25c.74.49,1.82.73,3.24.73h7.82c.24,0,.48,0,.7.03s.45.03.7.03c.78.07,1.55.08,2.31.03s1.59-.32,2.48-.81Zm5.51-32.76h5.72l.1-.36h-5.72l-.1.36Zm-.39,1.46h5.72l.11-.42h-5.72l-.11.42Zm-.39,1.46h5.72l.11-.42h-5.72l-.11.42Zm-.39,1.46h5.72l.11-.42h-5.72l-.11.42Zm-.4,1.51h5.72l.13-.47h-5.72l-.13.47Zm-.39,1.46h5.72l.15-.57h-5.72l-.15.57Zm-.39,1.46h5.72l.14-.52h-5.72l-.14.52Zm-.4,1.51h5.72l.15-.57h-5.72l-.15.57Zm-.39,1.46h5.72l.15-.57h-5.72l-.15.57Zm-.39,1.46h5.72l.17-.62h-5.72l-.17.62Zm-.4,1.51h5.72l.18-.68h-5.72l-.18.68Zm-.39,1.46h5.72l.18-.68h-5.72l-.18.68Zm-.39,1.46h5.72l.19-.73h-5.72l-.19.73Zm-.39,1.46h5.72l.19-.73h-5.72l-.19.73Zm-.38,1.4h5.72l.18-.68h-5.72l-.18.68Zm-.42,1.56l5.71.05.22-.83h-5.72l-.21.78Zm-.39,1.46h5.72l.22-.83h-5.72l-.22.83Zm-.4,1.51h5.72l.24-.88h-5.72l-.24.88Zm-.39,1.46h5.72l.24-.88h-5.72l-.24.88Z" fill="#aed137"/><path d="m342.31,636.26l-7.82,29.17h11.49l7.02-26.2,1.46-2.34.17-.62h9.51l-7.54,28.13c-.04.14-.14.48-.3,1.01-.16.54-.34,1.12-.54,1.74-.2.62-.39,1.21-.55,1.77-.17.55-.29.9-.36,1.04-.25.42-.49.81-.73,1.17-.24.36-.5.69-.78.96l-.74,1.2c-.65,1-1.36,1.81-2.13,2.42s-1.73,1.1-2.87,1.48c-.23.07-.56.12-1.01.16s-.96.07-1.57.1c-.6.03-1.24.05-1.91.05h-13.36c-.66,0-1.27-.02-1.84-.05-.56-.04-1.05-.07-1.46-.1-.41-.03-.69-.09-.84-.16v-.05c-1.1-.38-1.89-.88-2.38-1.48-.48-.61-.73-1.52-.75-2.73.02-.87.13-1.68.32-2.44s.38-1.51.57-2.24l7.77-29.02,1.46-2.34.17-.62h9.51Zm-15.96,28.12c-.23.87-.48,1.77-.75,2.71s-.4,1.86-.4,2.76c-.01,1.08.19,1.87.61,2.37s1.12.93,2.11,1.28c.25.1.88.17,1.9.21,1.01.03,2.11.05,3.29.05h10.68c1.21,0,2.36-.02,3.43-.05s1.76-.1,2.06-.21c1.13-.35,2.05-.82,2.75-1.41s1.33-1.42,1.89-2.5c.07-.14.18-.46.34-.96.15-.5.32-1.05.49-1.64s.34-1.14.49-1.64.25-.82.28-.96l7.26-27.08h-7.33l-7.82,29.17h-14.51l7.82-29.17h-7.33l-7.26,27.08Zm7.48-25h5.72l.1-.36h-5.72l-.1.36Zm-.39,1.46h5.72l.11-.42h-5.72l-.11.42Zm-.39,1.46h5.72l.11-.42h-5.72l-.11.42Zm-.39,1.46h5.72l.11-.42h-5.72l-.11.42Zm-.4,1.51h5.72l.13-.47h-5.72l-.13.47Zm-.39,1.46h5.72l.15-.57h-5.72l-.15.57Zm-.39,1.46h5.72l.14-.52h-5.72l-.14.52Zm-.4,1.51h5.72l.15-.57h-5.72l-.15.57Zm-.39,1.46h5.72l.15-.57h-5.72l-.15.57Zm-.39,1.46h5.72l.17-.62h-5.72l-.17.62Zm-.4,1.51h5.72l.18-.68h-5.72l-.18.68Zm-.39,1.46h5.72l.18-.68h-5.72l-.18.68Zm-.39,1.46h5.72l.19-.73h-5.72l-.19.73Zm-.39,1.46h5.72l.19-.73h-5.72l-.19.73Zm-.38,1.4h5.72l.18-.68h-5.72l-.18.68Zm-.42,1.56h5.72l.21-.78h-5.72l-.21.78Zm-.39,1.46h5.72l.22-.83h-5.72l-.22.83Zm-.38,1.4h5.72l.21-.78h-5.72l-.21.78Zm-.42,1.56h5.72l.24-.88h-5.72l-.13.47-.11.42Zm5.34,1.4l.24-.88h-5.72l-.25.94h27.46c.05-.17.1-.33.15-.47.05-.14.11-.29.15-.47h-5.67l-.24.88h-16.12Zm21.58.57h-27.46l-.15.94h27.3c.08-.17.18-.48.3-.94Zm-.49,1.46h-27.14v.34s-.04,0-.04,0v.54h26.74l.47-.79-.06.05.04-.15Zm-.81,1.46l-26.24-.04c.08.47.23.81.45,1.03h24.79c.33-.21.66-.54.99-.99Zm-1.63,1.4h-23.7c.38.28.82.49,1.34.62.1.03.32.07.68.1.35.04.79.06,1.31.08s1.09.03,1.71.03h13.2c.64,0,1.23,0,1.78-.03.54-.02,1.01-.04,1.4-.08.39-.03.64-.07.76-.1.6-.17,1.11-.38,1.52-.62Zm4.94-32.76h5.72l.1-.36h-5.72l-.1.36Zm-.39,1.46h5.72l.11-.42h-5.72l-.11.42Zm-.39,1.46h5.72l.11-.42h-5.72l-.11.42Zm-.39,1.46h5.72l.11-.42h-5.72l-.11.42Zm-.4,1.51h5.72l.13-.47h-5.72l-.13.47Zm-.39,1.46h5.72l.15-.57h-5.72l-.15.57Zm-.39,1.46h5.72l.14-.52h-5.72l-.14.52Zm-.4,1.51h5.72l.15-.57h-5.72l-.15.57Zm-.39,1.46h5.72l.15-.57h-5.72l-.15.57Zm-.39,1.46h5.72l.17-.62h-5.72l-.17.62Zm-.4,1.51h5.72l.18-.68h-5.72l-.18.68Zm-.39,1.46h5.72l.18-.68h-5.72l-.18.68Zm-.39,1.46h5.72l.19-.73h-5.72l-.19.73Zm-.39,1.46h5.72l.19-.73h-5.72l-.19.73Zm-.38,1.4h5.72l.18-.68h-5.72l-.18.68Zm-.42,1.56h5.72l.21-.78h-5.72l-.21.78Zm-.39,1.46h5.72l.22-.83h-5.72l-.22.83Zm-.38,1.4h5.72l.21-.78h-5.72l-.21.78Zm5.54.68h-5.72l-.24.88h5.67c.05-.17.1-.33.15-.47.05-.14.1-.28.14-.42Z" fill="#aed137"/><path d="m397.57,636.31l-10.34,38.58h-.21l-1.65,2.65h-8.74l-6.94-18.72-4.31,16.07h-.21l-1.65,2.65h-9.2l10.25-38.27,1.46-2.34.17-.62h9l6.97,18.8,4.24-15.83,1.46-2.34.17-.62h9.51Zm-8.7,1.04l-6.09,22.72-8.47-22.72h-7.28l-9.77,36.45h7.33l6.11-22.81,8.45,22.81h7.28l9.77-36.45h-7.33Zm-21.6,2.03h6.84l-.11-.36h-6.63l-.1.36Zm-.39,1.46h7.76l-.15-.42h-7.5l-.11.42Zm-.39,1.46h8.7l-.15-.42h-8.44l-.11.42Zm-.39,1.46h9.64l-.15-.42h-9.38l-.11.42Zm-.4,1.51h10.63l-.19-.47h-10.32l-.13.47Zm-.39,1.46h11.57l-.21-.57h-11.2l-.15.57Zm-.39,1.46h12.5l-.23-.52h-12.14l-.14.52Zm-.4,1.51h5.72l.15-.57h-5.72l-.15.57Zm-.39,1.46h5.72l.15-.57h-5.72l-.15.57Zm-.39,1.46h5.72l.17-.62h-5.72l-.17.62Zm-.4,1.51h5.72l.18-.68h-5.72l-.18.68Zm-.39,1.46h5.72l.18-.68h-5.72l-.18.68Zm-.39,1.46h5.72l.19-.73h-5.72l-.19.73Zm-.39,1.46h5.72l.19-.73h-5.72l-.19.73Zm-.38,1.4h5.72l.18-.68h-5.72l-.18.68Zm-.42,1.56h5.72l.21-.78h-5.72l-.21.78Zm-.39,1.46h5.72l.22-.83h-5.72l-.22.83Zm-.4,1.51h5.72l.24-.88h-5.72l-.24.88Zm-.39,1.46h5.72l.24-.88h-5.72l-.24.88Zm-.39,1.46h5.72l.25-.94h-5.72l-.25.94Zm-.39,1.46h5.72l.25-.94h-5.72l-.25.94Zm-.38,1.4h5.72l.24-.88h-5.72l-.24.88Zm-.42,1.56h5.72l.26-.99h-5.72l-.26.99Zm5.37,1.3l.24-.88h-5.72l-.24.88h5.72Zm7.1-23.35h6.87l-.21-.57h-6.82l.16.57Zm.62,1.46h6.8l-.21-.57h-6.8l.21.57Zm.47,1.46h6.88l-.25-.62h-6.82l.2.62Zm.53,1.51h6.82l-.18-.68h-6.88l.24.68Zm.6,1.46h6.82l-.24-.68h-6.88l.29.68Zm.55,1.46h6.82l-.27-.73h-6.82l.27.73Zm.55,1.46h6.82l-.27-.73h-6.82l.27.73Zm.56,1.4l6.77.05-.27-.73h-6.79l.29.68Zm.52,1.56h6.84s-.31-.78-.31-.78l-6.78-.03.25.81Zm7.07.62h-6.82l.3.83h12.5l.22-.83h-5.72l-.17.78-.31-.78Zm-5.99,2.34h11.57l.24-.88h-12.14l.33.88Zm.55,1.46h10.63l.24-.88-11.21.04.34.85Zm.55,1.46h9.69l.25-.94h-10.26l.32.94Zm.55,1.46h8.76l.25-.94h-9.33l.32.94Zm.56,1.4h7.82l.24-.88h-8.39l.33.88Zm.54,1.56h6.86l.26-.99-7.48-.04.35,1.03Zm6.52,1.3l.24-.88h-6.6l.33.88h6.03Zm3.3-33.64h5.72l.1-.36h-5.72l-.1.36Zm-.39,1.46h5.72l.11-.42h-5.72l-.11.42Zm-.39,1.46h5.72l.11-.42h-5.72l-.11.42Zm-.39,1.46h5.72l.11-.42h-5.72l-.11.42Zm-.4,1.51h5.72l.13-.47h-5.72l-.13.47Zm-.39,1.46h5.72l.15-.57h-5.72l-.15.57Zm-.39,1.46h5.72l.14-.52h-5.72l-.14.52Zm-.4,1.51h5.72l.15-.57h-5.72l-.15.57Zm-.39,1.46h5.72l.15-.57h-5.72l-.15.57Zm-.39,1.46h5.72l.17-.62h-5.72l-.17.62Zm-.4,1.51h5.72l.18-.68h-5.72l-.18.68Zm-.39,1.46h5.72l.18-.68h-5.72l-.18.68Zm-.39,1.46h5.72l.19-.73h-5.72l-.19.73Zm-.39,1.46h5.72l.19-.73h-5.72l-.19.73Zm-.38,1.4h5.72l.18-.68h-5.72l-.18.68Zm-.42,1.56h5.72l.21-.78h-5.72l-.21.78Z" fill="#aed137"/><path d="m421.12,665.43l-2.52,9.42h-.21l-1.65,2.64h-29.22l10.25-38.27,1.46-2.34.17-.62h29.53l-2.54,9.46h-.21l-1.65,2.65h-18.88l-.71,2.44,16.37.05-2.51,9.36-.22.05-1.64,2.65h-15.19l-.67,2.5h20.02Zm-21.39,1.04l1.95-7.28h16.33l1.95-7.28h-16.33l1.95-7.28h20.02l1.96-7.33h-27.35l-9.77,36.45h27.35l1.95-7.28h-20.02Zm.71-27.09h25.74l.1-.36h-25.74l-.1.36Zm-.39,1.46h25.74l.11-.42h-25.74l-.11.42Zm-.39,1.46h25.74l.11-.42h-25.74l-.11.42Zm-.39,1.46h25.74l.11-.42h-25.74l-.11.42Zm-.4,1.51h5.72l.13-.47h-5.72l-.13.47Zm-.39,1.46h5.72l.15-.57h-5.72l-.15.57Zm-.39,1.46h5.72l.14-.52h-5.72l-.14.52Zm-.39,1.46h5.72l.14-.52h-5.72l-.14.52Zm-.42,1.56h5.72l.17-.62h-5.72l-.17.62Zm-.38,1.4h5.72l.17-.62h-5.72l-.17.62Zm-.4,1.51h22.1l.17-.62h-22.1l-.17.62Zm-.39,1.46h22.1l.18-.68h-22.1l-.18.68Zm-.39,1.46h22.1l.19-.73h-22.1l-.19.73Zm21.71,1.46l.19-.73h-22.1l-.21.78h5.72v-.05h16.39Zm-22.48,1.4h5.72l.18-.68h-5.72l-.18.68Zm-.42,1.56h5.72l.21-.78h-5.72l-.21.78Zm-.39,1.46h5.72l.22-.83h-5.72l-.22.83Zm-.38,1.4h5.72l.22-.83h-5.72l-.22.83Zm-.42,1.56h5.72l.24-.88h-5.72l-.24.88Zm25.36,1.4h-20.02l.24-.88h-5.72l-.25.94h25.74v-.05Zm-26.14,1.51h25.74l.25-.94h-25.74l-.25.94Zm-.38,1.4h25.74l.24-.88h-25.74l-.24.88Zm-.42,1.56h25.74l.26-.99h-25.74l-.26.99Zm25.41,1.25l.22-.83h-25.74l-.22.83h25.74Z" fill="#aed137"/><path d="m466.91,636.21l-10.34,38.58h-.21l-1.65,2.65h-9.2l6.66-24.86-2.31,1.82-4.82-6.45,1.65-2.65-.11-.16,11.45-8.94h8.88Zm-8.7,1.04l-10.07,7.89,3.83,5.11,3.49-2.76-1.45,5.41-5.57,20.8h7.33l9.77-36.45h-7.33Zm-8.92,7.88c-.02.06,0,.1.08.1l13.2.03.13-.47h-12.95l-.46.34Zm1.08,1.58h4.94l.67-.57-5.99.05.38.52Zm.69-2.96h11.91l.11-.42h-11.49l-.53.42Zm.38,4.42h2.03l.66-.52h-3.07l.38.52Zm1.47-5.88h10.45l.11-.42h-10.04l-.53.42Zm-.69,6.86l.07-.05h-.1s0,.05.04.05Zm2.54-8.32h9l.11-.42h-8.58l-.53.42Zm1.85-1.46h7.54l.1-.36h-7.18l-.46.36Zm-.14,7.33h5.72l.15-.57h-5.72l-.15.57Zm-.39,1.46h5.72l.14-.52h-5.72l-.14.52Zm-.4,1.51h5.72l.15-.57h-5.72l-.15.57Zm-.39,1.46h5.72l.15-.57h-5.72l-.15.57Zm-.39,1.46h5.72l.17-.62h-5.72l-.17.62Zm-.4,1.51h5.72l.18-.68h-5.72l-.18.68Zm-.39,1.46h5.72l.18-.68h-5.72l-.18.68Zm-.39,1.46h5.72l.19-.73h-5.72l-.19.73Zm-.39,1.46h5.72l.19-.73h-5.72l-.19.73Zm-.38,1.4h5.72l.18-.68h-5.72l-.18.68Zm-.42,1.56h5.72l.21-.78h-5.72l-.21.78Zm-.39,1.46h5.72l.22-.83h-5.72l-.22.83Zm-.4,1.51h5.72l.24-.88h-5.72l-.24.88Zm-.39,1.46h5.72l.24-.88h-5.72l-.24.88Zm-.39,1.46h5.72l.25-.94h-5.72l-.25.94Zm-.39,1.46h5.72l.25-.94h-5.72l-.25.94Zm-.38,1.4h5.72l.24-.88h-5.72l-.24.88Zm-.42,1.56h5.72l.26-.99h-5.72l-.26.99Zm5.4,1.2l.21-.78h-5.72l-.21.78h5.72Z" fill="#aed137"/><path d="m491.4,666.69c-.24.9-.5,1.75-.79,2.54-.28.8-.79,1.59-1.53,2.39l-.94,1.56c-.3.49-.67.95-1.11,1.4-.43.45-1.01.92-1.73,1.4-.71.45-1.38.79-1.99,1.01s-1.21.39-1.77.49c-.57.1-1.12.16-1.66.16h-1.64c-.21,0-.42,0-.65-.03-.22-.02-.45-.03-.7-.03-.66,0-1.3,0-1.93.03-.63.02-1.26.03-1.88.03h-6.98c-.73,0-1.45-.02-2.15-.05-.7-.04-1.39-.1-2.05-.21-1.5-.24-2.64-.92-3.42-2.03-.78-1.11-.95-2.5-.5-4.16l6.24-23.3c.19-.69.38-1.35.58-1.98s.48-1.23.85-1.82l.17-.26-.08.1.83-1.35c.31-.76.74-1.49,1.29-2.18.55-.69,1.4-1.44,2.55-2.24.76-.49,1.44-.86,2.07-1.12s1.22-.44,1.79-.55c.57-.1,1.13-.16,1.68-.16h1.72l10.51.05c.9,0,1.83,0,2.78.03.95.02,1.87.11,2.76.29.73.14,1.39.4,1.98.78s1.07.85,1.45,1.4c.37.55.61,1.18.72,1.87.11.69.06,1.44-.15,2.23l-6.35,23.68Zm-25.63-22.74s-.07.07-.08.1v.05s.08-.16.08-.16Zm26.83,14.2l4.07-15.18c.18-.66.22-1.29.14-1.9-.08-.61-.28-1.13-.59-1.59-.31-.45-.72-.82-1.21-1.12-.49-.29-1.06-.49-1.69-.6-1.23-.21-2.44-.31-3.64-.31h-11.23c-.63,0-1.24,0-1.84-.03-.6-.02-1.2,0-1.79.08-.59.07-1.2.22-1.84.44-.63.23-1.33.58-2.08,1.07-.77.52-1.38,1.03-1.84,1.53-.46.5-.84,1.02-1.12,1.56-.28.54-.5,1.1-.66,1.69l-.5,1.87-2.02,7.54-4.07,15.18c-.19.69-.24,1.33-.15,1.92.09.59.28,1.12.59,1.59s.72.85,1.23,1.14c.51.29,1.08.49,1.72.6,1.19.21,2.39.3,3.6.29,1.2-.02,2.41-.03,3.63-.03,1.29,0,2.56,0,3.81-.03s2.52-.03,3.81-.03c.62,0,1.25.02,1.86.05.62.03,1.24.03,1.86-.03.62-.05,1.26-.18,1.93-.39s1.37-.55,2.13-1.04c.76-.52,1.36-1.04,1.8-1.56.43-.52.78-1.05,1.02-1.59.25-.54.45-1.11.59-1.72.14-.61.31-1.24.48-1.9l2.02-7.54Zm-24.53-14.4h27.56l.11-.42h-27.51c-.06.1-.12.24-.16.42Zm-.4,1.51h5.72l.13-.47h-5.72l-.08.31-.04.16Zm-.39,1.46h5.72l.14-.52h-5.72l-.14.52Zm-.39,1.46h5.72l.14-.52h-5.72l-.14.52Zm-.4,1.51h5.72l.15-.57h-5.72l-.15.57Zm-.39,1.46h5.72l.15-.57h-5.72l-.15.57Zm-.39,1.46h5.72l.17-.62h-5.72l-.17.62Zm-.4,1.51h5.72l.18-.68h-5.72l-.18.68Zm-.39,1.46h5.72l.18-.68h-5.72l-.18.68Zm-.39,1.46h5.72l.19-.73h-5.72l-.19.73Zm-.39,1.46h5.72l.19-.73h-5.72l-.19.73Zm-.38,1.4h5.72l.18-.68h-5.72l-.18.68Zm-.42,1.56h5.72l.21-.78h-5.72l-.21.78Zm-.39,1.46h5.72l.22-.83h-5.72l-.22.83Zm-.39,1.46h5.72l.22-.83h-5.72l-.22.83Zm-.4,1.51l5.71.05.25-.94h-5.72l-.24.88Zm-.39,1.46h5.72l.25-.94h-5.72l-.25.94Zm27.42.52h-27.56l-.15.57-.1.36h27.51c.08-.17.14-.33.18-.47l.13-.47Zm-.55,1.46h-27.35c0,.39.04.69.13.88h26.68c.22-.29.4-.59.55-.88Zm-19.96-26.99h27.3v-.42s-27.03,0-27.03,0l-.27.42Zm18.94,28.44l-26.03-.04c.09.18.18.36.27.54.09.18.2.34.34.49h24.27c.51-.35.89-.68,1.15-.99Zm-17.82-29.9h26.09c-.05-.07-.08-.14-.07-.21,0-.07-.02-.14-.07-.21h-25.52l-.42.42Zm16.04,31.3h-23.18c.49.38,1.07.62,1.73.73.67.1,1.33.17,2,.21.67.04,1.31.05,1.94.05h6.98c.62,0,1.25,0,1.88-.03s1.27-.03,1.93-.03c.24,0,.47,0,.7.03.22.02.44.03.64.03.86.04,1.72.02,2.59-.05.87-.07,1.79-.38,2.78-.94Zm-14.19-32.76h23.23l-.53-.36h-22.03l-.67.36Zm-3.15,27.25l5.87-21.89h14.51l-5.87,21.89h-14.51Zm12.88-1.09l4.57-17.06h-11.49l-4.58,17.11,11.51-.05Zm8.14-20.28h5.72l.13-.47h-5.72l-.13.47Zm-.39,1.46h5.72l.14-.52h-5.72l-.14.52Zm-.39,1.46h5.72l.14-.52h-5.72l-.14.52Zm-.4,1.51h5.72l.15-.57h-5.72l-.15.57Zm-.39,1.46h5.72l.15-.57h-5.72l-.15.57Zm-.39,1.46h5.72l.17-.62h-5.72l-.17.62Zm-.4,1.51h5.72l.18-.68h-5.72l-.18.68Zm-.39,1.46h5.72l.18-.68h-5.72l-.18.68Zm-.39,1.46h5.72l.19-.73h-5.72l-.19.73Zm-.39,1.46h5.72l.19-.73h-5.72l-.19.73Zm-.38,1.4h5.72l.18-.68h-5.72l-.18.68Zm-.42,1.56h5.72l.21-.78h-5.72l-.21.78Zm-.39,1.46h5.72l.22-.83h-5.72l-.22.83Zm-.39,1.46h5.72l.22-.83h-5.72l-.22.83Zm-.4,1.51l5.71.05.25-.94h-5.72l-.24.88Zm5.5.83l.08-.31h-5.72l-.25.94h5.72l.17-.62Z" fill="#aed137"/><path d="m531.69,636.26l-2.54,9.46h-.21l-1.64,2.65h-9.73l-7.09,26.47h-.21l-1.65,2.65h-9.2l7.8-29.12h-10.92l2.45-9.15,1.46-2.34.17-.62h31.3Zm-30.49,1.04l-1.96,7.33h10.92l-7.8,29.12h7.33l7.8-29.12h10.87l1.96-7.33h-29.12Zm.22,2.08h27.56l.1-.36h-27.56l-.1.36Zm-.39,1.46h27.56l.11-.42h-27.56l-.11.42Zm-.39,1.46h27.56l.11-.42h-27.56l-.11.42Zm-.39,1.46h27.56l.11-.42h-27.56l-.11.42Zm10.52,1.51h5.72l.13-.47h-5.72l-.13.47Zm-.39,1.46h5.72l.15-.57h-5.72l-.15.57Zm-.39,1.46h5.72l.14-.52h-5.72l-.14.52Zm-.4,1.51h5.72l.15-.57h-5.72l-.15.57Zm-.39,1.46h5.72l.15-.57h-5.72l-.15.57Zm-.39,1.46h5.72l.17-.62h-5.72l-.17.62Zm-.4,1.51h5.72l.18-.68h-5.72l-.18.68Zm-.39,1.46h5.72l.18-.68h-5.72l-.18.68Zm-.39,1.46h5.72l.19-.73h-5.72l-.19.73Zm-.39,1.46h5.72l.19-.73h-5.72l-.19.73Zm-.38,1.4h5.72l.18-.68h-5.72l-.18.68Zm-.42,1.56h5.72l.21-.78h-5.72l-.21.78Zm-.39,1.46h5.72l.22-.83h-5.72l-.22.83Zm-.4,1.51h5.72l.24-.88h-5.72l-.24.88Zm-.39,1.46h5.72l.24-.88h-5.72l-.24.88Zm-.39,1.46h5.72l.25-.94h-5.72l-.25.94Zm-.39,1.46h5.72l.25-.94h-5.72l-.25.94Zm-.38,1.4h5.72l.24-.88h-5.72l-.24.88Zm-.42,1.56h5.72l.26-.99h-5.72l-.26.99Zm5.39,1.25l.22-.83h-5.72l-.22.83h5.72Z" fill="#aed137"/><path d="m564.16,636.15l-10.34,38.58h-.21l-1.65,2.65h-9.2l3.9-14.56h-11.49l-3.19,11.91h-.21l-1.65,2.65h-9.2l10.26-38.27,1.46-2.34.17-.62h9.51l-3.9,14.56,11.48.05,3.12-11.64,1.47-2.35.17-.63h9.51Zm-8.7,1.04l-3.92,14.61h-14.51l3.92-14.61h-7.33l-9.77,36.45h7.33l3.9-14.56h14.51l-3.9,14.56h7.33l9.77-36.45h-7.33Zm-21.65,2.18h5.72l.1-.36h-5.72l-.1.36Zm-.39,1.46h5.72l.11-.42h-5.72l-.11.42Zm-.39,1.46h5.72l.11-.42h-5.72l-.11.42Zm-.39,1.46h5.72l.11-.42h-5.72l-.11.42Zm-.4,1.51h5.72l.13-.47h-5.72l-.13.47Zm-.39,1.46h5.72l.15-.57h-5.72l-.15.57Zm-.39,1.46h5.72l.14-.52h-5.72l-.14.52Zm-.39,1.46h5.72l.14-.52h-5.72l-.14.52Zm-.4,1.51h5.72l.15-.57-5.73.05-.14.52Zm5.33,1.46l.17-.62h-5.72l-.17.62h5.72Zm-6.12,1.51h27.56l.17-.62h-27.56l-.17.62Zm-.39,1.46h27.56l.18-.68h-27.56l-.18.68Zm-.39,1.46h27.56l.19-.73h-27.56l-.19.73Zm21.44,1.51h5.72l.21-.78h-27.56l-.21.78h5.72l.04-.16h16.12l-.04.16Zm-22.2,1.35h5.72l.18-.68h-5.72l-.18.68Zm-.42,1.56h5.72l.21-.78h-5.72l-.21.78Zm-.39,1.46h5.72l.22-.83h-5.72l-.22.83Zm-.4,1.51h5.72l.24-.88h-5.72l-.24.88Zm-.39,1.46h5.72l.24-.88h-5.72l-.24.88Zm-.39,1.46h5.72l.25-.94h-5.72l-.25.94Zm-.39,1.46h5.72l.25-.94h-5.72l-.25.94Zm-.38,1.4h5.72l.24-.88h-5.72l-.24.88Zm-.42,1.56h5.72l.26-.99h-5.72l-.26.99Zm5.41,1.14l.19-.73h-5.72l-.19.73h5.72Zm25.09-33.49h5.72l.1-.36h-5.72l-.1.36Zm-.39,1.46h5.72l.11-.42h-5.72l-.11.42Zm-.39,1.46h5.72l.11-.42h-5.72l-.11.42Zm-.39,1.46h5.72l.11-.42h-5.72l-.11.42Zm-.4,1.51h5.72l.13-.47h-5.72l-.13.47Zm-.39,1.46h5.72l.15-.57h-5.72l-.15.57Zm-.39,1.46h5.72l.14-.52h-5.72l-.14.52Zm-.39,1.46h5.72l.14-.52h-5.72l-.14.52Zm-.4,1.51h5.72l.15-.57h-5.72l-.15.57Zm-.39,1.46h5.72l.17-.62h-5.72l-.17.62Zm-1.95,7.28h5.72l.18-.68h-5.72l-.18.68Zm-.42,1.56h5.72l.21-.78h-5.72l-.21.78Zm-.39,1.46h5.72l.22-.83h-5.72l-.22.83Zm-.4,1.51h5.72l.24-.88h-5.72l-.24.88Zm-.39,1.46h5.72l.24-.88h-5.72l-.24.88Zm-.39,1.46h5.72l.25-.94h-5.72l-.25.94Zm-.39,1.46h5.72l.25-.94h-5.72l-.25.94Zm-.38,1.4h5.72l.24-.88h-5.72l-.24.88Zm-.42,1.56h5.72l.26-.99h-5.72l-.26.99Zm5.41,1.14l.19-.73h-5.72l-.19.73h5.72Z" fill="#aed137"/><path d="m567.32,665.33l-2.54,9.46h-.21l-1.65,2.65h-2.35l-2.6,3.64h-5.23l3.42-12.75,1.46-2.33.17-.62,9.53-.05Zm-8.72,1.09l-1.95,7.28-.98,3.64h3.67l2.6-3.64h2.04l1.95-7.28h-7.33Zm.15,2.34h5.72l.25-.94h-5.72l-.25.94Zm-.38,1.4h5.72l.24-.88h-5.72l-.24.88Zm-.42,1.56h5.72l.26-.99h-5.72l-.26.99Zm5.4,1.2l.21-.78h-5.72l-.28,1.04h3.85s.07-.12.17-.26h1.77Zm-2.23.68h-3.67l-.28,1.04h3.2l.75-1.04Zm-1.07,1.46h-2.99l-.28,1.04h2.52l.75-1.04Zm-1.08,1.51v-.05s-2.3,0-2.3,0v.05s2.3,0,2.3,0Zm5.93-9.36h-5.72l-.03.1h5.72l.03-.1Z" fill="#aed137"/><path d="m620.52,660.65c-.78,1.25-1.82,2.26-3.1,3.04-1.28.78-2.64,1.17-4.06,1.17h-14.3l-.11.42h21.84l-2.54,9.46h-.21l-1.65,2.65h-31.04l4.09-15.26c.21-.8.52-1.5.93-2.13l.92-1.5c.32-.79.75-1.54,1.3-2.23.55-.69,1.18-1.3,1.89-1.82.71-.52,1.48-.93,2.3-1.22.82-.29,1.67-.44,2.54-.44h14.46l1.16-4.32h-11.54l-.26.99h-.21l-1.65,2.65h-9.15l1.71-6.38c.22-.83.54-1.55.95-2.18l.17-.26c-.11.14-.16.22-.17.26l.45-.73.46-.73c.64-1.62,1.71-2.98,3.2-4.07,1.49-1.09,3.1-1.63,4.84-1.63h18.23c.9,0,1.71.17,2.41.52.71.35,1.27.81,1.71,1.4.43.59.72,1.28.85,2.08.13.79.08,1.64-.16,2.54l-3.46,12.71c-.3,1.25-.92,2.39-1.85,3.42l-.67,1.14-.27.42Zm-1.1,5.67h-21.84l1.39-5.2h16.38c.76,0,1.51-.14,2.24-.42.73-.28,1.41-.67,2.03-1.17.62-.5,1.17-1.08,1.64-1.74.47-.66.81-1.37,1.01-2.13l2.93-10.92.49-1.82c.2-.76.25-1.47.13-2.13-.12-.66-.36-1.23-.71-1.72-.36-.49-.82-.88-1.4-1.17-.58-.29-1.25-.44-2.02-.44h-18.23c-.76,0-1.52.15-2.25.44-.74.29-1.42.68-2.06,1.17s-1.18,1.06-1.63,1.72c-.45.66-.78,1.37-.99,2.13l-1.46,5.46h7.28l.98-3.64h14.56l-1.95,7.28-.49,1.82h-16.38c-.76,0-1.51.15-2.25.44-.74.29-1.42.68-2.06,1.17-.63.49-1.18,1.07-1.64,1.74s-.79,1.38-.98,2.11l-2.38,8.89-1.46,5.46h29.17l1.47-5.5.49-1.83Zm-22.34-22.57h27.56l.11-.42h-27.56l-.11.42Zm-.4,1.51h5.72l.13-.47h-5.72l-.13.47Zm-.39,1.46h5.72l.14-.52h-5.72l-.14.52Zm-3.53,13.16h24.85c.5-.16.94-.39,1.33-.68h-25.99l-.03.1-.16.58Zm-.42,1.56h5.72l.21-.78h-5.72l-.21.78Zm-.39,1.46h5.72l.22-.83h-5.72l-.22.83Zm-.39,1.46h5.72l.22-.83h-5.72l-.22.83Zm-.4,1.51h5.72l.24-.88h-5.72l-.24.88Zm5.38,1.3l.22-.83h-5.73l-.26.99h27.61l.04-.16h-21.88Zm-6.16,1.61h27.56l.25-.94h-27.56l-.25.94Zm-.38,1.4h27.56l.24-.88h-27.56l-.24.88Zm-.42,1.56h27.56l.26-.99h-27.56l-.26.99Zm27.25,1.14l.19-.73h-27.56l-.19.73h27.56Zm-19.32-30.58h27.51c.02-.07.03-.14.03-.21,0-.07.01-.14.03-.21h-27.35l-.21.42Zm-4.28,16.17h26.57l.66-.73h-26.83c-.13.21-.26.45-.4.73Zm5.1-17.63h26.62l-.1-.42h-26.2l-.32.42Zm-4.23,16.17h26.77c.16-.21.28-.45.35-.73h-26.46l-.66.73Zm5.7-17.58l24.44-.05c-.05-.06-.12-.11-.19-.16-.08-.04-.16-.1-.24-.16l-23.42-.05-.58.42Zm-4.06,16.12h25.73l.15-.57h-24.48c-.46.15-.92.34-1.4.57Zm22.77-10.3h5.72l.13-.47h-5.72l-.13.47Zm-.39,1.46h5.72l.14-.52h-5.72l-.14.52Zm-.39,1.46h5.72l.14-.52h-5.72l-.14.52Zm-.39,1.46h5.72l.14-.52h-5.72l-.14.52Zm-.4,1.51h5.72l.15-.57h-5.72l-.15.57Zm-.4,1.51h5.72l.18-.68h-5.72l-.18.68Zm-.38,1.4l5.71.05.18-.68h-5.72l-.17.62Z" fill="#aed137"/><path d="m653.27,666.69c-.24.9-.5,1.75-.79,2.54-.28.8-.79,1.59-1.53,2.39l-.94,1.56c-.3.49-.67.95-1.11,1.4-.43.45-1.01.92-1.73,1.4-.71.45-1.38.79-1.99,1.01s-1.21.39-1.77.49c-.57.1-1.12.16-1.66.16h-1.64c-.21,0-.42,0-.65-.03-.22-.02-.45-.03-.7-.03-.66,0-1.3,0-1.93.03-.63.02-1.26.03-1.88.03h-6.98c-.73,0-1.45-.02-2.15-.05-.7-.04-1.39-.1-2.05-.21-1.5-.24-2.64-.92-3.42-2.03-.78-1.11-.95-2.5-.5-4.16l6.24-23.3c.19-.69.38-1.35.58-1.98s.48-1.23.85-1.82l.17-.26-.08.1.83-1.35c.31-.76.74-1.49,1.29-2.18.55-.69,1.4-1.44,2.55-2.24.76-.49,1.44-.86,2.07-1.12s1.22-.44,1.79-.55c.57-.1,1.13-.16,1.68-.16h1.72l10.51.05c.9,0,1.83,0,2.78.03.95.02,1.87.11,2.76.29.73.14,1.39.4,1.98.78s1.07.85,1.45,1.4c.37.55.61,1.18.72,1.87.11.69.06,1.44-.15,2.23l-6.35,23.68Zm-25.63-22.74s-.07.07-.08.1v.05s.08-.16.08-.16Zm26.83,14.2l4.07-15.18c.18-.66.22-1.29.14-1.9-.08-.61-.28-1.13-.59-1.59-.31-.45-.72-.82-1.21-1.12-.49-.29-1.06-.49-1.69-.6-1.23-.21-2.44-.31-3.64-.31h-11.23c-.63,0-1.24,0-1.84-.03-.6-.02-1.2,0-1.79.08-.59.07-1.2.22-1.84.44-.63.23-1.33.58-2.08,1.07-.77.52-1.38,1.03-1.84,1.53-.46.5-.84,1.02-1.12,1.56-.28.54-.5,1.1-.66,1.69l-.5,1.87-2.02,7.54-4.07,15.18c-.19.69-.24,1.33-.15,1.92.09.59.28,1.12.59,1.59s.72.85,1.23,1.14c.51.29,1.08.49,1.72.6,1.19.21,2.39.3,3.6.29,1.2-.02,2.41-.03,3.63-.03,1.29,0,2.56,0,3.81-.03s2.52-.03,3.81-.03c.62,0,1.25.02,1.86.05.62.03,1.24.03,1.86-.03.62-.05,1.26-.18,1.93-.39s1.37-.55,2.13-1.04c.76-.52,1.36-1.04,1.8-1.56.43-.52.78-1.05,1.02-1.59.25-.54.45-1.11.59-1.72.14-.61.31-1.24.48-1.9l2.02-7.54Zm-24.53-14.4h27.56l.11-.42h-27.51c-.06.1-.12.24-.16.42Zm-.4,1.51h5.72l.13-.47h-5.72l-.08.31-.04.16Zm-.39,1.46h5.72l.14-.52h-5.72l-.14.52Zm-.39,1.46h5.72l.14-.52h-5.72l-.14.52Zm-.4,1.51h5.72l.15-.57h-5.72l-.15.57Zm-.39,1.46h5.72l.15-.57h-5.72l-.15.57Zm-.39,1.46h5.72l.17-.62h-5.72l-.17.62Zm-.4,1.51h5.72l.18-.68h-5.72l-.18.68Zm-.39,1.46h5.72l.18-.68h-5.72l-.18.68Zm-.39,1.46h5.72l.19-.73h-5.72l-.19.73Zm-.39,1.46h5.72l.19-.73h-5.72l-.19.73Zm-.38,1.4h5.72l.18-.68h-5.72l-.18.68Zm-.42,1.56h5.72l.21-.78h-5.72l-.21.78Zm-.39,1.46h5.72l.22-.83h-5.72l-.22.83Zm-.39,1.46h5.72l.22-.83h-5.72l-.22.83Zm-.4,1.51l5.71.05.25-.94h-5.72l-.24.88Zm-.39,1.46h5.72l.25-.94h-5.72l-.25.94Zm27.42.52h-27.56l-.15.57-.1.36h27.51c.08-.17.14-.33.18-.47l.13-.47Zm-.55,1.46h-27.35c0,.39.04.69.13.88h26.68c.22-.29.4-.59.55-.88Zm-19.96-26.99h27.3v-.42s-27.03,0-27.03,0l-.27.42Zm18.94,28.44l-26.03-.04c.09.18.18.36.27.54.09.18.2.34.34.49h24.27c.51-.35.89-.68,1.15-.99Zm-17.82-29.9h26.09c-.05-.07-.08-.14-.07-.21,0-.07-.02-.14-.07-.21h-25.52l-.42.42Zm16.04,31.3h-23.18c.49.38,1.07.62,1.73.73.67.1,1.33.17,2,.21.67.04,1.31.05,1.94.05h6.98c.62,0,1.25,0,1.88-.03s1.27-.03,1.93-.03c.24,0,.47,0,.7.03.22.02.44.03.64.03.86.04,1.72.02,2.59-.05.87-.07,1.79-.38,2.78-.94Zm-14.19-32.76h23.23l-.53-.36h-22.03l-.67.36Zm-3.15,27.25l5.87-21.89h14.51l-5.87,21.89h-14.51Zm12.88-1.09l4.57-17.06h-11.49l-4.58,17.11,11.51-.05Zm8.14-20.28h5.72l.13-.47h-5.72l-.13.47Zm-.39,1.46h5.72l.14-.52h-5.72l-.14.52Zm-.39,1.46h5.72l.14-.52h-5.72l-.14.52Zm-.4,1.51h5.72l.15-.57h-5.72l-.15.57Zm-.39,1.46h5.72l.15-.57h-5.72l-.15.57Zm-.39,1.46h5.72l.17-.62h-5.72l-.17.62Zm-.4,1.51h5.72l.18-.68h-5.72l-.18.68Zm-.39,1.46h5.72l.18-.68h-5.72l-.18.68Zm-.39,1.46h5.72l.19-.73h-5.72l-.19.73Zm-.39,1.46h5.72l.19-.73h-5.72l-.19.73Zm-.38,1.4h5.72l.18-.68h-5.72l-.18.68Zm-.42,1.56h5.72l.21-.78h-5.72l-.21.78Zm-.39,1.46h5.72l.22-.83h-5.72l-.22.83Zm-.39,1.46h5.72l.22-.83h-5.72l-.22.83Zm-.4,1.51l5.71.05.25-.94h-5.72l-.24.88Zm5.5.83l.08-.31h-5.72l-.25.94h5.72l.17-.62Z" fill="#aed137"/><path d="m686.61,660.65c-.78,1.25-1.82,2.26-3.1,3.04-1.28.78-2.64,1.17-4.06,1.17h-14.3l-.11.42h21.84l-2.54,9.46h-.21l-1.65,2.65h-31.04l4.09-15.26c.21-.8.52-1.5.93-2.13l.92-1.5c.32-.79.75-1.54,1.3-2.23.55-.69,1.18-1.3,1.89-1.82.71-.52,1.48-.93,2.3-1.22.82-.29,1.67-.44,2.54-.44h14.46l1.16-4.32h-11.54l-.26.99h-.21l-1.65,2.65h-9.15l1.71-6.38c.22-.83.54-1.55.95-2.18l.17-.26c-.11.14-.16.22-.17.26l.45-.73.46-.73c.64-1.62,1.71-2.98,3.2-4.07,1.49-1.09,3.1-1.63,4.84-1.63h18.23c.9,0,1.71.17,2.41.52.71.35,1.27.81,1.71,1.4.43.59.72,1.28.85,2.08.13.79.08,1.64-.16,2.54l-3.46,12.71c-.3,1.25-.92,2.39-1.85,3.42l-.67,1.14-.27.42Zm-1.1,5.67h-21.84l1.39-5.2h16.38c.76,0,1.51-.14,2.24-.42.73-.28,1.41-.67,2.03-1.17.62-.5,1.17-1.08,1.64-1.74.47-.66.81-1.37,1.01-2.13l2.93-10.92.49-1.82c.2-.76.25-1.47.13-2.13-.12-.66-.36-1.23-.71-1.72-.36-.49-.82-.88-1.4-1.17-.58-.29-1.25-.44-2.02-.44h-18.23c-.76,0-1.52.15-2.25.44-.74.29-1.42.68-2.06,1.17s-1.18,1.06-1.63,1.72c-.45.66-.78,1.37-.99,2.13l-1.46,5.46h7.28l.98-3.64h14.56l-1.95,7.28-.49,1.82h-16.38c-.76,0-1.51.15-2.25.44-.74.29-1.42.68-2.06,1.17-.63.49-1.18,1.07-1.64,1.74s-.79,1.38-.98,2.11l-2.38,8.89-1.46,5.46h29.17l1.47-5.5.49-1.83Zm-22.34-22.57h27.56l.11-.42h-27.56l-.11.42Zm-.4,1.51h5.72l.13-.47h-5.72l-.13.47Zm-.39,1.46h5.72l.14-.52h-5.72l-.14.52Zm-3.53,13.16h24.85c.5-.16.94-.39,1.33-.68h-25.99l-.03.1-.16.58Zm-.42,1.56h5.72l.21-.78h-5.72l-.21.78Zm-.39,1.46h5.72l.22-.83h-5.72l-.22.83Zm-.39,1.46h5.72l.22-.83h-5.72l-.22.83Zm-.4,1.51h5.72l.24-.88h-5.72l-.24.88Zm5.38,1.3l.22-.83h-5.73l-.26.99h27.61l.04-.16h-21.88Zm-6.16,1.61h27.56l.25-.94h-27.56l-.25.94Zm-.38,1.4h27.56l.24-.88h-27.56l-.24.88Zm-.42,1.56h27.56l.26-.99h-27.56l-.26.99Zm27.25,1.14l.19-.73h-27.56l-.19.73h27.56Zm-19.32-30.58h27.51c.02-.07.03-.14.03-.21,0-.07.01-.14.03-.21h-27.35l-.21.42Zm-4.28,16.17h26.57l.66-.73h-26.83c-.13.21-.26.45-.4.73Zm5.1-17.63h26.62l-.1-.42h-26.2l-.32.42Zm-4.23,16.17h26.77c.16-.21.28-.45.35-.73h-26.46l-.66.73Zm5.7-17.58l24.44-.05c-.05-.06-.12-.11-.19-.16-.08-.04-.16-.1-.24-.16l-23.42-.05-.58.42Zm-4.06,16.12h25.73l.15-.57h-24.48c-.46.15-.92.34-1.4.57Zm22.77-10.3h5.72l.13-.47h-5.72l-.13.47Zm-.39,1.46h5.72l.14-.52h-5.72l-.14.52Zm-.39,1.46h5.72l.14-.52h-5.72l-.14.52Zm-.39,1.46h5.72l.14-.52h-5.72l-.14.52Zm-.4,1.51h5.72l.15-.57h-5.72l-.15.57Zm-.4,1.51h5.72l.18-.68h-5.72l-.18.68Zm-.38,1.4l5.71.05.18-.68h-5.72l-.17.62Z" fill="#aed137"/><path d="m720.69,656.12c.4.59.6,1.21.62,1.85.02.64-.1,1.43-.35,2.37l-2.09,7.8c-.34,1.28-1.01,2.46-1.99,3.54l-.85,1.4c-.79,1.25-1.83,2.27-3.14,3.07-1.31.8-2.69,1.2-4.15,1.2h-18.12c-.9,0-1.7-.17-2.39-.5-.69-.33-1.25-.78-1.67-1.36-.42-.57-.69-1.25-.81-2.03-.12-.78-.06-1.63.18-2.53l1.72-6.42,1.46-2.35.17-.63h6.45l2.25-8.38.57-.98h-7.59l1.21-4.52c.24-.9.5-1.72.77-2.47.27-.74.61-1.45,1.03-2.11l.17-.26s-.07.07-.08.1l.64-1.04c.33-.83.74-1.59,1.24-2.29.5-.69,1.11-1.27,1.85-1.74.73-.47,1.62-.83,2.66-1.09,1.04-.26,2.29-.39,3.75-.39h.21l14.61-.1h.21c.9,0,1.77.05,2.59.16.82.1,1.61.45,2.35,1.04.74.62,1.22,1.36,1.47,2.21.24.85.26,1.78.06,2.78-.06.49-.16,1.01-.29,1.56-.13.56-.26,1.06-.38,1.51-.06.24-.14.48-.21.7-.08.23-.15.46-.21.7l-.38,1.4c-.17.49-.31.96-.44,1.43l-.4,1.48c-.21.8-.47,1.48-.76,2.05s-.68,1.1-1.15,1.59l-.74,1.2-.07.05Zm-26.72-13.05c.02-.07.05-.12.09-.16l-.09.16Zm12.89,8.16h-6.45l-1.94,7.23h14.56l-1.12,4.19-.2.73-.79,2.93h-14.56l.48-1.79.48-1.79h-7.28l-.49,1.81-.97,3.62c-.2.76-.25,1.47-.15,2.12.1.66.34,1.23.71,1.73.37.5.85.89,1.43,1.16.59.28,1.26.41,2.02.41h18.13c.76,0,1.52-.14,2.27-.42s1.45-.67,2.08-1.17c.64-.5,1.19-1.08,1.67-1.74.47-.66.81-1.37,1.01-2.13l1.27-4.73.82-3.07c.29-1.07.34-1.96.16-2.65-.18-.69-.64-1.33-1.39-1.92,1.06-.59,1.87-1.23,2.42-1.93.55-.7.97-1.56,1.25-2.61.21-.8.43-1.56.66-2.27.22-.71.44-1.41.64-2.08s.39-1.37.56-2.09c.17-.71.32-1.47.43-2.27.17-.9.17-1.7,0-2.4-.18-.7-.6-1.3-1.26-1.83-.63-.49-1.32-.77-2.06-.86s-1.51-.13-2.31-.13h-.21l-14.61.1h-.21c-2.01,0-3.59.28-4.73.84-1.14.56-2.03,1.33-2.68,2.33-.65.99-1.14,2.16-1.48,3.5-.34,1.34-.72,2.78-1.13,4.31h7.28l.98-3.64h14.56l-1.74,6.5h-8.11Zm-10.94-7.49h27.66c.02-.07.03-.14.03-.21,0-.07.01-.14.03-.21h-27.61l-.11.42Zm-.4,1.51h5.72l.13-.47h-5.72v.05s-.13.42-.13.42Zm-.39,1.46h5.72l.14-.52h-5.72l-.14.52Zm-4.72,17.63h5.72l.22-.83h-5.72l-.22.83Zm-.4,1.51h5.72l.24-.88-5.73.05-.22.83Zm5.39,1.25l.2-.73h-5.72l-.25.94h27.56l.25-.94h-5.72l-.2.73h-16.12Zm21.56,1.04l.08-.31h-27.56l-.08.31-.17.62h27.51c.07-.14.14-.35.22-.62Zm-.46,1.14h-27.3c.03.16.04.32.06.47.01.15.03.29.07.42h26.62c.2-.23.38-.52.55-.88Zm-19.97-26.99h27.3c.02-.07.03-.14.03-.21,0-.07.01-.14.03-.21h-27.2c-.02.07-.05.14-.08.21-.04.07-.06.14-.08.21Zm.76-1.46h26.56c-.02-.07-.03-.14-.05-.21-.02-.07-.05-.14-.1-.21h-26.09l-.32.42Zm18.24,29.9l-26.08-.04c.09.18.18.36.27.54s.2.34.34.49h24.32c.34-.24.73-.57,1.15-.99Zm-16.7-31.36h24.27c-.17-.14-.3-.26-.37-.36h-23.28c-.12.07-.23.13-.34.18s-.2.11-.28.18Zm14.82,32.76h-23.13c.57.45,1.35.68,2.32.68h18.13c.97,0,1.87-.23,2.68-.68Zm-11.33-23.66l-.26.99h-.21l-.45.68,11.96.05.46-1.72h-11.49Zm18.97,3.54h-5.67v.05h-14.57l-.14.52h20.07c.09-.09.16-.19.18-.29s.07-.19.13-.29Zm-.89,1.4h-19.71l-.18.68h19.24c.13-.11.25-.23.35-.34.1-.11.2-.22.3-.34Zm-1.74,1.46h-18.36l-.18.68h17.47c.2-.1.39-.22.56-.34.17-.12.34-.23.51-.34Zm-.8,1.4h-17.93l-.19.73h18.82l-.69-.73Zm-19.22,5.98l-.79,2.96,11.48.05.81-3.02h-11.49Zm18.75-17h5.82l.13-.47h-5.82l-.13.47Zm5.57.94h-5.82l-.14.52h5.82l.14-.52Zm-6.35,1.98h5.77l.14-.52h-5.77l-.14.52Zm5.47.94h-5.72l-.14.52h5.72l.14-.52Zm-6.26,2.03h5.72l.15-.57h-5.72l-.15.57Zm3.12,6.6h-4.89l-.18.68h5.3c-.04-.1-.08-.2-.1-.31-.02-.11-.07-.23-.14-.36Zm.29,1.46h-5.56l-.21.78h5.72l.05-.78Zm-6.15,2.18h5.72l.19-.73h-5.72l-.19.73Zm-.42,1.56h5.72l.24-.88h-5.72l-.24.88Zm-.38,1.4h5.72l.22-.83h-5.72l-.22.83Zm-.4,1.51h5.72l.24-.88-5.73.05-.22.83Zm4.15,7.23c.02-.07.05-.12.09-.16l-.09.16Z" fill="#aed137"/></svg>