<?xml version="1.0" encoding="UTF-8"?><svg id="d" xmlns="http://www.w3.org/2000/svg" width="965.42" height="698.34" viewBox="0 0 965.42 698.34"><g id="e"><g id="f"><path d="m260.42,199.65l33.97-22.64c2.51-1.67,3.89-4.6,3.58-7.6l-14.87-143.92c-.03-.31-.36-.51-.65-.38-5.49,2.35-29.15,21.43-45.34,33.43" fill="none" stroke="#add136" stroke-linecap="round" stroke-miterlimit="10" stroke-width="40"/></g></g><path d="m119.84,499.35l52.52,78.96c.14.21.14.48-.02.69-3.65,4.79-44.71,60.44.25,87.43,0,0,31.72,18.37,59.09-8.54.85-.84,1.54-1.84,2.06-2.92l10.77-22.15s6.21-10.68,17.33-16.32,42.82-18.59,49.06-41.37l1.05-19.11s-3-5.9,15.95-28.73c1.07-1.29,1.49-3,1.12-4.64-2.19-9.92-8.16-45.38,17.45-49.75.46-.08.75-.55.58-.98-1.75-4.46-8.46-26.66,12.04-66.16l1.55-22.32s-2.73-10.24,34.48-59.05c0,0,10.24-13.31,2.73-29.7l-8.53-28.67s-2.05-9.56-12.63-12.29c-9.52-2.46-81.74-29.5-96.15-34.9-1.65-.62-3.17-1.54-4.49-2.71l-13.95-12.45c-2.3-2.05-4.37-4.35-6.17-6.85l-21.36-29.64s-8.26-9.7-19.4-13.29c-9.91-3.2-42.26-18.37-49.29-21.69-.99-.47-2.05-.76-3.14-.86-1.25-.11-3.05-.19-4.97-.02-1.14.1-2.2.67-2.91,1.57l-76.17,97.5c-.77.98-1.41,2.04-1.92,3.17-6.69,14.69-54.34,119.87-50.42,125.75l51.56,76.36" fill="none" stroke="#e73325" stroke-miterlimit="10" stroke-width="40"/><polygon points="103.4 437.96 90.04 418 56.75 440.28 69.74 459.69 77.96 436.07 103.4 437.96" fill="#e83427"/><polygon points="142.08 496.53 136.7 488.49 107.91 481.12 103.04 510.22 108.79 518.81 142.08 496.53" fill="#e83427"/><polygon id="g" points="113.92 453.64 85.37 447.62 80.26 475.37 92.55 493.72 101.04 470.09 126.2 471.99 113.92 453.64" fill="#e83427"/><g id="h"><path d="m513.86,276c-1.5,2.31-3.2,4-5.11,5.06-1.91,1.06-3.67,1.48-5.28,1.26-1.62-.22-2.78-1.04-3.5-2.48,1.33-.81,1.94-1.7,1.85-2.67-.09-.97-.81-1.78-2.16-2.44-1.35-.66-3.27-.89-5.77-.7-2.54.13-5.31.94-8.33,2.44s-5.82,3.65-8.42,6.46c-2.6,2.81-4.67,6.31-6.22,10.49-1.59,4.31-2.29,7.81-2.1,10.49.19,2.69.85,4.73,1.99,6.14s2.42,2.4,3.85,3c1.43.59,2.61.98,3.55,1.17,1.23.25,2.69.42,4.38.52,1.69.09,3.45-.01,5.3-.33,1.85-.31,3.52-.84,5.01-1.59,1.35-.69,3.05-1.61,5.11-2.76,2.06-1.15,4.11-2.45,6.13-3.89,2.03-1.44,3.66-2.9,4.9-4.4,1.66,1.44,2.32,3.47,2,6.09-.32,2.62-1.47,5.43-3.44,8.43-1.97,3-4.62,5.82-7.95,8.48-3.33,2.66-7.23,4.81-11.7,6.46-4.47,1.65-9.37,2.42-14.7,2.29-2.48-.06-5.18-.53-8.11-1.41-2.93-.87-5.71-2.26-8.34-4.17-2.63-1.9-4.76-4.43-6.39-7.59-1.63-3.15-2.37-7.07-2.22-11.76.15-4.68,1.57-10.21,4.26-16.58,2.53-6.06,5.74-11.27,9.63-15.64,3.89-4.37,8.08-7.95,12.57-10.72,4.49-2.78,8.98-4.87,13.47-6.28,4.49-1.4,8.58-2.14,12.28-2.2,3.72-.12,6.74.44,9.05,1.69,2.31,1.25,3.99,2.86,5.04,4.82s1.51,4.06,1.38,6.28c-.13,2.22-.8,4.23-2.01,6.04Z" fill="#e83427"/><path d="m574.47,314.6c.16,1.81.66,3.54,1.5,5.2.83,1.66,1.62,2.89,2.36,3.7-2.51,3.12-5.1,5.4-7.75,6.84-2.2,1.19-4.36,1.87-6.48,2.06-1.17.12-2.42.03-3.75-.28s-2.53-1.2-3.58-2.67c-1.05-1.47-1.8-3.82-2.25-7.07-.09-1.06-.82-1.81-2.17-2.25-1.36-.44-2.86-.7-4.52-.8-1.66-.09-3.01-.14-4.08-.14s-2.37.03-3.92.09c-1.55.06-3.02.31-4.41.75-1.39.44-2.4,1.22-3.01,2.34-.58,1-.94,2.03-1.1,3.09-.16,1.06.02,1.75.55,2.06-1.39,1-2.72,1.87-3.99,2.62-1.27.75-2.51,1.34-3.72,1.78-1.49.56-2.94.84-4.35.84s-2.88-.31-4.43-.94c-.71-.31-1.37-.87-1.98-1.69-.61-.81-.84-1.93-.68-3.37.15-1.44.99-3.25,2.51-5.43.12-.19.76-1.19,1.91-3,1.15-1.81,2.66-4.2,4.53-7.17,1.87-2.96,3.94-6.26,6.21-9.88,2.27-3.62,4.6-7.35,7.01-11.19,2.4-3.84,4.73-7.54,6.98-11.1,2.25-3.56,4.28-6.77,6.09-9.65,1.81-2.87,3.76-5.99,5.85-9.37.66-.31,1.83-.7,3.52-1.17,1.68-.47,3.41-.73,5.18-.8,1.98-.12,3.78.13,5.42.75,1.64.63,2.65,1.87,3.04,3.75.19.75.38,2.19.57,4.31.18,2.12.38,4.68.59,7.68.21,3,.42,6.2.63,9.6.21,3.4.41,6.78.6,10.12.19,3.34.35,6.45.48,9.32.13,2.87.25,5.29.36,7.26.11,1.97.2,3.23.27,3.79Zm-25.58-12.08c1.66-.12,2.77-.59,3.31-1.4.54-.81,1.02-1.75,1.43-2.81.22-.69.39-1.53.49-2.53.1-1,.08-1.89-.07-2.67-.15-.78-.54-1.17-1.17-1.17-.88,0-2.02.61-3.45,1.83-1.43,1.22-2.4,2.45-2.93,3.7-.57,1.19-.84,2.34-.8,3.47.04,1.12,1.1,1.66,3.18,1.59Z" fill="#e83427"/><path d="m644.25,302.51c-.27.06-.74.41-1.41,1.03-.67.62-1.21,1.28-1.62,1.97-.64,1-.81,1.81-.51,2.44.8,1.56,1.9,3.39,3.28,5.48,1.38,2.09,2.81,4.07,4.3,5.95,1.48,1.87,2.81,3.31,3.99,4.31-2.1,3-4.64,5.39-7.62,7.17-2.98,1.78-5.93,2.64-8.85,2.58-2.92-.06-5.36-1.37-7.34-3.93-.25-.37-.7-1.2-1.35-2.48-.65-1.28-1.37-2.79-2.18-4.54-.81-1.75-1.61-3.5-2.42-5.25-.81-1.75-1.5-3.28-2.07-4.59-.57-1.31-.93-2.12-1.08-2.44-.68-1.56-1.69-1.9-3.04-1.03-1.35.87-2.59,2.69-3.73,5.43-.65,1.62-1.24,3.48-1.76,5.57-.53,2.09-.88,3.95-1.06,5.57-.18,1.62-.14,2.59.13,2.9-1.64,1-3.56,1.94-5.78,2.81-2.22.87-4.61,1.41-7.17,1.59-.96.06-1.97-.19-3.03-.75-1.07-.56-1.85-1.48-2.33-2.76-.49-1.28-.45-2.89.12-4.82.16-.5.57-1.81,1.23-3.93.66-2.12,1.47-4.73,2.45-7.82.97-3.09,2-6.29,3.07-9.6,1.08-3.31,2.07-6.43,3-9.37.92-2.94,1.97-6.21,3.15-9.84,1.2-3.68,2.1-6.76,2.72-9.23.61-2.47.48-4.36-.41-5.67-.8-1.19-1.13-2.9-1-5.15.14-2.25.56-4.37,1.27-6.37.23.06.95.14,2.17.23,1.22.09,2.4.2,3.55.33.81,0,1.99-.02,3.53-.05,1.54-.03,3.19-.08,4.96-.14,1.77-.06,3.41-.11,4.92-.14,1.51-.03,2.65-.08,3.42-.14.56,0,1.61-.01,3.15-.05,1.54-.03,3.34-.05,5.4-.05s4.15.02,6.26.05c2.11.03,4.05.11,5.83.23,1.77.13,3.12.28,4.06.47,3.88.75,6.62,2.12,8.21,4.12,1.6,2,2.42,4.4,2.48,7.21.06,2.81-.36,5.87-1.25,9.18-.79,2.81-2.05,5.75-3.8,8.8-1.74,3.06-3.95,5.9-6.61,8.52s-5.74,4.68-9.22,6.18Zm-21-20.14c-.65,2-.66,3.48-.04,4.45.62.97,1.31,1.55,2.06,1.73,1.04.25,2.47.27,4.29.05,1.82-.22,3.71-.66,5.67-1.31,1.96-.66,3.72-1.51,5.29-2.58,1.56-1.06,2.57-2.28,3.01-3.65.59-1.81.29-3.2-.89-4.17-1.18-.97-2.88-1.58-5.07-1.83-2.2-.25-4.48-.19-6.85.19-1.83.25-3.4,1.03-4.69,2.34-1.3,1.31-2.22,2.9-2.77,4.78Z" fill="#e83427"/><path d="m738.61,292.02c-1.26,5.81-3.2,10.96-5.82,15.46-2.62,4.5-5.66,8.38-9.13,11.66-3.47,3.28-7.17,5.96-11.1,8.06-3.93,2.09-7.88,3.65-11.87,4.68-3.99,1.03-7.76,1.55-11.32,1.55s-7.03-.47-10.41-1.41c-3.38-.94-6.39-2.4-9.01-4.4-2.63-2-4.66-4.59-6.09-7.77-1.43-3.18-2.03-6.98-1.78-11.38.24-4.4,1.62-9.51,4.13-15.32,2.12-5,4.89-9.66,8.3-14,3.41-4.34,7.23-8.12,11.46-11.33,4.23-3.22,8.69-5.71,13.39-7.49,4.7-1.78,9.37-2.61,14.01-2.48.31,0,.86-.23,1.63-.7.78-.47,1.77-.92,2.97-1.36,1.2-.44,2.54-.59,3.99-.47,2.73.25,5.32,1.41,7.77,3.47,2.45,2.06,4.53,4.79,6.24,8.2,1.7,3.4,2.82,7.26,3.36,11.57.54,4.31.29,8.8-.73,13.49Zm-43.32,24.07c2.21-.06,4.38-.37,6.53-.94s4.25-1.59,6.3-3.09c2.05-1.5,4-3.62,5.86-6.37,1.86-2.75,3.52-6.28,4.99-10.58,1.04-3,1.32-5.9.86-8.71-.46-2.81-1.59-5.2-3.38-7.17-1.8-1.97-4.21-3.11-7.23-3.42-3.25-.37-6.23-.05-8.94.98-2.71,1.03-5.15,2.53-7.32,4.5-2.17,1.97-4.06,4.17-5.66,6.6-1.6,2.44-2.9,4.9-3.9,7.4-1.77,4.31-2.52,7.84-2.22,10.58.29,2.75,1.19,4.87,2.71,6.37,1.51,1.5,3.32,2.53,5.41,3.09,2.1.56,4.09.81,5.99.75Z" fill="#e83427"/><path d="m792.18,313.66c.59.69.69,2.05.32,4.07-.38,2.03-1.17,4.14-2.38,6.32-.96,1.81-2.21,3.54-3.75,5.2-1.54,1.66-3.17,2.64-4.89,2.95-.67.12-2.13.2-4.38.23-2.26.03-4.9.03-7.92,0-3.02-.03-6.07-.06-9.15-.09-3.08-.03-5.83-.03-8.24,0-2.42.03-4.14.11-5.18.23-2.7.44-5.36.59-7.97.47-2.62-.13-4.35-.5-5.21-1.12.72-.87,1.53-2.2,2.42-3.98.89-1.78,1.77-3.73,2.65-5.85.88-2.12,1.6-4.15,2.17-6.09l18.37-57.7c.73-.12,1.94-.16,3.64-.09,1.7.06,3.43.34,5.21.84,1.96.5,3.56,1.44,4.8,2.81,1.24,1.37,1.7,3.12,1.39,5.25-.1.69-.45,2.05-1.04,4.07-.6,2.03-1.33,4.42-2.19,7.17-.86,2.75-1.78,5.56-2.74,8.43-.96,2.87-1.85,5.56-2.66,8.06-.81,2.5-1.76,5.31-2.83,8.43-.83,2.37-1.28,4.51-1.34,6.42-.06,1.9.27,3.39.99,4.45.55.81,1.36,1.38,2.45,1.69,1.08.31,2.48.53,4.19.66.73.06,1.9.06,3.51,0,1.61-.06,3.41-.17,5.4-.33,1.99-.16,3.97-.36,5.96-.61,1.99-.25,3.75-.53,5.29-.84,1.54-.31,2.58-.66,3.14-1.03Z" fill="#e83427"/><path d="m803.4,333.05c-2.52-.5-3.83-2.31-3.9-5.43-.08-3.12.63-6.99,2.14-11.62.18-.56.62-1.97,1.32-4.21.7-2.25,1.58-5.04,2.63-8.38,1.05-3.34,2.2-6.95,3.42-10.82,1.23-3.87,2.44-7.74,3.63-11.62,1.2-3.87,2.29-7.45,3.3-10.73,1-3.28,1.82-5.98,2.45-8.1.63-2.12.98-3.4,1.06-3.84,1-.19,2.46-.23,4.4-.14s3.89.41,5.88.94c1.98.53,3.59,1.41,4.81,2.62,1.23,1.22,1.62,2.89,1.18,5.01-.2,1-.66,2.7-1.38,5.11-.72,2.4-1.6,5.25-2.63,8.52-1.03,3.28-2.15,6.76-3.35,10.44-1.2,3.69-2.38,7.32-3.54,10.91-1.17,3.59-2.24,6.9-3.23,9.93-.98,3.03-1.79,5.56-2.42,7.59-.63,2.03-.98,3.26-1.06,3.7-.3,1.31-.36,2.26-.18,2.86.18.59.35,1.33.5,2.2-2.11,1.69-4.49,3.06-7.15,4.12-2.66,1.06-5.29,1.37-7.89.94Z" fill="#e83427"/><path d="m907.47,266.73c-.22,1.06-.73,2.86-1.52,5.39-.79,2.53-1.75,5.54-2.89,9.04-1.14,3.5-2.33,7.18-3.59,11.05s-2.52,7.71-3.79,11.52-2.43,7.27-3.47,10.4c-1.05,3.12-1.89,5.67-2.53,7.63s-.97,3.08-.99,3.32c-.04.5-.39,1.3-1.06,2.39-.67,1.09-1.5,2.12-2.5,3.09-1,.97-2.06,1.55-3.19,1.73-1.08.25-2.47.26-4.18.05-1.71-.22-3.33-.72-4.85-1.5-1.53-.78-2.58-1.92-3.15-3.42-.34-.87-.88-2.14-1.62-3.79-.74-1.65-1.56-3.47-2.45-5.43-.89-1.97-1.77-3.87-2.64-5.71-.87-1.84-1.59-3.43-2.15-4.78-.56-1.34-.92-2.17-1.07-2.48-.28-.87-.91-1.76-1.9-2.67-.99-.9-1.89-1.23-2.72-.98-.83.25-1.64,1.02-2.43,2.29-.79,1.28-1.48,2.64-2.07,4.07-.43.94-.95,2.36-1.57,4.26-.62,1.91-1.24,3.86-1.86,5.85-.62,2-1.16,3.62-1.63,4.87-.77,2.19-.77,4.28.02,6.28-.6.31-1.76.8-3.47,1.45-1.71.66-3.49,1.23-5.34,1.73-1.85.5-3.36.72-4.52.66-1.96-.13-3.39-1.16-4.29-3.09-.9-1.94-.92-4.34-.04-7.21.18-.56.68-2.14,1.49-4.73.81-2.59,1.83-5.82,3.06-9.7,1.23-3.87,2.57-8.06,4.03-12.55s2.89-8.95,4.29-13.35c1.4-4.4,2.68-8.43,3.83-12.08,1.15-3.65,2.44-7.66,3.86-12.04,3.85-.12,6.97.16,9.37.84,2.4.69,4.18,1.94,5.34,3.75.53.69,1.22,1.91,2.09,3.65.87,1.75,1.8,3.73,2.8,5.95,1,2.22,1.97,4.42,2.91,6.6.94,2.19,1.77,4.11,2.48,5.76.71,1.66,1.17,2.73,1.39,3.23.59,1.25,1.29,2.23,2.09,2.95.8.72,1.58.95,2.35.7,1.66-.5,3.09-2.59,4.29-6.28l8.64-27.16c.73-.12,1.94-.16,3.64-.09,1.7.06,3.43.34,5.21.84,1.96.5,3.62,1.34,4.99,2.53,1.36,1.19,1.8,2.9,1.32,5.15Z" fill="#e83427"/><path d="m957.58,314.6c.16,1.81.66,3.54,1.5,5.2.83,1.66,1.62,2.89,2.36,3.7-2.51,3.12-5.1,5.4-7.75,6.84-2.2,1.19-4.36,1.87-6.48,2.06-1.17.12-2.42.03-3.75-.28s-2.53-1.2-3.58-2.67c-1.05-1.47-1.8-3.82-2.25-7.07-.09-1.06-.82-1.81-2.17-2.25-1.36-.44-2.86-.7-4.52-.8-1.66-.09-3.01-.14-4.08-.14s-2.37.03-3.92.09c-1.55.06-3.02.31-4.41.75-1.39.44-2.4,1.22-3.01,2.34-.58,1-.94,2.03-1.1,3.09-.16,1.06.02,1.75.55,2.06-1.39,1-2.72,1.87-3.99,2.62-1.27.75-2.51,1.34-3.72,1.78-1.49.56-2.94.84-4.35.84s-2.88-.31-4.43-.94c-.71-.31-1.37-.87-1.98-1.69-.61-.81-.84-1.93-.68-3.37.15-1.44.99-3.25,2.51-5.43.12-.19.76-1.19,1.91-3,1.15-1.81,2.66-4.2,4.53-7.17,1.87-2.96,3.94-6.26,6.21-9.88,2.27-3.62,4.6-7.35,7.01-11.19,2.4-3.84,4.73-7.54,6.98-11.1,2.25-3.56,4.28-6.77,6.09-9.65,1.81-2.87,3.76-5.99,5.85-9.37.66-.31,1.83-.7,3.52-1.17,1.68-.47,3.41-.73,5.18-.8,1.98-.12,3.78.13,5.42.75,1.64.63,2.65,1.87,3.04,3.75.19.75.38,2.19.57,4.31.18,2.12.38,4.68.59,7.68.21,3,.42,6.2.63,9.6.21,3.4.41,6.78.6,10.12.19,3.34.35,6.45.48,9.32.13,2.87.25,5.29.36,7.26.11,1.97.2,3.23.27,3.79Zm-25.58-12.08c1.66-.12,2.77-.59,3.31-1.4.54-.81,1.02-1.75,1.43-2.81.22-.69.39-1.53.49-2.53.1-1,.08-1.89-.07-2.67-.15-.78-.54-1.17-1.17-1.17-.88,0-2.02.61-3.45,1.83-1.43,1.22-2.4,2.45-2.93,3.7-.57,1.19-.84,2.34-.8,3.47.04,1.12,1.1,1.66,3.18,1.59Z" fill="#e83427"/><path d="m470.94,393.1c-.27.06-.74.41-1.41,1.03-.67.62-1.21,1.28-1.62,1.97-.64,1-.81,1.81-.51,2.44.8,1.56,1.9,3.39,3.28,5.48,1.38,2.09,2.81,4.07,4.3,5.95,1.48,1.87,2.81,3.31,3.99,4.31-2.1,3-4.64,5.39-7.62,7.17-2.98,1.78-5.93,2.64-8.85,2.58-2.92-.06-5.36-1.37-7.34-3.93-.25-.38-.7-1.2-1.35-2.48-.65-1.28-1.37-2.79-2.18-4.54-.81-1.75-1.61-3.5-2.42-5.25-.81-1.75-1.5-3.28-2.07-4.59-.57-1.31-.93-2.12-1.08-2.44-.68-1.56-1.69-1.9-3.04-1.03-1.35.88-2.59,2.69-3.73,5.43-.65,1.62-1.24,3.48-1.76,5.57-.52,2.09-.88,3.95-1.06,5.57-.19,1.62-.14,2.59.13,2.9-1.64,1-3.56,1.94-5.78,2.81-2.22.87-4.61,1.41-7.17,1.59-.96.06-1.97-.19-3.04-.75-1.07-.56-1.85-1.48-2.33-2.76-.49-1.28-.45-2.89.12-4.82.16-.5.57-1.81,1.23-3.93.66-2.12,1.47-4.73,2.45-7.82.97-3.09,2-6.29,3.07-9.6,1.08-3.31,2.07-6.43,3-9.37.92-2.93,1.97-6.21,3.15-9.84,1.2-3.68,2.1-6.76,2.72-9.23.61-2.47.48-4.36-.41-5.67-.8-1.19-1.13-2.9-1-5.15.14-2.25.56-4.37,1.27-6.37.23.06.95.14,2.17.24,1.22.09,2.4.2,3.55.33.81,0,1.99-.01,3.53-.05,1.54-.03,3.19-.08,4.96-.14,1.77-.06,3.41-.11,4.92-.14,1.51-.03,2.65-.08,3.42-.14.56,0,1.61-.01,3.15-.05,1.54-.03,3.34-.05,5.4-.05s4.15.02,6.26.05c2.11.03,4.05.11,5.83.23,1.77.13,3.12.28,4.06.47,3.88.75,6.62,2.12,8.22,4.12,1.6,2,2.42,4.4,2.48,7.21.05,2.81-.36,5.87-1.25,9.18-.79,2.81-2.05,5.75-3.8,8.8-1.75,3.06-3.95,5.9-6.61,8.52-2.66,2.62-5.74,4.68-9.22,6.18Zm-21-20.14c-.65,2-.66,3.48-.04,4.45.62.97,1.31,1.55,2.06,1.73,1.04.25,2.47.27,4.29.05,1.82-.22,3.71-.66,5.67-1.31,1.96-.66,3.72-1.51,5.29-2.58,1.56-1.06,2.57-2.28,3.01-3.65.59-1.81.29-3.2-.89-4.17-1.19-.97-2.88-1.58-5.07-1.83-2.2-.25-4.48-.19-6.85.19-1.83.25-3.4,1.03-4.69,2.34-1.3,1.31-2.23,2.9-2.77,4.78Z" fill="#e83427"/><path d="m528.19,405.74c.91-.12,2.07-.28,3.48-.47,1.4-.19,2.76-.42,4.07-.7,1.31-.28,2.24-.61,2.8-.98.59.69.68,2.08.29,4.17-.4,2.09-1.21,4.26-2.44,6.51-1,1.94-2.25,3.75-3.73,5.43-1.49,1.69-3.16,2.72-5.03,3.09-1.6.31-3.38.5-5.33.56-1.96.06-3.92.06-5.9,0-1.98-.06-3.79-.13-5.42-.19-1.63-.06-2.89-.09-3.76-.09s-2.24.01-4.09.05c-1.85.03-3.48.08-4.87.14-1.69.19-3.51.31-5.46.38-1.96.06-3.72,0-5.28-.19-1.56-.19-2.65-.5-3.25-.94.72-.87,1.53-2.2,2.42-3.98s1.77-3.73,2.65-5.85c.88-2.12,1.6-4.15,2.17-6.09l5.38-17.14,2.59-7.96c.73-2.25,1.32-4.12,1.78-5.62.46-1.5.7-2.31.75-2.44.67-2.06,1.29-4.28,1.88-6.65.58-2.37,1.1-4.64,1.55-6.79.45-2.16.8-3.92,1.06-5.29.09-1.06.25-2.11.46-3.14.21-1.03.48-1.95.8-2.76.38.19,1.52.36,3.44.51,1.92.16,4.17.3,6.75.42.19,0,1.09.02,2.7.05,1.61.03,3.61.08,6,.14,2.38.06,4.87.11,7.45.14,2.58.03,4.93.05,7.06.05s3.69-.03,4.71-.09c2.6-.12,4.84-.33,6.71-.61,1.87-.28,3.2-.67,3.99-1.17.55.62.87,1.79.97,3.51.1,1.72-.13,3.51-.67,5.39-.59,1.81-1.56,3.51-2.92,5.1-1.36,1.59-3.23,2.67-5.59,3.23-.87.19-2.19.34-3.95.47-1.76.13-3.44.2-5.04.23-1.6.03-2.74.02-3.4-.05-1.88-.19-3.94.02-6.19.61-2.25.59-4.26,1.38-6.01,2.34-1.75.97-2.84,2.01-3.27,3.14-.41,1.06-.25,1.94.46,2.62.71.69,1.77,1.23,3.17,1.64,1.4.41,2.95.67,4.66.8,1.71.13,3.35.16,4.93.09,1.29-.12,2.79-.34,4.52-.66,1.72-.31,2.83-.62,3.3-.94.59.69.75,1.97.49,3.84-.27,1.87-.91,3.81-1.93,5.81-.84,1.62-1.95,3.12-3.33,4.5-1.38,1.37-3,2.31-4.85,2.81-1.43.37-3.12.66-5.05.84-3.69,0-7,.64-9.94,1.92-2.94,1.28-4.83,2.8-5.64,4.54-.74,1.5-.86,2.87-.36,4.12.5,1.25,1.6,1.94,3.31,2.06,1.17.06,2.67.08,4.53.05,1.85-.03,3.68-.09,5.49-.19,1.81-.09,3.14-.2,3.99-.33Z" fill="#e83427"/><path d="m606.58,405.18c.16,1.81.66,3.54,1.5,5.2.84,1.66,1.62,2.89,2.36,3.7-2.51,3.12-5.1,5.4-7.75,6.84-2.2,1.19-4.36,1.87-6.48,2.06-1.17.12-2.41.03-3.75-.28-1.33-.31-2.53-1.2-3.58-2.67-1.05-1.47-1.8-3.82-2.24-7.07-.09-1.06-.82-1.81-2.17-2.25-1.36-.44-2.86-.7-4.52-.8-1.66-.09-3.01-.14-4.08-.14s-2.37.03-3.92.09c-1.55.06-3.02.31-4.41.75-1.39.44-2.39,1.22-3.01,2.34-.58,1-.94,2.03-1.1,3.09-.16,1.06.02,1.75.55,2.06-1.39,1-2.72,1.87-3.99,2.62-1.27.75-2.51,1.34-3.72,1.78-1.5.56-2.94.84-4.35.84s-2.88-.31-4.43-.94c-.71-.31-1.37-.87-1.98-1.69-.61-.81-.84-1.93-.68-3.37.15-1.44.99-3.25,2.51-5.43.12-.19.76-1.19,1.91-3s2.66-4.2,4.53-7.17c1.87-2.96,3.94-6.26,6.21-9.88,2.27-3.62,4.6-7.35,7.01-11.19,2.4-3.84,4.73-7.54,6.98-11.1,2.25-3.56,4.28-6.77,6.08-9.65,1.81-2.87,3.76-5.99,5.85-9.37.66-.31,1.83-.7,3.52-1.17,1.68-.47,3.41-.73,5.18-.8,1.98-.12,3.78.13,5.42.75,1.64.62,2.65,1.87,3.04,3.75.19.75.38,2.19.57,4.31.18,2.12.38,4.68.59,7.68.21,3,.42,6.2.63,9.6.21,3.4.4,6.78.6,10.12.19,3.34.35,6.45.48,9.32.13,2.87.25,5.29.36,7.26.11,1.97.2,3.23.27,3.79Zm-25.58-12.08c1.66-.12,2.77-.59,3.31-1.4.54-.81,1.02-1.75,1.43-2.81.22-.69.39-1.53.49-2.53.11-1,.08-1.89-.07-2.67-.15-.78-.54-1.17-1.17-1.17-.88,0-2.02.61-3.45,1.83-1.43,1.22-2.41,2.45-2.94,3.7-.57,1.19-.84,2.34-.8,3.47.04,1.12,1.1,1.66,3.18,1.59Z" fill="#e83427"/><path d="m677.05,348.32c4.4.69,7.67,1.92,9.8,3.7,2.14,1.78,3.49,3.83,4.05,6.14.56,2.31.67,4.58.32,6.79-.35,2.22-.77,4.11-1.28,5.67-.65,2-1.74,4.29-3.27,6.88-1.53,2.59-3.49,5.12-5.88,7.59-2.4,2.47-5.19,4.59-8.39,6.37-3.2,1.78-6.83,2.86-10.89,3.23-.71.06-1.6.13-2.68.19-1.08.06-2.05.11-2.9.14-.85.03-1.37.05-1.56.05-2.42.13-4.81.81-7.18,2.06-2.37,1.25-4.46,2.86-6.25,4.82-1.8,1.97-3.12,4.17-3.97,6.6l-1.13,3.47c-.53,1.62-.79,3.11-.79,4.45,0,1.34.04,2.26.13,2.76-1.94,1.37-3.57,2.34-4.88,2.9s-2.84.97-4.61,1.22c-1.43.19-2.91.06-4.42-.37-1.51-.44-2.73-1.27-3.64-2.48-.92-1.22-1.21-2.92-.87-5.1.06-.38.42-1.58,1.08-3.61.66-2.03,1.5-4.56,2.51-7.59,1.01-3.03,2.13-6.35,3.33-9.98,1.21-3.62,2.4-7.24,3.58-10.87,1.18-3.62,2.27-6.99,3.29-10.12,1.03-3.37,1.81-6.21,2.35-8.52.53-2.31.53-3.78-.02-4.4-.95-1.12-1.39-2.87-1.34-5.25.05-2.37.45-4.62,1.21-6.75.23.06.89.14,1.98.24,1.09.09,2.24.2,3.45.33.62,0,1.66-.01,3.11-.05,1.45-.03,3.05-.11,4.81-.23,1.76-.12,3.46-.23,5.12-.33,1.65-.09,2.99-.17,4.01-.23,1.41-.12,3.28-.25,5.6-.38,2.32-.12,4.91-.16,7.76-.09,2.85.06,5.67.31,8.47.75Zm-20.64,29.23c.85.06,1.99-.01,3.4-.23,1.41-.22,2.9-.58,4.47-1.08,1.57-.5,2.97-1.2,4.2-2.11,1.23-.9,2.06-2.01,2.49-3.33.59-1.81.37-3.22-.64-4.21-1.02-1-2.42-1.69-4.2-2.06-1.78-.37-3.56-.53-5.33-.47-2.58.06-5,.77-7.24,2.11-2.25,1.34-3.67,2.92-4.25,4.73-.32,1.19-.19,2.26.4,3.23.59.97,1.49,1.76,2.69,2.39,1.2.63,2.54.97,4.02,1.03Z" fill="#e83427"/><path d="m724.99,405.74c.92-.12,2.07-.28,3.48-.47,1.4-.19,2.76-.42,4.07-.7,1.31-.28,2.24-.61,2.8-.98.59.69.68,2.08.29,4.17-.4,2.09-1.21,4.26-2.44,6.51-1,1.94-2.25,3.75-3.73,5.43-1.48,1.69-3.16,2.72-5.03,3.09-1.6.31-3.38.5-5.33.56-1.96.06-3.92.06-5.9,0-1.98-.06-3.79-.13-5.42-.19-1.64-.06-2.89-.09-3.76-.09s-2.24.01-4.09.05c-1.85.03-3.48.08-4.87.14-1.69.19-3.5.31-5.46.38-1.96.06-3.71,0-5.28-.19-1.56-.19-2.65-.5-3.25-.94.72-.87,1.53-2.2,2.42-3.98s1.78-3.73,2.65-5.85c.88-2.12,1.6-4.15,2.17-6.09l5.38-17.14,2.59-7.96c.73-2.25,1.32-4.12,1.78-5.62.46-1.5.7-2.31.74-2.44.67-2.06,1.3-4.28,1.88-6.65.58-2.37,1.1-4.64,1.55-6.79.45-2.16.8-3.92,1.06-5.29.09-1.06.25-2.11.46-3.14.21-1.03.48-1.95.8-2.76.38.19,1.52.36,3.44.51,1.92.16,4.17.3,6.75.42.19,0,1.09.02,2.7.05,1.61.03,3.61.08,6,.14,2.38.06,4.87.11,7.45.14,2.58.03,4.93.05,7.06.05s3.69-.03,4.71-.09c2.6-.12,4.84-.33,6.71-.61,1.87-.28,3.2-.67,3.99-1.17.55.62.87,1.79.97,3.51s-.13,3.51-.67,5.39c-.59,1.81-1.56,3.51-2.92,5.1-1.36,1.59-3.23,2.67-5.59,3.23-.87.19-2.19.34-3.94.47-1.76.13-3.44.2-5.04.23-1.6.03-2.74.02-3.4-.05-1.88-.19-3.94.02-6.19.61-2.25.59-4.26,1.38-6.01,2.34-1.75.97-2.84,2.01-3.27,3.14-.41,1.06-.25,1.94.46,2.62.71.69,1.77,1.23,3.17,1.64s2.95.67,4.66.8c1.71.13,3.35.16,4.93.09,1.29-.12,2.79-.34,4.52-.66,1.72-.31,2.83-.62,3.3-.94.59.69.75,1.97.49,3.84-.27,1.87-.91,3.81-1.93,5.81-.84,1.62-1.95,3.12-3.33,4.5-1.38,1.37-3,2.31-4.85,2.81-1.43.37-3.12.66-5.05.84-3.69,0-7,.64-9.94,1.92-2.94,1.28-4.83,2.8-5.64,4.54-.74,1.5-.86,2.87-.36,4.12.5,1.25,1.6,1.94,3.31,2.06,1.17.06,2.67.08,4.53.05,1.85-.03,3.68-.09,5.49-.19,1.81-.09,3.14-.2,3.99-.33Z" fill="#e83427"/><path d="m801.03,393.1c-.27.06-.74.41-1.41,1.03-.67.62-1.21,1.28-1.62,1.97-.64,1-.81,1.81-.51,2.44.8,1.56,1.9,3.39,3.28,5.48,1.38,2.09,2.81,4.07,4.3,5.95,1.48,1.87,2.81,3.31,3.99,4.31-2.1,3-4.64,5.39-7.62,7.17-2.98,1.78-5.93,2.64-8.85,2.58-2.92-.06-5.36-1.37-7.34-3.93-.25-.38-.7-1.2-1.35-2.48-.65-1.28-1.37-2.79-2.18-4.54-.81-1.75-1.61-3.5-2.42-5.25-.81-1.75-1.5-3.28-2.07-4.59-.57-1.31-.93-2.12-1.08-2.44-.68-1.56-1.69-1.9-3.04-1.03-1.35.88-2.59,2.69-3.73,5.43-.65,1.62-1.24,3.48-1.76,5.57-.53,2.09-.88,3.95-1.06,5.57-.18,1.62-.14,2.59.13,2.9-1.64,1-3.56,1.94-5.78,2.81-2.22.87-4.61,1.41-7.17,1.59-.96.06-1.97-.19-3.03-.75-1.07-.56-1.85-1.48-2.33-2.76-.49-1.28-.45-2.89.12-4.82.16-.5.57-1.81,1.23-3.93.66-2.12,1.47-4.73,2.45-7.82.97-3.09,2-6.29,3.07-9.6,1.08-3.31,2.07-6.43,3-9.37.92-2.93,1.97-6.21,3.15-9.84,1.2-3.68,2.1-6.76,2.72-9.23.61-2.47.48-4.36-.41-5.67-.8-1.19-1.13-2.9-1-5.15.14-2.25.56-4.37,1.27-6.37.23.06.95.14,2.17.24,1.22.09,2.4.2,3.55.33.81,0,1.99-.01,3.53-.05,1.54-.03,3.19-.08,4.96-.14,1.77-.06,3.41-.11,4.92-.14,1.51-.03,2.65-.08,3.42-.14.56,0,1.61-.01,3.15-.05,1.54-.03,3.34-.05,5.4-.05s4.15.02,6.26.05c2.11.03,4.05.11,5.83.23,1.77.13,3.12.28,4.06.47,3.88.75,6.62,2.12,8.21,4.12,1.6,2,2.42,4.4,2.48,7.21.06,2.81-.36,5.87-1.25,9.18-.79,2.81-2.05,5.75-3.8,8.8-1.74,3.06-3.95,5.9-6.61,8.52-2.66,2.62-5.74,4.68-9.22,6.18Zm-21-20.14c-.65,2-.66,3.48-.04,4.45.62.97,1.31,1.55,2.06,1.73,1.04.25,2.47.27,4.29.05s3.71-.66,5.67-1.31c1.96-.66,3.72-1.51,5.29-2.58,1.56-1.06,2.57-2.28,3.01-3.65.59-1.81.29-3.2-.89-4.17-1.18-.97-2.88-1.58-5.07-1.83-2.2-.25-4.48-.19-6.85.19-1.83.25-3.4,1.03-4.69,2.34-1.3,1.31-2.22,2.9-2.77,4.78Z" fill="#e83427"/><path d="m441.51,483.68c-.27.06-.74.41-1.41,1.03-.67.62-1.21,1.28-1.62,1.97-.64,1-.81,1.81-.51,2.44.8,1.56,1.9,3.39,3.28,5.48,1.38,2.09,2.81,4.07,4.3,5.95,1.48,1.87,2.81,3.31,3.99,4.31-2.1,3-4.64,5.39-7.62,7.17-2.98,1.78-5.93,2.64-8.85,2.58-2.92-.06-5.36-1.37-7.34-3.93-.25-.37-.7-1.2-1.35-2.48-.65-1.28-1.37-2.79-2.18-4.54-.81-1.75-1.61-3.5-2.42-5.25-.81-1.75-1.5-3.28-2.07-4.59-.57-1.31-.93-2.12-1.08-2.44-.68-1.56-1.69-1.9-3.04-1.03-1.35.88-2.59,2.69-3.73,5.43-.65,1.62-1.24,3.48-1.76,5.57-.52,2.09-.88,3.95-1.06,5.57-.19,1.62-.14,2.59.13,2.9-1.64,1-3.56,1.94-5.78,2.81s-4.61,1.41-7.17,1.59c-.96.06-1.97-.19-3.04-.75-1.07-.56-1.85-1.48-2.33-2.76-.49-1.28-.45-2.89.12-4.82.16-.5.57-1.81,1.23-3.93.66-2.12,1.47-4.73,2.45-7.82.97-3.09,2-6.29,3.07-9.6,1.07-3.31,2.07-6.43,3-9.37.92-2.93,1.97-6.21,3.15-9.84,1.2-3.68,2.1-6.76,2.72-9.23s.48-4.36-.41-5.67c-.8-1.18-1.13-2.9-1-5.15.14-2.25.56-4.37,1.27-6.37.23.06.95.14,2.17.24,1.22.09,2.4.2,3.55.33.81,0,1.99-.02,3.53-.05,1.54-.03,3.19-.08,4.96-.14,1.77-.06,3.41-.11,4.92-.14s2.65-.08,3.42-.14c.56,0,1.61-.01,3.15-.05,1.54-.03,3.34-.05,5.4-.05s4.15.02,6.26.05c2.11.03,4.05.11,5.83.23,1.77.13,3.12.28,4.06.47,3.88.75,6.62,2.12,8.21,4.12,1.6,2,2.42,4.4,2.48,7.21.05,2.81-.36,5.87-1.25,9.18-.79,2.81-2.05,5.75-3.8,8.8-1.74,3.06-3.95,5.9-6.61,8.52-2.66,2.62-5.74,4.68-9.22,6.18Zm-20.99-20.14c-.65,2-.66,3.48-.04,4.45.62.97,1.31,1.55,2.06,1.73,1.04.25,2.47.27,4.29.05,1.82-.22,3.71-.66,5.67-1.31,1.96-.66,3.72-1.51,5.29-2.58,1.56-1.06,2.57-2.28,3.01-3.65.59-1.81.29-3.2-.89-4.17-1.18-.97-2.88-1.58-5.07-1.83-2.2-.25-4.48-.19-6.85.19-1.83.25-3.4,1.03-4.69,2.34-1.3,1.31-2.22,2.9-2.77,4.78Z" fill="#e83427"/><path d="m535.87,473.19c-1.26,5.81-3.2,10.96-5.82,15.46-2.62,4.5-5.66,8.38-9.13,11.66-3.47,3.28-7.17,5.96-11.09,8.05-3.93,2.09-7.88,3.65-11.87,4.68-3.99,1.03-7.76,1.54-11.32,1.54s-7.03-.47-10.41-1.41c-3.38-.94-6.39-2.4-9.01-4.4-2.63-2-4.66-4.59-6.09-7.77-1.43-3.18-2.03-6.98-1.78-11.38.24-4.4,1.62-9.51,4.13-15.31,2.12-5,4.89-9.66,8.3-14,3.41-4.34,7.23-8.12,11.46-11.33,4.23-3.22,8.69-5.71,13.39-7.49,4.7-1.78,9.37-2.61,14.01-2.48.31,0,.86-.23,1.63-.7.77-.47,1.77-.92,2.97-1.36,1.2-.44,2.54-.59,3.99-.47,2.73.25,5.32,1.41,7.77,3.47,2.45,2.06,4.53,4.79,6.24,8.2,1.7,3.4,2.82,7.26,3.36,11.57.54,4.31.29,8.81-.73,13.49Zm-43.32,24.07c2.21-.06,4.38-.37,6.53-.94,2.15-.56,4.25-1.59,6.3-3.09,2.05-1.5,4-3.62,5.86-6.37,1.86-2.75,3.52-6.28,4.99-10.58,1.04-3,1.32-5.9.86-8.71-.46-2.81-1.59-5.2-3.38-7.17-1.8-1.97-4.21-3.11-7.23-3.42-3.25-.38-6.23-.05-8.94.98-2.71,1.03-5.15,2.53-7.32,4.5s-4.06,4.17-5.66,6.6c-1.6,2.44-2.9,4.9-3.9,7.4-1.78,4.31-2.52,7.84-2.22,10.58.29,2.75,1.19,4.87,2.71,6.37,1.51,1.5,3.31,2.53,5.41,3.09,2.1.56,4.09.81,5.99.75Z" fill="#e83427"/><path d="m594.2,495.76c.16,1.81.66,3.54,1.5,5.2.83,1.66,1.62,2.89,2.36,3.7-2.51,3.12-5.1,5.4-7.75,6.84-2.2,1.19-4.36,1.87-6.48,2.06-1.16.12-2.41.03-3.75-.28-1.33-.31-2.53-1.2-3.58-2.67-1.05-1.47-1.8-3.83-2.25-7.07-.09-1.06-.82-1.81-2.17-2.25-1.36-.44-2.86-.7-4.52-.8-1.66-.09-3.02-.14-4.08-.14s-2.37.03-3.92.09c-1.55.06-3.02.31-4.41.75-1.39.44-2.4,1.22-3.01,2.34-.58,1-.94,2.03-1.1,3.09-.16,1.06.02,1.75.55,2.06-1.39,1-2.72,1.87-3.99,2.62-1.27.75-2.51,1.34-3.72,1.78-1.49.56-2.94.84-4.35.84s-2.88-.31-4.43-.94c-.71-.31-1.37-.87-1.98-1.69-.61-.81-.84-1.93-.68-3.37.15-1.44.99-3.25,2.51-5.43.12-.19.76-1.19,1.91-3s2.66-4.2,4.53-7.17c1.87-2.96,3.94-6.26,6.21-9.88,2.27-3.62,4.61-7.35,7.01-11.19,2.4-3.84,4.73-7.54,6.98-11.1,2.25-3.56,4.28-6.77,6.08-9.65,1.81-2.87,3.76-5.99,5.85-9.37.66-.31,1.83-.7,3.52-1.17,1.68-.47,3.41-.73,5.18-.8,1.98-.12,3.78.13,5.42.75,1.64.62,2.65,1.87,3.04,3.75.19.75.38,2.19.57,4.31.18,2.12.38,4.68.6,7.68.21,3,.42,6.2.63,9.6.21,3.4.4,6.78.6,10.12.19,3.34.35,6.45.48,9.32.13,2.87.25,5.29.36,7.26s.2,3.23.27,3.79Zm-25.58-12.08c1.66-.12,2.77-.59,3.31-1.4.54-.81,1.02-1.75,1.43-2.81.22-.69.39-1.53.49-2.53.1-1,.08-1.89-.07-2.67-.15-.78-.54-1.17-1.17-1.17-.88,0-2.02.61-3.45,1.83-1.43,1.22-2.41,2.45-2.94,3.7-.57,1.19-.84,2.34-.8,3.47.04,1.12,1.1,1.66,3.18,1.59Z" fill="#e83427"/><path d="m679.63,463.45c-.3,1.87-.72,3.9-1.28,6.09-.56,2.19-1.43,4.82-2.62,7.92-1.19,3.09-2.86,6.88-5.01,11.38-2.91,6.06-7.02,11.13-12.35,15.22-5.33,4.09-11.22,6.76-17.68,8.01-1.81.38-3.86.64-6.16.8-2.3.16-4.57.28-6.82.38-2.25.09-4.27.2-6.05.33-1.66.31-3.61.53-5.83.66-2.23.12-4.28.09-6.15-.09-1.88-.19-3.17-.53-3.88-1.03.78-.87,1.62-2.2,2.51-3.98.89-1.78,1.77-3.73,2.65-5.85.88-2.12,1.6-4.15,2.17-6.09l10.04-31.75c.83-2.56,1.58-4.9,2.24-7.02.66-2.12,1.12-3.78,1.38-4.96.3-1.31.19-2.47-.33-3.47-.52-1-.8-2-.85-3-.11-2.75.33-5.43,1.31-8.06.29.06.97.14,2.03.24,1.06.09,2.29.2,3.69.33,1.54.06,3.96.16,7.26.28,3.3.13,6.68.25,10.13.38,2.04.06,3.82.16,5.34.28,1.52.13,3.09.3,4.7.52,1.62.22,3,.48,4.14.8,3.71,1.06,6.66,2.51,8.84,4.36,2.18,1.84,3.78,3.83,4.81,5.95,1.03,2.12,1.65,4.2,1.86,6.23.21,2.03.18,3.76-.1,5.2Zm-43.13,32.13c2.76-.62,5.58-1.86,8.46-3.7,2.88-1.84,5.5-4.34,7.87-7.49,2.37-3.15,4.1-7.01,5.21-11.57,1.49-5.93,1.28-10.05-.62-12.36-1.91-2.31-4.97-3.5-9.19-3.56-1.17-.06-2.36.72-3.57,2.34-1.22,1.62-2.54,4.25-3.96,7.87-.9,2.37-1.56,4.14-2,5.29-.44,1.16-.76,2.11-.97,2.86-.21.75-.54,1.72-.99,2.9-.67,2.25-1.21,4.2-1.62,5.85-.41,1.66-.81,3.34-1.18,5.06-.37,1.72-.62,3.17-.76,4.36-.12,1.31.24,2.05,1.06,2.2.82.16,1.58.14,2.26-.05Z" fill="#e83427"/><path d="m412.08,574.26c-.27.06-.74.41-1.41,1.03-.67.63-1.21,1.28-1.62,1.97-.64,1-.81,1.81-.51,2.43.8,1.56,1.9,3.39,3.28,5.48,1.38,2.09,2.81,4.07,4.3,5.95,1.48,1.87,2.81,3.31,3.99,4.31-2.1,3-4.64,5.39-7.62,7.17-2.98,1.78-5.93,2.64-8.85,2.58-2.92-.06-5.36-1.37-7.34-3.93-.25-.37-.7-1.2-1.35-2.48-.65-1.28-1.37-2.79-2.18-4.54-.81-1.75-1.61-3.5-2.42-5.25-.81-1.75-1.5-3.28-2.07-4.59s-.93-2.12-1.08-2.44c-.68-1.56-1.69-1.9-3.04-1.03-1.35.88-2.59,2.69-3.73,5.43-.65,1.62-1.24,3.48-1.76,5.57-.52,2.09-.88,3.95-1.06,5.57-.19,1.62-.14,2.59.13,2.9-1.64,1-3.56,1.94-5.78,2.81-2.22.87-4.61,1.41-7.17,1.59-.96.06-1.97-.19-3.04-.75-1.07-.56-1.85-1.48-2.33-2.76-.49-1.28-.45-2.89.12-4.82.16-.5.57-1.81,1.23-3.93.66-2.12,1.47-4.73,2.45-7.82.97-3.09,2-6.29,3.07-9.6,1.08-3.31,2.07-6.43,3-9.37.92-2.93,1.97-6.21,3.15-9.84,1.2-3.68,2.1-6.76,2.72-9.23.61-2.47.48-4.36-.41-5.67-.8-1.19-1.13-2.9-1-5.15.14-2.25.56-4.37,1.27-6.37.23.06.95.14,2.17.24,1.22.09,2.4.2,3.55.33.81,0,1.99-.01,3.53-.05,1.54-.03,3.19-.08,4.96-.14,1.77-.06,3.41-.11,4.92-.14,1.51-.03,2.65-.08,3.42-.14.56,0,1.61-.01,3.15-.05,1.54-.03,3.34-.05,5.4-.05s4.15.02,6.26.05c2.11.03,4.05.11,5.82.23,1.77.13,3.12.28,4.06.47,3.88.75,6.62,2.12,8.22,4.12,1.6,2,2.42,4.4,2.48,7.21.06,2.81-.36,5.87-1.25,9.18-.79,2.81-2.05,5.75-3.8,8.8-1.74,3.06-3.95,5.9-6.61,8.52-2.66,2.62-5.74,4.68-9.22,6.18Zm-21-20.14c-.65,2-.66,3.48-.04,4.45.62.97,1.31,1.55,2.06,1.73,1.04.25,2.47.27,4.29.05,1.82-.22,3.71-.66,5.67-1.31,1.96-.66,3.72-1.51,5.29-2.58,1.56-1.06,2.57-2.28,3.01-3.65.59-1.81.29-3.2-.89-4.17-1.18-.97-2.88-1.58-5.07-1.83-2.2-.25-4.48-.19-6.85.19-1.83.25-3.39,1.03-4.69,2.34-1.3,1.31-2.22,2.9-2.77,4.78Z" fill="#e83427"/><path d="m488.42,586.35c.16,1.81.66,3.54,1.5,5.2.83,1.66,1.62,2.89,2.36,3.7-2.51,3.12-5.1,5.4-7.75,6.84-2.2,1.19-4.36,1.87-6.48,2.06-1.16.12-2.41.03-3.75-.28-1.33-.31-2.53-1.2-3.58-2.67-1.05-1.47-1.8-3.83-2.25-7.07-.09-1.06-.82-1.81-2.17-2.25-1.36-.44-2.86-.7-4.52-.8-1.66-.09-3.02-.14-4.08-.14s-2.37.03-3.92.09c-1.55.06-3.02.31-4.41.75-1.39.44-2.4,1.22-3.01,2.34-.58,1-.94,2.03-1.1,3.09-.16,1.06.02,1.75.55,2.06-1.39,1-2.72,1.87-3.99,2.62-1.27.75-2.51,1.34-3.72,1.78-1.49.56-2.94.84-4.35.84s-2.88-.31-4.43-.94c-.71-.31-1.37-.87-1.98-1.69-.61-.81-.84-1.93-.68-3.37.15-1.43.99-3.25,2.51-5.43.12-.19.76-1.19,1.91-3s2.66-4.2,4.53-7.17c1.87-2.96,3.94-6.26,6.21-9.88,2.27-3.62,4.61-7.35,7.01-11.19,2.4-3.84,4.73-7.54,6.98-11.1,2.25-3.56,4.28-6.77,6.08-9.65,1.81-2.87,3.76-5.99,5.85-9.37.66-.31,1.83-.7,3.52-1.17,1.68-.47,3.41-.73,5.18-.8,1.98-.12,3.78.13,5.42.75,1.64.62,2.65,1.87,3.04,3.75.19.75.38,2.19.57,4.31.18,2.12.38,4.68.6,7.68.21,3,.42,6.2.63,9.6.21,3.4.4,6.78.6,10.12.19,3.34.35,6.45.48,9.32.13,2.87.25,5.29.36,7.26s.2,3.23.27,3.79Zm-25.58-12.08c1.66-.12,2.77-.59,3.31-1.4.54-.81,1.02-1.75,1.43-2.81.22-.69.39-1.53.49-2.53.1-1,.08-1.89-.07-2.67-.15-.78-.54-1.17-1.17-1.17-.88,0-2.02.61-3.45,1.83s-2.41,2.45-2.94,3.7c-.57,1.19-.84,2.34-.8,3.47.04,1.12,1.1,1.65,3.18,1.59Z" fill="#e83427"/><path d="m571.68,547.76c-1.5,2.31-3.2,4-5.11,5.06-1.91,1.06-3.67,1.48-5.28,1.26-1.62-.22-2.78-1.04-3.5-2.48,1.33-.81,1.94-1.7,1.85-2.67-.09-.97-.81-1.78-2.16-2.44-1.35-.66-3.27-.89-5.77-.7-2.54.13-5.31.94-8.33,2.44s-5.82,3.65-8.42,6.46c-2.6,2.81-4.67,6.31-6.22,10.49-1.59,4.31-2.29,7.81-2.1,10.49.19,2.69.85,4.73,1.99,6.13,1.14,1.41,2.42,2.41,3.85,3,1.43.59,2.61.98,3.55,1.17,1.23.25,2.69.42,4.38.52,1.69.09,3.45-.02,5.3-.33,1.85-.31,3.52-.84,5.01-1.59,1.35-.69,3.05-1.61,5.11-2.76,2.06-1.15,4.11-2.45,6.13-3.89,2.03-1.44,3.66-2.9,4.9-4.4,1.66,1.44,2.32,3.47,2,6.09-.32,2.62-1.47,5.43-3.44,8.43-1.97,3-4.62,5.82-7.95,8.48-3.33,2.66-7.23,4.81-11.7,6.46s-9.37,2.42-14.7,2.29c-2.48-.06-5.18-.53-8.11-1.41-2.93-.87-5.71-2.26-8.34-4.17-2.63-1.9-4.76-4.43-6.39-7.59-1.63-3.15-2.37-7.07-2.22-11.76.15-4.68,1.57-10.21,4.26-16.58,2.53-6.06,5.74-11.27,9.63-15.64,3.89-4.37,8.08-7.95,12.57-10.72,4.49-2.78,8.98-4.87,13.47-6.28,4.48-1.4,8.58-2.14,12.28-2.2,3.72-.12,6.74.44,9.05,1.69,2.31,1.25,3.99,2.86,5.04,4.82,1.05,1.97,1.51,4.06,1.38,6.28-.13,2.22-.8,4.23-2.01,6.04Z" fill="#e83427"/><path d="m613.2,586.91c.92-.12,2.07-.28,3.48-.47,1.4-.19,2.76-.42,4.07-.7,1.31-.28,2.24-.61,2.8-.98.59.69.68,2.08.29,4.17-.4,2.09-1.21,4.26-2.44,6.51-1,1.94-2.25,3.75-3.73,5.43-1.49,1.69-3.16,2.72-5.03,3.09-1.6.31-3.38.5-5.33.56-1.96.06-3.92.06-5.9,0-1.98-.06-3.79-.13-5.42-.19-1.64-.06-2.89-.09-3.76-.09s-2.24.01-4.09.05c-1.85.03-3.48.08-4.87.14-1.69.19-3.5.31-5.46.38-1.96.06-3.72,0-5.28-.19-1.56-.19-2.65-.5-3.25-.94.72-.87,1.53-2.2,2.42-3.98.89-1.78,1.77-3.73,2.65-5.85.88-2.12,1.6-4.15,2.17-6.09l5.38-17.14,2.59-7.96c.73-2.25,1.32-4.12,1.78-5.62.45-1.5.7-2.31.74-2.44.67-2.06,1.29-4.28,1.88-6.65.58-2.37,1.1-4.64,1.55-6.79.45-2.16.8-3.92,1.06-5.29.09-1.06.25-2.11.46-3.14.21-1.03.48-1.95.8-2.76.38.19,1.52.36,3.44.51,1.92.16,4.17.3,6.75.42.19,0,1.09.02,2.7.05,1.61.03,3.61.08,6,.14,2.38.06,4.87.11,7.45.14,2.58.03,4.93.05,7.06.05s3.69-.03,4.71-.09c2.6-.12,4.84-.33,6.71-.61,1.87-.28,3.2-.67,3.99-1.17.55.62.87,1.79.97,3.51s-.13,3.51-.67,5.39c-.59,1.81-1.56,3.51-2.92,5.1-1.36,1.59-3.23,2.67-5.59,3.23-.87.19-2.19.34-3.95.47-1.76.13-3.44.2-5.04.23-1.6.03-2.74.02-3.4-.05-1.88-.19-3.94.02-6.19.61-2.25.59-4.26,1.38-6.01,2.34-1.75.97-2.84,2.01-3.27,3.14-.41,1.06-.25,1.94.46,2.62.71.69,1.77,1.23,3.17,1.64s2.95.67,4.66.8c1.71.13,3.35.16,4.93.09,1.29-.12,2.79-.34,4.52-.66,1.72-.31,2.83-.62,3.3-.94.59.69.75,1.97.49,3.84-.27,1.87-.91,3.81-1.93,5.81-.84,1.62-1.95,3.12-3.33,4.5-1.38,1.37-3,2.31-4.85,2.81-1.43.37-3.12.66-5.05.84-3.69,0-7,.64-9.94,1.92-2.94,1.28-4.83,2.8-5.64,4.54-.74,1.5-.86,2.87-.36,4.12.5,1.25,1.6,1.94,3.31,2.06,1.16.06,2.67.08,4.53.05,1.85-.03,3.68-.09,5.49-.19,1.81-.09,3.14-.2,3.99-.33Z" fill="#e83427"/></g><path d="m296.44,660.81l-1.22,4.08h7.23c1.04-3.42,2.07-6.79,3.08-10.11,1.01-3.32,2.01-6.69,3.02-10.11l2.71-9.09,1.11-2.21.35-1.11h10.67l-9.87,33.1-.38,1.28c-.25.82-.51,1.6-.81,2.36-.29.76-.73,1.51-1.31,2.24l-.52,1.11-.07.06v.06s-.09.17-.09.17c-.05.04-.07.1-.09.17-.34.7-.8,1.37-1.37,2.01-.57.64-1.35,1.29-2.35,1.95-1.42.89-2.76,1.43-4.01,1.6-1.25.17-2.43.22-3.55.15-.19,0-.44,0-.75-.03-.31-.02-.56-.03-.75-.03h-8.74c-1.51,0-2.73-.17-3.65-.52-.92-.35-1.61-.84-2.07-1.46s-.74-1.35-.82-2.18c-.08-.84-.05-1.74.11-2.71.14-.89.34-1.78.59-2.65.25-.88.53-1.76.82-2.65l.69-2.16,1.1-2.16.36-1.17h10.61Zm-9.69,1.22c-.47,1.52-.92,3-1.34,4.46-.42,1.46-.61,2.77-.56,3.93.05,1.17.49,2.1,1.31,2.8.82.7,2.26,1.05,4.32,1.05h8.74c.7,0,1.39.02,2.06.06.67.04,1.34.03,1.99-.03.65-.06,1.34-.19,2.08-.41.73-.21,1.51-.59,2.33-1.14.86-.54,1.55-1.11,2.07-1.69.52-.58.92-1.19,1.22-1.81.29-.62.53-1.27.72-1.95.18-.68.39-1.39.62-2.13l9.48-31.71h-8.16l-2.45,8.16-7.29,24.48h-10.2l1.23-4.08h-8.16Zm23.48,10.78l.09-.17s.03-.08.08-.12l-.16.29Z" fill="#aed137"/><path d="m348.71,635.69l1.11-2.21.35-1.11h10.67l-9.41,31.65c-.08.23-.21.66-.41,1.28s-.4,1.27-.63,1.95c-.22.68-.44,1.3-.64,1.87-.21.56-.34.92-.4,1.08l-.93,1.46-.84,1.63c-.76,1.36-1.6,2.42-2.54,3.18-.93.76-2.12,1.35-3.54,1.78-.24.08-.61.14-1.11.17-.49.04-1.06.08-1.71.12-.65.04-1.36.06-2.14.06h-15.01c-.76,0-1.45-.02-2.09-.06-.63-.04-1.18-.08-1.64-.12-.46-.04-.76-.1-.91-.17v-.06c-1.28-.47-2.19-1.04-2.72-1.72-.54-.68-.79-1.74-.75-3.18.04-.78.17-1.59.39-2.45.21-.85.44-1.67.68-2.45l.46-1.46,9.29-31.24,1.11-2.21.35-1.11h10.67l-9.68,32.64h13.29l8.75-29.32Zm-31.13,28.21c-.27.97-.57,1.98-.91,3.03s-.53,2.08-.57,3.09c-.04,1.21.18,2.09.63,2.65.46.56,1.24,1.04,2.34,1.43.25.12.95.2,2.09.23,1.14.04,2.37.06,3.69.06h11.95c1.36,0,2.63-.02,3.83-.06,1.19-.04,1.97-.12,2.34-.23,1.26-.39,2.3-.91,3.1-1.57.8-.66,1.53-1.59,2.19-2.8.1-.15.25-.51.43-1.08.19-.56.39-1.17.61-1.84.22-.66.42-1.27.61-1.84.19-.56.29-.92.32-1.08l9.02-30.31h-8.16l-9.68,32.64h-16.32l9.68-32.64h-8.16l-9.02,30.31Z" fill="#aed137"/><path d="m398.3,632.43l-12.81,43.25h-.23l-1.52,2.97h-9.73l-7.47-21.8-1.4,4.84-4.12,13.99h-.23l-1.52,2.97h-10.32l12.75-42.9,1.11-2.21.35-1.11h10.02l7.53,21.8,5.47-18.48,1.12-2.27.34-1.05h10.67Zm-9.75,1.22l-7.56,25.47-8.76-25.47h-8.16l-12.13,40.8h8.16l7.58-25.59,8.74,25.59h8.16l12.13-40.8h-8.16Z" fill="#aed137"/><path d="m423.77,665.01l-3.13,10.61h-.23l-1.52,2.97h-32.75l12.75-42.9,1.11-2.21.35-1.11h33.1l-3.07,10.61h-.23l-1.52,2.97h-21.68l-.78,2.74h18.36l-3.13,10.61h-.23l-1.52,2.97h-17.54l-.78,2.74h22.44Zm-24.03,1.22l2.39-8.16h18.36l2.45-8.16h-18.36l2.45-8.16h22.44l2.39-8.16h-30.6l-12.13,40.8h30.6l2.45-8.16h-22.44Z" fill="#aed137"/><path d="m476.01,632.31l-12.81,43.25h-.23l-1.52,2.97h-10.32l7.29-24.48.97-3.21-2.51,1.87-5.26-7.34,1.51-2.91-.14-.23,12.98-9.91h10.02Zm-9.75,1.22l-11.53,8.8,4.11,5.71,4.04-3.09-1.83,6.06-6.93,23.31h8.16l12.13-40.8h-8.16Z" fill="#aed137"/><path d="m502.78,665.53l-.36,1.17c-.26.89-.52,1.73-.8,2.5-.28.78-.73,1.54-1.35,2.27l-.78,1.63c-.34.66-.79,1.3-1.35,1.92-.56.62-1.35,1.26-2.34,1.92-1.59.97-2.99,1.52-4.2,1.66-1.21.14-2.43.18-3.67.15-.23,0-.48-.01-.72-.03-.25-.02-.49-.03-.72-.03-.74,0-1.47,0-2.19.03-.72.02-1.43.03-2.13.03h-7.81c-.82,0-1.61-.02-2.38-.06-.77-.04-1.54-.12-2.29-.23-1.75-.27-3.02-1.04-3.83-2.3-.81-1.26-.97-2.85-.48-4.75l5.07-17.02,2.56-8.51c.19-.7.38-1.36.57-1.98.19-.62.43-1.22.72-1.81l.25-.47h-.06l.5-.99c.37-1.13.92-2.19,1.64-3.18.72-.99,1.8-1.97,3.23-2.94.86-.54,1.65-.96,2.35-1.25.71-.29,1.38-.5,2.02-.61.64-.12,1.26-.18,1.86-.18h13.67c1.01,0,2.04.01,3.08.03,1.05.02,2.08.13,3.1.32.79.2,1.51.51,2.19.93.67.43,1.21.95,1.62,1.57.41.62.67,1.33.8,2.13.13.8.06,1.64-.19,2.54l-2.56,8.51c-.42,1.44-.84,2.87-1.26,4.28-.42,1.42-.83,2.83-1.25,4.22l-2.5,8.51Zm1.29-8.59l5.07-17.04c.23-.74.31-1.45.25-2.13-.07-.68-.28-1.27-.62-1.78-.35-.51-.79-.92-1.32-1.25-.53-.33-1.16-.55-1.88-.67-1.36-.23-2.71-.35-4.05-.35h-12.56c-.7,0-1.39,0-2.07-.03-.68-.02-1.34,0-2,.09-.65.08-1.34.24-2.06.5s-1.51.65-2.37,1.2c-.87.58-1.57,1.16-2.11,1.72-.54.57-.98,1.15-1.32,1.75-.35.6-.62,1.24-.82,1.9-.2.66-.4,1.36-.59,2.1l-2.55,8.46-5.07,17.04c-.2.78-.26,1.5-.19,2.16.07.66.27,1.26.59,1.78.33.53.77.95,1.34,1.28.57.33,1.19.55,1.88.67,1.32.23,2.66.34,4,.32,1.34-.02,2.7-.03,4.05-.03,1.44,0,2.87,0,4.29-.03,1.42-.02,2.85-.03,4.29-.03.7,0,1.39.02,2.06.06.67.04,1.37.03,2.07-.03.71-.06,1.43-.21,2.17-.44.74-.23,1.53-.62,2.4-1.17.87-.58,1.56-1.17,2.08-1.75.52-.58.92-1.18,1.21-1.78.29-.6.52-1.25.71-1.93.18-.68.39-1.39.63-2.13l2.5-8.46Zm-27.31,9.47l7.3-24.54h16.32l-7.3,24.54h-16.32Zm14.88-1.22c.97-3.23,1.93-6.37,2.88-9.44.95-3.07,1.92-6.29,2.92-9.68h-13.35c-.39,1.25-.78,2.5-1.17,3.76-.39,1.26-.77,2.52-1.12,3.76-.62,1.94-1.21,3.85-1.77,5.71-.57,1.86-1.15,3.83-1.74,5.89h13.35Zm7.85,7.93c.01-.08.07-.19.17-.35l-.17.35Zm1.44-2.86v.06s.16-.35.16-.35l-.16.29Z" fill="#aed137"/><path d="m548.67,632.37l-3.07,10.61h-.23l-1.52,2.97h-11.37l-8.86,29.67h-.23l-1.52,2.97h-10.32l9.74-32.64h-12.24l3.01-10.26,1.11-2.21.35-1.11h35.14Zm-34.23,1.22l-2.39,8.16h12.24l-9.74,32.64h8.16l9.74-32.64h12.24l2.39-8.16h-32.64Z" fill="#aed137"/><path d="m585.06,632.25l-12.86,43.25h-.23l-1.52,2.97h-10.32l4.84-16.32h-13.35l-1.77,6.06-2.14,7.29h-.23l-1.52,2.97h-10.32l12.81-42.9,1.11-2.21.35-1.11h10.67l-4.9,16.32h13.35l3.91-13,1.1-2.16.36-1.17h10.67Zm-9.75,1.22l-4.9,16.32h-16.32l4.9-16.32h-8.16l-12.19,40.8h8.16l4.84-16.32h16.32l-4.84,16.32h8.16l12.19-40.8h-8.16Z" fill="#aed137"/><path d="m587.61,664.95l-3.13,10.61h-.23l-1.52,2.97h-2.56c-.49.66-1.02,1.36-1.58,2.1-.56.74-1.05,1.4-1.45,1.98h-5.95l1.58-5.25,2.71-9.09,1.11-2.21.35-1.11h10.67Zm-9.75,1.22l-2.45,8.16-1.22,4.08h4.08l3.03-4.08h2.27l2.45-8.16h-8.16Z" fill="#aed137"/><path d="m648.36,658.89c-.8,1.63-2.01,2.96-3.63,3.99-1.62,1.03-3.26,1.54-4.94,1.54h-16.67c-.06.12-.1.27-.13.47h24.54l-1.01,3.44-2.12,7.17h-.23l-1.52,2.97h-34.79l2.2-7.34,2.97-9.97c.12-.5.31-.99.58-1.46l.83-1.58.02-.12c.41-1.09,1.02-2.14,1.84-3.15.34-.43.7-.82,1.09-1.17s.8-.68,1.23-.99c.78-.54,1.62-.99,2.51-1.34.89-.35,1.78-.53,2.67-.53h16.79l1.45-4.78h-13.41l-.29,1.11h-.23l-1.52,2.97h-10.32l2.2-7.29.94-1.92v.06s-.94,1.87-.94,1.87c.14-.39.26-.68.37-.87l.87-1.81.19-.47c.34-.93.85-1.83,1.53-2.71.68-.88,1.44-1.64,2.29-2.3.84-.66,1.74-1.19,2.7-1.6.96-.41,1.9-.61,2.84-.61h20.4c1.01,0,1.9.21,2.67.61.77.41,1.38.95,1.84,1.63.46.68.76,1.48.91,2.39.15.91.11,1.86-.12,2.83l-.61,2.04-3.61,12.24c-.33,1.09-.84,2.1-1.53,3.03l-.59,1.17-.25.47Zm-2.42,7.23h-24.48l1.74-5.89h18.36c.85,0,1.7-.15,2.52-.47.83-.31,1.59-.75,2.3-1.31.71-.56,1.35-1.21,1.91-1.95.56-.74.97-1.54,1.22-2.39l3.62-12.24.61-2.04c.25-.85.33-1.65.23-2.39-.1-.74-.34-1.38-.72-1.92-.38-.54-.89-.98-1.54-1.31-.65-.33-1.4-.5-2.25-.5h-20.4c-.85,0-1.7.17-2.53.5-.83.33-1.61.77-2.33,1.31s-1.36,1.19-1.91,1.92c-.54.74-.94,1.54-1.19,2.39l-1.84,6.12h8.16l1.22-4.08h16.32l-2.39,8.16-.61,2.04h-18.36c-.85,0-1.71.17-2.55.5-.85.33-1.64.77-2.36,1.31-.73.54-1.35,1.2-1.88,1.95-.53.76-.91,1.54-1.16,2.36l-2.97,9.97-1.84,6.12h32.64l1.84-6.12.61-2.04Z" fill="#aed137"/><path d="m684.21,665.53l-.36,1.17c-.26.89-.52,1.73-.8,2.5-.28.78-.73,1.54-1.35,2.27l-.78,1.63c-.34.66-.79,1.3-1.35,1.92-.56.62-1.34,1.26-2.34,1.92-1.59.97-2.99,1.52-4.2,1.66-1.21.14-2.43.18-3.67.15-.23,0-.47-.01-.72-.03-.25-.02-.49-.03-.72-.03-.74,0-1.47,0-2.19.03-.72.02-1.43.03-2.13.03h-7.81c-.82,0-1.61-.02-2.38-.06-.77-.04-1.54-.12-2.29-.23-1.75-.27-3.02-1.04-3.83-2.3-.81-1.26-.97-2.85-.48-4.75l5.07-17.02,2.56-8.51c.19-.7.38-1.36.57-1.98.19-.62.43-1.22.72-1.81l.25-.47h-.06l.5-.99c.37-1.13.92-2.19,1.64-3.18.72-.99,1.8-1.97,3.23-2.94.86-.54,1.65-.96,2.35-1.25.71-.29,1.38-.5,2.02-.61.64-.12,1.26-.18,1.86-.18h13.67c1.01,0,2.04.01,3.08.03,1.05.02,2.08.13,3.1.32.79.2,1.51.51,2.18.93.67.43,1.21.95,1.62,1.57.41.62.67,1.33.8,2.13.13.8.06,1.64-.19,2.54l-2.56,8.51c-.42,1.44-.84,2.87-1.26,4.28-.42,1.42-.83,2.83-1.25,4.22l-2.5,8.51Zm1.29-8.59l5.07-17.04c.23-.74.31-1.45.25-2.13-.07-.68-.28-1.27-.62-1.78-.35-.51-.79-.92-1.32-1.25-.53-.33-1.16-.55-1.88-.67-1.36-.23-2.71-.35-4.05-.35h-12.56c-.7,0-1.39,0-2.07-.03-.68-.02-1.34,0-2,.09-.65.08-1.34.24-2.06.5s-1.51.65-2.37,1.2c-.87.58-1.57,1.16-2.11,1.72-.54.57-.98,1.15-1.32,1.75-.35.6-.62,1.24-.82,1.9-.2.66-.4,1.36-.59,2.1l-2.55,8.46-5.07,17.04c-.2.78-.26,1.5-.19,2.16.07.66.27,1.26.59,1.78.33.53.77.95,1.34,1.28.57.33,1.19.55,1.88.67,1.32.23,2.66.34,4,.32,1.34-.02,2.69-.03,4.06-.03,1.44,0,2.87,0,4.29-.03,1.42-.02,2.85-.03,4.29-.03.7,0,1.39.02,2.06.06.67.04,1.36.03,2.07-.03.71-.06,1.43-.21,2.17-.44.74-.23,1.53-.62,2.4-1.17.87-.58,1.56-1.17,2.08-1.75.52-.58.92-1.18,1.21-1.78.29-.6.52-1.25.71-1.93.18-.68.39-1.39.63-2.13l2.5-8.46Zm-27.31,9.47l7.3-24.54h16.32l-7.3,24.54h-16.32Zm14.88-1.22c.97-3.23,1.94-6.37,2.89-9.44.95-3.07,1.92-6.29,2.92-9.68h-13.35c-.39,1.25-.78,2.5-1.17,3.76-.39,1.26-.77,2.52-1.12,3.76-.62,1.94-1.21,3.85-1.77,5.71-.57,1.86-1.15,3.83-1.74,5.89h13.35Zm7.85,7.93c.01-.08.07-.19.17-.35l-.17.35Zm1.44-2.86v.06s.16-.35.16-.35l-.16.29Z" fill="#aed137"/><path d="m722.44,658.89c-.8,1.63-2.01,2.96-3.63,3.99-1.62,1.03-3.26,1.54-4.94,1.54h-16.67c-.06.12-.1.27-.13.47h24.54l-1.01,3.44-2.12,7.17h-.23l-1.52,2.97h-34.79l2.2-7.34,2.97-9.97c.12-.5.31-.99.58-1.46l.83-1.58.02-.12c.41-1.09,1.02-2.14,1.84-3.15.34-.43.7-.82,1.09-1.17s.8-.68,1.23-.99c.78-.54,1.62-.99,2.51-1.34.89-.35,1.78-.53,2.67-.53h16.79l1.45-4.78h-13.41l-.29,1.11h-.23l-1.52,2.97h-10.32l2.2-7.29.94-1.92v.06s-.94,1.87-.94,1.87c.14-.39.26-.68.37-.87l.87-1.81.19-.47c.34-.93.85-1.83,1.53-2.71.68-.88,1.44-1.64,2.29-2.3.84-.66,1.74-1.19,2.7-1.6.96-.41,1.9-.61,2.84-.61h20.4c1.01,0,1.9.21,2.67.61.77.41,1.38.95,1.84,1.63.46.68.76,1.48.91,2.39.15.91.11,1.86-.12,2.83l-.61,2.04-3.61,12.24c-.33,1.09-.84,2.1-1.53,3.03l-.59,1.17-.25.47Zm-2.42,7.23h-24.48l1.74-5.89h18.36c.85,0,1.7-.15,2.52-.47.83-.31,1.59-.75,2.3-1.31.71-.56,1.35-1.21,1.91-1.95.56-.74.97-1.54,1.22-2.39l3.62-12.24.61-2.04c.25-.85.33-1.65.23-2.39-.1-.74-.34-1.38-.72-1.92-.38-.54-.89-.98-1.54-1.31-.65-.33-1.4-.5-2.25-.5h-20.4c-.85,0-1.7.17-2.53.5-.83.33-1.61.77-2.33,1.31s-1.36,1.19-1.91,1.92c-.54.74-.94,1.54-1.19,2.39l-1.84,6.12h8.16l1.22-4.08h16.32l-2.39,8.16-.61,2.04h-18.36c-.85,0-1.71.17-2.55.5-.85.33-1.64.77-2.36,1.31-.73.54-1.35,1.2-1.88,1.95-.53.76-.91,1.54-1.16,2.36l-2.97,9.97-1.84,6.12h32.64l1.84-6.12.61-2.04Z" fill="#aed137"/><path d="m759.96,655.27c.22.58.32,1.23.3,1.95-.02.72-.12,1.47-.32,2.24l-1.01,3.44-1.59,5.3c-.26.66-.6,1.32-1.01,1.98l-1.11,2.21-.25.47c-.8,1.63-2.01,2.96-3.63,3.99-1.62,1.03-3.3,1.54-5.05,1.54h-20.28c-1.01,0-1.89-.19-2.65-.58-.75-.39-1.36-.91-1.82-1.57-.46-.66-.76-1.43-.89-2.3-.13-.87-.06-1.82.21-2.83l1.22-4.08.82-2.97,1.18-2.33.27-.99h7.69l2.89-9.5.52-1.11h-8.39l1.11-3.73c.31-1.01.61-1.98.9-2.91.28-.93.64-1.79,1.07-2.56l.09-.18s-.02.07-.04.09c-.02.02-.04.05-.04.09l.25-.47s-.07.08-.08.12c0,.04-.04.1-.08.17l.18-.41.07-.06-.07.06.08-.12v.06s0-.12,0-.12v.06s.32-.58.32-.58c.4-1.05.88-2.01,1.45-2.88.56-.87,1.28-1.63,2.13-2.27.86-.64,1.89-1.14,3.09-1.49s2.66-.53,4.37-.53h.23l16.34-.12h.23c1.01,0,1.96.06,2.86.18.89.12,1.79.52,2.69,1.22.89.78,1.45,1.61,1.68,2.51.23.89.21,1.94-.06,3.15-.18,1.13-.42,2.21-.71,3.23-.3,1.03-.59,1.99-.89,2.88-.01.08-.03.13-.05.15s-.04.07-.05.15l-.44,1.34-.7,2.22c-.22.66-.45,1.25-.69,1.78-.24.52-.55,1-.92,1.43l-.69,1.4.02-.12-.02.12-.25.47-.48.82Zm-15.42-6.12h-7.23l-2.45,8.16h16.32l-1.37,4.66-.25.82-.98,3.26h-16.32l.61-2.04.61-2.04h-8.16l-.61,2.04-1.22,4.08c-.25.86-.33,1.65-.23,2.39.1.74.34,1.39.74,1.95.4.56.91,1,1.54,1.31.63.31,1.37.47,2.23.47h20.28c.85,0,1.71-.15,2.58-.47.87-.31,1.66-.75,2.39-1.31.73-.56,1.37-1.21,1.91-1.95s.94-1.54,1.19-2.39l1.59-5.3,1.01-3.44c.34-1.2.43-2.19.26-2.97-.17-.78-.67-1.5-1.5-2.16,1.23-.66,2.16-1.38,2.79-2.16.63-.78,1.13-1.75,1.51-2.91.26-.89.53-1.74.81-2.54.28-.8.54-1.57.78-2.33.24-.76.46-1.54.69-2.33.22-.8.4-1.64.54-2.54.24-1.01.26-1.9.07-2.68s-.62-1.46-1.31-2.04c-.69-.54-1.46-.87-2.3-.96s-1.71-.15-2.6-.15h-.23l-16.34.12h-.23c-2.25,0-4.03.31-5.33.93-1.3.62-2.33,1.49-3.09,2.59s-1.34,2.41-1.75,3.9c-.41,1.5-.89,3.1-1.43,4.81h8.16l1.22-4.08h16.32l-2.14,7.29h-9.09Zm-9.75,12.36l-.7,2.62c-.05.31-.11.54-.17.7h13.29l1.05-3.32h-13.46Zm4.64-15.45l-.29,1.11h-.23l-.41.76h13.75c.12-.27.21-.55.28-.84.06-.29.17-.63.31-1.02h-13.41Zm12.97,27.98c1.28-.74,2.33-1.63,3.16-2.68l.03-.17c-.92,1.17-1.98,2.12-3.19,2.86Z" fill="#aed137"/></svg>