<?xml version="1.0" encoding="UTF-8"?><svg id="b" xmlns="http://www.w3.org/2000/svg" width="955.33" height="688.02" viewBox="0 0 955.33 688.02"><g id="c"><g id="d"><g id="e"><path d="M254.32,194.59l33.97-22.64c2.51-1.67,3.89-4.6,3.58-7.6l-14.87-143.92c-.03-.31-.36-.51-.65-.38-5.49,2.35-29.15,21.43-45.34,33.43" fill="none" stroke="#acd037" stroke-linecap="round" stroke-miterlimit="10" stroke-width="40"/></g></g><path d="M113.73,494.3l52.52,78.96c.14.21.14.48-.02.69-3.65,4.79-44.71,60.44.25,87.43,0,0,31.72,18.37,59.09-8.54.85-.84,1.54-1.84,2.06-2.92l10.77-22.15s6.21-10.68,17.33-16.32,42.82-18.59,49.06-41.37l1.05-19.11s-3-5.9,15.95-28.73c1.07-1.29,1.49-3,1.12-4.64-2.19-9.92-8.16-45.38,17.45-49.75.46-.08.75-.55.58-.98-1.75-4.46-8.46-26.66,12.04-66.16l1.55-22.32s-2.73-10.24,34.48-59.05c0,0,10.24-13.31,2.73-29.7l-8.53-28.67s-2.05-9.56-12.63-12.29c-9.52-2.46-81.74-29.5-96.15-34.9-1.65-.62-3.17-1.54-4.49-2.71l-13.95-12.45c-2.3-2.05-4.37-4.35-6.17-6.85l-21.36-29.64s-8.26-9.7-19.4-13.29c-9.91-3.2-42.26-18.37-49.29-21.69-.99-.47-2.05-.76-3.14-.86-1.25-.11-3.05-.19-4.97-.02-1.14.1-2.2.67-2.91,1.57l-76.17,97.5c-.77.98-1.41,2.04-1.92,3.17-6.69,14.69-54.34,119.87-50.42,125.75l51.56,76.36" fill="none" stroke="#e73325" stroke-miterlimit="10" stroke-width="40"/><polygon points="97.29 432.9 83.93 412.94 50.64 435.23 63.64 454.63 71.85 431.02 97.29 432.9" fill="#e83427"/><polygon points="135.97 491.47 130.59 483.43 101.8 476.07 96.93 505.16 102.68 513.76 135.97 491.47" fill="#e83427"/><polygon id="f" points="107.81 448.58 79.27 442.56 74.15 470.31 86.44 488.66 94.93 465.03 120.1 466.93 107.81 448.58" fill="#e83427"/><g id="g"><path d="M507.75,270.95c-1.5,2.31-3.2,4-5.11,5.06-1.91,1.06-3.67,1.48-5.28,1.26-1.62-.22-2.78-1.04-3.5-2.48,1.33-.81,1.94-1.7,1.85-2.67-.09-.97-.81-1.78-2.16-2.44-1.35-.66-3.27-.89-5.77-.7-2.54.13-5.31.94-8.33,2.44s-5.82,3.65-8.42,6.46c-2.6,2.81-4.67,6.31-6.22,10.49-1.59,4.31-2.29,7.81-2.1,10.49.19,2.69.85,4.73,1.99,6.14s2.42,2.4,3.85,3c1.43.59,2.61.98,3.55,1.17,1.23.25,2.69.42,4.38.52,1.69.09,3.45-.01,5.3-.33,1.85-.31,3.52-.84,5.01-1.59,1.35-.69,3.05-1.61,5.11-2.76,2.06-1.15,4.11-2.45,6.13-3.89,2.03-1.44,3.66-2.9,4.9-4.4,1.66,1.44,2.32,3.47,2,6.09-.32,2.62-1.47,5.43-3.44,8.43-1.97,3-4.62,5.82-7.95,8.48-3.33,2.66-7.23,4.81-11.7,6.46-4.47,1.65-9.37,2.42-14.7,2.29-2.48-.06-5.18-.53-8.11-1.41-2.93-.87-5.71-2.26-8.34-4.17-2.63-1.9-4.76-4.43-6.39-7.59-1.63-3.15-2.37-7.07-2.22-11.76.15-4.68,1.57-10.21,4.26-16.58,2.53-6.06,5.74-11.27,9.63-15.64,3.89-4.37,8.08-7.95,12.57-10.72,4.49-2.78,8.98-4.87,13.47-6.28,4.49-1.4,8.58-2.14,12.28-2.2,3.72-.12,6.74.44,9.05,1.69,2.31,1.25,3.99,2.86,5.04,4.82s1.51,4.06,1.38,6.28c-.13,2.22-.8,4.23-2.01,6.04Z" fill="#e83528"/><path d="M568.37,309.54c.16,1.81.66,3.54,1.5,5.2.83,1.66,1.62,2.89,2.36,3.7-2.51,3.12-5.1,5.4-7.75,6.84-2.2,1.19-4.36,1.87-6.48,2.06-1.17.12-2.42.03-3.75-.28s-2.53-1.2-3.58-2.67c-1.05-1.47-1.8-3.82-2.25-7.07-.09-1.06-.82-1.81-2.17-2.25-1.36-.44-2.86-.7-4.52-.8-1.66-.09-3.01-.14-4.08-.14s-2.37.03-3.92.09c-1.55.06-3.02.31-4.41.75-1.39.44-2.4,1.22-3.01,2.34-.58,1-.94,2.03-1.1,3.09-.16,1.06.02,1.75.55,2.06-1.39,1-2.72,1.87-3.99,2.62-1.27.75-2.51,1.34-3.72,1.78-1.49.56-2.94.84-4.35.84s-2.88-.31-4.43-.94c-.71-.31-1.37-.87-1.98-1.69-.61-.81-.84-1.93-.68-3.37.15-1.44.99-3.25,2.51-5.43.12-.19.76-1.19,1.91-3,1.15-1.81,2.66-4.2,4.53-7.17,1.87-2.96,3.94-6.26,6.21-9.88,2.27-3.62,4.6-7.35,7.01-11.19,2.4-3.84,4.73-7.54,6.98-11.1,2.25-3.56,4.28-6.77,6.09-9.65,1.81-2.87,3.76-5.99,5.85-9.37.66-.31,1.83-.7,3.52-1.17,1.68-.47,3.41-.73,5.18-.8,1.98-.12,3.78.13,5.42.75,1.64.63,2.65,1.87,3.04,3.75.19.75.38,2.19.57,4.31.18,2.12.38,4.68.59,7.68.21,3,.42,6.2.63,9.6.21,3.4.41,6.78.6,10.12.19,3.34.35,6.45.48,9.32.13,2.87.25,5.29.36,7.26.11,1.97.2,3.23.27,3.79ZM542.79,297.46c1.66-.12,2.77-.59,3.31-1.4.54-.81,1.02-1.75,1.43-2.81.22-.69.39-1.53.49-2.53.1-1,.08-1.89-.07-2.67-.15-.78-.54-1.17-1.17-1.17-.88,0-2.02.61-3.45,1.83-1.43,1.22-2.4,2.45-2.93,3.7-.57,1.19-.84,2.34-.8,3.47.04,1.12,1.1,1.66,3.18,1.59Z" fill="#e83528"/><path d="M638.14,297.46c-.27.06-.74.41-1.41,1.03-.67.62-1.21,1.28-1.62,1.97-.64,1-.81,1.81-.51,2.44.8,1.56,1.9,3.39,3.28,5.48,1.38,2.09,2.81,4.07,4.3,5.95,1.48,1.87,2.81,3.31,3.99,4.31-2.1,3-4.64,5.39-7.62,7.17-2.98,1.78-5.93,2.64-8.85,2.58-2.92-.06-5.36-1.37-7.34-3.93-.25-.37-.7-1.2-1.35-2.48-.65-1.28-1.37-2.79-2.18-4.54-.81-1.75-1.61-3.5-2.42-5.25-.81-1.75-1.5-3.28-2.07-4.59-.57-1.31-.93-2.12-1.08-2.44-.68-1.56-1.69-1.9-3.04-1.03-1.35.87-2.59,2.69-3.73,5.43-.65,1.62-1.24,3.48-1.76,5.57-.53,2.09-.88,3.95-1.06,5.57-.18,1.62-.14,2.59.13,2.9-1.64,1-3.56,1.94-5.78,2.81-2.22.87-4.61,1.41-7.17,1.59-.96.06-1.97-.19-3.03-.75-1.07-.56-1.85-1.48-2.33-2.76-.49-1.28-.45-2.89.12-4.82.16-.5.57-1.81,1.23-3.93.66-2.12,1.47-4.73,2.45-7.82.97-3.09,2-6.29,3.07-9.6,1.08-3.31,2.07-6.43,3-9.37.92-2.94,1.97-6.21,3.15-9.84,1.2-3.68,2.1-6.76,2.72-9.23.61-2.47.48-4.36-.41-5.67-.8-1.19-1.13-2.9-1-5.15.14-2.25.56-4.37,1.27-6.37.23.06.95.14,2.17.23,1.22.09,2.4.2,3.55.33.81,0,1.99-.02,3.53-.05,1.54-.03,3.19-.08,4.96-.14,1.77-.06,3.41-.11,4.92-.14,1.51-.03,2.65-.08,3.42-.14.56,0,1.61-.01,3.15-.05,1.54-.03,3.34-.05,5.4-.05s4.15.02,6.26.05c2.11.03,4.05.11,5.83.23,1.77.13,3.12.28,4.06.47,3.88.75,6.62,2.12,8.21,4.12,1.6,2,2.42,4.4,2.48,7.21.06,2.81-.36,5.87-1.25,9.18-.79,2.81-2.05,5.75-3.8,8.8-1.74,3.06-3.95,5.9-6.61,8.52s-5.74,4.68-9.22,6.18ZM617.15,277.32c-.65,2-.66,3.48-.04,4.45.62.97,1.31,1.55,2.06,1.73,1.04.25,2.47.27,4.29.05,1.82-.22,3.71-.66,5.67-1.31,1.96-.66,3.72-1.51,5.29-2.58,1.56-1.06,2.57-2.28,3.01-3.65.59-1.81.29-3.2-.89-4.17-1.18-.97-2.88-1.58-5.07-1.83-2.2-.25-4.48-.19-6.85.19-1.83.25-3.4,1.03-4.69,2.34-1.3,1.31-2.22,2.9-2.77,4.78Z" fill="#e83528"/><path d="M732.5,286.97c-1.26,5.81-3.2,10.96-5.82,15.46-2.62,4.5-5.66,8.38-9.13,11.66-3.47,3.28-7.17,5.96-11.1,8.06-3.93,2.09-7.88,3.65-11.87,4.68-3.99,1.03-7.76,1.55-11.32,1.55s-7.03-.47-10.41-1.41c-3.38-.94-6.39-2.4-9.01-4.4-2.63-2-4.66-4.59-6.09-7.77-1.43-3.18-2.03-6.98-1.78-11.38.24-4.4,1.62-9.51,4.13-15.32,2.12-5,4.89-9.66,8.3-14,3.41-4.34,7.23-8.12,11.46-11.33,4.23-3.22,8.69-5.71,13.39-7.49,4.7-1.78,9.37-2.61,14.01-2.48.31,0,.86-.23,1.63-.7.78-.47,1.77-.92,2.97-1.36,1.2-.44,2.54-.59,3.99-.47,2.73.25,5.32,1.41,7.77,3.47,2.45,2.06,4.53,4.79,6.24,8.2,1.7,3.4,2.82,7.26,3.36,11.57.54,4.31.29,8.8-.73,13.49ZM689.18,311.04c2.21-.06,4.38-.37,6.53-.94s4.25-1.59,6.3-3.09c2.05-1.5,4-3.62,5.86-6.37,1.86-2.75,3.52-6.28,4.99-10.58,1.04-3,1.32-5.9.86-8.71-.46-2.81-1.59-5.2-3.38-7.17-1.8-1.97-4.21-3.11-7.23-3.42-3.25-.37-6.23-.05-8.94.98-2.71,1.03-5.15,2.53-7.32,4.5-2.17,1.97-4.06,4.17-5.66,6.6-1.6,2.44-2.9,4.9-3.9,7.4-1.77,4.31-2.52,7.84-2.22,10.58.29,2.75,1.19,4.87,2.71,6.37,1.51,1.5,3.32,2.53,5.41,3.09,2.1.56,4.09.81,5.99.75Z" fill="#e83528"/><path d="M786.08,308.6c.59.69.69,2.05.32,4.07-.38,2.03-1.17,4.14-2.38,6.32-.96,1.81-2.21,3.54-3.75,5.2-1.54,1.66-3.17,2.64-4.89,2.95-.67.12-2.13.2-4.38.23-2.26.03-4.9.03-7.92,0-3.02-.03-6.07-.06-9.15-.09-3.08-.03-5.83-.03-8.24,0-2.42.03-4.14.11-5.18.23-2.7.44-5.36.59-7.97.47-2.62-.13-4.35-.5-5.21-1.12.72-.87,1.53-2.2,2.42-3.98.89-1.78,1.77-3.73,2.65-5.85.88-2.12,1.6-4.15,2.17-6.09l18.37-57.7c.73-.12,1.94-.16,3.64-.09,1.7.06,3.43.34,5.21.84,1.96.5,3.56,1.44,4.8,2.81,1.24,1.37,1.7,3.12,1.39,5.25-.1.69-.45,2.05-1.04,4.07-.6,2.03-1.33,4.42-2.19,7.17-.86,2.75-1.78,5.56-2.74,8.43-.96,2.87-1.85,5.56-2.66,8.06-.81,2.5-1.76,5.31-2.83,8.43-.83,2.37-1.28,4.51-1.34,6.42-.06,1.9.27,3.39.99,4.45.55.81,1.36,1.38,2.45,1.69,1.08.31,2.48.53,4.19.66.73.06,1.9.06,3.51,0,1.61-.06,3.41-.17,5.4-.33,1.99-.16,3.97-.36,5.96-.61,1.99-.25,3.75-.53,5.29-.84,1.54-.31,2.58-.66,3.14-1.03Z" fill="#e83528"/><path d="M797.29,327.99c-2.52-.5-3.83-2.31-3.9-5.43-.08-3.12.63-6.99,2.14-11.62.18-.56.62-1.97,1.32-4.21.7-2.25,1.58-5.04,2.63-8.38,1.05-3.34,2.2-6.95,3.42-10.82,1.23-3.87,2.44-7.74,3.63-11.62,1.2-3.87,2.29-7.45,3.3-10.73,1-3.28,1.82-5.98,2.45-8.1.63-2.12.98-3.4,1.06-3.84,1-.19,2.46-.23,4.4-.14s3.89.41,5.88.94c1.98.53,3.59,1.41,4.81,2.62,1.23,1.22,1.62,2.89,1.18,5.01-.2,1-.66,2.7-1.38,5.11-.72,2.4-1.6,5.25-2.63,8.52-1.03,3.28-2.15,6.76-3.35,10.44-1.2,3.69-2.38,7.32-3.54,10.91-1.17,3.59-2.24,6.9-3.23,9.93-.98,3.03-1.79,5.56-2.42,7.59-.63,2.03-.98,3.26-1.06,3.7-.3,1.31-.36,2.26-.18,2.86.18.59.35,1.33.5,2.2-2.11,1.69-4.49,3.06-7.15,4.12-2.66,1.06-5.29,1.37-7.89.94Z" fill="#e83528"/><path d="M901.36,261.67c-.22,1.06-.73,2.86-1.52,5.39-.79,2.53-1.75,5.54-2.89,9.04-1.14,3.5-2.33,7.18-3.59,11.05s-2.52,7.71-3.79,11.52-2.43,7.27-3.47,10.4c-1.05,3.12-1.89,5.67-2.53,7.63s-.97,3.08-.99,3.32c-.04.5-.39,1.3-1.06,2.39-.67,1.09-1.5,2.12-2.5,3.09-1,.97-2.06,1.55-3.19,1.73-1.08.25-2.47.26-4.18.05-1.71-.22-3.33-.72-4.85-1.5-1.53-.78-2.58-1.92-3.15-3.42-.34-.87-.88-2.14-1.62-3.79-.74-1.65-1.56-3.47-2.45-5.43-.89-1.97-1.77-3.87-2.64-5.71-.87-1.84-1.59-3.43-2.15-4.78-.56-1.34-.92-2.17-1.07-2.48-.28-.87-.91-1.76-1.9-2.67-.99-.9-1.89-1.23-2.72-.98-.83.25-1.64,1.02-2.43,2.29-.79,1.28-1.48,2.64-2.07,4.07-.43.94-.95,2.36-1.57,4.26-.62,1.91-1.24,3.86-1.86,5.85-.62,2-1.16,3.62-1.63,4.87-.77,2.19-.77,4.28.02,6.28-.6.31-1.76.8-3.47,1.45-1.71.66-3.49,1.23-5.34,1.73-1.85.5-3.36.72-4.52.66-1.96-.13-3.39-1.16-4.29-3.09-.9-1.94-.92-4.34-.04-7.21.18-.56.68-2.14,1.49-4.73.81-2.59,1.83-5.82,3.06-9.7,1.23-3.87,2.57-8.06,4.03-12.55s2.89-8.95,4.29-13.35c1.4-4.4,2.68-8.43,3.83-12.08,1.15-3.65,2.44-7.66,3.86-12.04,3.85-.12,6.97.16,9.37.84,2.4.69,4.18,1.94,5.34,3.75.53.69,1.22,1.91,2.09,3.65.87,1.75,1.8,3.73,2.8,5.95,1,2.22,1.97,4.42,2.91,6.6.94,2.19,1.77,4.11,2.48,5.76.71,1.66,1.17,2.73,1.39,3.23.59,1.25,1.29,2.23,2.09,2.95.8.72,1.58.95,2.35.7,1.66-.5,3.09-2.59,4.29-6.28l8.64-27.16c.73-.12,1.94-.16,3.64-.09,1.7.06,3.43.34,5.21.84,1.96.5,3.62,1.34,4.99,2.53,1.36,1.19,1.8,2.9,1.32,5.15Z" fill="#e83528"/><path d="M951.47,309.54c.16,1.81.66,3.54,1.5,5.2.83,1.66,1.62,2.89,2.36,3.7-2.51,3.12-5.1,5.4-7.75,6.84-2.2,1.19-4.36,1.87-6.48,2.06-1.17.12-2.42.03-3.75-.28s-2.53-1.2-3.58-2.67c-1.05-1.47-1.8-3.82-2.25-7.07-.09-1.06-.82-1.81-2.17-2.25-1.36-.44-2.86-.7-4.52-.8-1.66-.09-3.01-.14-4.08-.14s-2.37.03-3.92.09c-1.55.06-3.02.31-4.41.75-1.39.44-2.4,1.22-3.01,2.34-.58,1-.94,2.03-1.1,3.09-.16,1.06.02,1.75.55,2.06-1.39,1-2.72,1.87-3.99,2.62-1.27.75-2.51,1.34-3.72,1.78-1.49.56-2.94.84-4.35.84s-2.88-.31-4.43-.94c-.71-.31-1.37-.87-1.98-1.69-.61-.81-.84-1.93-.68-3.37.15-1.44.99-3.25,2.51-5.43.12-.19.76-1.19,1.91-3,1.15-1.81,2.66-4.2,4.53-7.17,1.87-2.96,3.94-6.26,6.21-9.88,2.27-3.62,4.6-7.35,7.01-11.19,2.4-3.84,4.73-7.54,6.98-11.1,2.25-3.56,4.28-6.77,6.09-9.65,1.81-2.87,3.76-5.99,5.85-9.37.66-.31,1.83-.7,3.52-1.17,1.68-.47,3.41-.73,5.18-.8,1.98-.12,3.78.13,5.42.75,1.64.63,2.65,1.87,3.04,3.75.19.75.38,2.19.57,4.31.18,2.12.38,4.68.59,7.68.21,3,.42,6.2.63,9.6.21,3.4.41,6.78.6,10.12.19,3.34.35,6.45.48,9.32.13,2.87.25,5.29.36,7.26.11,1.97.2,3.23.27,3.79ZM925.89,297.46c1.66-.12,2.77-.59,3.31-1.4.54-.81,1.02-1.75,1.43-2.81.22-.69.39-1.53.49-2.53.1-1,.08-1.89-.07-2.67-.15-.78-.54-1.17-1.17-1.17-.88,0-2.02.61-3.45,1.83-1.43,1.22-2.4,2.45-2.93,3.7-.57,1.19-.84,2.34-.8,3.47.04,1.12,1.1,1.66,3.18,1.59Z" fill="#e83528"/><path d="M464.83,388.04c-.27.06-.74.41-1.41,1.03-.67.62-1.21,1.28-1.62,1.97-.64,1-.81,1.81-.51,2.44.8,1.56,1.9,3.39,3.28,5.48,1.38,2.09,2.81,4.07,4.3,5.95,1.48,1.87,2.81,3.31,3.99,4.31-2.1,3-4.64,5.39-7.62,7.17-2.98,1.78-5.93,2.64-8.85,2.58-2.92-.06-5.36-1.37-7.34-3.93-.25-.38-.7-1.2-1.35-2.48-.65-1.28-1.37-2.79-2.18-4.54-.81-1.75-1.61-3.5-2.42-5.25-.81-1.75-1.5-3.28-2.07-4.59-.57-1.31-.93-2.12-1.08-2.44-.68-1.56-1.69-1.9-3.04-1.03-1.35.88-2.59,2.69-3.73,5.43-.65,1.62-1.24,3.48-1.76,5.57-.52,2.09-.88,3.95-1.06,5.57-.19,1.62-.14,2.59.13,2.9-1.64,1-3.56,1.94-5.78,2.81-2.22.87-4.61,1.41-7.17,1.59-.96.06-1.97-.19-3.04-.75-1.07-.56-1.85-1.48-2.33-2.76-.49-1.28-.45-2.89.12-4.82.16-.5.57-1.81,1.23-3.93.66-2.12,1.47-4.73,2.45-7.82.97-3.09,2-6.29,3.07-9.6,1.08-3.31,2.07-6.43,3-9.37.92-2.93,1.97-6.21,3.15-9.84,1.2-3.68,2.1-6.76,2.72-9.23.61-2.47.48-4.36-.41-5.67-.8-1.19-1.13-2.9-1-5.15.14-2.25.56-4.37,1.27-6.37.23.06.95.14,2.17.24,1.22.09,2.4.2,3.55.33.81,0,1.99-.01,3.53-.05,1.54-.03,3.19-.08,4.96-.14,1.77-.06,3.41-.11,4.92-.14,1.51-.03,2.65-.08,3.42-.14.56,0,1.61-.01,3.15-.05,1.54-.03,3.34-.05,5.4-.05s4.15.02,6.26.05c2.11.03,4.05.11,5.83.23,1.77.13,3.12.28,4.06.47,3.88.75,6.62,2.12,8.22,4.12,1.6,2,2.42,4.4,2.48,7.21.05,2.81-.36,5.87-1.25,9.18-.79,2.81-2.05,5.75-3.8,8.8-1.75,3.06-3.95,5.9-6.61,8.52-2.66,2.62-5.74,4.68-9.22,6.18ZM443.84,367.9c-.65,2-.66,3.48-.04,4.45.62.97,1.31,1.55,2.06,1.73,1.04.25,2.47.27,4.29.05,1.82-.22,3.71-.66,5.67-1.31,1.96-.66,3.72-1.51,5.29-2.58,1.56-1.06,2.57-2.28,3.01-3.65.59-1.81.29-3.2-.89-4.17-1.19-.97-2.88-1.58-5.07-1.83-2.2-.25-4.48-.19-6.85.19-1.83.25-3.4,1.03-4.69,2.34-1.3,1.31-2.23,2.9-2.77,4.78Z" fill="#e83528"/><path d="M522.08,400.69c.91-.12,2.07-.28,3.48-.47,1.4-.19,2.76-.42,4.07-.7,1.31-.28,2.24-.61,2.8-.98.59.69.68,2.08.29,4.17-.4,2.09-1.21,4.26-2.44,6.51-1,1.94-2.25,3.75-3.73,5.43-1.49,1.69-3.16,2.72-5.03,3.09-1.6.31-3.38.5-5.33.56-1.96.06-3.92.06-5.9,0-1.98-.06-3.79-.13-5.42-.19-1.63-.06-2.89-.09-3.76-.09s-2.24.01-4.09.05c-1.85.03-3.48.08-4.87.14-1.69.19-3.51.31-5.46.38-1.96.06-3.72,0-5.28-.19-1.56-.19-2.65-.5-3.25-.94.72-.87,1.53-2.2,2.42-3.98s1.77-3.73,2.65-5.85c.88-2.12,1.6-4.15,2.17-6.09l5.38-17.14,2.59-7.96c.73-2.25,1.32-4.12,1.78-5.62.46-1.5.7-2.31.75-2.44.67-2.06,1.29-4.28,1.88-6.65.58-2.37,1.1-4.64,1.55-6.79.45-2.16.8-3.92,1.06-5.29.09-1.06.25-2.11.46-3.14.21-1.03.48-1.95.8-2.76.38.19,1.52.36,3.44.51,1.92.16,4.17.3,6.75.42.19,0,1.09.02,2.7.05,1.61.03,3.61.08,6,.14,2.38.06,4.87.11,7.45.14,2.58.03,4.93.05,7.06.05s3.69-.03,4.71-.09c2.6-.12,4.84-.33,6.71-.61,1.87-.28,3.2-.67,3.99-1.17.55.62.87,1.79.97,3.51.1,1.72-.13,3.51-.67,5.39-.59,1.81-1.56,3.51-2.92,5.1-1.36,1.59-3.23,2.67-5.59,3.23-.87.19-2.19.34-3.95.47-1.76.13-3.44.2-5.04.23-1.6.03-2.74.02-3.4-.05-1.88-.19-3.94.02-6.19.61-2.25.59-4.26,1.38-6.01,2.34-1.75.97-2.84,2.01-3.27,3.14-.41,1.06-.25,1.94.46,2.62.71.69,1.77,1.23,3.17,1.64,1.4.41,2.95.67,4.66.8,1.71.13,3.35.16,4.93.09,1.29-.12,2.79-.34,4.52-.66,1.72-.31,2.83-.62,3.3-.94.59.69.75,1.97.49,3.84-.27,1.87-.91,3.81-1.93,5.81-.84,1.62-1.95,3.12-3.33,4.5-1.38,1.37-3,2.31-4.85,2.81-1.43.37-3.12.66-5.05.84-3.69,0-7,.64-9.94,1.92-2.94,1.28-4.83,2.8-5.64,4.54-.74,1.5-.86,2.87-.36,4.12.5,1.25,1.6,1.94,3.31,2.06,1.17.06,2.67.08,4.53.05,1.85-.03,3.68-.09,5.49-.19,1.81-.09,3.14-.2,3.99-.33Z" fill="#e83528"/><path d="M600.47,400.12c.16,1.81.66,3.54,1.5,5.2.84,1.66,1.62,2.89,2.36,3.7-2.51,3.12-5.1,5.4-7.75,6.84-2.2,1.19-4.36,1.87-6.48,2.06-1.17.12-2.41.03-3.75-.28-1.33-.31-2.53-1.2-3.58-2.67-1.05-1.47-1.8-3.82-2.24-7.07-.09-1.06-.82-1.81-2.17-2.25-1.36-.44-2.86-.7-4.52-.8-1.66-.09-3.01-.14-4.08-.14s-2.37.03-3.92.09c-1.55.06-3.02.31-4.41.75-1.39.44-2.39,1.22-3.01,2.34-.58,1-.94,2.03-1.1,3.09-.16,1.06.02,1.75.55,2.06-1.39,1-2.72,1.87-3.99,2.62-1.27.75-2.51,1.34-3.72,1.78-1.5.56-2.94.84-4.35.84s-2.88-.31-4.43-.94c-.71-.31-1.37-.87-1.98-1.69-.61-.81-.84-1.93-.68-3.37.15-1.44.99-3.25,2.51-5.43.12-.19.76-1.19,1.91-3s2.66-4.2,4.53-7.17c1.87-2.96,3.94-6.26,6.21-9.88,2.27-3.62,4.6-7.35,7.01-11.19,2.4-3.84,4.73-7.54,6.98-11.1,2.25-3.56,4.28-6.77,6.08-9.65,1.81-2.87,3.76-5.99,5.85-9.37.66-.31,1.83-.7,3.52-1.17,1.68-.47,3.41-.73,5.18-.8,1.98-.12,3.78.13,5.42.75,1.64.62,2.65,1.87,3.04,3.75.19.75.38,2.19.57,4.31.18,2.12.38,4.68.59,7.68.21,3,.42,6.2.63,9.6.21,3.4.4,6.78.6,10.12.19,3.34.35,6.45.48,9.32.13,2.87.25,5.29.36,7.26.11,1.97.2,3.23.27,3.79ZM574.9,388.04c1.66-.12,2.77-.59,3.31-1.4.54-.81,1.02-1.75,1.43-2.81.22-.69.39-1.53.49-2.53.11-1,.08-1.89-.07-2.67-.15-.78-.54-1.17-1.17-1.17-.88,0-2.02.61-3.45,1.83-1.43,1.22-2.41,2.45-2.94,3.7-.57,1.19-.84,2.34-.8,3.47.04,1.12,1.1,1.66,3.18,1.59Z" fill="#e83528"/><path d="M670.94,343.27c4.4.69,7.67,1.92,9.8,3.7,2.14,1.78,3.49,3.83,4.05,6.14.56,2.31.67,4.58.32,6.79-.35,2.22-.77,4.11-1.28,5.67-.65,2-1.74,4.29-3.27,6.88-1.53,2.59-3.49,5.12-5.88,7.59-2.4,2.47-5.19,4.59-8.39,6.37-3.2,1.78-6.83,2.86-10.89,3.23-.71.06-1.6.13-2.68.19-1.08.06-2.05.11-2.9.14-.85.03-1.37.05-1.56.05-2.42.13-4.81.81-7.18,2.06-2.37,1.25-4.46,2.86-6.25,4.82-1.8,1.97-3.12,4.17-3.97,6.6l-1.13,3.47c-.53,1.62-.79,3.11-.79,4.45,0,1.34.04,2.26.13,2.76-1.94,1.37-3.57,2.34-4.88,2.9s-2.84.97-4.61,1.22c-1.43.19-2.91.06-4.42-.37-1.51-.44-2.73-1.27-3.64-2.48-.92-1.22-1.21-2.92-.87-5.1.06-.38.42-1.58,1.08-3.61.66-2.03,1.5-4.56,2.51-7.59,1.01-3.03,2.13-6.35,3.33-9.98,1.21-3.62,2.4-7.24,3.58-10.87,1.18-3.62,2.27-6.99,3.29-10.12,1.03-3.37,1.81-6.21,2.35-8.52.53-2.31.53-3.78-.02-4.4-.95-1.12-1.39-2.87-1.34-5.25.05-2.37.45-4.62,1.21-6.75.23.06.89.14,1.98.24,1.09.09,2.24.2,3.45.33.62,0,1.66-.01,3.11-.05,1.45-.03,3.05-.11,4.81-.23,1.76-.12,3.46-.23,5.12-.33,1.65-.09,2.99-.17,4.01-.23,1.41-.12,3.28-.25,5.6-.38,2.32-.12,4.91-.16,7.76-.09,2.85.06,5.67.31,8.47.75ZM650.29,372.49c.85.06,1.99-.01,3.4-.23,1.41-.22,2.9-.58,4.47-1.08,1.57-.5,2.97-1.2,4.2-2.11,1.23-.9,2.06-2.01,2.49-3.33.59-1.81.37-3.22-.64-4.21-1.02-1-2.42-1.69-4.2-2.06-1.78-.37-3.56-.53-5.33-.47-2.58.06-5,.77-7.24,2.11-2.25,1.34-3.67,2.92-4.25,4.73-.32,1.19-.19,2.26.4,3.23.59.97,1.49,1.76,2.69,2.39,1.2.63,2.54.97,4.02,1.03Z" fill="#e83528"/><path d="M718.88,400.69c.92-.12,2.07-.28,3.48-.47,1.4-.19,2.76-.42,4.07-.7,1.31-.28,2.24-.61,2.8-.98.59.69.68,2.08.29,4.17-.4,2.09-1.21,4.26-2.44,6.51-1,1.94-2.25,3.75-3.73,5.43-1.48,1.69-3.16,2.72-5.03,3.09-1.6.31-3.38.5-5.33.56-1.96.06-3.92.06-5.9,0-1.98-.06-3.79-.13-5.42-.19-1.64-.06-2.89-.09-3.76-.09s-2.24.01-4.09.05c-1.85.03-3.48.08-4.87.14-1.69.19-3.5.31-5.46.38-1.96.06-3.71,0-5.28-.19-1.56-.19-2.65-.5-3.25-.94.72-.87,1.53-2.2,2.42-3.98s1.78-3.73,2.65-5.85c.88-2.12,1.6-4.15,2.17-6.09l5.38-17.14,2.59-7.96c.73-2.25,1.32-4.12,1.78-5.62.46-1.5.7-2.31.74-2.44.67-2.06,1.3-4.28,1.88-6.65.58-2.37,1.1-4.64,1.55-6.79.45-2.16.8-3.92,1.06-5.29.09-1.06.25-2.11.46-3.14.21-1.03.48-1.95.8-2.76.38.19,1.52.36,3.44.51,1.92.16,4.17.3,6.75.42.19,0,1.09.02,2.7.05,1.61.03,3.61.08,6,.14,2.38.06,4.87.11,7.45.14,2.58.03,4.93.05,7.06.05s3.69-.03,4.71-.09c2.6-.12,4.84-.33,6.71-.61,1.87-.28,3.2-.67,3.99-1.17.55.62.87,1.79.97,3.51s-.13,3.51-.67,5.39c-.59,1.81-1.56,3.51-2.92,5.1-1.36,1.59-3.23,2.67-5.59,3.23-.87.19-2.19.34-3.94.47-1.76.13-3.44.2-5.04.23-1.6.03-2.74.02-3.4-.05-1.88-.19-3.94.02-6.19.61-2.25.59-4.26,1.38-6.01,2.34-1.75.97-2.84,2.01-3.27,3.14-.41,1.06-.25,1.94.46,2.62.71.69,1.77,1.23,3.17,1.64s2.95.67,4.66.8c1.71.13,3.35.16,4.93.09,1.29-.12,2.79-.34,4.52-.66,1.72-.31,2.83-.62,3.3-.94.59.69.75,1.97.49,3.84-.27,1.87-.91,3.81-1.93,5.81-.84,1.62-1.95,3.12-3.33,4.5-1.38,1.37-3,2.31-4.85,2.81-1.43.37-3.12.66-5.05.84-3.69,0-7,.64-9.94,1.92-2.94,1.28-4.83,2.8-5.64,4.54-.74,1.5-.86,2.87-.36,4.12.5,1.25,1.6,1.94,3.31,2.06,1.17.06,2.67.08,4.53.05,1.85-.03,3.68-.09,5.49-.19,1.81-.09,3.14-.2,3.99-.33Z" fill="#e83528"/><path d="M794.92,388.04c-.27.06-.74.41-1.41,1.03-.67.62-1.21,1.28-1.62,1.97-.64,1-.81,1.81-.51,2.44.8,1.56,1.9,3.39,3.28,5.48,1.38,2.09,2.81,4.07,4.3,5.95,1.48,1.87,2.81,3.31,3.99,4.31-2.1,3-4.64,5.39-7.62,7.17-2.98,1.78-5.93,2.64-8.85,2.58-2.92-.06-5.36-1.37-7.34-3.93-.25-.38-.7-1.2-1.35-2.48-.65-1.28-1.37-2.79-2.18-4.54-.81-1.75-1.61-3.5-2.42-5.25-.81-1.75-1.5-3.28-2.07-4.59-.57-1.31-.93-2.12-1.08-2.44-.68-1.56-1.69-1.9-3.04-1.03-1.35.88-2.59,2.69-3.73,5.43-.65,1.62-1.24,3.48-1.76,5.57-.53,2.09-.88,3.95-1.06,5.57-.18,1.62-.14,2.59.13,2.9-1.64,1-3.56,1.94-5.78,2.81-2.22.87-4.61,1.41-7.17,1.59-.96.06-1.97-.19-3.03-.75-1.07-.56-1.85-1.48-2.33-2.76-.49-1.28-.45-2.89.12-4.82.16-.5.57-1.81,1.23-3.93.66-2.12,1.47-4.73,2.45-7.82.97-3.09,2-6.29,3.07-9.6,1.08-3.31,2.07-6.43,3-9.37.92-2.93,1.97-6.21,3.15-9.84,1.2-3.68,2.1-6.76,2.72-9.23.61-2.47.48-4.36-.41-5.67-.8-1.19-1.13-2.9-1-5.15.14-2.25.56-4.37,1.27-6.37.23.06.95.14,2.17.24,1.22.09,2.4.2,3.55.33.81,0,1.99-.01,3.53-.05,1.54-.03,3.19-.08,4.96-.14,1.77-.06,3.41-.11,4.92-.14,1.51-.03,2.65-.08,3.42-.14.56,0,1.61-.01,3.15-.05,1.54-.03,3.34-.05,5.4-.05s4.15.02,6.26.05c2.11.03,4.05.11,5.83.23,1.77.13,3.12.28,4.06.47,3.88.75,6.62,2.12,8.21,4.12,1.6,2,2.42,4.4,2.48,7.21.06,2.81-.36,5.87-1.25,9.18-.79,2.81-2.05,5.75-3.8,8.8-1.74,3.06-3.95,5.9-6.61,8.52-2.66,2.62-5.74,4.68-9.22,6.18ZM773.93,367.9c-.65,2-.66,3.48-.04,4.45.62.97,1.31,1.55,2.06,1.73,1.04.25,2.47.27,4.29.05s3.71-.66,5.67-1.31c1.96-.66,3.72-1.51,5.29-2.58,1.56-1.06,2.57-2.28,3.01-3.65.59-1.81.29-3.2-.89-4.17-1.18-.97-2.88-1.58-5.07-1.83-2.2-.25-4.48-.19-6.85.19-1.83.25-3.4,1.03-4.69,2.34-1.3,1.31-2.22,2.9-2.77,4.78Z" fill="#e83528"/><path d="M435.4,478.62c-.27.06-.74.41-1.41,1.03-.67.62-1.21,1.28-1.62,1.97-.64,1-.81,1.81-.51,2.44.8,1.56,1.9,3.39,3.28,5.48,1.38,2.09,2.81,4.07,4.3,5.95,1.48,1.87,2.81,3.31,3.99,4.31-2.1,3-4.64,5.39-7.62,7.17-2.98,1.78-5.93,2.64-8.85,2.58-2.92-.06-5.36-1.37-7.34-3.93-.25-.37-.7-1.2-1.35-2.48-.65-1.28-1.37-2.79-2.18-4.54-.81-1.75-1.61-3.5-2.42-5.25-.81-1.75-1.5-3.28-2.07-4.59-.57-1.31-.93-2.12-1.08-2.44-.68-1.56-1.69-1.9-3.04-1.03-1.35.88-2.59,2.69-3.73,5.43-.65,1.62-1.24,3.48-1.76,5.57-.52,2.09-.88,3.95-1.06,5.57-.19,1.62-.14,2.59.13,2.9-1.64,1-3.56,1.94-5.78,2.81s-4.61,1.41-7.17,1.59c-.96.06-1.97-.19-3.04-.75-1.07-.56-1.85-1.48-2.33-2.76-.49-1.28-.45-2.89.12-4.82.16-.5.57-1.81,1.23-3.93.66-2.12,1.47-4.73,2.45-7.82.97-3.09,2-6.29,3.07-9.6,1.07-3.31,2.07-6.43,3-9.37.92-2.93,1.97-6.21,3.15-9.84,1.2-3.68,2.1-6.76,2.72-9.23s.48-4.36-.41-5.67c-.8-1.18-1.13-2.9-1-5.15.14-2.25.56-4.37,1.27-6.37.23.06.95.14,2.17.24,1.22.09,2.4.2,3.55.33.81,0,1.99-.02,3.53-.05,1.54-.03,3.19-.08,4.96-.14,1.77-.06,3.41-.11,4.92-.14s2.65-.08,3.42-.14c.56,0,1.61-.01,3.15-.05,1.54-.03,3.34-.05,5.4-.05s4.15.02,6.26.05c2.11.03,4.05.11,5.83.23,1.77.13,3.12.28,4.06.47,3.88.75,6.62,2.12,8.21,4.12,1.6,2,2.42,4.4,2.48,7.21.05,2.81-.36,5.87-1.25,9.18-.79,2.81-2.05,5.75-3.8,8.8-1.74,3.06-3.95,5.9-6.61,8.52-2.66,2.62-5.74,4.68-9.22,6.18ZM414.41,458.49c-.65,2-.66,3.48-.04,4.45.62.97,1.31,1.55,2.06,1.73,1.04.25,2.47.27,4.29.05,1.82-.22,3.71-.66,5.67-1.31,1.96-.66,3.72-1.51,5.29-2.58,1.56-1.06,2.57-2.28,3.01-3.65.59-1.81.29-3.2-.89-4.17-1.18-.97-2.88-1.58-5.07-1.83-2.2-.25-4.48-.19-6.85.19-1.83.25-3.4,1.03-4.69,2.34-1.3,1.31-2.22,2.9-2.77,4.78Z" fill="#e83528"/><path d="M529.76,468.13c-1.26,5.81-3.2,10.96-5.82,15.46-2.62,4.5-5.66,8.38-9.13,11.66-3.47,3.28-7.17,5.96-11.09,8.05-3.93,2.09-7.88,3.65-11.87,4.68-3.99,1.03-7.76,1.54-11.32,1.54s-7.03-.47-10.41-1.41c-3.38-.94-6.39-2.4-9.01-4.4-2.63-2-4.66-4.59-6.09-7.77-1.43-3.18-2.03-6.98-1.78-11.38.24-4.4,1.62-9.51,4.13-15.31,2.12-5,4.89-9.66,8.3-14,3.41-4.34,7.23-8.12,11.46-11.33,4.23-3.22,8.69-5.71,13.39-7.49,4.7-1.78,9.37-2.61,14.01-2.48.31,0,.86-.23,1.63-.7.77-.47,1.77-.92,2.97-1.36,1.2-.44,2.54-.59,3.99-.47,2.73.25,5.32,1.41,7.77,3.47,2.45,2.06,4.53,4.79,6.24,8.2,1.7,3.4,2.82,7.26,3.36,11.57.54,4.31.29,8.81-.73,13.49ZM486.44,492.21c2.21-.06,4.38-.37,6.53-.94,2.15-.56,4.25-1.59,6.3-3.09,2.05-1.5,4-3.62,5.86-6.37,1.86-2.75,3.52-6.28,4.99-10.58,1.04-3,1.32-5.9.86-8.71-.46-2.81-1.59-5.2-3.38-7.17-1.8-1.97-4.21-3.11-7.23-3.42-3.25-.38-6.23-.05-8.94.98-2.71,1.03-5.15,2.53-7.32,4.5s-4.06,4.17-5.66,6.6c-1.6,2.44-2.9,4.9-3.9,7.4-1.78,4.31-2.52,7.84-2.22,10.58.29,2.75,1.19,4.87,2.71,6.37,1.51,1.5,3.31,2.53,5.41,3.09,2.1.56,4.09.81,5.99.75Z" fill="#e83528"/><path d="M588.09,490.71c.16,1.81.66,3.54,1.5,5.2.83,1.66,1.62,2.89,2.36,3.7-2.51,3.12-5.1,5.4-7.75,6.84-2.2,1.19-4.36,1.87-6.48,2.06-1.16.12-2.41.03-3.75-.28-1.33-.31-2.53-1.2-3.58-2.67-1.05-1.47-1.8-3.83-2.25-7.07-.09-1.06-.82-1.81-2.17-2.25-1.36-.44-2.86-.7-4.52-.8-1.66-.09-3.02-.14-4.08-.14s-2.37.03-3.92.09c-1.55.06-3.02.31-4.41.75-1.39.44-2.4,1.22-3.01,2.34-.58,1-.94,2.03-1.1,3.09-.16,1.06.02,1.75.55,2.06-1.39,1-2.72,1.87-3.99,2.62-1.27.75-2.51,1.34-3.72,1.78-1.49.56-2.94.84-4.35.84s-2.88-.31-4.43-.94c-.71-.31-1.37-.87-1.98-1.69-.61-.81-.84-1.93-.68-3.37.15-1.44.99-3.25,2.51-5.43.12-.19.76-1.19,1.91-3s2.66-4.2,4.53-7.17c1.87-2.96,3.94-6.26,6.21-9.88,2.27-3.62,4.61-7.35,7.01-11.19,2.4-3.84,4.73-7.54,6.98-11.1,2.25-3.56,4.28-6.77,6.08-9.65,1.81-2.87,3.76-5.99,5.85-9.37.66-.31,1.83-.7,3.52-1.17,1.68-.47,3.41-.73,5.18-.8,1.98-.12,3.78.13,5.42.75,1.64.62,2.65,1.87,3.04,3.75.19.75.38,2.19.57,4.31.18,2.12.38,4.68.6,7.68.21,3,.42,6.2.63,9.6.21,3.4.4,6.78.6,10.12.19,3.34.35,6.45.48,9.32.13,2.87.25,5.29.36,7.26s.2,3.23.27,3.79ZM562.51,478.62c1.66-.12,2.77-.59,3.31-1.4.54-.81,1.02-1.75,1.43-2.81.22-.69.39-1.53.49-2.53.1-1,.08-1.89-.07-2.67-.15-.78-.54-1.17-1.17-1.17-.88,0-2.02.61-3.45,1.83-1.43,1.22-2.41,2.45-2.94,3.7-.57,1.19-.84,2.34-.8,3.47.04,1.12,1.1,1.66,3.18,1.59Z" fill="#e83528"/><path d="M673.53,458.39c-.3,1.87-.72,3.9-1.28,6.09-.56,2.19-1.43,4.82-2.62,7.92-1.19,3.09-2.86,6.88-5.01,11.38-2.91,6.06-7.02,11.13-12.35,15.22-5.33,4.09-11.22,6.76-17.68,8.01-1.81.38-3.86.64-6.16.8-2.3.16-4.57.28-6.82.38-2.25.09-4.27.2-6.05.33-1.66.31-3.61.53-5.83.66-2.23.12-4.28.09-6.15-.09-1.88-.19-3.17-.53-3.88-1.03.78-.87,1.62-2.2,2.51-3.98.89-1.78,1.77-3.73,2.65-5.85.88-2.12,1.6-4.15,2.17-6.09l10.04-31.75c.83-2.56,1.58-4.9,2.24-7.02.66-2.12,1.12-3.78,1.38-4.96.3-1.31.19-2.47-.33-3.47-.52-1-.8-2-.85-3-.11-2.75.33-5.43,1.31-8.06.29.06.97.14,2.03.24,1.06.09,2.29.2,3.69.33,1.54.06,3.96.16,7.26.28,3.3.13,6.68.25,10.13.38,2.04.06,3.82.16,5.34.28,1.52.13,3.09.3,4.7.52,1.62.22,3,.48,4.14.8,3.71,1.06,6.66,2.51,8.84,4.36,2.18,1.84,3.78,3.83,4.81,5.95,1.03,2.12,1.65,4.2,1.86,6.23.21,2.03.18,3.76-.1,5.2ZM630.4,490.52c2.76-.62,5.58-1.86,8.46-3.7,2.88-1.84,5.5-4.34,7.87-7.49,2.37-3.15,4.1-7.01,5.21-11.57,1.49-5.93,1.28-10.05-.62-12.36-1.91-2.31-4.97-3.5-9.19-3.56-1.17-.06-2.36.72-3.57,2.34-1.22,1.62-2.54,4.25-3.96,7.87-.9,2.37-1.56,4.14-2,5.29-.44,1.16-.76,2.11-.97,2.86-.21.75-.54,1.72-.99,2.9-.67,2.25-1.21,4.2-1.62,5.85-.41,1.66-.81,3.34-1.18,5.06-.37,1.72-.62,3.17-.76,4.36-.12,1.31.24,2.05,1.06,2.2.82.16,1.58.14,2.26-.05Z" fill="#e83528"/><path d="M405.97,569.21c-.27.06-.74.41-1.41,1.03-.67.63-1.21,1.28-1.62,1.97-.64,1-.81,1.81-.51,2.43.8,1.56,1.9,3.39,3.28,5.48,1.38,2.09,2.81,4.07,4.3,5.95,1.48,1.87,2.81,3.31,3.99,4.31-2.1,3-4.64,5.39-7.62,7.17-2.98,1.78-5.93,2.64-8.85,2.58-2.92-.06-5.36-1.37-7.34-3.93-.25-.37-.7-1.2-1.35-2.48-.65-1.28-1.37-2.79-2.18-4.54-.81-1.75-1.61-3.5-2.42-5.25-.81-1.75-1.5-3.28-2.07-4.59s-.93-2.12-1.08-2.44c-.68-1.56-1.69-1.9-3.04-1.03-1.35.88-2.59,2.69-3.73,5.43-.65,1.62-1.24,3.48-1.76,5.57-.52,2.09-.88,3.95-1.06,5.57-.19,1.62-.14,2.59.13,2.9-1.64,1-3.56,1.94-5.78,2.81-2.22.87-4.61,1.41-7.17,1.59-.96.06-1.97-.19-3.04-.75-1.07-.56-1.85-1.48-2.33-2.76-.49-1.28-.45-2.89.12-4.82.16-.5.57-1.81,1.23-3.93.66-2.12,1.47-4.73,2.45-7.82.97-3.09,2-6.29,3.07-9.6,1.08-3.31,2.07-6.43,3-9.37.92-2.93,1.97-6.21,3.15-9.84,1.2-3.68,2.1-6.76,2.72-9.23.61-2.47.48-4.36-.41-5.67-.8-1.19-1.13-2.9-1-5.15.14-2.25.56-4.37,1.27-6.37.23.06.95.14,2.17.24,1.22.09,2.4.2,3.55.33.81,0,1.99-.01,3.53-.05,1.54-.03,3.19-.08,4.96-.14,1.77-.06,3.41-.11,4.92-.14,1.51-.03,2.65-.08,3.42-.14.56,0,1.61-.01,3.15-.05,1.54-.03,3.34-.05,5.4-.05s4.15.02,6.26.05c2.11.03,4.05.11,5.82.23,1.77.13,3.12.28,4.06.47,3.88.75,6.62,2.12,8.22,4.12,1.6,2,2.42,4.4,2.48,7.21.06,2.81-.36,5.87-1.25,9.18-.79,2.81-2.05,5.75-3.8,8.8-1.74,3.06-3.95,5.9-6.61,8.52-2.66,2.62-5.74,4.68-9.22,6.18ZM384.97,549.07c-.65,2-.66,3.48-.04,4.45.62.97,1.31,1.55,2.06,1.73,1.04.25,2.47.27,4.29.05,1.82-.22,3.71-.66,5.67-1.31,1.96-.66,3.72-1.51,5.29-2.58,1.56-1.06,2.57-2.28,3.01-3.65.59-1.81.29-3.2-.89-4.17-1.18-.97-2.88-1.58-5.07-1.83-2.2-.25-4.48-.19-6.85.19-1.83.25-3.39,1.03-4.69,2.34-1.3,1.31-2.22,2.9-2.77,4.78Z" fill="#e83528"/><path d="M482.32,581.29c.16,1.81.66,3.54,1.5,5.2.83,1.66,1.62,2.89,2.36,3.7-2.51,3.12-5.1,5.4-7.75,6.84-2.2,1.19-4.36,1.87-6.48,2.06-1.16.12-2.41.03-3.75-.28-1.33-.31-2.53-1.2-3.58-2.67-1.05-1.47-1.8-3.83-2.25-7.07-.09-1.06-.82-1.81-2.17-2.25-1.36-.44-2.86-.7-4.52-.8-1.66-.09-3.02-.14-4.08-.14s-2.37.03-3.92.09c-1.55.06-3.02.31-4.41.75-1.39.44-2.4,1.22-3.01,2.34-.58,1-.94,2.03-1.1,3.09-.16,1.06.02,1.75.55,2.06-1.39,1-2.72,1.87-3.99,2.62-1.27.75-2.51,1.34-3.72,1.78-1.49.56-2.94.84-4.35.84s-2.88-.31-4.43-.94c-.71-.31-1.37-.87-1.98-1.69-.61-.81-.84-1.93-.68-3.37.15-1.43.99-3.25,2.51-5.43.12-.19.76-1.19,1.91-3s2.66-4.2,4.53-7.17c1.87-2.96,3.94-6.26,6.21-9.88,2.27-3.62,4.61-7.35,7.01-11.19,2.4-3.84,4.73-7.54,6.98-11.1,2.25-3.56,4.28-6.77,6.08-9.65,1.81-2.87,3.76-5.99,5.85-9.37.66-.31,1.83-.7,3.52-1.17,1.68-.47,3.41-.73,5.18-.8,1.98-.12,3.78.13,5.42.75,1.64.62,2.65,1.87,3.04,3.75.19.75.38,2.19.57,4.31.18,2.12.38,4.68.6,7.68.21,3,.42,6.2.63,9.6.21,3.4.4,6.78.6,10.12.19,3.34.35,6.45.48,9.32.13,2.87.25,5.29.36,7.26s.2,3.23.27,3.79ZM456.74,569.21c1.66-.12,2.77-.59,3.31-1.4.54-.81,1.02-1.75,1.43-2.81.22-.69.39-1.53.49-2.53.1-1,.08-1.89-.07-2.67-.15-.78-.54-1.17-1.17-1.17-.88,0-2.02.61-3.45,1.83s-2.41,2.45-2.94,3.7c-.57,1.19-.84,2.34-.8,3.47.04,1.12,1.1,1.65,3.18,1.59Z" fill="#e83528"/><path d="M565.58,542.7c-1.5,2.31-3.2,4-5.11,5.06-1.91,1.06-3.67,1.48-5.28,1.26-1.62-.22-2.78-1.04-3.5-2.48,1.33-.81,1.94-1.7,1.85-2.67-.09-.97-.81-1.78-2.16-2.44-1.35-.66-3.27-.89-5.77-.7-2.54.13-5.31.94-8.33,2.44s-5.82,3.65-8.42,6.46c-2.6,2.81-4.67,6.31-6.22,10.49-1.59,4.31-2.29,7.81-2.1,10.49.19,2.69.85,4.73,1.99,6.13,1.14,1.41,2.42,2.41,3.85,3,1.43.59,2.61.98,3.55,1.17,1.23.25,2.69.42,4.38.52,1.69.09,3.45-.02,5.3-.33,1.85-.31,3.52-.84,5.01-1.59,1.35-.69,3.05-1.61,5.11-2.76,2.06-1.15,4.11-2.45,6.13-3.89,2.03-1.44,3.66-2.9,4.9-4.4,1.66,1.44,2.32,3.47,2,6.09-.32,2.62-1.47,5.43-3.44,8.43-1.97,3-4.62,5.82-7.95,8.48-3.33,2.66-7.23,4.81-11.7,6.46s-9.37,2.42-14.7,2.29c-2.48-.06-5.18-.53-8.11-1.41-2.93-.87-5.71-2.26-8.34-4.17-2.63-1.9-4.76-4.43-6.39-7.59-1.63-3.15-2.37-7.07-2.22-11.76.15-4.68,1.57-10.21,4.26-16.58,2.53-6.06,5.74-11.27,9.63-15.64,3.89-4.37,8.08-7.95,12.57-10.72,4.49-2.78,8.98-4.87,13.47-6.28,4.48-1.4,8.58-2.14,12.28-2.2,3.72-.12,6.74.44,9.05,1.69,2.31,1.25,3.99,2.86,5.04,4.82,1.05,1.97,1.51,4.06,1.38,6.28-.13,2.22-.8,4.23-2.01,6.04Z" fill="#e83528"/><path d="M607.09,581.85c.92-.12,2.07-.28,3.48-.47,1.4-.19,2.76-.42,4.07-.7,1.31-.28,2.24-.61,2.8-.98.59.69.68,2.08.29,4.17-.4,2.09-1.21,4.26-2.44,6.51-1,1.94-2.25,3.75-3.73,5.43-1.49,1.69-3.16,2.72-5.03,3.09-1.6.31-3.38.5-5.33.56-1.96.06-3.92.06-5.9,0-1.98-.06-3.79-.13-5.42-.19-1.64-.06-2.89-.09-3.76-.09s-2.24.01-4.09.05c-1.85.03-3.48.08-4.87.14-1.69.19-3.5.31-5.46.38-1.96.06-3.72,0-5.28-.19-1.56-.19-2.65-.5-3.25-.94.72-.87,1.53-2.2,2.42-3.98.89-1.78,1.77-3.73,2.65-5.85.88-2.12,1.6-4.15,2.17-6.09l5.38-17.14,2.59-7.96c.73-2.25,1.32-4.12,1.78-5.62.45-1.5.7-2.31.74-2.44.67-2.06,1.29-4.28,1.88-6.65.58-2.37,1.1-4.64,1.55-6.79.45-2.16.8-3.92,1.06-5.29.09-1.06.25-2.11.46-3.14.21-1.03.48-1.95.8-2.76.38.19,1.52.36,3.44.51,1.92.16,4.17.3,6.75.42.19,0,1.09.02,2.7.05,1.61.03,3.61.08,6,.14,2.38.06,4.87.11,7.45.14,2.58.03,4.93.05,7.06.05s3.69-.03,4.71-.09c2.6-.12,4.84-.33,6.71-.61,1.87-.28,3.2-.67,3.99-1.17.55.62.87,1.79.97,3.51s-.13,3.51-.67,5.39c-.59,1.81-1.56,3.51-2.92,5.1-1.36,1.59-3.23,2.67-5.59,3.23-.87.19-2.19.34-3.95.47-1.76.13-3.44.2-5.04.23-1.6.03-2.74.02-3.4-.05-1.88-.19-3.94.02-6.19.61-2.25.59-4.26,1.38-6.01,2.34-1.75.97-2.84,2.01-3.27,3.14-.41,1.06-.25,1.94.46,2.62.71.69,1.77,1.23,3.17,1.64s2.95.67,4.66.8c1.71.13,3.35.16,4.93.09,1.29-.12,2.79-.34,4.52-.66,1.72-.31,2.83-.62,3.3-.94.59.69.75,1.97.49,3.84-.27,1.87-.91,3.81-1.93,5.81-.84,1.62-1.95,3.12-3.33,4.5-1.38,1.37-3,2.31-4.85,2.81-1.43.37-3.12.66-5.05.84-3.69,0-7,.64-9.94,1.92-2.94,1.28-4.83,2.8-5.64,4.54-.74,1.5-.86,2.87-.36,4.12.5,1.25,1.6,1.94,3.31,2.06,1.16.06,2.67.08,4.53.05,1.85-.03,3.68-.09,5.49-.19,1.81-.09,3.14-.2,3.99-.33Z" fill="#e83528"/></g><path d="M304.64,677.05c-.22,0-.29-.14-.21-.44l17.05-59.77c.07-.23.21-.35.43-.35h10.19c.22,0,.39.12.49.35l4.36,11.48,10.84-11.48c.23-.23.46-.35.68-.35h10.27c.22,0,.3.12.24.35l-16.71,59.77c-.08.29-.24.44-.46.44h-9.44c-.22,0-.29-.14-.21-.44l12.45-44.37-12.5,13.22-4.95-13.22-12.61,44.37c-.08.29-.23.44-.46.44h-9.44Z" fill="#abd038"/><path d="M346.44,676.62l27.24-59.77c.12-.23.29-.35.52-.35h12.11c.22,0,.33.12.32.35l-6.94,59.77c-.03.29-.18.44-.46.44h-9.27c-.22,0-.32-.14-.29-.44l.88-6.35h-11.36l-2.71,6.35c-.14.29-.32.44-.54.44h-9.27c-.22,0-.29-.14-.21-.44ZM363.47,660.96h8.02l3.48-24.45.41-3.22-1.24,3.22-10.66,24.45Z" fill="#abd038"/><path d="M388.91,677.05c-.17,0-.22-.12-.15-.35l7.06-24.71-1.27-35.15c0-.23.13-.35.35-.35h9.27c.28,0,.41.12.4.35l-.43,23.4,12.87-23.4c.12-.23.29-.35.51-.35h9.35c.22,0,.27.12.15.35l-21.1,34.8-6.99,25.06c-.07.23-.21.35-.43.35h-9.6Z" fill="#abd038"/><path d="M427.41,677.05c-.28,0-.38-.14-.29-.44l16.96-59.77c.07-.23.21-.35.43-.35h9.35c.22,0,.3.12.24.35l-16.79,59.77c-.08.29-.24.44-.46.44h-9.44Z" fill="#abd038"/><path d="M448.87,677.05c-.22,0-.24-.14-.04-.44l31.28-49.85h-22.8c-.22,0-.3-.12-.24-.35l2.68-9.48c.08-.29.23-.43.46-.43h32.32c.22,0,.29.15.21.43l-2.75,9.74-30.14,49.94c-.19.29-.4.44-.62.44h-10.36Z" fill="#abd038"/><path d="M489.8,677.05c-.22,0-.29-.14-.21-.44l14-49.59h-10.86c-.28,0-.38-.14-.29-.43l2.83-9.74c.07-.23.21-.35.43-.35h31.74c.28,0,.38.12.32.35l-2.75,9.74c-.08.29-.24.43-.46.43h-10.94l-13.92,49.59c-.08.29-.24.44-.46.44h-9.44Z" fill="#abd038"/><path d="M515.19,677.05c-.22,0-.29-.14-.21-.44l16.96-59.77c.06-.23.24-.35.51-.35h9.27c.28,0,.38.12.32.35l-6.77,23.66h12.53l6.68-23.66c.07-.23.21-.35.43-.35h9.27c.28,0,.38.12.32.35l-16.71,59.77c-.08.29-.26.44-.54.44h-9.35c-.28,0-.38-.14-.29-.44l7.22-25.58h-12.53l-7.22,25.58c-.08.29-.23.44-.46.44h-9.44Z" fill="#abd038"/><path d="M551.43,688.02l1.52-5.39c1.39,0,2.73-.55,4.02-1.65,1.29-1.1,2.14-2.41,2.57-3.92h-4.68c-.22,0-.3-.12-.24-.35l2.75-9.74c.06-.23.21-.35.43-.35h9.44c.22,0,.3.12.24.35l-2.85,10.09c-.57,2.03-1.57,3.88-2.99,5.57-1.42,1.68-3.03,3-4.83,3.96-1.8.96-3.59,1.44-5.38,1.44Z" fill="#abd038"/><path d="M582.67,677.05c-.28,0-.38-.14-.29-.44l2.78-9.83c.03-.12.12-.23.27-.35l28.96-29.49c.54-.52,1.05-1.2,1.54-2.04.49-.84.82-1.58,1-2.22.47-1.68.33-3.23-.44-4.65-.77-1.42-2.04-2.13-3.83-2.13s-3.38.68-4.96,2.04c-1.58,1.36-2.67,3.09-3.26,5.18l-1.2,4.26c-.08.29-.26.43-.54.43h-9.35c-.22,0-.29-.14-.21-.43l1.2-4.26c.92-3.25,2.52-6.21,4.8-8.87,2.28-2.67,4.89-4.79,7.81-6.35,2.92-1.57,5.8-2.35,8.64-2.35,3.01,0,5.51.8,7.51,2.39,2,1.6,3.37,3.7,4.11,6.31.74,2.61.68,5.42-.17,8.44-.54,1.91-1.41,3.86-2.61,5.83-1.2,1.97-2.57,3.71-4.1,5.22l-22.28,22.71h18.79c.22,0,.3.12.24.35l-2.78,9.83c-.08.29-.24.44-.46.44h-31.15Z" fill="#abd038"/><path d="M637.38,677.92c-3.56,0-6.49-.8-8.76-2.39-2.28-1.59-3.81-3.71-4.6-6.35-.79-2.64-.73-5.55.17-8.74l7.87-27.58c.9-3.19,2.48-6.09,4.75-8.7,2.27-2.61,4.99-4.7,8.16-6.26,3.17-1.57,6.51-2.35,10.02-2.35s6.46.78,8.69,2.35,3.74,3.65,4.54,6.26c.79,2.61.74,5.51-.16,8.7l-7.71,27.58c-.9,3.19-2.49,6.11-4.77,8.74-2.28,2.64-4.99,4.76-8.14,6.35-3.15,1.59-6.51,2.39-10.07,2.39ZM650.25,660.44l7.71-27.58c.57-2.03.31-3.68-.77-4.96-1.09-1.28-2.8-1.91-5.14-1.91s-4.5.64-6.3,1.91c-1.81,1.28-3,2.93-3.57,4.96l-7.79,27.58c-.61,2.15-.36,3.84.73,5.09,1.09,1.25,2.84,1.87,5.23,1.87s4.42-.62,6.25-1.87c1.83-1.25,3.04-2.94,3.65-5.09Z" fill="#abd038"/><path d="M661.09,677.05c-.28,0-.38-.14-.29-.44l2.78-9.83c.03-.12.12-.23.26-.35l28.96-29.49c.54-.52,1.05-1.2,1.54-2.04.49-.84.82-1.58,1-2.22.47-1.68.33-3.23-.44-4.65-.77-1.42-2.04-2.13-3.83-2.13s-3.38.68-4.96,2.04c-1.58,1.36-2.67,3.09-3.26,5.18l-1.2,4.26c-.08.29-.26.43-.54.43h-9.36c-.22,0-.29-.14-.21-.43l1.2-4.26c.92-3.25,2.52-6.21,4.8-8.87,2.28-2.67,4.89-4.79,7.81-6.35,2.92-1.57,5.8-2.35,8.64-2.35,3.01,0,5.51.8,7.51,2.39,2,1.6,3.37,3.7,4.11,6.31.74,2.61.68,5.42-.17,8.44-.54,1.91-1.41,3.86-2.61,5.83-1.2,1.97-2.57,3.71-4.1,5.22l-22.28,22.71h18.79c.22,0,.3.12.24.35l-2.78,9.83c-.08.29-.24.44-.46.44h-31.15Z" fill="#abd038"/><path d="M713.63,677.92c-2.95,0-5.46-.78-7.52-2.35-2.06-1.57-3.48-3.64-4.26-6.22-.78-2.58-.74-5.38.12-8.4l.74-2.61c.07-.23.24-.35.52-.35h9.44c.22,0,.3.12.24.35l-.56,2c-.56,1.97-.41,3.63.44,4.96.85,1.33,2.14,2,3.86,2s3.38-.68,4.96-2.04c1.58-1.36,2.64-3,3.18-4.92l1.67-5.92c.51-1.8.31-3.31-.6-4.52-.91-1.22-2.28-1.83-4.12-1.83-2.39,0-4.65.99-6.76,2.96l-.24.26-8.74-.7c-.28,0-.38-.14-.29-.44l7.73-23.84,3.18-9.48c.06-.23.21-.35.43-.35h28.06c.22,0,.3.12.24.35l-2.68,9.48c-.08.29-.23.44-.46.44h-19.54l-3.81,12.01c.77-.35,1.72-.64,2.88-.87s2.17-.35,3.06-.35c3.01,0,5.56.77,7.66,2.3,2.1,1.54,3.54,3.58,4.32,6.13s.74,5.37-.13,8.44l-1.67,5.92c-.9,3.19-2.47,6.12-4.7,8.79-2.23,2.67-4.81,4.8-7.73,6.39-2.93,1.59-5.9,2.39-8.9,2.39Z" fill="#abd038"/></g></svg>