<?xml version="1.0" encoding="UTF-8"?><svg id="d" xmlns="http://www.w3.org/2000/svg" width="965.42" height="698.34" viewBox="0 0 965.42 698.34"><g id="e"><g id="f"><path d="m260.42,199.65l33.97-22.64c2.51-1.67,3.89-4.6,3.58-7.6l-14.87-143.92c-.03-.31-.36-.51-.65-.38-5.49,2.35-29.15,21.43-45.34,33.43" fill="none" stroke="#acd037" stroke-linecap="round" stroke-miterlimit="10" stroke-width="40"/></g></g><path d="m119.84,499.35l52.52,78.96c.14.21.14.48-.02.69-3.65,4.79-44.71,60.44.25,87.43,0,0,31.72,18.37,59.09-8.54.85-.84,1.54-1.84,2.06-2.92l10.77-22.15s6.21-10.68,17.33-16.32,42.82-18.59,49.06-41.37l1.05-19.11s-3-5.9,15.95-28.73c1.07-1.29,1.49-3,1.12-4.64-2.19-9.92-8.16-45.38,17.45-49.75.46-.08.75-.55.58-.98-1.75-4.46-8.46-26.66,12.04-66.16l1.55-22.32s-2.73-10.24,34.48-59.05c0,0,10.24-13.31,2.73-29.7l-8.53-28.67s-2.05-9.56-12.63-12.29c-9.52-2.46-81.74-29.5-96.15-34.9-1.65-.62-3.17-1.54-4.49-2.71l-13.95-12.45c-2.3-2.05-4.37-4.35-6.17-6.85l-21.36-29.64s-8.26-9.7-19.4-13.29c-9.91-3.2-42.26-18.37-49.29-21.69-.99-.47-2.05-.76-3.14-.86-1.25-.11-3.05-.19-4.97-.02-1.14.1-2.2.67-2.91,1.57l-76.17,97.5c-.77.98-1.41,2.04-1.92,3.17-6.69,14.69-54.34,119.87-50.42,125.75l51.56,76.36" fill="none" stroke="#e73325" stroke-miterlimit="10" stroke-width="40"/><polygon points="103.4 437.96 90.04 418 56.75 440.28 69.74 459.69 77.96 436.07 103.4 437.96" fill="#e83427"/><polygon points="142.08 496.53 136.7 488.49 107.91 481.12 103.04 510.22 108.79 518.81 142.08 496.53" fill="#e83427"/><polygon id="g" points="113.92 453.64 85.37 447.62 80.26 475.37 92.55 493.72 101.04 470.09 126.2 471.99 113.92 453.64" fill="#e83427"/><g id="h"><path d="m513.86,276c-1.5,2.31-3.2,4-5.11,5.06-1.91,1.06-3.67,1.48-5.28,1.26-1.62-.22-2.78-1.04-3.5-2.48,1.33-.81,1.94-1.7,1.85-2.67-.09-.97-.81-1.78-2.16-2.44-1.35-.66-3.27-.89-5.77-.7-2.54.13-5.31.94-8.33,2.44s-5.82,3.65-8.42,6.46c-2.6,2.81-4.67,6.31-6.22,10.49-1.59,4.31-2.29,7.81-2.1,10.49.19,2.69.85,4.73,1.99,6.14s2.42,2.4,3.85,3c1.43.59,2.61.98,3.55,1.17,1.23.25,2.69.42,4.38.52,1.69.09,3.45-.01,5.3-.33,1.85-.31,3.52-.84,5.01-1.59,1.35-.69,3.05-1.61,5.11-2.76,2.06-1.15,4.11-2.45,6.13-3.89,2.03-1.44,3.66-2.9,4.9-4.4,1.66,1.44,2.32,3.47,2,6.09-.32,2.62-1.47,5.43-3.44,8.43-1.97,3-4.62,5.82-7.95,8.48-3.33,2.66-7.23,4.81-11.7,6.46-4.47,1.65-9.37,2.42-14.7,2.29-2.48-.06-5.18-.53-8.11-1.41-2.93-.87-5.71-2.26-8.34-4.17-2.63-1.9-4.76-4.43-6.39-7.59-1.63-3.15-2.37-7.07-2.22-11.76.15-4.68,1.57-10.21,4.26-16.58,2.53-6.06,5.74-11.27,9.63-15.64,3.89-4.37,8.08-7.95,12.57-10.72,4.49-2.78,8.98-4.87,13.47-6.28,4.49-1.4,8.58-2.14,12.28-2.2,3.72-.12,6.74.44,9.05,1.69,2.31,1.25,3.99,2.86,5.04,4.82s1.51,4.06,1.38,6.28c-.13,2.22-.8,4.23-2.01,6.04Z" fill="#e83528"/><path d="m574.47,314.6c.16,1.81.66,3.54,1.5,5.2.83,1.66,1.62,2.89,2.36,3.7-2.51,3.12-5.1,5.4-7.75,6.84-2.2,1.19-4.36,1.87-6.48,2.06-1.17.12-2.42.03-3.75-.28s-2.53-1.2-3.58-2.67c-1.05-1.47-1.8-3.82-2.25-7.07-.09-1.06-.82-1.81-2.17-2.25-1.36-.44-2.86-.7-4.52-.8-1.66-.09-3.01-.14-4.08-.14s-2.37.03-3.92.09c-1.55.06-3.02.31-4.41.75-1.39.44-2.4,1.22-3.01,2.34-.58,1-.94,2.03-1.1,3.09-.16,1.06.02,1.75.55,2.06-1.39,1-2.72,1.87-3.99,2.62-1.27.75-2.51,1.34-3.72,1.78-1.49.56-2.94.84-4.35.84s-2.88-.31-4.43-.94c-.71-.31-1.37-.87-1.98-1.69-.61-.81-.84-1.93-.68-3.37.15-1.44.99-3.25,2.51-5.43.12-.19.76-1.19,1.91-3,1.15-1.81,2.66-4.2,4.53-7.17,1.87-2.96,3.94-6.26,6.21-9.88,2.27-3.62,4.6-7.35,7.01-11.19,2.4-3.84,4.73-7.54,6.98-11.1,2.25-3.56,4.28-6.77,6.09-9.65,1.81-2.87,3.76-5.99,5.85-9.37.66-.31,1.83-.7,3.52-1.17,1.68-.47,3.41-.73,5.18-.8,1.98-.12,3.78.13,5.42.75,1.64.63,2.65,1.87,3.04,3.75.19.75.38,2.19.57,4.31.18,2.12.38,4.68.59,7.68.21,3,.42,6.2.63,9.6.21,3.4.41,6.78.6,10.12.19,3.34.35,6.45.48,9.32.13,2.87.25,5.29.36,7.26.11,1.97.2,3.23.27,3.79Zm-25.58-12.08c1.66-.12,2.77-.59,3.31-1.4.54-.81,1.02-1.75,1.43-2.81.22-.69.39-1.53.49-2.53.1-1,.08-1.89-.07-2.67-.15-.78-.54-1.17-1.17-1.17-.88,0-2.02.61-3.45,1.83-1.43,1.22-2.4,2.45-2.93,3.7-.57,1.19-.84,2.34-.8,3.47.04,1.12,1.1,1.66,3.18,1.59Z" fill="#e83528"/><path d="m644.25,302.51c-.27.06-.74.41-1.41,1.03-.67.62-1.21,1.28-1.62,1.97-.64,1-.81,1.81-.51,2.44.8,1.56,1.9,3.39,3.28,5.48,1.38,2.09,2.81,4.07,4.3,5.95,1.48,1.87,2.81,3.31,3.99,4.31-2.1,3-4.64,5.39-7.62,7.17-2.98,1.78-5.93,2.64-8.85,2.58-2.92-.06-5.36-1.37-7.34-3.93-.25-.37-.7-1.2-1.35-2.48-.65-1.28-1.37-2.79-2.18-4.54-.81-1.75-1.61-3.5-2.42-5.25-.81-1.75-1.5-3.28-2.07-4.59-.57-1.31-.93-2.12-1.08-2.44-.68-1.56-1.69-1.9-3.04-1.03-1.35.87-2.59,2.69-3.73,5.43-.65,1.62-1.24,3.48-1.76,5.57-.53,2.09-.88,3.95-1.06,5.57-.18,1.62-.14,2.59.13,2.9-1.64,1-3.56,1.94-5.78,2.81-2.22.87-4.61,1.41-7.17,1.59-.96.06-1.97-.19-3.03-.75-1.07-.56-1.85-1.48-2.33-2.76-.49-1.28-.45-2.89.12-4.82.16-.5.57-1.81,1.23-3.93.66-2.12,1.47-4.73,2.45-7.82.97-3.09,2-6.29,3.07-9.6,1.08-3.31,2.07-6.43,3-9.37.92-2.94,1.97-6.21,3.15-9.84,1.2-3.68,2.1-6.76,2.72-9.23.61-2.47.48-4.36-.41-5.67-.8-1.19-1.13-2.9-1-5.15.14-2.25.56-4.37,1.27-6.37.23.06.95.14,2.17.23,1.22.09,2.4.2,3.55.33.81,0,1.99-.02,3.53-.05,1.54-.03,3.19-.08,4.96-.14,1.77-.06,3.41-.11,4.92-.14,1.51-.03,2.65-.08,3.42-.14.56,0,1.61-.01,3.15-.05,1.54-.03,3.34-.05,5.4-.05s4.15.02,6.26.05c2.11.03,4.05.11,5.83.23,1.77.13,3.12.28,4.06.47,3.88.75,6.62,2.12,8.21,4.12,1.6,2,2.42,4.4,2.48,7.21.06,2.81-.36,5.87-1.25,9.18-.79,2.81-2.05,5.75-3.8,8.8-1.74,3.06-3.95,5.9-6.61,8.52s-5.74,4.68-9.22,6.18Zm-21-20.14c-.65,2-.66,3.48-.04,4.45.62.97,1.31,1.55,2.06,1.73,1.04.25,2.47.27,4.29.05,1.82-.22,3.71-.66,5.67-1.31,1.96-.66,3.72-1.51,5.29-2.58,1.56-1.06,2.57-2.28,3.01-3.65.59-1.81.29-3.2-.89-4.17-1.18-.97-2.88-1.58-5.07-1.83-2.2-.25-4.48-.19-6.85.19-1.83.25-3.4,1.03-4.69,2.34-1.3,1.31-2.22,2.9-2.77,4.78Z" fill="#e83528"/><path d="m738.61,292.02c-1.26,5.81-3.2,10.96-5.82,15.46-2.62,4.5-5.66,8.38-9.13,11.66-3.47,3.28-7.17,5.96-11.1,8.06-3.93,2.09-7.88,3.65-11.87,4.68-3.99,1.03-7.76,1.55-11.32,1.55s-7.03-.47-10.41-1.41c-3.38-.94-6.39-2.4-9.01-4.4-2.63-2-4.66-4.59-6.09-7.77-1.43-3.18-2.03-6.98-1.78-11.38.24-4.4,1.62-9.51,4.13-15.32,2.12-5,4.89-9.66,8.3-14,3.41-4.34,7.23-8.12,11.46-11.33,4.23-3.22,8.69-5.71,13.39-7.49,4.7-1.78,9.37-2.61,14.01-2.48.31,0,.86-.23,1.63-.7.78-.47,1.77-.92,2.97-1.36,1.2-.44,2.54-.59,3.99-.47,2.73.25,5.32,1.41,7.77,3.47,2.45,2.06,4.53,4.79,6.24,8.2,1.7,3.4,2.82,7.26,3.36,11.57.54,4.31.29,8.8-.73,13.49Zm-43.32,24.07c2.21-.06,4.38-.37,6.53-.94s4.25-1.59,6.3-3.09c2.05-1.5,4-3.62,5.86-6.37,1.86-2.75,3.52-6.28,4.99-10.58,1.04-3,1.32-5.9.86-8.71-.46-2.81-1.59-5.2-3.38-7.17-1.8-1.97-4.21-3.11-7.23-3.42-3.25-.37-6.23-.05-8.94.98-2.71,1.03-5.15,2.53-7.32,4.5-2.17,1.97-4.06,4.17-5.66,6.6-1.6,2.44-2.9,4.9-3.9,7.4-1.77,4.31-2.52,7.84-2.22,10.58.29,2.75,1.19,4.87,2.71,6.37,1.51,1.5,3.32,2.53,5.41,3.09,2.1.56,4.09.81,5.99.75Z" fill="#e83528"/><path d="m792.18,313.66c.59.69.69,2.05.32,4.07-.38,2.03-1.17,4.14-2.38,6.32-.96,1.81-2.21,3.54-3.75,5.2-1.54,1.66-3.17,2.64-4.89,2.95-.67.12-2.13.2-4.38.23-2.26.03-4.9.03-7.92,0-3.02-.03-6.07-.06-9.15-.09-3.08-.03-5.83-.03-8.24,0-2.42.03-4.14.11-5.18.23-2.7.44-5.36.59-7.97.47-2.62-.13-4.35-.5-5.21-1.12.72-.87,1.53-2.2,2.42-3.98.89-1.78,1.77-3.73,2.65-5.85.88-2.12,1.6-4.15,2.17-6.09l18.37-57.7c.73-.12,1.94-.16,3.64-.09,1.7.06,3.43.34,5.21.84,1.96.5,3.56,1.44,4.8,2.81,1.24,1.37,1.7,3.12,1.39,5.25-.1.69-.45,2.05-1.04,4.07-.6,2.03-1.33,4.42-2.19,7.17-.86,2.75-1.78,5.56-2.74,8.43-.96,2.87-1.85,5.56-2.66,8.06-.81,2.5-1.76,5.31-2.83,8.43-.83,2.37-1.28,4.51-1.34,6.42-.06,1.9.27,3.39.99,4.45.55.81,1.36,1.38,2.45,1.69,1.08.31,2.48.53,4.19.66.73.06,1.9.06,3.51,0,1.61-.06,3.41-.17,5.4-.33,1.99-.16,3.97-.36,5.96-.61,1.99-.25,3.75-.53,5.29-.84,1.54-.31,2.58-.66,3.14-1.03Z" fill="#e83528"/><path d="m803.4,333.05c-2.52-.5-3.83-2.31-3.9-5.43-.08-3.12.63-6.99,2.14-11.62.18-.56.62-1.97,1.32-4.21.7-2.25,1.58-5.04,2.63-8.38,1.05-3.34,2.2-6.95,3.42-10.82,1.23-3.87,2.44-7.74,3.63-11.62,1.2-3.87,2.29-7.45,3.3-10.73,1-3.28,1.82-5.98,2.45-8.1.63-2.12.98-3.4,1.06-3.84,1-.19,2.46-.23,4.4-.14s3.89.41,5.88.94c1.98.53,3.59,1.41,4.81,2.62,1.23,1.22,1.62,2.89,1.18,5.01-.2,1-.66,2.7-1.38,5.11-.72,2.4-1.6,5.25-2.63,8.52-1.03,3.28-2.15,6.76-3.35,10.44-1.2,3.69-2.38,7.32-3.54,10.91-1.17,3.59-2.24,6.9-3.23,9.93-.98,3.03-1.79,5.56-2.42,7.59-.63,2.03-.98,3.26-1.06,3.7-.3,1.31-.36,2.26-.18,2.86.18.59.35,1.33.5,2.2-2.11,1.69-4.49,3.06-7.15,4.12-2.66,1.06-5.29,1.37-7.89.94Z" fill="#e83528"/><path d="m907.47,266.73c-.22,1.06-.73,2.86-1.52,5.39-.79,2.53-1.75,5.54-2.89,9.04-1.14,3.5-2.33,7.18-3.59,11.05s-2.52,7.71-3.79,11.52-2.43,7.27-3.47,10.4c-1.05,3.12-1.89,5.67-2.53,7.63s-.97,3.08-.99,3.32c-.04.5-.39,1.3-1.06,2.39-.67,1.09-1.5,2.12-2.5,3.09-1,.97-2.06,1.55-3.19,1.73-1.08.25-2.47.26-4.18.05-1.71-.22-3.33-.72-4.85-1.5-1.53-.78-2.58-1.92-3.15-3.42-.34-.87-.88-2.14-1.62-3.79-.74-1.65-1.56-3.47-2.45-5.43-.89-1.97-1.77-3.87-2.64-5.71-.87-1.84-1.59-3.43-2.15-4.78-.56-1.34-.92-2.17-1.07-2.48-.28-.87-.91-1.76-1.9-2.67-.99-.9-1.89-1.23-2.72-.98-.83.25-1.64,1.02-2.43,2.29-.79,1.28-1.48,2.64-2.07,4.07-.43.94-.95,2.36-1.57,4.26-.62,1.91-1.24,3.86-1.86,5.85-.62,2-1.16,3.62-1.63,4.87-.77,2.19-.77,4.28.02,6.28-.6.31-1.76.8-3.47,1.45-1.71.66-3.49,1.23-5.34,1.73-1.85.5-3.36.72-4.52.66-1.96-.13-3.39-1.16-4.29-3.09-.9-1.94-.92-4.34-.04-7.21.18-.56.68-2.14,1.49-4.73.81-2.59,1.83-5.82,3.06-9.7,1.23-3.87,2.57-8.06,4.03-12.55s2.89-8.95,4.29-13.35c1.4-4.4,2.68-8.43,3.83-12.08,1.15-3.65,2.44-7.66,3.86-12.04,3.85-.12,6.97.16,9.37.84,2.4.69,4.18,1.94,5.34,3.75.53.69,1.22,1.91,2.09,3.65.87,1.75,1.8,3.73,2.8,5.95,1,2.22,1.97,4.42,2.91,6.6.94,2.19,1.77,4.11,2.48,5.76.71,1.66,1.17,2.73,1.39,3.23.59,1.25,1.29,2.23,2.09,2.95.8.72,1.58.95,2.35.7,1.66-.5,3.09-2.59,4.29-6.28l8.64-27.16c.73-.12,1.94-.16,3.64-.09,1.7.06,3.43.34,5.21.84,1.96.5,3.62,1.34,4.99,2.53,1.36,1.19,1.8,2.9,1.32,5.15Z" fill="#e83528"/><path d="m957.58,314.6c.16,1.81.66,3.54,1.5,5.2.83,1.66,1.62,2.89,2.36,3.7-2.51,3.12-5.1,5.4-7.75,6.84-2.2,1.19-4.36,1.87-6.48,2.06-1.17.12-2.42.03-3.75-.28s-2.53-1.2-3.58-2.67c-1.05-1.47-1.8-3.82-2.25-7.07-.09-1.06-.82-1.81-2.17-2.25-1.36-.44-2.86-.7-4.52-.8-1.66-.09-3.01-.14-4.08-.14s-2.37.03-3.92.09c-1.55.06-3.02.31-4.41.75-1.39.44-2.4,1.22-3.01,2.34-.58,1-.94,2.03-1.1,3.09-.16,1.06.02,1.75.55,2.06-1.39,1-2.72,1.87-3.99,2.62-1.27.75-2.51,1.34-3.72,1.78-1.49.56-2.94.84-4.35.84s-2.88-.31-4.43-.94c-.71-.31-1.37-.87-1.98-1.69-.61-.81-.84-1.93-.68-3.37.15-1.44.99-3.25,2.51-5.43.12-.19.76-1.19,1.91-3,1.15-1.81,2.66-4.2,4.53-7.17,1.87-2.96,3.94-6.26,6.21-9.88,2.27-3.62,4.6-7.35,7.01-11.19,2.4-3.84,4.73-7.54,6.98-11.1,2.25-3.56,4.28-6.77,6.09-9.65,1.81-2.87,3.76-5.99,5.85-9.37.66-.31,1.83-.7,3.52-1.17,1.68-.47,3.41-.73,5.18-.8,1.98-.12,3.78.13,5.42.75,1.64.63,2.65,1.87,3.04,3.75.19.75.38,2.19.57,4.31.18,2.12.38,4.68.59,7.68.21,3,.42,6.2.63,9.6.21,3.4.41,6.78.6,10.12.19,3.34.35,6.45.48,9.32.13,2.87.25,5.29.36,7.26.11,1.97.2,3.23.27,3.79Zm-25.58-12.08c1.66-.12,2.77-.59,3.31-1.4.54-.81,1.02-1.75,1.43-2.81.22-.69.39-1.53.49-2.53.1-1,.08-1.89-.07-2.67-.15-.78-.54-1.17-1.17-1.17-.88,0-2.02.61-3.45,1.83-1.43,1.22-2.4,2.45-2.93,3.7-.57,1.19-.84,2.34-.8,3.47.04,1.12,1.1,1.66,3.18,1.59Z" fill="#e83528"/><path d="m470.94,393.1c-.27.06-.74.41-1.41,1.03-.67.62-1.21,1.28-1.62,1.97-.64,1-.81,1.81-.51,2.44.8,1.56,1.9,3.39,3.28,5.48,1.38,2.09,2.81,4.07,4.3,5.95,1.48,1.87,2.81,3.31,3.99,4.31-2.1,3-4.64,5.39-7.62,7.17-2.98,1.78-5.93,2.64-8.85,2.58-2.92-.06-5.36-1.37-7.34-3.93-.25-.38-.7-1.2-1.35-2.48-.65-1.28-1.37-2.79-2.18-4.54-.81-1.75-1.61-3.5-2.42-5.25-.81-1.75-1.5-3.28-2.07-4.59-.57-1.31-.93-2.12-1.08-2.44-.68-1.56-1.69-1.9-3.04-1.03-1.35.88-2.59,2.69-3.73,5.43-.65,1.62-1.24,3.48-1.76,5.57-.52,2.09-.88,3.95-1.06,5.57-.19,1.62-.14,2.59.13,2.9-1.64,1-3.56,1.94-5.78,2.81-2.22.87-4.61,1.41-7.17,1.59-.96.06-1.97-.19-3.04-.75-1.07-.56-1.85-1.48-2.33-2.76-.49-1.28-.45-2.89.12-4.82.16-.5.57-1.81,1.23-3.93.66-2.12,1.47-4.73,2.45-7.82.97-3.09,2-6.29,3.07-9.6,1.08-3.31,2.07-6.43,3-9.37.92-2.93,1.97-6.21,3.15-9.84,1.2-3.68,2.1-6.76,2.72-9.23.61-2.47.48-4.36-.41-5.67-.8-1.19-1.13-2.9-1-5.15.14-2.25.56-4.37,1.27-6.37.23.06.95.14,2.17.24,1.22.09,2.4.2,3.55.33.81,0,1.99-.01,3.53-.05,1.54-.03,3.19-.08,4.96-.14,1.77-.06,3.41-.11,4.92-.14,1.51-.03,2.65-.08,3.42-.14.56,0,1.61-.01,3.15-.05,1.54-.03,3.34-.05,5.4-.05s4.15.02,6.26.05c2.11.03,4.05.11,5.83.23,1.77.13,3.12.28,4.06.47,3.88.75,6.62,2.12,8.22,4.12,1.6,2,2.42,4.4,2.48,7.21.05,2.81-.36,5.87-1.25,9.18-.79,2.81-2.05,5.75-3.8,8.8-1.75,3.06-3.95,5.9-6.61,8.52-2.66,2.62-5.74,4.68-9.22,6.18Zm-21-20.14c-.65,2-.66,3.48-.04,4.45.62.97,1.31,1.55,2.06,1.73,1.04.25,2.47.27,4.29.05,1.82-.22,3.71-.66,5.67-1.31,1.96-.66,3.72-1.51,5.29-2.58,1.56-1.06,2.57-2.28,3.01-3.65.59-1.81.29-3.2-.89-4.17-1.19-.97-2.88-1.58-5.07-1.83-2.2-.25-4.48-.19-6.85.19-1.83.25-3.4,1.03-4.69,2.34-1.3,1.31-2.23,2.9-2.77,4.78Z" fill="#e83528"/><path d="m528.19,405.74c.91-.12,2.07-.28,3.48-.47,1.4-.19,2.76-.42,4.07-.7,1.31-.28,2.24-.61,2.8-.98.59.69.68,2.08.29,4.17-.4,2.09-1.21,4.26-2.44,6.51-1,1.94-2.25,3.75-3.73,5.43-1.49,1.69-3.16,2.72-5.03,3.09-1.6.31-3.38.5-5.33.56-1.96.06-3.92.06-5.9,0-1.98-.06-3.79-.13-5.42-.19-1.63-.06-2.89-.09-3.76-.09s-2.24.01-4.09.05c-1.85.03-3.48.08-4.87.14-1.69.19-3.51.31-5.46.38-1.96.06-3.72,0-5.28-.19-1.56-.19-2.65-.5-3.25-.94.72-.87,1.53-2.2,2.42-3.98s1.77-3.73,2.65-5.85c.88-2.12,1.6-4.15,2.17-6.09l5.38-17.14,2.59-7.96c.73-2.25,1.32-4.12,1.78-5.62.46-1.5.7-2.31.75-2.44.67-2.06,1.29-4.28,1.88-6.65.58-2.37,1.1-4.64,1.55-6.79.45-2.16.8-3.92,1.06-5.29.09-1.06.25-2.11.46-3.14.21-1.03.48-1.95.8-2.76.38.19,1.52.36,3.44.51,1.92.16,4.17.3,6.75.42.19,0,1.09.02,2.7.05,1.61.03,3.61.08,6,.14,2.38.06,4.87.11,7.45.14,2.58.03,4.93.05,7.06.05s3.69-.03,4.71-.09c2.6-.12,4.84-.33,6.71-.61,1.87-.28,3.2-.67,3.99-1.17.55.62.87,1.79.97,3.51.1,1.72-.13,3.51-.67,5.39-.59,1.81-1.56,3.51-2.92,5.1-1.36,1.59-3.23,2.67-5.59,3.23-.87.19-2.19.34-3.95.47-1.76.13-3.44.2-5.04.23-1.6.03-2.74.02-3.4-.05-1.88-.19-3.94.02-6.19.61-2.25.59-4.26,1.38-6.01,2.34-1.75.97-2.84,2.01-3.27,3.14-.41,1.06-.25,1.94.46,2.62.71.69,1.77,1.23,3.17,1.64,1.4.41,2.95.67,4.66.8,1.71.13,3.35.16,4.93.09,1.29-.12,2.79-.34,4.52-.66,1.72-.31,2.83-.62,3.3-.94.59.69.75,1.97.49,3.84-.27,1.87-.91,3.81-1.93,5.81-.84,1.62-1.95,3.12-3.33,4.5-1.38,1.37-3,2.31-4.85,2.81-1.43.37-3.12.66-5.05.84-3.69,0-7,.64-9.94,1.92-2.94,1.28-4.83,2.8-5.64,4.54-.74,1.5-.86,2.87-.36,4.12.5,1.25,1.6,1.94,3.31,2.06,1.17.06,2.67.08,4.53.05,1.85-.03,3.68-.09,5.49-.19,1.81-.09,3.14-.2,3.99-.33Z" fill="#e83528"/><path d="m606.58,405.18c.16,1.81.66,3.54,1.5,5.2.84,1.66,1.62,2.89,2.36,3.7-2.51,3.12-5.1,5.4-7.75,6.84-2.2,1.19-4.36,1.87-6.48,2.06-1.17.12-2.41.03-3.75-.28-1.33-.31-2.53-1.2-3.58-2.67-1.05-1.47-1.8-3.82-2.24-7.07-.09-1.06-.82-1.81-2.17-2.25-1.36-.44-2.86-.7-4.52-.8-1.66-.09-3.01-.14-4.08-.14s-2.37.03-3.92.09c-1.55.06-3.02.31-4.41.75-1.39.44-2.39,1.22-3.01,2.34-.58,1-.94,2.03-1.1,3.09-.16,1.06.02,1.75.55,2.06-1.39,1-2.72,1.87-3.99,2.62-1.27.75-2.51,1.34-3.72,1.78-1.5.56-2.94.84-4.35.84s-2.88-.31-4.43-.94c-.71-.31-1.37-.87-1.98-1.69-.61-.81-.84-1.93-.68-3.37.15-1.44.99-3.25,2.51-5.43.12-.19.76-1.19,1.91-3s2.66-4.2,4.53-7.17c1.87-2.96,3.94-6.26,6.21-9.88,2.27-3.62,4.6-7.35,7.01-11.19,2.4-3.84,4.73-7.54,6.98-11.1,2.25-3.56,4.28-6.77,6.08-9.65,1.81-2.87,3.76-5.99,5.85-9.37.66-.31,1.83-.7,3.52-1.17,1.68-.47,3.41-.73,5.18-.8,1.98-.12,3.78.13,5.42.75,1.64.62,2.65,1.87,3.04,3.75.19.75.38,2.19.57,4.31.18,2.12.38,4.68.59,7.68.21,3,.42,6.2.63,9.6.21,3.4.4,6.78.6,10.12.19,3.34.35,6.45.48,9.32.13,2.87.25,5.29.36,7.26.11,1.97.2,3.23.27,3.79Zm-25.58-12.08c1.66-.12,2.77-.59,3.31-1.4.54-.81,1.02-1.75,1.43-2.81.22-.69.39-1.53.49-2.53.11-1,.08-1.89-.07-2.67-.15-.78-.54-1.17-1.17-1.17-.88,0-2.02.61-3.45,1.83-1.43,1.22-2.41,2.45-2.94,3.7-.57,1.19-.84,2.34-.8,3.47.04,1.12,1.1,1.66,3.18,1.59Z" fill="#e83528"/><path d="m677.05,348.32c4.4.69,7.67,1.92,9.8,3.7,2.14,1.78,3.49,3.83,4.05,6.14.56,2.31.67,4.58.32,6.79-.35,2.22-.77,4.11-1.28,5.67-.65,2-1.74,4.29-3.27,6.88-1.53,2.59-3.49,5.12-5.88,7.59-2.4,2.47-5.19,4.59-8.39,6.37-3.2,1.78-6.83,2.86-10.89,3.23-.71.06-1.6.13-2.68.19-1.08.06-2.05.11-2.9.14-.85.03-1.37.05-1.56.05-2.42.13-4.81.81-7.18,2.06-2.37,1.25-4.46,2.86-6.25,4.82-1.8,1.97-3.12,4.17-3.97,6.6l-1.13,3.47c-.53,1.62-.79,3.11-.79,4.45,0,1.34.04,2.26.13,2.76-1.94,1.37-3.57,2.34-4.88,2.9s-2.84.97-4.61,1.22c-1.43.19-2.91.06-4.42-.37-1.51-.44-2.73-1.27-3.64-2.48-.92-1.22-1.21-2.92-.87-5.1.06-.38.42-1.58,1.08-3.61.66-2.03,1.5-4.56,2.51-7.59,1.01-3.03,2.13-6.35,3.33-9.98,1.21-3.62,2.4-7.24,3.58-10.87,1.18-3.62,2.27-6.99,3.29-10.12,1.03-3.37,1.81-6.21,2.35-8.52.53-2.31.53-3.78-.02-4.4-.95-1.12-1.39-2.87-1.34-5.25.05-2.37.45-4.62,1.21-6.75.23.06.89.14,1.98.24,1.09.09,2.24.2,3.45.33.62,0,1.66-.01,3.11-.05,1.45-.03,3.05-.11,4.81-.23,1.76-.12,3.46-.23,5.12-.33,1.65-.09,2.99-.17,4.01-.23,1.41-.12,3.28-.25,5.6-.38,2.32-.12,4.91-.16,7.76-.09,2.85.06,5.67.31,8.47.75Zm-20.64,29.23c.85.06,1.99-.01,3.4-.23,1.41-.22,2.9-.58,4.47-1.08,1.57-.5,2.97-1.2,4.2-2.11,1.23-.9,2.06-2.01,2.49-3.33.59-1.81.37-3.22-.64-4.21-1.02-1-2.42-1.69-4.2-2.06-1.78-.37-3.56-.53-5.33-.47-2.58.06-5,.77-7.24,2.11-2.25,1.34-3.67,2.92-4.25,4.73-.32,1.19-.19,2.26.4,3.23.59.97,1.49,1.76,2.69,2.39,1.2.63,2.54.97,4.02,1.03Z" fill="#e83528"/><path d="m724.99,405.74c.92-.12,2.07-.28,3.48-.47,1.4-.19,2.76-.42,4.07-.7,1.31-.28,2.24-.61,2.8-.98.59.69.68,2.08.29,4.17-.4,2.09-1.21,4.26-2.44,6.51-1,1.94-2.25,3.75-3.73,5.43-1.48,1.69-3.16,2.72-5.03,3.09-1.6.31-3.38.5-5.33.56-1.96.06-3.92.06-5.9,0-1.98-.06-3.79-.13-5.42-.19-1.64-.06-2.89-.09-3.76-.09s-2.24.01-4.09.05c-1.85.03-3.48.08-4.87.14-1.69.19-3.5.31-5.46.38-1.96.06-3.71,0-5.28-.19-1.56-.19-2.65-.5-3.25-.94.72-.87,1.53-2.2,2.42-3.98s1.78-3.73,2.65-5.85c.88-2.12,1.6-4.15,2.17-6.09l5.38-17.14,2.59-7.96c.73-2.25,1.32-4.12,1.78-5.62.46-1.5.7-2.31.74-2.44.67-2.06,1.3-4.28,1.88-6.65.58-2.37,1.1-4.64,1.55-6.79.45-2.16.8-3.92,1.06-5.29.09-1.06.25-2.11.46-3.14.21-1.03.48-1.95.8-2.76.38.19,1.52.36,3.44.51,1.92.16,4.17.3,6.75.42.19,0,1.09.02,2.7.05,1.61.03,3.61.08,6,.14,2.38.06,4.87.11,7.45.14,2.58.03,4.93.05,7.06.05s3.69-.03,4.71-.09c2.6-.12,4.84-.33,6.71-.61,1.87-.28,3.2-.67,3.99-1.17.55.62.87,1.79.97,3.51s-.13,3.51-.67,5.39c-.59,1.81-1.56,3.51-2.92,5.1-1.36,1.59-3.23,2.67-5.59,3.23-.87.19-2.19.34-3.94.47-1.76.13-3.44.2-5.04.23-1.6.03-2.74.02-3.4-.05-1.88-.19-3.94.02-6.19.61-2.25.59-4.26,1.38-6.01,2.34-1.75.97-2.84,2.01-3.27,3.14-.41,1.06-.25,1.94.46,2.62.71.69,1.77,1.23,3.17,1.64s2.95.67,4.66.8c1.71.13,3.35.16,4.93.09,1.29-.12,2.79-.34,4.52-.66,1.72-.31,2.83-.62,3.3-.94.59.69.75,1.97.49,3.84-.27,1.87-.91,3.81-1.93,5.81-.84,1.62-1.95,3.12-3.33,4.5-1.38,1.37-3,2.31-4.85,2.81-1.43.37-3.12.66-5.05.84-3.69,0-7,.64-9.94,1.92-2.94,1.28-4.83,2.8-5.64,4.54-.74,1.5-.86,2.87-.36,4.12.5,1.25,1.6,1.94,3.31,2.06,1.17.06,2.67.08,4.53.05,1.85-.03,3.68-.09,5.49-.19,1.81-.09,3.14-.2,3.99-.33Z" fill="#e83528"/><path d="m801.03,393.1c-.27.06-.74.41-1.41,1.03-.67.62-1.21,1.28-1.62,1.97-.64,1-.81,1.81-.51,2.44.8,1.56,1.9,3.39,3.28,5.48,1.38,2.09,2.81,4.07,4.3,5.95,1.48,1.87,2.81,3.31,3.99,4.31-2.1,3-4.64,5.39-7.62,7.17-2.98,1.78-5.93,2.64-8.85,2.58-2.92-.06-5.36-1.37-7.34-3.93-.25-.38-.7-1.2-1.35-2.48-.65-1.28-1.37-2.79-2.18-4.54-.81-1.75-1.61-3.5-2.42-5.25-.81-1.75-1.5-3.28-2.07-4.59-.57-1.31-.93-2.12-1.08-2.44-.68-1.56-1.69-1.9-3.04-1.03-1.35.88-2.59,2.69-3.73,5.43-.65,1.62-1.24,3.48-1.76,5.57-.53,2.09-.88,3.95-1.06,5.57-.18,1.62-.14,2.59.13,2.9-1.64,1-3.56,1.94-5.78,2.81-2.22.87-4.61,1.41-7.17,1.59-.96.06-1.97-.19-3.03-.75-1.07-.56-1.85-1.48-2.33-2.76-.49-1.28-.45-2.89.12-4.82.16-.5.57-1.81,1.23-3.93.66-2.12,1.47-4.73,2.45-7.82.97-3.09,2-6.29,3.07-9.6,1.08-3.31,2.07-6.43,3-9.37.92-2.93,1.97-6.21,3.15-9.84,1.2-3.68,2.1-6.76,2.72-9.23.61-2.47.48-4.36-.41-5.67-.8-1.19-1.13-2.9-1-5.15.14-2.25.56-4.37,1.27-6.37.23.06.95.14,2.17.24,1.22.09,2.4.2,3.55.33.81,0,1.99-.01,3.53-.05,1.54-.03,3.19-.08,4.96-.14,1.77-.06,3.41-.11,4.92-.14,1.51-.03,2.65-.08,3.42-.14.56,0,1.61-.01,3.15-.05,1.54-.03,3.34-.05,5.4-.05s4.15.02,6.26.05c2.11.03,4.05.11,5.83.23,1.77.13,3.12.28,4.06.47,3.88.75,6.62,2.12,8.21,4.12,1.6,2,2.42,4.4,2.48,7.21.06,2.81-.36,5.87-1.25,9.18-.79,2.81-2.05,5.75-3.8,8.8-1.74,3.06-3.95,5.9-6.61,8.52-2.66,2.62-5.74,4.68-9.22,6.18Zm-21-20.14c-.65,2-.66,3.48-.04,4.45.62.97,1.31,1.55,2.06,1.73,1.04.25,2.47.27,4.29.05s3.71-.66,5.67-1.31c1.96-.66,3.72-1.51,5.29-2.58,1.56-1.06,2.57-2.28,3.01-3.65.59-1.81.29-3.2-.89-4.17-1.18-.97-2.88-1.58-5.07-1.83-2.2-.25-4.48-.19-6.85.19-1.83.25-3.4,1.03-4.69,2.34-1.3,1.31-2.22,2.9-2.77,4.78Z" fill="#e83528"/><path d="m441.51,483.68c-.27.06-.74.41-1.41,1.03-.67.62-1.21,1.28-1.62,1.97-.64,1-.81,1.81-.51,2.44.8,1.56,1.9,3.39,3.28,5.48,1.38,2.09,2.81,4.07,4.3,5.95,1.48,1.87,2.81,3.31,3.99,4.31-2.1,3-4.64,5.39-7.62,7.17-2.98,1.78-5.93,2.64-8.85,2.58-2.92-.06-5.36-1.37-7.34-3.93-.25-.37-.7-1.2-1.35-2.48-.65-1.28-1.37-2.79-2.18-4.54-.81-1.75-1.61-3.5-2.42-5.25-.81-1.75-1.5-3.28-2.07-4.59-.57-1.31-.93-2.12-1.08-2.44-.68-1.56-1.69-1.9-3.04-1.03-1.35.88-2.59,2.69-3.73,5.43-.65,1.62-1.24,3.48-1.76,5.57-.52,2.09-.88,3.95-1.06,5.57-.19,1.62-.14,2.59.13,2.9-1.64,1-3.56,1.94-5.78,2.81s-4.61,1.41-7.17,1.59c-.96.06-1.97-.19-3.04-.75-1.07-.56-1.85-1.48-2.33-2.76-.49-1.28-.45-2.89.12-4.82.16-.5.57-1.81,1.23-3.93.66-2.12,1.47-4.73,2.45-7.82.97-3.09,2-6.29,3.07-9.6,1.07-3.31,2.07-6.43,3-9.37.92-2.93,1.97-6.21,3.15-9.84,1.2-3.68,2.1-6.76,2.72-9.23s.48-4.36-.41-5.67c-.8-1.18-1.13-2.9-1-5.15.14-2.25.56-4.37,1.27-6.37.23.06.95.14,2.17.24,1.22.09,2.4.2,3.55.33.81,0,1.99-.02,3.53-.05,1.54-.03,3.19-.08,4.96-.14,1.77-.06,3.41-.11,4.92-.14s2.65-.08,3.42-.14c.56,0,1.61-.01,3.15-.05,1.54-.03,3.34-.05,5.4-.05s4.15.02,6.26.05c2.11.03,4.05.11,5.83.23,1.77.13,3.12.28,4.06.47,3.88.75,6.62,2.12,8.21,4.12,1.6,2,2.42,4.4,2.48,7.21.05,2.81-.36,5.87-1.25,9.18-.79,2.81-2.05,5.75-3.8,8.8-1.74,3.06-3.95,5.9-6.61,8.52-2.66,2.62-5.74,4.68-9.22,6.18Zm-20.99-20.14c-.65,2-.66,3.48-.04,4.45.62.97,1.31,1.55,2.06,1.73,1.04.25,2.47.27,4.29.05,1.82-.22,3.71-.66,5.67-1.31,1.96-.66,3.72-1.51,5.29-2.58,1.56-1.06,2.57-2.28,3.01-3.65.59-1.81.29-3.2-.89-4.17-1.18-.97-2.88-1.58-5.07-1.83-2.2-.25-4.48-.19-6.85.19-1.83.25-3.4,1.03-4.69,2.34-1.3,1.31-2.22,2.9-2.77,4.78Z" fill="#e83528"/><path d="m535.87,473.19c-1.26,5.81-3.2,10.96-5.82,15.46-2.62,4.5-5.66,8.38-9.13,11.66-3.47,3.28-7.17,5.96-11.09,8.05-3.93,2.09-7.88,3.65-11.87,4.68-3.99,1.03-7.76,1.54-11.32,1.54s-7.03-.47-10.41-1.41c-3.38-.94-6.39-2.4-9.01-4.4-2.63-2-4.66-4.59-6.09-7.77-1.43-3.18-2.03-6.98-1.78-11.38.24-4.4,1.62-9.51,4.13-15.31,2.12-5,4.89-9.66,8.3-14,3.41-4.34,7.23-8.12,11.46-11.33,4.23-3.22,8.69-5.71,13.39-7.49,4.7-1.78,9.37-2.61,14.01-2.48.31,0,.86-.23,1.63-.7.77-.47,1.77-.92,2.97-1.36,1.2-.44,2.54-.59,3.99-.47,2.73.25,5.32,1.41,7.77,3.47,2.45,2.06,4.53,4.79,6.24,8.2,1.7,3.4,2.82,7.26,3.36,11.57.54,4.31.29,8.81-.73,13.49Zm-43.32,24.07c2.21-.06,4.38-.37,6.53-.94,2.15-.56,4.25-1.59,6.3-3.09,2.05-1.5,4-3.62,5.86-6.37,1.86-2.75,3.52-6.28,4.99-10.58,1.04-3,1.32-5.9.86-8.71-.46-2.81-1.59-5.2-3.38-7.17-1.8-1.97-4.21-3.11-7.23-3.42-3.25-.38-6.23-.05-8.94.98-2.71,1.03-5.15,2.53-7.32,4.5s-4.06,4.17-5.66,6.6c-1.6,2.44-2.9,4.9-3.9,7.4-1.78,4.31-2.52,7.84-2.22,10.58.29,2.75,1.19,4.87,2.71,6.37,1.51,1.5,3.31,2.53,5.41,3.09,2.1.56,4.09.81,5.99.75Z" fill="#e83528"/><path d="m594.2,495.76c.16,1.81.66,3.54,1.5,5.2.83,1.66,1.62,2.89,2.36,3.7-2.51,3.12-5.1,5.4-7.75,6.84-2.2,1.19-4.36,1.87-6.48,2.06-1.16.12-2.41.03-3.75-.28-1.33-.31-2.53-1.2-3.58-2.67-1.05-1.47-1.8-3.83-2.25-7.07-.09-1.06-.82-1.81-2.17-2.25-1.36-.44-2.86-.7-4.52-.8-1.66-.09-3.02-.14-4.08-.14s-2.37.03-3.92.09c-1.55.06-3.02.31-4.41.75-1.39.44-2.4,1.22-3.01,2.34-.58,1-.94,2.03-1.1,3.09-.16,1.06.02,1.75.55,2.06-1.39,1-2.72,1.87-3.99,2.62-1.27.75-2.51,1.34-3.72,1.78-1.49.56-2.94.84-4.35.84s-2.88-.31-4.43-.94c-.71-.31-1.37-.87-1.98-1.69-.61-.81-.84-1.93-.68-3.37.15-1.44.99-3.25,2.51-5.43.12-.19.76-1.19,1.91-3s2.66-4.2,4.53-7.17c1.87-2.96,3.94-6.26,6.21-9.88,2.27-3.62,4.61-7.35,7.01-11.19,2.4-3.84,4.73-7.54,6.98-11.1,2.25-3.56,4.28-6.77,6.08-9.65,1.81-2.87,3.76-5.99,5.85-9.37.66-.31,1.83-.7,3.52-1.17,1.68-.47,3.41-.73,5.18-.8,1.98-.12,3.78.13,5.42.75,1.64.62,2.65,1.87,3.04,3.75.19.75.38,2.19.57,4.31.18,2.12.38,4.68.6,7.68.21,3,.42,6.2.63,9.6.21,3.4.4,6.78.6,10.12.19,3.34.35,6.45.48,9.32.13,2.87.25,5.29.36,7.26s.2,3.23.27,3.79Zm-25.58-12.08c1.66-.12,2.77-.59,3.31-1.4.54-.81,1.02-1.75,1.43-2.81.22-.69.39-1.53.49-2.53.1-1,.08-1.89-.07-2.67-.15-.78-.54-1.17-1.17-1.17-.88,0-2.02.61-3.45,1.83-1.43,1.22-2.41,2.45-2.94,3.7-.57,1.19-.84,2.34-.8,3.47.04,1.12,1.1,1.66,3.18,1.59Z" fill="#e83528"/><path d="m679.63,463.45c-.3,1.87-.72,3.9-1.28,6.09-.56,2.19-1.43,4.82-2.62,7.92-1.19,3.09-2.86,6.88-5.01,11.38-2.91,6.06-7.02,11.13-12.35,15.22-5.33,4.09-11.22,6.76-17.68,8.01-1.81.38-3.86.64-6.16.8-2.3.16-4.57.28-6.82.38-2.25.09-4.27.2-6.05.33-1.66.31-3.61.53-5.83.66-2.23.12-4.28.09-6.15-.09-1.88-.19-3.17-.53-3.88-1.03.78-.87,1.62-2.2,2.51-3.98.89-1.78,1.77-3.73,2.65-5.85.88-2.12,1.6-4.15,2.17-6.09l10.04-31.75c.83-2.56,1.58-4.9,2.24-7.02.66-2.12,1.12-3.78,1.38-4.96.3-1.31.19-2.47-.33-3.47-.52-1-.8-2-.85-3-.11-2.75.33-5.43,1.31-8.06.29.06.97.14,2.03.24,1.06.09,2.29.2,3.69.33,1.54.06,3.96.16,7.26.28,3.3.13,6.68.25,10.13.38,2.04.06,3.82.16,5.34.28,1.52.13,3.09.3,4.7.52,1.62.22,3,.48,4.14.8,3.71,1.06,6.66,2.51,8.84,4.36,2.18,1.84,3.78,3.83,4.81,5.95,1.03,2.12,1.65,4.2,1.86,6.23.21,2.03.18,3.76-.1,5.2Zm-43.13,32.13c2.76-.62,5.58-1.86,8.46-3.7,2.88-1.84,5.5-4.34,7.87-7.49,2.37-3.15,4.1-7.01,5.21-11.57,1.49-5.93,1.28-10.05-.62-12.36-1.91-2.31-4.97-3.5-9.19-3.56-1.17-.06-2.36.72-3.57,2.34-1.22,1.62-2.54,4.25-3.96,7.87-.9,2.37-1.56,4.14-2,5.29-.44,1.16-.76,2.11-.97,2.86-.21.75-.54,1.72-.99,2.9-.67,2.25-1.21,4.2-1.62,5.85-.41,1.66-.81,3.34-1.18,5.06-.37,1.72-.62,3.17-.76,4.36-.12,1.31.24,2.05,1.06,2.2.82.16,1.58.14,2.26-.05Z" fill="#e83528"/><path d="m412.08,574.26c-.27.06-.74.41-1.41,1.03-.67.63-1.21,1.28-1.62,1.97-.64,1-.81,1.81-.51,2.43.8,1.56,1.9,3.39,3.28,5.48,1.38,2.09,2.81,4.07,4.3,5.95,1.48,1.87,2.81,3.31,3.99,4.31-2.1,3-4.64,5.39-7.62,7.17-2.98,1.78-5.93,2.64-8.85,2.58-2.92-.06-5.36-1.37-7.34-3.93-.25-.37-.7-1.2-1.35-2.48-.65-1.28-1.37-2.79-2.18-4.54-.81-1.75-1.61-3.5-2.42-5.25-.81-1.75-1.5-3.28-2.07-4.59s-.93-2.12-1.08-2.44c-.68-1.56-1.69-1.9-3.04-1.03-1.35.88-2.59,2.69-3.73,5.43-.65,1.62-1.24,3.48-1.76,5.57-.52,2.09-.88,3.95-1.06,5.57-.19,1.62-.14,2.59.13,2.9-1.64,1-3.56,1.94-5.78,2.81-2.22.87-4.61,1.41-7.17,1.59-.96.06-1.97-.19-3.04-.75-1.07-.56-1.85-1.48-2.33-2.76-.49-1.28-.45-2.89.12-4.82.16-.5.57-1.81,1.23-3.93.66-2.12,1.47-4.73,2.45-7.82.97-3.09,2-6.29,3.07-9.6,1.08-3.31,2.07-6.43,3-9.37.92-2.93,1.97-6.21,3.15-9.84,1.2-3.68,2.1-6.76,2.72-9.23.61-2.47.48-4.36-.41-5.67-.8-1.19-1.13-2.9-1-5.15.14-2.25.56-4.37,1.27-6.37.23.06.95.14,2.17.24,1.22.09,2.4.2,3.55.33.81,0,1.99-.01,3.53-.05,1.54-.03,3.19-.08,4.96-.14,1.77-.06,3.41-.11,4.92-.14,1.51-.03,2.65-.08,3.42-.14.56,0,1.61-.01,3.15-.05,1.54-.03,3.34-.05,5.4-.05s4.15.02,6.26.05c2.11.03,4.05.11,5.82.23,1.77.13,3.12.28,4.06.47,3.88.75,6.62,2.12,8.22,4.12,1.6,2,2.42,4.4,2.48,7.21.06,2.81-.36,5.87-1.25,9.18-.79,2.81-2.05,5.75-3.8,8.8-1.74,3.06-3.95,5.9-6.61,8.52-2.66,2.62-5.74,4.68-9.22,6.18Zm-21-20.14c-.65,2-.66,3.48-.04,4.45.62.97,1.31,1.55,2.06,1.73,1.04.25,2.47.27,4.29.05,1.82-.22,3.71-.66,5.67-1.31,1.96-.66,3.72-1.51,5.29-2.58,1.56-1.06,2.57-2.28,3.01-3.65.59-1.81.29-3.2-.89-4.17-1.18-.97-2.88-1.58-5.07-1.83-2.2-.25-4.48-.19-6.85.19-1.83.25-3.39,1.03-4.69,2.34-1.3,1.31-2.22,2.9-2.77,4.78Z" fill="#e83528"/><path d="m488.42,586.35c.16,1.81.66,3.54,1.5,5.2.83,1.66,1.62,2.89,2.36,3.7-2.51,3.12-5.1,5.4-7.75,6.84-2.2,1.19-4.36,1.87-6.48,2.06-1.16.12-2.41.03-3.75-.28-1.33-.31-2.53-1.2-3.58-2.67-1.05-1.47-1.8-3.83-2.25-7.07-.09-1.06-.82-1.81-2.17-2.25-1.36-.44-2.86-.7-4.52-.8-1.66-.09-3.02-.14-4.08-.14s-2.37.03-3.92.09c-1.55.06-3.02.31-4.41.75-1.39.44-2.4,1.22-3.01,2.34-.58,1-.94,2.03-1.1,3.09-.16,1.06.02,1.75.55,2.06-1.39,1-2.72,1.87-3.99,2.62-1.27.75-2.51,1.34-3.72,1.78-1.49.56-2.94.84-4.35.84s-2.88-.31-4.43-.94c-.71-.31-1.37-.87-1.98-1.69-.61-.81-.84-1.93-.68-3.37.15-1.43.99-3.25,2.51-5.43.12-.19.76-1.19,1.91-3s2.66-4.2,4.53-7.17c1.87-2.96,3.94-6.26,6.21-9.88,2.27-3.62,4.61-7.35,7.01-11.19,2.4-3.84,4.73-7.54,6.98-11.1,2.25-3.56,4.28-6.77,6.08-9.65,1.81-2.87,3.76-5.99,5.85-9.37.66-.31,1.83-.7,3.52-1.17,1.68-.47,3.41-.73,5.18-.8,1.98-.12,3.78.13,5.42.75,1.64.62,2.65,1.87,3.04,3.75.19.75.38,2.19.57,4.31.18,2.12.38,4.68.6,7.68.21,3,.42,6.2.63,9.6.21,3.4.4,6.78.6,10.12.19,3.34.35,6.45.48,9.32.13,2.87.25,5.29.36,7.26s.2,3.23.27,3.79Zm-25.58-12.08c1.66-.12,2.77-.59,3.31-1.4.54-.81,1.02-1.75,1.43-2.81.22-.69.39-1.53.49-2.53.1-1,.08-1.89-.07-2.67-.15-.78-.54-1.17-1.17-1.17-.88,0-2.02.61-3.45,1.83s-2.41,2.45-2.94,3.7c-.57,1.19-.84,2.34-.8,3.47.04,1.12,1.1,1.65,3.18,1.59Z" fill="#e83528"/><path d="m571.68,547.76c-1.5,2.31-3.2,4-5.11,5.06-1.91,1.06-3.67,1.48-5.28,1.26-1.62-.22-2.78-1.04-3.5-2.48,1.33-.81,1.94-1.7,1.85-2.67-.09-.97-.81-1.78-2.16-2.44-1.35-.66-3.27-.89-5.77-.7-2.54.13-5.31.94-8.33,2.44s-5.82,3.65-8.42,6.46c-2.6,2.81-4.67,6.31-6.22,10.49-1.59,4.31-2.29,7.81-2.1,10.49.19,2.69.85,4.73,1.99,6.13,1.14,1.41,2.42,2.41,3.85,3,1.43.59,2.61.98,3.55,1.17,1.23.25,2.69.42,4.38.52,1.69.09,3.45-.02,5.3-.33,1.85-.31,3.52-.84,5.01-1.59,1.35-.69,3.05-1.61,5.11-2.76,2.06-1.15,4.11-2.45,6.13-3.89,2.03-1.44,3.66-2.9,4.9-4.4,1.66,1.44,2.32,3.47,2,6.09-.32,2.62-1.47,5.43-3.44,8.43-1.97,3-4.62,5.82-7.95,8.48-3.33,2.66-7.23,4.81-11.7,6.46s-9.37,2.42-14.7,2.29c-2.48-.06-5.18-.53-8.11-1.41-2.93-.87-5.71-2.26-8.34-4.17-2.63-1.9-4.76-4.43-6.39-7.59-1.63-3.15-2.37-7.07-2.22-11.76.15-4.68,1.57-10.21,4.26-16.58,2.53-6.06,5.74-11.27,9.63-15.64,3.89-4.37,8.08-7.95,12.57-10.72,4.49-2.78,8.98-4.87,13.47-6.28,4.48-1.4,8.58-2.14,12.28-2.2,3.72-.12,6.74.44,9.05,1.69,2.31,1.25,3.99,2.86,5.04,4.82,1.05,1.97,1.51,4.06,1.38,6.28-.13,2.22-.8,4.23-2.01,6.04Z" fill="#e83528"/><path d="m613.2,586.91c.92-.12,2.07-.28,3.48-.47,1.4-.19,2.76-.42,4.07-.7,1.31-.28,2.24-.61,2.8-.98.59.69.68,2.08.29,4.17-.4,2.09-1.21,4.26-2.44,6.51-1,1.94-2.25,3.75-3.73,5.43-1.49,1.69-3.16,2.72-5.03,3.09-1.6.31-3.38.5-5.33.56-1.96.06-3.92.06-5.9,0-1.98-.06-3.79-.13-5.42-.19-1.64-.06-2.89-.09-3.76-.09s-2.24.01-4.09.05c-1.85.03-3.48.08-4.87.14-1.69.19-3.5.31-5.46.38-1.96.06-3.72,0-5.28-.19-1.56-.19-2.65-.5-3.25-.94.72-.87,1.53-2.2,2.42-3.98.89-1.78,1.77-3.73,2.65-5.85.88-2.12,1.6-4.15,2.17-6.09l5.38-17.14,2.59-7.96c.73-2.25,1.32-4.12,1.78-5.62.45-1.5.7-2.31.74-2.44.67-2.06,1.29-4.28,1.88-6.65.58-2.37,1.1-4.64,1.55-6.79.45-2.16.8-3.92,1.06-5.29.09-1.06.25-2.11.46-3.14.21-1.03.48-1.95.8-2.76.38.19,1.52.36,3.44.51,1.92.16,4.17.3,6.75.42.19,0,1.09.02,2.7.05,1.61.03,3.61.08,6,.14,2.38.06,4.87.11,7.45.14,2.58.03,4.93.05,7.06.05s3.69-.03,4.71-.09c2.6-.12,4.84-.33,6.71-.61,1.87-.28,3.2-.67,3.99-1.17.55.62.87,1.79.97,3.51s-.13,3.51-.67,5.39c-.59,1.81-1.56,3.51-2.92,5.1-1.36,1.59-3.23,2.67-5.59,3.23-.87.19-2.19.34-3.95.47-1.76.13-3.44.2-5.04.23-1.6.03-2.74.02-3.4-.05-1.88-.19-3.94.02-6.19.61-2.25.59-4.26,1.38-6.01,2.34-1.75.97-2.84,2.01-3.27,3.14-.41,1.06-.25,1.94.46,2.62.71.69,1.77,1.23,3.17,1.64s2.95.67,4.66.8c1.71.13,3.35.16,4.93.09,1.29-.12,2.79-.34,4.52-.66,1.72-.31,2.83-.62,3.3-.94.59.69.75,1.97.49,3.84-.27,1.87-.91,3.81-1.93,5.81-.84,1.62-1.95,3.12-3.33,4.5-1.38,1.37-3,2.31-4.85,2.81-1.43.37-3.12.66-5.05.84-3.69,0-7,.64-9.94,1.92-2.94,1.28-4.83,2.8-5.64,4.54-.74,1.5-.86,2.87-.36,4.12.5,1.25,1.6,1.94,3.31,2.06,1.16.06,2.67.08,4.53.05,1.85-.03,3.68-.09,5.49-.19,1.81-.09,3.14-.2,3.99-.33Z" fill="#e83528"/></g><path d="m301.61,683.02c-.22,0-.29-.14-.21-.41l16.29-56.22c.06-.22.2-.33.42-.33h9.98c.22,0,.38.11.48.33l4.35,10.8,10.54-10.8c.23-.22.45-.33.67-.33h10.07c.22,0,.3.11.23.33l-15.96,56.22c-.08.27-.23.41-.44.41h-9.25c-.22,0-.29-.14-.21-.41l11.89-41.74-12.16,12.44-4.94-12.44-12.05,41.74c-.08.27-.23.41-.44.41h-9.25Z" fill="#acd038"/><path d="m342.57,682.61l26.27-56.22c.12-.22.28-.33.5-.33h11.87c.22,0,.32.11.32.33l-6.38,56.22c-.02.27-.17.41-.44.41h-9.08c-.22,0-.32-.14-.29-.41l.81-5.97h-11.13l-2.61,5.97c-.13.27-.31.41-.53.41h-9.08c-.22,0-.29-.14-.21-.41Zm16.58-14.73h7.86l3.24-23,.38-3.03-1.2,3.03-10.28,23Z" fill="#acd038"/><path d="m384.19,683.02c-.16,0-.21-.11-.15-.33l6.75-23.24-1.49-33.06c0-.22.12-.33.34-.33h9.08c.27,0,.4.11.4.33l-.26,22.01,12.45-22.01c.12-.22.28-.33.5-.33h9.17c.22,0,.27.11.15.33l-20.43,32.73-6.68,23.57c-.06.22-.2.33-.42.33h-9.41Z" fill="#acd038"/><path d="m421.91,683.02c-.27,0-.37-.14-.29-.41l16.2-56.22c.06-.22.2-.33.42-.33h9.17c.22,0,.3.11.23.33l-16.04,56.22c-.08.27-.23.41-.44.41h-9.25Z" fill="#acd038"/><path d="m453.02,683.84c-2.89,0-5.34-.75-7.33-2.25-2-1.5-3.38-3.48-4.15-5.93-.77-2.46-.73-5.16.12-8.1l1.45-5.07c.66-2.29,1.71-4.43,3.15-6.42,1.44-1.99,3.12-3.75,5.03-5.28-.83-1.31-1.32-2.85-1.5-4.62-.17-1.77.03-3.67.61-5.69.81-2.84,2.22-5.41,4.22-7.73s4.34-4.16,7.03-5.52c2.68-1.36,5.42-2.05,8.2-2.05s5.11.7,6.97,2.09,3.15,3.23,3.86,5.52c.71,2.29.65,4.86-.16,7.69-.58,2.02-1.46,3.9-2.64,5.65-1.18,1.75-2.57,3.3-4.16,4.66,1.05,1.47,1.71,3.22,1.98,5.24.27,2.02.07,4.17-.58,6.46l-1.45,5.07c-.85,2.95-2.35,5.66-4.5,8.14-2.16,2.48-4.65,4.46-7.47,5.93s-5.71,2.21-8.65,2.21Zm2.82-9.82c1.69,0,3.3-.63,4.84-1.88,1.53-1.25,2.56-2.78,3.07-4.58l1.45-5.07c.5-1.75.35-3.26-.46-4.54-.81-1.28-2.05-1.92-3.75-1.92s-3.32.63-4.88,1.88c-1.56,1.26-2.6,2.78-3.11,4.58l-1.45,5.07c-.5,1.75-.34,3.26.5,4.54.83,1.28,2.09,1.92,3.79,1.92Zm8.05-28.07c1.42,0,2.78-.53,4.1-1.6,1.31-1.06,2.19-2.36,2.63-3.89.44-1.53.31-2.84-.39-3.93-.7-1.09-1.75-1.64-3.17-1.64s-2.8.55-4.15,1.64c-1.35,1.09-2.24,2.4-2.68,3.93-.42,1.47-.27,2.76.45,3.85.72,1.09,1.79,1.64,3.21,1.64Z" fill="#acd038"/><path d="m482.8,683.02c-.22,0-.29-.14-.21-.41l13.38-46.65h-10.64c-.27,0-.37-.13-.29-.41l2.71-9.17c.06-.22.2-.33.42-.33h31.1c.27,0,.38.11.32.33l-2.63,9.17c-.08.27-.23.41-.44.41h-10.72l-13.29,46.65c-.08.27-.23.41-.44.41h-9.25Z" fill="#acd038"/><path d="m507.67,683.02c-.22,0-.29-.14-.21-.41l16.2-56.22c.06-.22.23-.33.5-.33h9.08c.27,0,.38.11.32.33l-6.46,22.26h12.28l6.38-22.26c.06-.22.2-.33.42-.33h9.08c.27,0,.38.11.32.33l-15.96,56.22c-.08.27-.25.41-.53.41h-9.17c-.27,0-.37-.14-.29-.41l6.9-24.06h-12.28l-6.9,24.06c-.08.27-.23.41-.44.41h-9.25Z" fill="#acd038"/><path d="m543.26,693.33l1.46-5.07c1.36,0,2.67-.52,3.92-1.55,1.25-1.04,2.08-2.26,2.49-3.68h-4.58c-.22,0-.3-.11-.23-.33l2.63-9.17c.06-.22.2-.33.42-.33h9.25c.22,0,.3.11.23.33l-2.72,9.49c-.55,1.91-1.51,3.65-2.89,5.24-1.38,1.58-2.95,2.82-4.71,3.72-1.76.9-3.51,1.35-5.26,1.35Z" fill="#acd038"/><path d="m573.8,683.02c-.27,0-.37-.14-.29-.41l2.65-9.25c.03-.11.12-.22.26-.33l28.17-27.74c.52-.49,1.02-1.13,1.49-1.92s.79-1.49.97-2.09c.45-1.58.3-3.04-.46-4.38-.76-1.34-2.02-2.01-3.76-2.01s-3.31.64-4.85,1.92c-1.54,1.28-2.59,2.91-3.15,4.87l-1.15,4.01c-.08.27-.25.41-.53.41h-9.17c-.22,0-.29-.14-.21-.41l1.15-4.01c.88-3.05,2.42-5.84,4.64-8.35,2.22-2.51,4.75-4.5,7.61-5.97,2.85-1.47,5.67-2.21,8.45-2.21,2.95,0,5.4.75,7.37,2.25,1.97,1.5,3.33,3.48,4.07,5.93.74,2.46.71,5.1-.11,7.94-.52,1.8-1.36,3.63-2.51,5.48-1.16,1.85-2.49,3.49-3.99,4.91l-21.67,21.36h18.41c.22,0,.3.11.23.33l-2.65,9.25c-.08.27-.23.41-.44.41h-30.53Z" fill="#acd038"/><path d="m627.41,683.84c-3.49,0-6.36-.75-8.6-2.25-2.24-1.5-3.76-3.49-4.55-5.97-.79-2.48-.75-5.22.11-8.22l7.52-25.94c.86-3,2.39-5.73,4.6-8.18,2.2-2.46,4.85-4.42,7.95-5.89,3.09-1.47,6.36-2.21,9.8-2.21s6.34.74,8.53,2.21c2.2,1.47,3.69,3.44,4.49,5.89.8,2.46.76,5.18-.1,8.18l-7.36,25.94c-.86,3-2.4,5.74-4.61,8.22-2.21,2.48-4.86,4.48-7.93,5.97-3.08,1.5-6.36,2.25-9.85,2.25Zm12.49-16.45l7.36-25.94c.55-1.91.28-3.46-.79-4.66-1.08-1.2-2.76-1.8-5.05-1.8s-4.4.6-6.16,1.8c-1.76,1.2-2.92,2.76-3.47,4.66l-7.44,25.94c-.58,2.02-.33,3.61.75,4.79,1.08,1.17,2.8,1.76,5.14,1.76s4.33-.58,6.11-1.76c1.78-1.17,2.96-2.77,3.54-4.79Z" fill="#acd038"/><path d="m650.64,683.02c-.27,0-.37-.14-.29-.41l2.65-9.25c.03-.11.12-.22.26-.33l28.17-27.74c.52-.49,1.02-1.13,1.49-1.92s.79-1.49.97-2.09c.45-1.58.3-3.04-.46-4.38-.76-1.34-2.02-2.01-3.76-2.01s-3.31.64-4.85,1.92c-1.54,1.28-2.59,2.91-3.16,4.87l-1.15,4.01c-.08.27-.25.41-.53.41h-9.17c-.22,0-.29-.14-.21-.41l1.15-4.01c.88-3.05,2.42-5.84,4.64-8.35,2.22-2.51,4.75-4.5,7.61-5.97,2.85-1.47,5.67-2.21,8.45-2.21,2.95,0,5.4.75,7.37,2.25,1.97,1.5,3.33,3.48,4.07,5.93.74,2.46.71,5.1-.11,7.94-.52,1.8-1.36,3.63-2.51,5.48-1.16,1.85-2.49,3.49-3.99,4.91l-21.67,21.36h18.41c.22,0,.29.11.23.33l-2.65,9.25c-.08.27-.23.41-.44.41h-30.53Z" fill="#acd038"/><path d="m701.46,683.02c-.22,0-.29-.14-.21-.41l2.75-9.57h-17.68c-.22,0-.29-.14-.21-.41l2.58-9,28.52-37.24c.17-.22.37-.33.58-.33h9.25c.16,0,.21.11.15.33l-10.5,36.91h5.73c.27,0,.37.14.29.41l-2.56,8.92c-.08.27-.23.41-.45.41h-5.81l-2.75,9.57c-.08.27-.23.41-.44.41h-9.25Zm-3.02-19.72h8.35l5.12-17.84-13.46,17.84Z" fill="#acd038"/></svg>