<?xml version="1.0" encoding="UTF-8"?><svg id="a" xmlns="http://www.w3.org/2000/svg" width="421.87" height="693.74" viewBox="0 0 421.87 693.74"><g id="b"><g id="c"><path d="m259.01,196.59l33.97-22.64c2.51-1.67,3.89-4.6,3.58-7.6l-14.87-143.92c-.03-.31-.36-.51-.65-.38-5.49,2.35-29.23,21.37-45.28,33.55" fill="none" stroke="#fff" stroke-linecap="round" stroke-miterlimit="10" stroke-width="40"/></g></g><polygon points="140.66 493.47 135.28 485.44 106.5 478.07 101.63 507.17 107.38 515.76 140.66 493.47" fill="#fff"/><polygon points="112.51 450.59 83.96 444.56 78.85 472.31 91.14 490.66 99.63 467.03 124.79 468.93 112.51 450.59" fill="#fff"/><path d="m118.43,496.3l52.52,78.96c.14.21.14.48-.02.69-3.65,4.79-44.71,60.44.25,87.43,0,0,31.72,18.37,59.09-8.54.85-.84,1.54-1.84,2.06-2.92l10.77-22.15s6.21-10.68,17.33-16.32,42.82-18.59,49.06-41.37l1.05-19.11s-3-5.9,15.95-28.73c1.07-1.29,1.49-3,1.12-4.64-2.19-9.92-8.16-45.38,17.45-49.75.46-.08.75-.55.58-.98-1.75-4.46-8.46-26.66,12.04-66.16l1.55-22.32s-2.73-10.24,34.48-59.05c0,0,10.24-13.31,2.73-29.7l-8.53-28.67s-2.05-9.56-12.63-12.29c-9.52-2.46-81.74-29.5-96.15-34.9-1.65-.62-3.17-1.54-4.49-2.71l-13.95-12.45c-2.3-2.05-4.37-4.35-6.17-6.85l-21.36-29.64s-8.26-9.7-19.4-13.29c-9.91-3.2-42.26-18.37-49.29-21.69-.99-.47-2.05-.76-3.14-.86-1.25-.11-3.05-.19-4.97-.02-1.14.1-2.2.67-2.91,1.57l-76.17,97.5c-.77.98-1.41,2.04-1.92,3.17-6.69,14.69-54.34,119.87-50.42,125.75l51.56,76.36" fill="none" stroke="#fff" stroke-miterlimit="10" stroke-width="40"/><polygon points="101.99 434.9 88.62 414.94 55.34 437.23 68.33 456.63 76.55 433.02 101.99 434.9" fill="#fff"/></svg>